<svg width="356" height="90" viewBox="0 0 356 90" fill="none" xmlns="http://www.w3.org/2000/svg"><mask id="a" maskUnits="userSpaceOnUse" x="-98" y="-190" width="454" height="455"><path d="M141.86 264.14L355.64 24.7 116.18-189.1-97.6 50.37l239.46 213.77z" fill="#fff"/></mask><g mask="url(#a)"><path d="M40.07 183.6c23.64 18.86 55.72 18.55 82.91 9.17 16.65-5.73 32.02-14.6 46.92-23.82 15.65-9.71 31.23-19.65 46.86-29.45 14.78-9.25 32.18-17.7 45.78-28.74 11.61-9.42 22.86-29.42 24.74-43.08 4.25-30.98-1.97-53.53-21.14-75.9-11.9-13.92-31.23-26.02-44.66-38.45-20.42-18.96-41.3-39.65-65.73-53.52-12.47-7.08-26.17-12.22-40.38-14.08-15.16-2.01-30.88 1.12-45.06 6.27-15.3 5.58-29.6 12.24-41.56 23.58C6.6-63.43-5.8-33.62-9.75-3.54c-4.24 32.41.4 65.26 7.03 97.1 6.82 32.49 15.44 68.26 42.79 90.04z" fill="#FFE000"/></g></svg>