<svg width="347" height="90" viewBox="0 0 347 90" fill="none" xmlns="http://www.w3.org/2000/svg"><mask id="a" maskUnits="userSpaceOnUse" x="-107" y="-190" width="454" height="455"><path d="M132.86 264.14L346.64 24.7 107.18-189.1-106.6 50.37l239.46 213.77z" fill="#fff"/></mask><g mask="url(#a)"><path d="M28.01 182.55c23.38 19.19 55.46 19.33 82.78 10.34 16.73-5.5 32.22-14.13 47.25-23.15 15.79-9.48 31.51-19.2 47.28-28.78 14.9-9.04 32.43-17.24 46.18-28.09 11.74-9.25 23.28-29.09 25.35-42.72 4.68-30.92-1.2-53.55-20.06-76.2-11.7-14.08-30.86-26.45-44.12-39.08-20.14-19.24-40.72-40.23-64.96-54.44-12.37-7.25-26-12.6-40.17-14.65-15.13-2.23-30.89.68-45.15 5.63-15.38 5.36-29.77 11.82-41.88 22.98C-1.94-64.93-14.76-35.3-19.13-5.28c-4.7 32.35-.54 65.26 5.64 97.19 6.36 32.58 14.47 68.47 41.5 90.64z" fill="#E9BBCC"/></g></svg>