<svg width="267" height="90" viewBox="0 0 267 90" fill="none" xmlns="http://www.w3.org/2000/svg"><mask id="a" maskUnits="userSpaceOnUse" x="0" y="-123" width="322" height="329"><path d="M.35 127.14l238.8 78.07 82.2-249.93-238.8-78.07L.35 127.14z" fill="#fff"/></mask><g mask="url(#a)"><path d="M56.16 91.95c-2.34 24.63-20.43 16.86-2.44 30.89 11 8.6 23.74 18.4 36.33 24.21 13.22 6.1 26.57 12.03 39.85 18.06 12.54 5.72 25 12.1 38.23 16.19 11.29 3.5 23.46 4.86 35.01.88 23.5-8.1 37.25-32.15 43.86-55.38 4.13-14.44 18.83-20.06 21.31-34.85 3.8-22.5 5.05-65.08 3.72-87.94-.67-11.67-12.08-13.65-16.97-24.09-5.22-11.15-14.1-20.32-23.65-27.51-10.33-7.76-20.93-14.34-33.65-17.19-23.54-5.27-48.75.08-70.48 11.26-23.41 12.06-44.86 32.35-63.19 51.48C45.4 17.51 45.27 66.2 56.16 91.95z" fill="#FFE000"/></g><path d="M125.17 47.83c-.93 1.34-2.22 1.95-4.08 1.95a4.47 4.47 0 01-4.65-4.63 4.51 4.51 0 014.6-4.64c2.79 0 4.7 2.01 4.7 4.8 0 .2-.05.3-.05.5h-7.13c.2 1.35 1.24 2.07 2.48 2.07.93 0 1.6-.26 2.22-.88l1.91.83zM123.52 44c-.31-1.03-1.24-1.64-2.43-1.64-1.09 0-1.97.51-2.38 1.64h4.8zM129.3 45.71c-1.4-.72-2.17-1.6-2.17-2.73 0-1.39 1.2-2.52 2.9-2.52 1.19 0 2.22.51 2.94 1.5l-1.34 1.38c-.52-.51-1.03-.82-1.55-.82-.47 0-.78.2-.78.52 0 .3.31.46.78.72l.83.4c1.5.78 2.27 1.5 2.27 2.84 0 1.6-1.24 2.78-3.2 2.78-1.3 0-2.33-.51-3.1-1.49l1.34-1.5c.52.62 1.24 1.04 1.86 1.04.52 0 .98-.31.98-.72 0-.37-.36-.67-.98-.98l-.78-.42zM137.42 48.5c0 .67-.52 1.28-1.24 1.28-.67 0-1.3-.61-1.3-1.28 0-.72.63-1.24 1.3-1.24.67-.05 1.24.52 1.24 1.24zM140.98 37.57h2.23l2.79 8.35 2.79-8.35H151l2.01 12h-2.17L149.56 42l-2.53 7.58h-2.02L142.48 42l-1.34 7.58h-2.22l2.06-12zM162.95 47.83c-.93 1.34-2.23 1.95-4.09 1.95a4.47 4.47 0 01-4.65-4.63 4.51 4.51 0 014.6-4.64c2.8 0 4.7 2.01 4.7 4.8 0 .2-.05.3-.05.5h-7.18c.2 1.35 1.24 2.07 2.48 2.07.93 0 1.6-.26 2.22-.88l1.97.83zm-1.6-3.82c-.32-1.03-1.25-1.64-2.44-1.64-1.08 0-1.96.51-2.37 1.64h4.8zM171.94 48.6a3.64 3.64 0 01-2.74 1.18c-2.27 0-4.24-1.9-4.24-4.63 0-2.78 1.86-4.64 4.19-4.64 1.08 0 1.96.41 2.79 1.19v-4.38h2.22v12.26h-2.22v-.98zm-4.76-3.5c0 1.49 1.04 2.62 2.38 2.62 1.34 0 2.43-1.03 2.43-2.62 0-1.55-1.03-2.63-2.43-2.63-1.45 0-2.38 1.18-2.38 2.63zM178.7 38.5c0 .77-.61 1.4-1.39 1.4-.82 0-1.4-.73-1.4-1.55 0-.78.68-1.34 1.4-1.34.78 0 1.4.67 1.4 1.5zm-2.52 2.16h2.22v8.87h-2.22v-8.87zM189 47.93a4.8 4.8 0 01-4.04 1.85c-3.05 0-4.96-2.06-4.96-4.63 0-2.63 2.07-4.7 5.01-4.7 1.76 0 3.2.73 4.09 2.02l-1.86 1.03a2.78 2.78 0 00-2.23-1.03c-1.7 0-2.79 1.18-2.79 2.68 0 1.5 1.03 2.57 2.69 2.57.98 0 1.76-.36 2.33-1.03l1.75 1.24zM197.67 48.6a3.64 3.64 0 01-2.74 1.18c-2.27 0-4.23-1.9-4.23-4.63 0-2.78 1.86-4.64 4.18-4.64 1.09 0 1.97.41 2.8 1.19v-.98h2.22v8.86h-2.23v-.98zm-4.75-3.5c0 1.49 1.03 2.62 2.38 2.62 1.34 0 2.42-1.03 2.42-2.62 0-1.55-1.03-2.63-2.42-2.63-1.45 0-2.38 1.18-2.38 2.63zM203.51 41.8c.42-.93 1.14-1.34 1.86-1.34.47 0 .78.1.98.2l-.67 1.91a1.3 1.3 0 00-.67-.2c-.62 0-1.13.72-1.19 2.06-.05.46-.05 1.03-.05 1.49v3.6h-2.22v-8.86h1.91l.05 1.14zM215.7 47.83c-.92 1.34-2.21 1.95-4.07 1.95a4.47 4.47 0 01-4.66-4.63 4.51 4.51 0 014.6-4.64c2.8 0 4.7 2.01 4.7 4.8 0 .2-.05.3-.05.5h-7.18c.2 1.35 1.24 2.07 2.48 2.07.93 0 1.6-.26 2.22-.88l1.97.83zM214.07 44c-.31-1.03-1.25-1.64-2.43-1.64-1.09 0-1.97.51-2.38 1.64h4.8zM220.46 48.75a1.03 1.03 0 01-2.06 0c0-.51.46-1.03 1.03-1.03.57 0 1.03.47 1.03 1.03zM231.68 47.72c0 1.45-.1 2.63-.78 3.66-.77 1.03-2.06 1.6-3.77 1.6-2.53 0-3.77-1.03-4.6-2.73h1.24c.67 1.18 1.7 1.75 3.26 1.75 1.5 0 2.53-.52 3.1-1.5.36-.61.36-1.23.36-1.9v-.67a4.4 4.4 0 01-3.57 1.7 4.44 4.44 0 01-4.54-4.48 4.6 4.6 0 014.54-4.59c1.6 0 2.64.67 3.57 1.75v-1.54h1.19v6.95zm-8.12-2.62c0 1.75 1.24 3.3 3.62 3.3a3.28 3.28 0 003.41-3.4c0-2.17-1.6-3.51-3.46-3.51a3.61 3.61 0 00-3.57 3.6zM242.94 45.15a4.6 4.6 0 01-4.65 4.63 4.6 4.6 0 01-4.65-4.63 4.63 4.63 0 014.65-4.7 4.6 4.6 0 014.65 4.7zm-8.06 0a3.47 3.47 0 106.93 0 3.6 3.6 0 00-3.47-3.6 3.56 3.56 0 00-3.46 3.6zM244.23 40.66h1.25l2.94 6.45 2.95-6.45h1.24l-4.09 8.87h-.2l-4.09-8.87zM85.4 59.86c0 .55.24.74.67.74.19 0 .19 0 .19-.06v-1.36c0-.12 0-.12-.19-.12-.49.06-.68.24-.68.8zm-3.47 0c-.06.3.13.37.37.43.13 0 .13 0 .13-.06l.12-.68h-.12c-.19 0-.44 0-.5.3zm-1.17-.87c0 .07 0 .07 0 0l.06.68.43-.55v-.06l-.5-.07zm-2.16-.18c-.07.19 0 .37.24.5.19.05.19.05.19 0l.25-.5c0-.06 0-.06-.13-.12-.37-.13-.55 0-.55.12zm-9.03-7.7c.12.24.43.3.93.06.5-.25.62-.56.5-.8-.13-.25-.44-.31-.94-.06-.49.24-.61.55-.49.8zm-1.24-8.2l-.61.25.68.24h.06v-.49h-.13zm1.24-7.4c0-.12-.12-.24-.19-.24-.06-.06-.24-.06-.24.06-.06.06 0 .18.12.25.06-.07.19 0 .31-.07zm.99.13c-.25.06-.68.12-.87.12 0 .19.07.3.25.37.19.06.5.06.62-.18v-.31zm5.81-7.09l-.56-.43.13.68v.06H76l.37-.31zm7.73-3.14c0-.19-.19-.31-.5-.31-.18 0-.18 0-.18.12l.06.56c0 .06 0 .06.18.06.37-.06.44-.31.44-.43zm13.16 4.93l.25-.62-.62.3h-.06v.07l.43.25c-.06.06-.06.06 0 0zm6.86 19.72c-.74.98-1.66 1.85-3.02 1.79-1.43-.07-2.35-1.36-3.84-1.11-1.05.18-2.04.8-3.15.37a1.2 1.2 0 01-.3-1.05c-.07-.25-.69-.3-.26-.62-.12-.06-.3 0-.37-.18-.06-.19.19-.5-.12-.62-.25-.06-.5.12-.68-.12-.12-.13-.06-.25-.06-.43.18-.37.62-.68.5-1.11-.32-.25-.2-.74-.2-1.11.2-.86.25-1.79 1.06-2.4l4.51-3.77c.93-.86 2.1-1.47 2.78-2.65.37.5.56 1.24.25 1.85-.62.99-1.67 1.73-2.6 2.47l-3.64 3.02c-.68.62-.87 1.6-.56 2.46.06.44-.25.68-.37 1.05 0 .12.06.25.12.25.19.06.37 0 .5.18 0 .25-.06.43.18.5.13.06.25-.13.25.06-.06.12-.12.18-.06.3.12.25.37.13.5.25.05.25.05.56.3.68.93.19 1.67-.5 2.54-.68 1.36-.43 2.65.13 3.89.43.62.25 1.24.25 1.86.19zm-1.54-16.95c.12 1.23-.87 1.79-1.6 2.53l-3.22 2.7-5.69 4.75c-.8.87-.86 2.16-1.05 3.33.06.37.43.56.3.93l-.8 1.41c.07.56.75.25 1 .62 0 .19-.13.43.06.62.12.18.55-.06.3.24a.19.19 0 000 .25c.13.12.25.12.31.3-.06.25-.06.56.07.75.99 1.05 2.65-.25 3.7.74.25.24.25.68.2.98-.57 1.6-3.78 1.67-2.67 3.95.19.37.62.61 1.05.68.37.06.68-.13.93-.19.12 0 .12.12.12.12v.07c-.92.67-2.16 1.6-3.4.92-.61-.37-.92-1.17-.8-1.97.37-1.23 1.86-1.54 2.54-2.6.18-.3.12-.67-.07-.98-.24-.43-.74-.49-1.23-.61-.8 0-1.98.49-2.35-.43-.13-.37.25-.93-.31-1.05-.06-.13-.25-.19-.19-.31 0-.12.19-.12.13-.25-.13-.06-.25 0-.37-.12-.31-.3.55-.68-.07-.92-.3-.07-.68.18-.92-.19-.13-.3.12-.55.24-.8.19-.43.8-.74.62-1.3l-.3-.49c.06-1.1.24-2.22.55-3.33.37-1.17 1.55-1.84 2.47-2.65l4.76-3.94 3.4-2.9c.62-.55 1.11-1.1 1.11-1.97.19-.06.31.19.44.25.43.24.68.43.74.86zm-2.29-2.22c.06 1.23-.93 2.04-1.73 2.78l-7.85 6.47c-.68.67-1.73 1.17-2.1 2.15-.5 1.3-.68 2.72-.93 4.13-.12 1.05-1.11 1.91-1.98 2.28-.68.25-1.54.13-2.28.19H80.7a.9.9 0 00-.56.37l-.12.24c-.31.07-.19-.24-.25-.37 0-.61.12-1.23.62-1.54.25-.24.55-.3.92-.37l3.96-.06c.25 0 .37-.12.56-.24l.18-.31c.31-1.97.5-3.95 1.49-5.61.92-1.05 2.04-1.79 3.09-2.71 2.35-1.97 4.82-3.95 7.1-5.98a4.53 4.53 0 001.55-2.4l.06-.25c.5.12 1 .68 1 1.23zm-2.4-1.35a.47.47 0 00-.13.24l-.44 1.23c-.06.19-.06.19.13.31l-.06.06-.62-.55.06-.06c.19.18.25.18.25.12.06-.06.12-.3.18-.3v-.07l-.3-.3c-.13-.13-.13-.13-.2-.07-.18.06-.24.13-.24.19-.06.06-.06.06.13.24l-.07.07-.5-.44.07-.06c.19.13.25.13.43 0l1.05-.5c.19-.11.25-.11.31-.18l-.06.07zm-1.12-.87l-.06.06c-.06.13-.13.19-.19.31l-.12-.06c.18-.25.12-.43-.13-.55-.18-.13-.37-.13-.49 0-.06.12-.06.18.06.3l.25.37c.18.25.18.37 0 .62-.19.25-.56.25-.87.06-.18-.12-.24-.24-.37-.37.06-.12.19-.3.25-.43l.12.06c-.12.25-.12.56.13.68.24.12.43.12.55 0 .13-.12 0-.25-.06-.37l-.12-.18c-.25-.37-.25-.56-.13-.68.19-.25.56-.25.87-.06.12.06.19.18.3.24zm-1.18-.86l-.06.06c-.24-.12-.24-.12-.3-.06-.07.06-.2.25-.44.68-.18.3-.43.61-.99.3-.3-.18-.5-.49-.25-.92.31-.55.44-.68.44-.8.06-.06 0-.06-.19-.25l.06-.12.75.43-.07.13c-.24-.13-.24-.13-.3-.07-.07.07-.2.25-.5.74-.12.19-.19.5.12.68.37.25.56.06.8-.37.2-.37.32-.5.32-.61 0-.07 0-.07-.25-.25l.06-.12.8.55zm-2.47-.3c-.06.05-.12.12-.25.05-.12-.06-.12-.12-.06-.24.06-.13.13-.13.25-.06.12.06.12.12.06.24zm-.68-1.3c0 .06 0 .06-.06.12-.06.12-.06.25-.12.3l-.13-.05c.06-.31-.06-.43-.24-.56-.19-.06-.44 0-.5.13-.06.12 0 .18.12.3l.31.25c.25.19.25.3.19.56-.12.3-.43.43-.8.24-.19-.06-.31-.18-.5-.24.06-.13.12-.31.12-.5h.13c-.06.31 0 .56.25.62.24.12.43 0 .49-.19.06-.18-.06-.24-.19-.37l-.18-.12c-.37-.3-.37-.43-.31-.62.12-.3.43-.43.8-.24.37.24.5.3.62.37zm-1.6-.62c0 .12-.07.37-.07.5h-.12c0-.31 0-.38-.37-.5l-.25-.06c-.06 0-.06 0-.06.06l-.12.56c0 .06 0 .06.06.06h.06c.25.06.3.06.37-.13l.12.07c0 .06-.06.18-.06.24 0 .13-.06.19-.06.25h-.12c.06-.19 0-.25-.19-.25l-.18-.06s-.07 0-.07.06l-.18.62c0 .06 0 .06.06.06l.43.12c.19.07.25 0 .37-.12l.13-.18.12.06c-.06.12-.18.3-.18.43L89.17 27l.06-.12c.24.06.24.06.24 0 0-.07.07-.25.19-.62s.19-.56.19-.68c0-.06 0-.06-.25-.18v-.13l.93.25c.12.06.24.06.3.06zm-1.67-.3v.49h-.13c-.06-.31-.18-.5-.43-.56-.31-.06-.56.25-.68.68-.06.5.12.8.43.8.25.06.5-.06.68-.25l.13.07c-.25.24-.5.37-.8.3a.85.85 0 01-.69-1.04c.06-.44.43-.87 1.05-.74l.44.24zm-1.67-.31v.12c-.25 0-.25 0-.31.06 0 .06-.06.25-.06.68-.07.37-.07.55-.07.68 0 .12 0 .06.25.12v.12l-.93-.06v-.12c.25 0 .31 0 .31-.06 0-.07.06-.25.06-.68.07-.37.07-.56.07-.68 0-.06 0-.06-.25-.12v-.13l.93.07zm-1.12 0h-.06c-.12 0-.18.06-.25.36-.37 1-.43 1.11-.49 1.3h-.19c0-.19-.49-1.17-.61-1.42-.13-.24-.13-.24-.31-.24v-.07h.86v.13h-.12c-.12 0-.12.06-.12.06 0 .06.12.37.24.68l.19.49.18-.5c.13-.24.25-.61.25-.67 0-.06-.06-.06-.25-.06v-.13h.68v.07zm-1.97.36c.06.37-.38.5-.38.5l.07.06.5.5c.11.12.11.12.24.12v.12l-.43.06-.62-.74h-.19c-.12 0-.12 0-.12.06.06.43.06.5.06.56 0 .06.06.06.3.06v.12l-.86.06v-.12c.25-.06.25-.06.25-.12s0-.25-.06-.68c-.06-.37-.06-.55-.06-.68 0-.06-.06-.06-.31-.06v-.12l.99-.13c.18 0 .3 0 .43.07.12.12.19.18.19.36zm-1.61 1.48l-1.36.25v-.12c.25-.06.25-.06.25-.13 0-.12-.07-.24-.13-.67-.06-.37-.12-.56-.12-.68 0-.06-.06-.06-.25-.06v-.13l.93-.18c.12 0 .25-.06.37-.12 0 .12.12.36.12.43l-.12.06c-.12-.31-.19-.31-.56-.25l-.24.06s-.07 0-.07.06l.13.56c0 .06 0 .06.06.06h.06c.25-.06.25-.12.25-.25h.12c0 .07 0 .19.06.25 0 .12.07.19.07.25h-.13c-.06-.19-.12-.25-.3-.19l-.2.06s-.05 0-.05.07l.12.61c0 .06 0 .06.06.06l.43-.06c.19-.06.25-.12.25-.24v-.19h.12c.13.12.13.37.13.5zm-2.84-.67c.06.12.12.18.3.18h.44c.24 0 .43.12.5.3.11.32-.13.63-.5.69-.19.06-.37.06-.56.06-.06-.12-.12-.3-.19-.5l.13-.06c.18.25.37.44.62.31.24-.12.37-.24.3-.43-.06-.18-.18-.18-.36-.18h-.19c-.5 0-.56-.13-.62-.31-.12-.31.13-.62.5-.68.18-.06.37-.06.49-.06 0 0 0 .06.06.12.06.12.06.25.13.31l-.13.06c-.12-.25-.3-.3-.55-.25-.31.13-.44.31-.38.44zm1.17 23.79c2.16.61 4.39 1.29 6.49 2.15 1.3.56 2.6 1.05 3.77 1.79.25.25.56.55.5.99-.38 1.6-2.66 1.78-2.3 3.63.13.68.56 1.3 1.24 1.48.31.12.75.12 1.06 0 .06.12.24.25 0 .3-.93.63-2.1 1.24-3.22.69-.56-.25-.86-.87-1.05-1.42-.25-1.73 1.36-2.22 2.16-3.39.13-.25.19-.5.13-.74a1.8 1.8 0 00-.68-.68 40.83 40.83 0 00-9.7-3.63c-.56-.07-1.43-.37-1.8.24v.06c-.3.07-.19-.3-.19-.43.13-.55.44-.98.93-1.17.87-.3 1.8 0 2.66.13zm-2.29-21.88l-.18.06c-.19-.12-.31-.25-.56-.31l-.93-.5.25.44c.19.3.25.5.31.61.06.07.06.07.3-.06l.07.13-.68.3-.06-.12c.25-.12.25-.12.18-.18 0-.07-.12-.25-.3-.62l-.31-.62c-.07-.06-.07-.06-.25.07l-.06-.13.5-.24s.05.06.12.06l1.23.68-.18-.31c-.19-.31-.25-.5-.31-.62-.06-.06-.06-.06-.31.06l-.06-.12.61-.3.07.11c-.25.13-.25.13-.19.25l.19.37c.3.43.43.8.55.99zm-2.9-.19l1.11.74c.12.12.19.12.37 0l.06.06-.68.43-.06-.12c.25-.12.25-.18.19-.25 0-.06-.25-.24-.31-.24h-.06c-.07.06-.19.12-.38.24-.12.07-.12.13-.12.19.06.18.06.3.06.3.06.07.06.07.25-.05l.06.12-.55.37-.07-.06c.19-.13.19-.19.13-.43l-.25-1.11c-.06-.19-.06-.25-.06-.31l.12-.06c0 .06.13.18.19.18zm-.31 1.85l.06.06-.68.56-.06-.06c.18-.19.18-.19.18-.25l-.92-1.05.55 1.36c0 .06.06.06.06.12l-.12.12s-.06-.06-.12-.06l-1.3-.74.74.87.19.18c.06.06.06.06.24-.12l.07.06-.56.43-.06-.06c.18-.19.18-.19.18-.25-.06-.06-.18-.24-.43-.5-.25-.24-.37-.42-.43-.48-.06-.07-.06-.07-.25.12l-.06-.06.5-.43.05.06 1.18.68-.56-1.36.5-.43.06.06c-.19.18-.19.18-.19.25a2 2 0 00.44.49c.24.25.37.43.43.5.12.05.12.05.3-.07zm-2.85.43c-.18.19-.18.25-.12.25.06.06.25.18.62.55.3.25.56.56.12.99-.24.3-.62.37-.99.06-.5-.43-.61-.55-.68-.62-.06-.06-.06-.06-.24.13l-.07-.06.62-.62.06.06c-.18.19-.18.25-.12.25l.68.61c.12.13.43.31.68 0 .31-.3.19-.49-.25-.86-.3-.24-.43-.37-.55-.43-.06-.06-.06-.06-.25.19l-.06-.07.5-.55.05.12zm-1.48 1.67c-.12.24-.12.24-.06.24.06.06.25.19.56.37.3.25.49.31.55.37.06.06.06 0 .25-.18l.12.06-.5.68-.12-.06c.13-.25.13-.25.07-.25a2.34 2.34 0 00-.5-.3c-.06-.07-.06-.07-.12 0l-.37.55c-.06.06-.06.06 0 .12.24.18.43.25.5.3.05.07.05 0 .24-.18l.06.06-.5.68-.06-.06c.13-.25.13-.25.07-.25a3.95 3.95 0 00-.56-.37c-.3-.24-.5-.3-.56-.37-.06-.06-.06 0-.24.19l-.13-.06.5-.68.06.06c-.12.25-.12.25-.06.25.06.06.18.12.24.18l.13.13c.06.06.06.06.12 0l.37-.56c.06-.06.06-.06-.06-.12l-.12-.13c-.13-.06-.25-.12-.25-.18-.06 0-.06 0-.25.18l-.06-.06.5-.68.18.07zm-.8 3.57c-.06-.12-.19-.3-.25-.3-.06-.07-.12 0-.19.05l-.12-.06.25-.49.12.06c-.06.12-.06.25.06.37.07.06.13.19.25.37.25-.06.25-.06.31-.18.06-.07.06-.19 0-.31l.12.06c0 .18 0 .3-.06.43-.06.12-.12.19-.3.25.05.18.05.3-.07.55-.12.31-.43.37-.68.25-.25-.12-.3-.31-.3-.68h-.44c-.19-.06-.25-.25-.12-.5.12-.24.24-.3.43-.24.18.12.25.25.25.43.18 0 .43 0 .74-.06zm-2.04 1.91c.06.06.24.06.68.19.37.12.55.18.68.18.06 0 .06 0 .18-.25h.13l-.25.8-.12-.06c.06-.24.06-.24 0-.3-.07-.07-.25-.07-.56-.19-.06 0-.06 0-.12.06l-.19.62c0 .06 0 .06.06.12.25.06.5.13.56.13.06 0 .06 0 .18-.25h.13l-.25.8h-.12c.06-.25.06-.25 0-.3-.07-.07-.25-.07-.68-.2a2.82 2.82 0 00-.68-.18c-.07 0-.07 0-.19.25l-.12-.06.24-.8h.13c-.06.24-.06.24 0 .3.06 0 .18.07.3.13l.2.06c.05 0 .05 0 .12-.06l.18-.62c0-.06 0-.06-.06-.12l-.19-.06c-.12-.07-.24-.07-.3-.07-.07 0-.07 0-.19.25h-.12l.24-.8h.13c-.06.37-.06.37 0 .43zm-.68 1.73c.24.06.37.06.5.06v.12c-.32.06-.38.06-.38.19l-.06.24 1.11.19c.13 0 .25.06.25.06.06 0 .06 0 .12-.25h.13l-.19.87h-.12c0-.25 0-.25-.06-.31-.07 0-.13-.06-.25-.06l-1.11-.19-.07.25c0 .06.07.12.31.24l-.06.13c-.12-.06-.25-.06-.43-.13 0-.06 0-.12.06-.12 0-.06 0-.12.06-.12l.13-.87c0-.12.06-.18.06-.3zm-.31 2.1h.12c0 .24 0 .24.06.24.07 0 .19 0 .31.06l1 .06c.05 0 .12 0 .12-.12v-.25c0-.24-.07-.24-.38-.43l.07-.12c.06.06.37.12.5.12l-.13 1.36H69c0-.25 0-.25-.06-.25s-.25-.06-.68-.06c-.37-.06-.62-.06-.68-.06-.06 0-.06 0-.12.24h-.13l.13-.8zm-.13 1.9c.07 0 .25-.06.31-.12l1.18-.5c.18-.06.18-.06.18-.3h.13v.86H69c0-.25-.06-.25-.12-.25s-.3.13-.37.13v.49c0 .19 0 .19.06.19.19.06.31.12.31.12.06 0 .12-.06.12-.25h.13v.68H69c0-.18-.06-.25-.3-.3l-1.12-.44c-.18-.06-.25-.12-.3-.12l.05-.19zm.07 1.36c.12 0 .37-.06.5-.12l.05.12c-.3.12-.3.18-.3.5v.24c0 .06 0 .06.06.06l.55-.06c.06 0 .06 0 .06-.06V45c-.06-.25-.06-.25-.24-.25v-.12c.06 0 .18 0 .24-.07.13 0 .25 0 .25-.06v.13c-.18.06-.25.06-.18.24v.19c0 .06 0 .06.06.06l.62-.06c.06 0 .06 0 .06-.06l-.06-.44c0-.18-.07-.24-.25-.24l-.19-.06v-.13h.5l.18 1.36h-.12c-.06-.25-.06-.25-.12-.25-.07 0-.25 0-.68.06-.38.06-.62.06-.68.13-.07 0-.07 0-.07.24h-.12l-.12-.92c.06-.12 0-.31 0-.37zm.24 1.54h.13c.06.25.06.25.18.25.13 0 .25-.07.68-.13.37-.12.56-.12.68-.18.06 0 .06-.06 0-.31h.13l.18.8h-.12c-.06-.25-.06-.25-.19-.25-.12 0-.24.07-.55.13-.07 0-.07 0-.07.06l.19.62c0 .06 0 .06.12.06.25-.06.5-.13.56-.13.06 0 .06-.06 0-.3h.12l.19.86h-.12c-.07-.25-.13-.25-.19-.25s-.25.06-.68.13a2.4 2.4 0 00-.68.18c-.06 0-.06.06 0 .3h-.12l-.19-.8h.12c.07.25.07.25.19.25.06 0 .19-.06.3-.06l.2-.06c.06 0 .06 0 .06-.12l-.19-.62c0-.06 0-.06-.12-.06l-.19.06c-.12.06-.25.06-.3.06-.07 0-.07.06-.07.31h-.12l-.13-.8zm.8 2.96c.13-.06.38-.19.44-.25l.06.06c-.25.19-.25.25-.18.56l.06.18s.06.06.06 0l.56-.24s.06 0 0-.13v-.06c-.13-.25-.13-.25-.31-.18l-.06-.13c.06 0 .18-.06.24-.12.13-.06.19-.06.25-.12l.06.12c-.18.06-.18.12-.12.3l.06.2s0 .05.06 0l.56-.25c.06 0 .06-.07 0-.31l.12-.06.31.74-.12.06c-.13-.19-.13-.25-.19-.19-.06 0-.25.13-.62.25s-.55.25-.61.25c-.07.06-.07.06 0 .24l-.13.06-.37-.86c0 .12-.12 0-.12-.12zm1.43 1.17c.5-.25.99-.12 1.17.3.25.44.07.87-.43 1.12-.5.24-.99.12-1.17-.31-.25-.43-.07-.93.43-1.11zm.68 2.9c.18-.13.3-.25.37-.31l.06.06c-.18.25-.18.3-.18.37l.18.25.93-.68c.12-.06.18-.13.25-.19.06-.06.06-.06-.13-.3l.06-.07.56.68-.06.06c-.19-.18-.19-.24-.25-.18-.06 0-.12.06-.25.18l-.92.68.18.25c.06.06.13.06.44-.07l.06.13c-.13.06-.25.12-.44.24 0-.06-.06-.06-.06-.12s-.06-.06-.06-.12l-.5-.68c-.12-.06-.18-.12-.24-.18zm1.05 1.35l.06-.06c.19.18.19.18.31.12s.25-.18.31-.24c.37-.31.68-.62.8-.74l.13.12c-.06.18-.13.37-.19.62l-.25 1.04.38-.3c.24-.25.43-.37.49-.44.06-.06.06-.06-.19-.3l.07-.07.5.56-.07.06c-.19-.18-.19-.18-.25-.12s-.25.18-.5.43c-.24.25-.43.37-.49.43s-.06.06.13.25l-.07.06-.37-.37c0-.06 0-.06.07-.12l.3-1.36-.24.25c-.25.24-.44.37-.5.43s-.06.06.13.24l-.07.07-.49-.56zm1.55 1.6c.06-.12.24-.3.24-.37l.13.07c-.19.3-.13.37.12.55l.19.12h.06l.37-.43s0-.06-.06-.06l-.07-.06c-.18-.19-.24-.19-.37-.06l-.06-.06.19-.19c.06-.06.12-.18.18-.25l.06.07c-.12.12-.12.18.07.3l.12.13h.06l.43-.5v-.06l-.3-.24c-.19-.13-.25-.13-.38-.07l-.18.13-.06-.13c.12-.06.3-.24.37-.3l1.05.92-.06.06c-.19-.12-.19-.12-.25-.12-.06.06-.19.18-.43.5-.25.3-.37.42-.44.48-.06.07-.06.07.13.25l-.06.06-.68-.61c-.19 0-.31-.06-.37-.13zm1.17 1.05l.06-.12c.25.12.25.12.31.12.06-.06.19-.25.37-.55.25-.31.31-.5.37-.56.06-.06 0-.06-.18-.24l.06-.07.74.5-.06.06c-.25-.12-.25-.12-.25-.06l-.8 1.1 1.23-.86c.07 0 .07-.06.13-.06l.18.13s0 .06-.06.12l-.37 1.48.68-.93a.89.89 0 00.12-.18c.07-.06 0-.06-.18-.25l.06-.06.62.37-.06.12c-.25-.12-.25-.12-.31-.12-.06.06-.19.25-.37.55-.25.31-.31.5-.37.56 0 .06 0 .06.18.25l-.06.06-.56-.37v-.06l.37-1.3-1.17.86-.68-.49zm2.16 1.42c.13-.19.13-.3.19-.43h.12c-.06.3-.06.37.06.43l.25.12.56-.98.12-.25c0-.06 0-.06-.25-.25l.07-.12.8.43-.06.12c-.25-.12-.25-.12-.31-.06 0 .06-.06.13-.12.25l-.56.99.25.12c.06.06.12 0 .37-.25l.12.06c-.06.07-.12.19-.25.37-.06-.06-.06-.06-.12-.06s-.06-.06-.12-.06l-.75-.37c-.12 0-.24-.06-.37-.06zm1.8.37c.12-.31.55-.25.55-.25v-.06l-.18-.68c-.06-.18-.06-.18-.19-.24l.06-.13.37.19.19.92c0 .06 0 .06.12.06.13.07.13.07.13 0 .18-.43.18-.49.24-.55 0-.06 0-.06-.24-.19l.06-.12.74.3-.06.2c-.25-.07-.25-.07-.25 0-.06.06-.12.24-.25.61-.12.37-.24.55-.24.62 0 .06 0 .06.24.18l-.06.12-.86-.37c-.19-.06-.25-.12-.31-.24-.13-.12-.13-.25-.06-.37zm1.85-.56l.06-.12.8.25-.06.12c-.24-.06-.24-.06-.24 0v.37c.06 0 .18.06.43.12.19.07.19.07.19 0 .12-.12.18-.24.18-.24 0-.06 0-.13-.25-.19l.06-.12.68.18v.13c-.18-.06-.24 0-.37.18l-.68.93c-.12.18-.18.18-.18.24l-.13-.06v-.3l-.18-1.3c-.06-.06-.06-.12-.3-.19zm1.48 1.6c.07-.3.37-.43.8-.36.07 0 .13.06.2.06l.12-.56c0-.06 0-.06-.31-.18v-.12l.86.18v.12c-.24 0-.24 0-.3.06 0 .07-.07.25-.13.68-.06.37-.12.56-.12.68 0 .06 0 .06.24.12v.13l-.92-.19a1 1 0 01-.44-.24c0-.13-.06-.25 0-.37zm2.79-.67c-.07-.06 0-.06 0 0l-.44-.06c-.18 0-.24.06-.3.18l-.07.19-.12-.07c.06-.12.12-.37.12-.49l1.42.13v.12c-.24 0-.24 0-.24.06s-.07.25-.07.68c-.06.37-.06.55-.06.68 0 .06 0 .06.25.12v.12l-.93-.06h-.37v-.5h.13c.06.32.12.38.43.38h.25s.06 0 .06-.06l.06-.56c0-.06 0-.06-.06-.06h-.06c-.25 0-.31 0-.31.18h-.13c0-.06 0-.18.06-.24v-.25h.13c0 .19 0 .25.25.25h.18s.06 0 .06-.06l-.24-.68zm.68.74c0-.43.24-.87.92-.87h.8v.13c-.24 0-.24.06-.3.12v1.36c0 .06 0 .06.3.06v.12h-.86c-.37 0-.5-.06-.68-.24-.06-.19-.18-.44-.18-.68z" fill="#323A45"/></svg>