<svg width="349" height="90" viewBox="0 0 349 90" fill="none" xmlns="http://www.w3.org/2000/svg"><mask id="a" maskUnits="userSpaceOnUse" x="-98" y="-168" width="447" height="448"><path d="M138.38 279.01L348.83 43.28 113.1-167.16-97.35 68.56l235.73 210.45z" fill="#fff"/></mask><g mask="url(#a)"><path d="M63.07 208.86c26.02 14.07 57 8.13 81.75-5.73 15.15-8.47 28.53-19.74 41.41-31.29 13.53-12.14 26.95-24.49 40.43-36.72 12.76-11.54 33.47-18.8 44.78-31.86 9.66-11.15 12.98-33.12 14.51-48.04 3.12-30.36-14.51-60.07-33.02-75.27-13.85-11.36-37.69-16-52.75-25.66-22.92-14.74-46.57-31.07-72.52-40.18-13.24-4.64-27.35-7.2-41.4-6.5-15 .72-29.7 6.51-42.56 14-13.87 8.08-26.6 17.04-36.27 30.1C-10.5-24.1-17.52 6.9-16.32 36.69c1.3 32.09 11.25 63.03 22.99 92.64 12.01 30.22 26.31 63.29 56.4 79.53z" fill="#E9BBCC"/></g></svg>