<svg width="166" height="60" viewBox="0 0 166 60" fill="none" xmlns="http://www.w3.org/2000/svg"><path fill-rule="evenodd" clip-rule="evenodd" d="M164.6 60c-.9 0-1.39-.45-1.39-1.34 0-.9.49-1.34 1.4-1.34.88 0 1.39.45 1.39 1.34 0 .9-.49 1.34-1.4 1.34zm-5.57-1.64l-.07-.02a5.37 5.37 0 01-3.82 1.66c-2.64 0-2.98-1.83-2.98-2.91 0-2.13 1.31-3.13 3.85-3.34l2.85-.23v-1.13c0-1.55-.3-2.32-2.14-2.32-1.28 0-2.22.05-2.24 1.64l-1.81-.2c0-2.6 2.4-2.9 4.08-2.9 3 0 4.01.85 4.01 3.78v5.63c0 .34.02.39.34.43l1.08.15v1.14h-2.96l-.2-1.38zm-.17-3.5l-2.39.2c-1.82.18-2.32.71-2.32 1.82 0 1.14.48 1.61 1.47 1.61 1.25 0 2.58-1.02 3.24-1.64v-2zM148.2 60c-2.03 0-2.94-.96-2.94-2.87V50.5c0-.13 0-.21-.17-.21h-1.54v-1.24c1.65-.2 2.11-.87 2.39-3.04h1.24v2.6c0 .12 0 .21.17.21h3.1v1.47h-3.27v6.27c0 1.34.32 1.85 1.53 1.85.65 0 1.39-.2 1.96-.43l.47 1.36c-.85.34-1.86.66-2.94.66zm-4.32-27.1c.06 2.15.93 3.61 3.23 3.61 1.19 0 1.93-.2 3.05-.76l.6 1.44c-1.05.6-2.32.96-3.84.96-3.82 0-5.07-2.53-5.07-5.7 0-3.88 2.16-5.7 4.82-5.7 2.58 0 4.35 1.41 4.35 5.09 0 .27-.02.7-.04 1.06h-7.1zm2.79-4.59c-1.42 0-2.6.77-2.77 3.12h5.2c-.04-2.42-1.14-3.12-2.43-3.12zm-2.14-3.25l3.28-3.49 1.27 1.28-3.72 3-.83-.8zm-3.76-10.18l1.01-.13c.28-.04.39-.13.39-.42V9.29c0-1.38-.28-2.72-1.84-2.72-1.2 0-2.35.6-3.28 1.36v6.4c0 .34.02.38.34.42l1.18.15v1.15h-4.84v-1.17l1.06-.13c.3-.04.34-.1.34-.42V7.1c0-.24-.06-.38-.27-.45l-1.21-.4.19-1.13h2.77l.17 1.26.06.02a6.75 6.75 0 013.9-1.49c2.44 0 3.35 1.57 3.35 3.89v5.53c0 .34.02.38.34.42l1.2.15v1.15h-4.86v-1.17zm-3.56 19.85v-5.87c0-.34-.02-.38-.34-.47l-1.06-.27.17-1.15h3.15v9.18c0 .32.06.43.3.45l1.12.15v1.15h-2.98l-.17-1.45-.04-.02a6.06 6.06 0 01-4.08 1.72c-2.33 0-3.05-1.42-3.05-3.87v-5.4c0-.34-.02-.4-.33-.49l-1.1-.27.17-1.15h3.19v6.87c0 1.85.31 2.74 1.65 2.74 1.43 0 2.66-1 3.4-1.85zm-10.2-18.43c-3.69 0-5.1-2.38-5.1-5.76 0-3.34 1.69-5.63 5.3-5.63 3.62 0 5.01 2.32 5.01 5.5 0 3.58-1.6 5.9-5.22 5.9zm.16-9.78c-2.07 0-3.27 1.24-3.27 4.04 0 2.83 1.07 4.2 3.17 4.2 2.05 0 3.17-1.3 3.17-4.22 0-2.78-1.02-4.02-3.07-4.02zm-2.55 21.34l.23-.89h1.81c-.12 1.08-.2 2-.2 2.96v10.75c0 .32.04.38.33.43l1.08.12v1.17h-5.18v-1.15l1.59-.14c.31-.02.36-.11.36-.43v-4.14l-.07-.03a5.02 5.02 0 01-3.57 1.64c-2.45 0-4.06-1.55-4.06-5.46 0-4.17 1.9-5.93 4.38-5.93 1.35 0 2.47.47 3.3 1.1zm-2.98.5c-1.99 0-2.75 1.71-2.75 4.24 0 2.98.97 3.94 2.45 3.94 1.25 0 2.35-.92 3.2-1.87V29.5a4.65 4.65 0 00-2.9-1.15zM117.4 14.7c1.06 0 2.11-.34 2.7-.7l.62 1.4c-.8.53-2.22.9-3.61.9-3.62 0-5.16-2.24-5.16-5.6 0-4.04 2.33-5.8 5.54-5.8 1.54 0 2.74.43 3.2.66V8.4l-1.4-.07-.26-1.4c-.02-.15-.06-.23-.25-.3-.3-.1-.85-.19-1.44-.19-1.88 0-3.38 1.1-3.38 4.14 0 2.98 1.4 4.13 3.44 4.13zm-.73 34.56v2.82l-1.41-.06-.26-1.4c-.02-.15-.06-.24-.25-.3-.3-.1-.84-.2-1.44-.2-1.88 0-3.38 1.11-3.38 4.15 0 2.98 1.4 4.13 3.45 4.13 1.05 0 2.11-.34 2.7-.7l.61 1.4c-.8.53-2.21.89-3.6.89-3.62 0-5.17-2.23-5.17-5.59 0-4.04 2.33-5.8 5.54-5.8 1.54 0 2.75.42 3.21.66zm-11.1-11.12c-3.68 0-5.1-2.38-5.1-5.76 0-3.34 1.7-5.63 5.3-5.63 3.62 0 5.01 2.32 5.01 5.5 0 3.57-1.6 5.9-5.22 5.9zm.16-9.78c-2.07 0-3.27 1.24-3.27 4.04 0 2.83 1.08 4.19 3.17 4.19 2.05 0 3.17-1.3 3.17-4.2 0-2.8-1.02-4.03-3.07-4.03zm-6.86-17.32c.07 2.15.93 3.62 3.24 3.62 1.18 0 1.92-.22 3.04-.77l.61 1.45c-1.05.6-2.32.95-3.84.95-3.83 0-5.08-2.53-5.08-5.7 0-3.88 2.16-5.69 4.82-5.69 2.58 0 4.36 1.4 4.36 5.08 0 .28-.02.7-.05 1.06h-7.1zm2.8-4.59c-1.42 0-2.6.77-2.78 3.13h5.2c-.04-2.43-1.14-3.13-2.43-3.13zm-8.35 9.84c-2.03 0-2.94-.95-2.94-2.87V6.8c0-.13 0-.21-.16-.21h-1.55V5.36c1.65-.22 2.12-.88 2.39-3.04h1.25V4.9c0 .13 0 .21.17.21h3.1V6.6h-3.27v6.27c0 1.34.31 1.85 1.52 1.85.65 0 1.4-.2 1.96-.43l.47 1.36c-.85.34-1.86.66-2.94.66zm-3.5 21.6h-5.35v-1.17l1.4-.13c.29-.02.33-.1.33-.43v-7.22c0-.24-.06-.38-.28-.45l-1.2-.4.2-1.13h3.2v9.2c0 .34.02.39.34.43l1.35.15v1.15zM86.87 24.6c-.87 0-1.38-.49-1.38-1.36 0-.85.5-1.34 1.38-1.34.86 0 1.35.5 1.35 1.34 0 .87-.49 1.36-1.35 1.36zm-4.14-9.73l1.3-.13c.3-.02.34-.1.34-.42V1.98c0-.24-.06-.39-.27-.45l-1.27-.4.2-1.13h3.27v14.33c0 .34.02.38.34.42l1.26.15v1.15h-5.17v-1.17zm.75 23.02h-2.98l-.17-1.4-.08-.03a5.11 5.11 0 01-3.72 1.68c-2.41 0-4-1.57-4-5.48 0-4.19 1.89-5.91 4.42-5.91 1.27 0 2.41.42 3.23 1.02V23.8c0-.2-.08-.36-.27-.42l-1.27-.4.2-1.13h3.23v14.32c0 .34.02.39.33.43l1.08.15v1.15zm-3.34-8.4a4.91 4.91 0 00-2.9-1.15c-1.98 0-2.76 1.75-2.76 4.28 0 2.95 1 3.9 2.47 3.9 1.25 0 2.26-.82 3.2-1.76V29.5zM78.5 14.6l-.04-.02a6.06 6.06 0 01-4.08 1.72c-2.32 0-3.04-1.42-3.04-3.87v-5.4c0-.33-.02-.4-.34-.48l-1.1-.28.17-1.15h3.2V12c0 1.85.31 2.74 1.64 2.74 1.44 0 2.66-1 3.4-1.85V7.01c0-.34-.02-.38-.33-.46l-1.06-.28.17-1.15h3.15v9.18c0 .32.06.43.3.45l1.11.15v1.15h-2.98l-.17-1.45zm-14 10.46l3.27-3.49 1.27 1.28-3.72 3-.82-.8zm.8-15.3c1.64.42 3.44.93 3.44 3.23 0 2.46-2.05 3.31-4.3 3.31-1.7 0-3.44-.49-3.82-.72v-2.83l1.42.09.25 1.46c.02.15.07.24.26.3.27.1 1.01.34 2.07.34 1.41 0 2.32-.53 2.32-1.68 0-1.27-1.2-1.57-2.56-1.89-1.64-.38-3.5-.8-3.5-3.14 0-2.43 2.02-3.32 4.2-3.32 1.52 0 2.9.4 3.34.6v2.74l-1.42-.09-.25-1.32c-.02-.14-.04-.2-.21-.27-.3-.1-.93-.24-1.65-.24-1.54 0-2.24.68-2.24 1.6 0 1.21 1.27 1.46 2.64 1.83zm-10.61 5.12l1.01-.13c.28-.04.38-.13.38-.42V9.29c0-1.38-.27-2.72-1.83-2.72-1.2 0-2.35.6-3.28 1.36v6.4c0 .34.02.38.34.42l1.18.15v1.15h-4.84v-1.17l1.06-.13c.3-.04.34-.1.34-.42V7.1c0-.24-.07-.38-.28-.45l-1.2-.4.19-1.13h2.77l.17 1.26.06.02a6.75 6.75 0 013.9-1.49C57.1 4.91 58 6.48 58 8.8v5.53c0 .34.02.38.34.42l1.2.15v1.15h-4.86v-1.17zM40.9 16.3c-3.68 0-5.1-2.38-5.1-5.76 0-3.34 1.7-5.63 5.31-5.63 3.62 0 5.01 2.32 5.01 5.5 0 3.58-1.6 5.9-5.22 5.9zm.17-9.78c-2.07 0-3.27 1.24-3.27 4.04 0 2.83 1.07 4.2 3.16 4.2 2.05 0 3.17-1.3 3.17-4.22 0-2.78-1.01-4.02-3.06-4.02zM36.93 37.9h-2.98l-.17-1.45-.04-.02a6.06 6.06 0 01-4.08 1.72c-2.32 0-3.04-1.42-3.04-3.87v-5.4c0-.34-.02-.4-.34-.49l-1.1-.27.17-1.15h3.2v6.87c0 1.85.31 2.74 1.64 2.74 1.44 0 2.66-1 3.4-1.85v-5.87c0-.34-.02-.38-.33-.47l-1.06-.27.17-1.15h3.15v9.18c0 .32.06.43.3.45l1.11.15v1.15zm-7.91-21.6c-5.16 0-7.23-3.27-7.23-7.95 0-4.6 2.51-7.97 7.58-7.97 1.86 0 3.62.45 4.67 1.15v3.4l-1.43-.08-.36-2.02c-.04-.2-.09-.32-.3-.39a8.3 8.3 0 00-2.66-.46c-3.32 0-5.47 2.2-5.47 6.37 0 4.15 2.03 6.36 5.32 6.36.95 0 2.16-.1 2.96-.45.17-.06.25-.12.3-.38l.33-1.91h1.36v3.2c-1.14.77-3.13 1.13-5.07 1.13zM23.7 30.1L22.28 30l-.25-1.32c-.02-.15-.04-.21-.21-.27-.3-.11-.93-.24-1.65-.24-1.54 0-2.24.68-2.24 1.6 0 1.2 1.27 1.46 2.64 1.83 1.65.42 3.45.93 3.45 3.23 0 2.46-2.05 3.31-4.3 3.31-1.7 0-3.44-.49-3.82-.72V34.6l1.42.09.25 1.46c.02.15.07.24.26.3.27.1 1.01.34 2.07.34 1.41 0 2.32-.53 2.32-1.68 0-1.27-1.2-1.57-2.56-1.89-1.64-.38-3.5-.8-3.5-3.15 0-2.42 2.03-3.31 4.2-3.31 1.52 0 2.9.4 3.34.6v2.74zm-2.82 22.3v5.62c0 .34.02.39.34.43l1.08.15v1.14h-2.96l-.19-1.38-.06-.02A5.37 5.37 0 0115.26 60c-2.64 0-2.98-1.83-2.98-2.91 0-2.13 1.31-3.13 3.85-3.34l2.85-.23v-1.13c0-1.55-.3-2.32-2.13-2.32-1.3 0-2.22.05-2.24 1.64l-1.82-.2c0-2.6 2.41-2.9 4.08-2.9 3 0 4.01.85 4.01 3.78zm-4.29 2.67c-1.81.17-2.32.7-2.32 1.8 0 1.15.49 1.62 1.48 1.62 1.25 0 2.58-1.02 3.23-1.64v-2l-2.39.22zm-5.92-4.6l-3.55 9.27h-2.2l-3.57-9.2c-.1-.25-.19-.3-.44-.36l-.91-.2.25-1.16H4.7v1.17l-1.46.17 2.86 7.93 2.9-7.93-1.43-.17.24-1.17h4.1v1.17l-.7.13c-.3.06-.42.1-.53.36zm18.2-1.86a7.7 7.7 0 013.21.66v2.82l-1.41-.06-.26-1.4c-.02-.15-.06-.24-.25-.3-.3-.1-.85-.2-1.44-.2-1.88 0-3.38 1.11-3.38 4.15 0 2.98 1.4 4.13 3.45 4.13 1.05 0 2.1-.34 2.7-.7l.61 1.4c-.8.53-2.22.89-3.6.89-3.62 0-5.17-2.23-5.17-5.59 0-4.04 2.33-5.8 5.54-5.8zm7.73.21v6.87c0 1.84.32 2.74 1.65 2.74 1.44 0 2.66-1 3.4-1.85V50.7c0-.34-.02-.38-.34-.47l-1.05-.27.16-1.15h3.15V58c0 .32.07.43.3.45l1.12.15v1.14h-2.98l-.17-1.44-.04-.02A6.06 6.06 0 0137.72 60c-2.32 0-3.04-1.42-3.04-3.87v-5.4c0-.34-.02-.4-.34-.49l-1.1-.27.17-1.15h3.19zm10.86 1.53l-1.2-.4.18-1.13h2.77l.17 1.25.06.03a6.74 6.74 0 013.91-1.5c2.43 0 3.34 1.58 3.34 3.9v5.52c0 .34.02.39.34.43l1.2.15v1.14h-4.86v-1.16l1.02-.13c.27-.04.38-.13.38-.43V53c0-1.39-.28-2.73-1.84-2.73-1.2 0-2.35.6-3.28 1.37v6.4c0 .33.03.38.34.42l1.19.15v1.14h-4.84v-1.16l1.05-.13c.3-.04.34-.1.34-.43V50.8c0-.24-.06-.39-.27-.45zM43.93 28.5l-1.2-.4.19-1.13h2.77l.16 1.26.07.02c1.12-.88 2.15-1.5 3.74-1.5 1.01 0 2.07.37 2.6 1.37A6.3 6.3 0 0156 26.76c2.4 0 3.13 1.49 3.13 3.95v5.46c0 .34.02.39.33.43l1.2.15v1.15h-4.85v-1.17l1.01-.13c.28-.04.38-.13.38-.43v-5.12c0-1.34-.3-2.61-1.8-2.61-1.14 0-2.13.57-2.78 1.04.04.38.06.83.06 1.3v5.4c0 .33.02.38.34.42l1.03.15v1.15h-4.69v-1.17l1.02-.13c.27-.04.38-.13.38-.43v-5.14c0-1.21-.09-2.6-1.6-2.6-1.1 0-2.23.67-3.03 1.33v6.41c0 .34.02.39.34.43l1.14.15v1.15h-4.8v-1.17l1.06-.13c.3-.04.34-.1.34-.43v-7.22c0-.24-.07-.38-.28-.45zm19.33 25.25l2.85-.23v-1.13c0-1.55-.3-2.32-2.13-2.32-1.3 0-2.22.05-2.24 1.64l-1.82-.2c0-2.6 2.4-2.9 4.08-2.9 3 0 4.01.85 4.01 3.78v5.63c0 .34.02.39.34.43l1.08.15v1.14h-2.96l-.2-1.38-.05-.02A5.37 5.37 0 0162.39 60c-2.64 0-2.98-1.83-2.98-2.91 0-2.13 1.31-3.13 3.85-3.34zm-.38 4.74c1.24 0 2.58-1.02 3.23-1.64v-2l-2.39.22c-1.81.17-2.32.7-2.32 1.8 0 1.15.48 1.62 1.48 1.62zM61.8 32.45c0-3.88 2.16-5.7 4.82-5.7 2.58 0 4.35 1.41 4.35 5.09 0 .27-.02.7-.04 1.06h-7.1c.06 2.15.93 3.61 3.23 3.61 1.19 0 1.93-.2 3.05-.76l.61 1.44c-1.06.6-2.32.96-3.85.96-3.82 0-5.07-2.53-5.07-5.7zm7.25-1.02c-.04-2.42-1.14-3.12-2.43-3.12-1.42 0-2.6.77-2.77 3.12h5.2zM72.15 58c.03.15.07.24.26.3.27.1 1.01.34 2.07.34 1.41 0 2.32-.53 2.32-1.68 0-1.27-1.2-1.57-2.55-1.9-1.65-.37-3.51-.8-3.51-3.14 0-2.42 2.03-3.31 4.2-3.31 1.53 0 2.9.4 3.34.6v2.73l-1.41-.08-.26-1.32c-.02-.15-.04-.21-.2-.28-.3-.1-.94-.23-1.66-.23-1.54 0-2.24.68-2.24 1.6 0 1.2 1.27 1.46 2.64 1.82 1.65.43 3.45.94 3.45 3.23 0 2.47-2.05 3.32-4.29 3.32-1.71 0-3.44-.49-3.83-.72v-2.83l1.42.09.25 1.46zm13.37-7.65l-1.2-.4.19-1.13h2.77l.17 1.25.06.03a6.75 6.75 0 013.9-1.5c2.44 0 3.35 1.58 3.35 3.9v5.52c0 .34.02.39.33.43l1.2.15v1.14h-4.85v-1.16l1.01-.13c.28-.04.38-.13.38-.43V53c0-1.39-.27-2.73-1.83-2.73-1.2 0-2.35.6-3.28 1.37v6.4c0 .33.02.38.34.42l1.18.15v1.14H84.4v-1.16l1.06-.13c.3-.04.34-.1.34-.43V50.8c0-.24-.07-.39-.28-.45zm10.43-13.8c1.06 0 2.12-.33 2.71-.7l.61 1.4c-.8.54-2.22.9-3.61.9-3.62 0-5.16-2.23-5.16-5.59 0-4.04 2.33-5.8 5.54-5.8 1.54 0 2.75.42 3.21.66v2.82l-1.41-.06-.26-1.4c-.02-.15-.06-.24-.25-.3-.3-.1-.85-.2-1.44-.2-1.88 0-3.38 1.11-3.38 4.15 0 2.98 1.4 4.13 3.44 4.13zm6.22 12.06c2.58 0 4.35 1.4 4.35 5.08 0 .27-.02.7-.04 1.06h-7.1c.06 2.15.93 3.61 3.23 3.61 1.19 0 1.92-.2 3.05-.76l.6 1.44a7.7 7.7 0 01-3.84.96c-3.82 0-5.07-2.53-5.07-5.7 0-3.89 2.16-5.7 4.82-5.7zm2.43 4.67c-.04-2.42-1.14-3.12-2.43-3.12-1.42 0-2.6.76-2.77 3.12h5.2zm18.11-4.67c2.58 0 4.36 1.4 4.36 5.08 0 .27-.03.7-.05 1.06h-7.1c.07 2.15.93 3.61 3.24 3.61 1.18 0 1.92-.2 3.04-.76l.61 1.44a7.7 7.7 0 01-3.84.96c-3.83 0-5.08-2.53-5.08-5.7 0-3.89 2.16-5.7 4.82-5.7zm2.43 4.67c-.04-2.42-1.14-3.12-2.43-3.12-1.41 0-2.6.76-2.77 3.12h5.2zm5.02 4.72c.02.15.06.24.25.3.28.1 1.02.34 2.07.34 1.42 0 2.33-.53 2.33-1.68 0-1.27-1.2-1.57-2.56-1.9-1.65-.37-3.5-.8-3.5-3.14 0-2.42 2.02-3.31 4.2-3.31 1.52 0 2.9.4 3.34.6v2.73l-1.42-.08-.25-1.32c-.02-.15-.05-.21-.21-.28-.3-.1-.93-.23-1.65-.23-1.54 0-2.24.68-2.24 1.6 0 1.2 1.27 1.46 2.64 1.82 1.65.43 3.44.94 3.44 3.23 0 2.47-2.05 3.32-4.28 3.32-1.72 0-3.45-.49-3.83-.72v-2.83l1.41.09.26 1.46zm9.79-11.54c-.87 0-1.38-.49-1.38-1.36 0-.85.51-1.34 1.38-1.34.86 0 1.35.49 1.35 1.34 0 .87-.49 1.36-1.35 1.36zm-.68 11.56V50.8c0-.24-.06-.39-.28-.45l-1.2-.4.2-1.13h3.2v9.2c0 .34.02.39.34.43l1.35.15v1.14h-5.34v-1.16l1.4-.13c.29-.02.33-.1.33-.43z" fill="#000"/></svg>