<svg width="300" height="32" viewBox="0 0 300 32" fill="none" xmlns="http://www.w3.org/2000/svg"><path fill="#EEC9D8" d="M0 0h300v32H0z"/><path d="M21.85 25.95c0 .34.1.45.4.45.12 0 .12 0 .12-.04v-.81c0-.08 0-.08-.12-.08-.3 0-.4.15-.4.48zm-2.08 0c-.03.19.08.23.23.26.07 0 .07 0 .07-.03l.07-.41h-.07c-.11 0-.26 0-.3.18zm-.74-.51c0 .03 0 .03 0 0l.04.4.26-.33v-.04l-.3-.03zm-1.26-.12c-.03.12 0 .23.15.3.11.04.11.04.11 0l.15-.3c0-.03 0-.03-.07-.07-.22-.07-.34 0-.34.07zm-5.4-4.62c.07.14.26.18.56.03.3-.14.37-.33.3-.48-.08-.15-.27-.18-.56-.03-.3.14-.37.33-.3.48zm-.74-4.89l-.37.15.4.15h.04v-.3c0-.04 0-.04-.07 0 .04-.04.04-.04 0 0zm.74-4.48c0-.07-.07-.15-.11-.15-.04-.03-.15-.03-.15.04-.04.04 0 .11.07.15.04 0 .12 0 .19-.04zm.6.11c-.12.04-.42.08-.53.08 0 .1.04.18.11.22.12.03.3.03.38-.11.03-.04.03-.11.03-.19zm3.47-4.26l-.33-.25.07.4v.04h.04l.22-.19zm4.63-1.88c0-.11-.11-.19-.3-.19-.1 0-.1 0-.1.08l.03.33c0 .04 0 .04.11.04.22-.04.26-.19.26-.26zm7.85 2.96l.15-.37-.37.18h-.04v.04l.26.15c0 .03 0 .03 0 0zm4.1 11.8c-.44.6-1 1.12-1.8 1.08-.86-.04-1.41-.81-2.3-.67-.63.12-1.22.49-1.89.23-.15-.11-.22-.37-.19-.63-.03-.15-.4-.19-.14-.37-.08-.04-.19 0-.23-.11-.03-.11.12-.3-.07-.37-.15-.04-.3.07-.4-.08-.08-.07-.04-.15-.04-.26.1-.22.37-.4.3-.66-.2-.15-.12-.45-.12-.67.11-.52.15-1.07.63-1.44l2.7-2.22c.56-.52 1.26-.9 1.67-1.6.22.3.33.74.15 1.11-.37.6-1 1.04-1.56 1.48l-2.18 1.82c-.4.37-.52.96-.33 1.44.03.26-.15.41-.23.63 0 .08.04.15.08.15.1.04.22 0 .3.11 0 .11-.04.26.1.3.08.03.15-.08.15.03-.03.08-.07.12-.03.19.07.15.22.07.3.15.03.15.03.33.18.37.55.1 1-.3 1.51-.37.82-.26 1.6.07 2.34.26.37.14.77.14 1.1.1zM32.1 9.93c.08.74-.52 1.08-.96 1.52l-1.93 1.63-3.4 2.85c-.48.52-.52 1.3-.63 1.96.04.23.26.34.18.56l-.48.85c.04.33.45.15.6.37 0 .11-.08.26.03.37.08.11.34-.04.19.15a.11.11 0 000 .15c.07.07.15.07.18.18-.03.15-.03.33.04.45.6.63 1.6-.15 2.22.44.15.15.15.4.11.6-.33.95-2.26 1-1.59 2.36.11.22.37.37.63.4.22.05.4-.07.55-.1.08 0 .08.07.08.07v.04c-.56.4-1.3.96-2.04.55-.37-.22-.55-.7-.48-1.18.22-.74 1.11-.93 1.52-1.56.11-.18.07-.4-.04-.59-.15-.26-.44-.3-.74-.37-.48 0-1.18.3-1.4-.26-.08-.22.14-.55-.19-.63-.04-.07-.15-.1-.11-.18 0-.08.11-.08.07-.15-.07-.04-.15 0-.22-.07-.18-.19.33-.41-.04-.56-.18-.04-.4.11-.55-.11-.08-.18.07-.33.15-.48.1-.26.48-.45.37-.78l-.19-.3a8.7 8.7 0 01.33-1.96c.23-.7.93-1.1 1.45-1.59l2.85-2.37 2-1.74c.37-.33.66-.66.66-1.18.12-.04.19.1.26.15.37.1.48.25.52.51zM30.73 8.6c.04.74-.55 1.22-1.03 1.67l-4.67 3.88c-.4.41-1.04.7-1.26 1.3-.3.78-.4 1.63-.55 2.48-.08.63-.67 1.15-1.19 1.37-.4.15-.92.07-1.37.11h-1.63a.54.54 0 00-.33.22l-.07.15c-.19.04-.11-.11-.15-.22 0-.37.07-.74.37-.93.15-.14.33-.18.55-.22l2.37-.04c.15 0 .23-.07.34-.14l.1-.19c.2-1.18.3-2.37.9-3.37.55-.63 1.22-1.07 1.85-1.63 1.4-1.18 2.88-2.37 4.25-3.59.41-.37.82-.85.93-1.44l.04-.15c.3.07.55.37.55.74zm-1.44-.81a.28.28 0 00-.08.14l-.26.75c-.03.1-.03.1.08.18l-.04.04-.37-.34.04-.03c.11.1.15.1.15.07.03-.04.07-.18.1-.18v-.04l-.18-.19c-.07-.07-.07-.07-.1-.03-.12.03-.16.07-.16.1-.03.04-.03.04.08.16l-.04.03-.3-.26.04-.03c.11.07.15.07.26 0l.63-.3c.11-.07.15-.07.19-.11l-.04.04zm-.67-.52l-.04.04c-.03.07-.07.1-.1.18l-.08-.04c.11-.14.07-.26-.07-.33-.12-.07-.23-.07-.3 0-.04.07-.04.11.04.19l.14.22c.12.15.12.22 0 .37-.1.15-.33.15-.51.03-.11-.07-.15-.14-.23-.22.04-.07.12-.18.15-.26l.08.04c-.08.15-.08.33.07.4.11.12.26.08.33 0 .08-.07 0-.14-.03-.21l-.08-.12c-.15-.22-.1-.33-.07-.4.1-.15.33-.15.52-.04.07.04.14.11.18.15zm-.7-.52l-.04.04c-.15-.08-.15-.08-.18-.04a2.6 2.6 0 00-.26.4c-.11.2-.26.38-.6.2-.18-.12-.3-.3-.14-.56.18-.34.26-.41.26-.48.03-.04 0-.04-.12-.12l.04-.07.45.26-.04.07c-.15-.07-.15-.07-.19-.03l-.3.44c-.07.11-.1.3.08.37.22.15.34.04.48-.22.11-.22.19-.3.19-.37 0-.04 0-.04-.11-.15l.03-.07.45.33zm-1.45-.19c-.03.04-.07.08-.14.04-.08-.04-.08-.07-.04-.15.04-.07.07-.07.15-.03.03.03.07.07.03.14zm-.44-.77c0 .03 0 .03-.04.07l-.07.19-.07-.04c.03-.19-.04-.26-.15-.33-.11-.04-.26 0-.3.07-.04.07 0 .11.08.19l.18.14c.11.11.15.19.11.34-.07.18-.26.26-.48.14-.11-.03-.19-.1-.3-.14a.7.7 0 00.08-.3h.07c-.04.19 0 .33.15.37.15.07.26 0 .3-.11.03-.11-.04-.15-.11-.22l-.12-.08c-.22-.18-.22-.26-.18-.37.07-.18.26-.26.48-.14.22.14.33.18.37.22zm-.93-.37l-.03.3h-.08c0-.2 0-.23-.22-.3l-.15-.04c-.03 0-.03 0-.03.04l-.08.33c0 .04 0 .04.04.04h.04c.14.03.18.03.22-.08l.07.04-.03.15c0 .07-.04.11-.04.15h-.08c.04-.11 0-.15-.1-.15l-.12-.04s-.03 0-.03.04l-.12.37c0 .04 0 .04.04.04l.26.07c.11.04.15 0 .22-.07l.08-.12.07.04c-.04.08-.11.19-.11.26l-.81-.22.03-.08c.15.04.15.04.15 0l.11-.37c.08-.22.11-.33.11-.4 0-.04 0-.04-.15-.11v-.08l.56.15c.04.04.11.04.18.04zm-1-.19v.3h-.07c-.04-.19-.11-.3-.26-.33-.18-.04-.33.1-.4.4-.04.3.07.48.25.48.15.04.3-.03.37-.14l.08.03c-.15.15-.3.22-.48.19a.51.51 0 01-.41-.63c.04-.26.26-.52.63-.45.07.04.18.12.3.15zm-1.03-.18v.07c-.15 0-.15 0-.19.04 0 .04-.03.15-.03.4-.04.23-.04.34-.04.41 0 .04 0 .04.15.08v.07l-.56-.04V6c.15 0 .19 0 .19-.04 0-.03.03-.15.03-.4.04-.23.04-.34.04-.41 0-.04 0-.04-.15-.08V5l.56.04zm-.63 0h-.04c-.07 0-.1.03-.15.22-.22.6-.25.67-.3.78h-.1c0-.11-.3-.7-.37-.85-.08-.12-.08-.12-.19-.12V5h.52v.07h-.07c-.08 0-.08.04-.08.04 0 .04.08.22.15.4l.11.3.11-.3c.08-.14.15-.36.15-.4 0-.04-.04-.04-.15-.04V5h.4v.04zm-1.19.22c.04.22-.22.3-.22.3l.04.03.3.3c.07.07.07.07.14.07v.08l-.26.03-.37-.44h-.1c-.08 0-.08 0-.08.04l.04.33c0 .04.03.04.18.04v.07l-.52.04v-.08c.15-.03.15-.03.15-.07 0-.04 0-.15-.04-.4-.03-.23-.03-.34-.03-.41 0-.04-.04-.04-.19-.04v-.08l.6-.07c.1 0 .18 0 .25.04.08.07.11.1.11.22zm-.96.89l-.81.15v-.08c.1-.04.15-.04.15-.07 0-.08-.04-.15-.08-.37s-.07-.34-.07-.41c0-.04-.04-.04-.15-.04v-.07l.56-.11c.07 0 .14-.04.22-.08 0 .08.07.23.07.26l-.07.04c-.08-.18-.11-.18-.34-.15l-.1.04s-.04 0-.04.04l.07.33c0 .04 0 .04.04.04h.03c.15-.04.15-.08.15-.15H20c0 .04 0 .1.03.15 0 .07.04.1.04.14H20c-.04-.1-.08-.1-.19-.1l-.11.03s-.04 0-.04.04l.08.37c0 .03 0 .03.03.03l.26-.03c.11-.04.15-.08.15-.15v-.11h.08c.03.04.03.18.03.26zm-1.74-.41c.04.07.08.11.19.11H19c.14 0 .26.08.3.19.07.18-.08.37-.3.4-.11.04-.23.04-.34.04l-.1-.3.07-.03c.1.15.22.26.37.18.14-.03.22-.15.18-.26-.04-.1-.11-.1-.22-.1h-.11c-.3 0-.33-.08-.37-.2-.08-.18.07-.36.3-.4a.92.92 0 01.29-.04s0 .04.04.08l.07.18-.07.04c-.08-.15-.19-.19-.34-.15-.14.08-.22.19-.22.26zm.74 14.25c1.3.37 2.63.78 3.85 1.3.78.33 1.56.63 2.26 1.07.15.11.33.34.3.6-.22.96-1.6 1.07-1.37 2.18.07.4.33.78.74.89.18.07.44.07.63 0 .03.07.15.15 0 .18-.56.37-1.26.74-1.93.41-.33-.15-.52-.52-.63-.85-.15-1.04.82-1.33 1.3-2.04.07-.15.11-.3.07-.44-.1-.19-.22-.3-.4-.4a24.4 24.4 0 00-5.82-2.2c-.33-.03-.85-.22-1.07.15v.04c-.19.04-.11-.18-.11-.26.07-.33.26-.59.55-.7.56-.19 1.11 0 1.63.07zM17.92 6.85l-.1.04c-.12-.08-.2-.11-.34-.19l-.56-.3.15.27c.11.18.15.3.19.37.03.03.03.03.18-.04l.04.07-.4.19-.05-.08c.15-.07.15-.07.12-.1 0-.04-.08-.15-.19-.38-.11-.18-.15-.3-.18-.37-.04-.03-.04-.03-.15.04l-.04-.07.3-.15s.03.03.07.03l.74.41-.11-.18c-.11-.19-.15-.3-.19-.37-.03-.04-.03-.04-.18.03L17.18 6l.37-.19.04.08c-.15.07-.15.07-.11.15l.11.22c.15.3.26.52.33.6zm-1.74-.07l.67.44c.07.08.11.08.22 0l.04.04-.4.26-.05-.08c.12-.07.12-.1.12-.14 0-.04-.15-.12-.19-.15h-.04l-.22.15c-.07.03-.07.07-.07.1.03.12.03.2.03.2.04.03.04.03.15-.05l.04.08-.33.22-.04-.04c.11-.07.11-.1.07-.26l-.15-.66C16 6.78 16 6.74 16 6.7l.07-.03c0 .03.08.1.11.1zM16 7.85l.03.04-.37.33-.03-.04c.1-.1.1-.1.1-.14l-.55-.63.34.81c0 .04.03.04.03.07l-.07.08s-.04-.04-.07-.04l-.78-.44.44.52.11.1c.04.04.04.04.15-.07l.04.04-.33.26L15 8.7c.1-.1.1-.1.1-.15-.03-.03-.1-.14-.25-.3-.15-.14-.22-.25-.26-.29-.04-.04-.04-.04-.15.08L14.41 8l.3-.26.03.04.7.4-.33-.81.3-.26.03.04c-.1.1-.1.1-.1.15 0 .03.1.1.25.3l.26.29c.04.07.04.07.15-.04zm-1.7.3c-.12.1-.12.14-.08.14.04.04.15.12.37.34.19.15.33.33.08.59-.15.19-.38.22-.6.04-.3-.26-.37-.34-.4-.37-.04-.04-.04-.04-.15.07l-.04-.04.37-.37.04.04c-.11.11-.11.15-.08.15l.41.37c.07.07.26.18.4 0 .2-.19.12-.3-.14-.52-.19-.15-.26-.22-.33-.26-.04-.04-.04-.04-.15.11l-.04-.03.3-.34.03.08zm-.9 1c-.07.14-.07.14-.03.14.04.04.15.12.33.23.19.14.3.18.34.22.03.04.03 0 .14-.11l.08.03-.3.41-.07-.04c.07-.1.07-.14.03-.14a1.4 1.4 0 00-.3-.19c-.03-.04-.03-.04-.07 0l-.22.33c-.03.04-.03.04 0 .08.15.11.26.15.3.18.04.04.04 0 .15-.1l.03.03-.3.4-.03-.03c.07-.11.07-.15.04-.15a2.37 2.37 0 00-.34-.22l-.33-.22c-.04-.04-.04 0-.15.1l-.07-.03.3-.4.03.03c-.07.15-.07.15-.03.15.03.04.1.07.14.11l.08.07c.03.04.03.04.07 0l.22-.33c.04-.04.04-.04-.03-.07l-.08-.08c-.07-.03-.1-.07-.15-.1-.03 0-.03 0-.14.1L13 9.52l.3-.41.1.04zm-.47 2.14c-.04-.07-.12-.18-.15-.18-.04-.04-.08 0-.11.04l-.08-.04.15-.3.07.04c-.03.07-.03.15.04.22.04.04.08.11.15.22.11-.03.15-.03.18-.1.04-.04.04-.12 0-.2l.08.04c0 .12 0 .19-.04.26-.04.08-.07.11-.18.15.03.11.03.19-.04.33-.07.19-.26.23-.4.15-.12-.07-.2-.18-.2-.4h-.25c-.11-.04-.15-.15-.08-.3.08-.11.15-.19.26-.11.11.07.15.15.15.26.11-.04.3-.04.45-.08zM11.7 12.4c.04.04.15.04.37.12.23.07.34.1.41.1.04 0 .04 0 .11-.14h.08l-.15.48-.08-.04c.04-.15.04-.15 0-.18-.03-.04-.14-.04-.33-.11-.04 0-.04 0-.07.03l-.11.37c0 .04 0 .04.03.08l.34.07c.03 0 .03 0 .1-.15h.08l-.15.48h-.07c.04-.14.04-.14 0-.18-.04-.04-.15-.04-.37-.11a1.68 1.68 0 00-.4-.11c-.05 0-.05 0-.12.15l-.07-.04.14-.48h.08c-.04.15-.04.15 0 .18.04 0 .1.04.18.08l.11.03c.04 0 .04 0 .08-.03l.11-.37c0-.04 0-.04-.04-.08l-.1-.03c-.08-.04-.16-.04-.2-.04-.03 0-.03 0-.1.15h-.08l.15-.49h.07c-.03.26-.03.26 0 .26zm-.4 1.08c.1.03.22.03.3.03v.08c-.2.04-.23.04-.23.11l-.04.15.67.1c.07 0 .15.05.15.05.03 0 .03 0 .07-.15h.08l-.12.52h-.07c0-.15 0-.15-.04-.19-.03 0-.07-.04-.14-.04l-.67-.1-.04.14c0 .04.04.08.19.15l-.04.07c-.07-.03-.15-.03-.26-.07 0-.04 0-.07.04-.07 0-.04 0-.08.04-.08l.07-.52c0-.1.04-.15.04-.18zm-.19 1.26h.08c0 .14 0 .14.03.14.04 0 .11 0 .19.04l.59.04c.04 0 .07 0 .07-.08v-.14c0-.15-.03-.15-.22-.26l.04-.08c.04.04.22.08.3.08l-.08.81h-.07c0-.15 0-.15-.04-.15s-.15-.03-.4-.03c-.23-.04-.38-.04-.41-.04-.04 0-.04 0-.08.15h-.07l.07-.48zm-.07 1.1c.03 0 .1-.03.18-.07l.7-.3c.12-.03.12-.03.12-.18h.07v.52h-.07c0-.15-.04-.15-.08-.15-.03 0-.18.08-.22.08V16.03c0 .11 0 .11.04.11l.18.08c.04 0 .08-.04.08-.15h.07v.4h-.07c0-.1-.04-.1-.19-.18l-.66-.26c-.12-.03-.15-.07-.19-.07l.04-.11zm.03.82c.08 0 .23-.04.3-.07l.04.07c-.19.08-.19.11-.19.3v.15c0 .03 0 .03.04.03l.33-.03c.04 0 .04 0 .04-.04v-.04c-.04-.15-.04-.15-.15-.15v-.07c.04 0 .11 0 .15-.04.07 0 .11 0 .15-.03v.07c-.11.04-.11.04-.11.15v.1c0 .05 0 .05.03.05l.37-.04c.04 0 .04 0 .04-.04l-.04-.26c0-.1-.03-.15-.14-.15l-.12-.03v-.08h.3l.11.82h-.07c-.04-.15-.04-.15-.08-.15-.03 0-.14 0-.4.04-.23.03-.37.03-.41.07-.04 0-.04 0-.04.15h-.07l-.08-.56a.24.24 0 000-.22zm.15.96h.08c.03.15.03.15.1.15.08 0 .16-.03.41-.07.23-.08.34-.08.41-.11.04 0 .04-.04 0-.19h.08l.1.48h-.07c-.03-.14-.03-.14-.1-.14-.05 0-.16.03-.34.07-.04 0-.04 0-.04.04l.11.37c0 .03 0 .03.08.03l.33-.07c.04 0 .04-.04 0-.19h.07l.11.52h-.07c-.04-.15-.07-.15-.11-.15l-.4.08c-.23.04-.34.07-.38.11-.03 0-.03.04 0 .18h-.07l-.11-.48h.07c.04.15.04.15.11.15.04 0 .11-.04.19-.04l.1-.03c.05 0 .05 0 .05-.08l-.12-.37c0-.03 0-.03-.07-.03l-.11.03c-.07.04-.15.04-.19.04-.03 0-.03.04-.03.19h-.08l-.1-.49zm.48 1.78c.08-.04.23-.11.26-.15l.04.04c-.15.11-.15.15-.11.33l.04.11s.03.04.03 0l.34-.14s.03 0 0-.08v-.03c-.08-.15-.08-.15-.19-.12l-.04-.07c.04 0 .11-.04.15-.07.08-.04.11-.04.15-.08l.04.08c-.11.03-.11.07-.08.18l.04.11s0 .04.04 0l.33-.1c.04 0 .04-.05 0-.2l.07-.03.19.44-.07.04c-.08-.11-.08-.15-.12-.11-.03 0-.14.07-.37.15-.22.07-.33.1-.37.15-.03.03-.03.03 0 .14l-.07.04-.22-.52s-.04-.07-.08-.1zm.85.67c.3-.15.6-.08.7.18.12.26.05.52-.25.67-.3.15-.6.07-.7-.19-.12-.22-.04-.51.25-.66zm.41 1.74c.11-.08.19-.15.22-.19l.04.04c-.11.15-.11.18-.11.22l.11.15.56-.4c.07-.04.1-.08.14-.12.04-.04.04-.04-.07-.18l.04-.04.33.4-.04.04c-.1-.1-.1-.14-.14-.1-.04 0-.08.03-.15.1l-.56.41.11.11c.04.04.08.04.26-.04l.04.08-.26.15c0-.04-.04-.04-.04-.08 0-.03-.03-.03-.03-.07l-.3-.4c-.07 0-.11-.05-.15-.08zm.63.81l.04-.04c.1.12.1.12.18.08a.81.81 0 00.19-.15c.22-.18.4-.37.48-.44l.07.07a4.7 4.7 0 00-.1.37l-.16.63.23-.19c.14-.14.26-.22.3-.25.03-.04.03-.04-.12-.19l.04-.04.3.34-.04.03c-.11-.1-.11-.1-.15-.07-.04.04-.15.11-.3.26-.14.15-.26.22-.3.26-.03.04-.03.04.08.15l-.04.03-.18-.3c0-.03 0-.03.04-.07l.18-.81-.15.15c-.14.14-.26.22-.3.26-.03.03-.03.03.08.14l-.04.04-.33-.26zm.93.96c.03-.07.15-.18.15-.22l.07.04c-.11.18-.07.22.07.33l.11.08h.04l.22-.26s0-.04-.03-.04l-.04-.04c-.11-.1-.15-.1-.22-.03l-.04-.04.11-.11.11-.15.04.04c-.07.07-.07.1.04.18l.07.08h.04l.26-.3v-.04l-.19-.15c-.11-.07-.15-.07-.22-.03l-.11.07-.04-.07c.08-.04.19-.15.22-.19l.63.56-.03.04c-.12-.08-.12-.08-.15-.08-.04.04-.11.11-.26.3l-.26.3c-.04.03-.04.03.07.14l-.03.04-.41-.37c-.11 0-.15-.04-.22-.08zm.7.6l.04-.08c.15.08.15.08.18.08.04-.04.11-.15.22-.34.12-.18.19-.3.23-.33.03-.04 0-.04-.11-.15l.03-.03.45.3-.04.03c-.15-.08-.15-.08-.15-.04l-.48.67.74-.52c.04 0 .04-.04.08-.04l.1.08s0 .03-.03.07l-.22.89.4-.56c.04-.03.08-.1.08-.1.04-.04 0-.04-.11-.16l.03-.03.37.22-.03.07c-.15-.07-.15-.07-.19-.07l-.22.33c-.11.19-.18.3-.22.34 0 .03 0 .03.1.14l-.03.04-.33-.22v-.04l.22-.78-.7.52-.41-.3zm1.3.89c.07-.12.07-.19.1-.26h.08c-.04.18-.04.22.04.26l.15.07.33-.6.07-.14c0-.04 0-.04-.1-.15l.03-.07.48.26-.04.07c-.14-.07-.14-.07-.18-.04 0 .04-.04.08-.08.15l-.33.6.15.07c.04.03.07 0 .22-.15l.08.04c-.04.03-.08.1-.15.22-.04-.04-.04-.04-.08-.04-.03 0-.03-.04-.07-.04l-.44-.22c-.12 0-.19-.03-.26-.03zm1.07.22c.07-.19.33-.15.33-.15v-.04l-.1-.4c-.05-.12-.05-.12-.12-.15l.04-.08.22.11.11.56c0 .04 0 .04.07.04.08.03.08.03.08 0 .11-.26.11-.3.15-.34 0-.03 0-.03-.15-.1l.04-.08.44.18-.04.08c-.14-.04-.14-.04-.14 0-.04.03-.08.15-.15.37-.08.22-.11.33-.15.37 0 .03 0 .03.15.1l-.04.08-.52-.22c-.1-.04-.15-.07-.18-.15-.08-.03-.08-.1-.04-.18zm1.11-.34l.04-.07.48.15-.04.07c-.15-.03-.15-.03-.15 0v.22c.04 0 .11.04.26.08.11.04.11.04.11 0a.64.64 0 00.11-.15c0-.04 0-.07-.14-.11l.03-.07.41.1v.08c-.11-.04-.15 0-.22.11l-.4.56c-.08.1-.12.1-.12.14l-.07-.03v-.19l-.11-.77c-.04-.08-.08-.08-.19-.12zm.85.97c.04-.19.22-.26.48-.23.04 0 .08.04.11.04l.08-.33c0-.04 0-.04-.19-.11v-.08l.52.11v.08c-.15 0-.15 0-.18.04l-.08.37c-.03.22-.07.33-.07.4 0 .04 0 .04.15.08v.07l-.56-.11a1.82 1.82 0 01-.26-.11c.04-.08 0-.15 0-.22zm1.67-.45l-.26-.03c-.11 0-.15.03-.19.1l-.03.12-.08-.04a.87.87 0 00.08-.3l.85.08v.07c-.15 0-.15 0-.15.04s-.04.15-.04.4c-.03.23-.03.34-.03.41 0 .04 0 .04.14.08v.07l-.55-.04h-.22v-.3h.07c.04.2.07.23.26.23h.11s.04 0 .04-.04l.03-.33c0-.04 0-.04-.03-.04h-.04c-.15 0-.18 0-.18.11h-.08c0-.03 0-.1.04-.14v-.15h.07c0 .11 0 .11.15.15h.11s.04 0 .04-.04l-.11-.4zm.4.48c0-.26.15-.51.56-.51h.48v.07c-.15 0-.15.04-.18.07v.81c0 .04 0 .04.18.04v.08h-.52c-.22 0-.3-.04-.4-.15-.04-.11-.12-.26-.12-.4zM184.13 19.42c-.77 1.1-1.8 1.59-3.34 1.59-2.3 0-3.79-1.7-3.79-3.79a3.69 3.69 0 013.78-3.78c2.3 0 3.84 1.64 3.84 3.95v.44h-5.81c.16 1.1.99 1.7 2.03 1.7.77 0 1.26-.22 1.81-.72l1.48.6zm-1.32-3.13a2.03 2.03 0 00-1.97-1.37c-.88 0-1.6.44-1.97 1.37h3.94zM187.53 17.66c-1.15-.6-1.75-1.26-1.75-2.2 0-1.15.93-2.08 2.35-2.08.94 0 1.81.44 2.42 1.2l-1.1 1.16c-.44-.44-.82-.66-1.26-.66-.38 0-.66.17-.66.44 0 .28.28.39.66.6l.66.33c1.2.6 1.86 1.27 1.86 2.3 0 1.27-1.04 2.26-2.58 2.26a3.02 3.02 0 01-2.52-1.26l1.1-1.27c.44.5 1.04.83 1.53.83.44 0 .83-.28.83-.6 0-.34-.33-.56-.82-.83l-.72-.22zM194.11 19.96c0 .55-.44 1.05-1.04 1.05-.55 0-1.04-.5-1.04-1.05 0-.6.5-1.04 1.04-1.04a1 1 0 011.04 1.04zM197.08 11.02h1.8l2.25 6.86 2.3-6.86h1.82l1.64 9.82h-1.8l-1.05-6.2-2.08 6.2h-1.65l-2.08-6.2-1.1 6.2h-1.75l1.7-9.82zM215.01 19.42c-.76 1.1-1.8 1.59-3.34 1.59-2.3 0-3.79-1.7-3.79-3.79a3.69 3.69 0 013.79-3.78c2.3 0 3.84 1.64 3.84 3.95v.44h-5.87c.16 1.1.98 1.7 2.03 1.7.77 0 1.26-.22 1.8-.72l1.54.6zm-1.37-3.13a2.03 2.03 0 00-1.97-1.37c-.88 0-1.6.44-1.98 1.37h3.95zM222.3 20.07a3.1 3.1 0 01-2.24.94c-1.87 0-3.46-1.6-3.46-3.79 0-2.25 1.54-3.78 3.4-3.78.88 0 1.65.33 2.3.98v-3.56h1.82V20.9h-1.81v-.83zm-3.83-2.9c0 1.26.82 2.14 1.97 2.14 1.1 0 1.98-.83 1.98-2.14 0-1.26-.82-2.14-1.98-2.14-1.26 0-1.97.99-1.97 2.14zM227.85 11.8c0 .65-.5 1.14-1.15 1.14-.66 0-1.16-.6-1.16-1.26 0-.6.55-1.1 1.16-1.1.66 0 1.15.55 1.15 1.21zm-2.09 1.75h1.81v7.24h-1.8v-7.24zM236.24 19.47a3.96 3.96 0 01-3.3 1.54c-2.46 0-4.05-1.7-4.05-3.79 0-2.14 1.7-3.84 4.11-3.84 1.43 0 2.64.6 3.35 1.65l-1.54.82a2.26 2.26 0 00-1.8-.82c-1.38 0-2.3.93-2.3 2.2 0 1.25.81 2.13 2.19 2.13.82 0 1.42-.27 1.91-.82l1.43.93zM243.32 20.07a3.1 3.1 0 01-2.25.94c-1.87 0-3.46-1.6-3.46-3.79 0-2.25 1.54-3.78 3.4-3.78.88 0 1.65.33 2.3.98v-.82h1.82v7.24h-1.81v-.77zm-3.84-2.9c0 1.26.82 2.14 1.97 2.14 1.1 0 1.98-.83 1.98-2.14 0-1.26-.83-2.14-1.98-2.14-1.26 0-1.97.99-1.97 2.14zM248.14 14.48c.33-.77.94-1.1 1.54-1.1.38 0 .6.11.82.17l-.55 1.53c-.1-.05-.32-.16-.54-.16-.5 0-.94.6-1 1.7v4.22h-1.8V13.6h1.59l-.06.88zM258.02 19.42c-.77 1.1-1.81 1.59-3.35 1.59-2.3 0-3.78-1.7-3.78-3.79a3.69 3.69 0 013.78-3.78c2.3 0 3.84 1.64 3.84 3.95v.44h-5.87c.17 1.1.99 1.7 2.03 1.7.77 0 1.26-.22 1.81-.72l1.54.6zm-1.32-3.13a2.03 2.03 0 00-1.97-1.37c-.88 0-1.6.44-1.98 1.37h3.95zM261.97 20.18c0 .44-.39.83-.83.83a.84.84 0 01-.82-.83c0-.43.38-.82.82-.82.44-.05.83.39.83.82zM271.07 19.3c0 1.21-.05 2.15-.66 2.97-.6.82-1.7 1.32-3.07 1.32-2.08 0-3.07-.83-3.73-2.25h.99c.55.93 1.37 1.42 2.69 1.42 1.2 0 2.08-.44 2.52-1.26.27-.5.33-1.04.33-1.59v-.55a3.53 3.53 0 01-2.9 1.37 3.65 3.65 0 01-3.74-3.67 3.78 3.78 0 013.73-3.79c1.26 0 2.14.55 2.9 1.43v-1.26h.94v5.87zm-6.58-2.13c0 1.42 1.04 2.68 2.96 2.68 1.6 0 2.8-1.1 2.8-2.8a2.72 2.72 0 00-2.8-2.84 2.95 2.95 0 00-2.96 2.96zM280.29 17.22c0 2.09-1.6 3.79-3.79 3.79-2.2 0-3.78-1.7-3.78-3.79a3.8 3.8 0 013.78-3.84c2.2 0 3.79 1.76 3.79 3.84zm-6.59 0c0 1.6 1.21 2.9 2.86 2.9a2.81 2.81 0 002.85-2.9 2.9 2.9 0 00-2.85-2.96 2.93 2.93 0 00-2.86 2.96zM281.33 13.55h.99l2.41 5.26 2.41-5.26h1l-3.35 7.24h-.17l-3.3-7.24z" fill="#323A45"/></svg>