<svg width="162" height="41" viewBox="0 0 162 41" fill="none" xmlns="http://www.w3.org/2000/svg"><path fill-rule="evenodd" clip-rule="evenodd" d="M139.23 18.48c0-.18-.09-.27-.18-.27a4.25 4.25 0 00-1.27-.18c-1 0-1.54.36-1.54 1 0 .8 1.09.98 2.27 1.25 1.54.35 3.26.9 3.26 3.22 0 2.42-1.9 3.41-4.35 3.41-1.73 0-3.45-.45-3.81-.72v-2.87l2.08.18.19 1.08c0 .18.09.27.27.27.27.09.72.18 1.45.18 1 0 1.63-.27 1.63-.99 0-.8-.72-.98-1.72-1.16-1.63-.27-3.72-.63-3.72-3.23 0-2.42 2-3.4 4.26-3.4 1.54 0 3 .35 3.54.53v2.87l-2.09-.18-.27-.99zm-10.16 7.09h-.09a4.4 4.4 0 01-3.26 1.34c-2.45 0-2.81-1.7-2.81-2.87 0-1.97 1.17-2.87 3.62-3.05l2.18-.18v-1.07c0-.9-.1-1.53-1.27-1.53-.9 0-1.36.18-1.36 1.35l-2.72-.27c0-2.6 2.36-3.05 4.17-3.05 2.9 0 4.08.8 4.08 3.5v4.75c0 .27 0 .36.27.36l.91.18v1.52h-3.54l-.18-.98zm-.27-3.14l-1.27.09c-1.09.09-1.54.36-1.54 1.16 0 .81.45 1.08 1.09 1.08.63 0 1.27-.36 1.72-.72v-1.61zm-3.45-7.71l2.9-3.41 1.55 1.52-3.45 2.87-1-.98zm-9.88 10.4l1.54-.18c.27 0 .27-.1.27-.36v-7.44h-.09l-2.72 6.63h-3.17l-2.73-6.72v7.44c0 .27 0 .36.28.36l1.63.18v1.52h-5.8v-1.52l1.17-.18c.28 0 .28-.1.28-.36V14.45c0-.27 0-.36-.28-.36l-1.18-.18v-1.52h5.17l3.36 8.87h.09l3.54-8.87h4.99v1.52l-1.27.18c-.28 0-.28.09-.28.36v10.04c0 .27.1.36.28.36l1.27.18v1.52h-6.35v-1.43zm-19.41.45h-.1a4.41 4.41 0 01-3.26 1.34c-2.45 0-2.81-1.7-2.81-2.87 0-1.97 1.18-2.87 3.63-3.05l2.17-.18v-1.07c0-.9-.09-1.53-1.27-1.53-.9 0-1.36.18-1.36 1.35l-2.72-.27c0-2.6 2.36-3.05 4.17-3.05 2.9 0 4.09.8 4.09 3.5v4.75c0 .27 0 .36.27.36l.9.18v1.52h-3.53l-.18-.98zm-.28-3.14l-1.27.09c-1.17.09-1.54.36-1.54 1.16 0 .81.46 1.08 1.1 1.08.63 0 1.26-.36 1.71-.72v-1.61zm-10.43 3.14h-.09a4.17 4.17 0 01-3.17 1.34c-2.27 0-3.72-1.43-3.72-5.2 0-3.94 1.9-5.38 4.08-5.38 1.09 0 2 .36 2.72.9v-2.96c0-.18-.09-.36-.27-.36l-1.09-.36.18-1.61h3.9v12.73c0 .27 0 .36.28.36l.9.18v1.52h-3.53l-.19-1.16zM85 19.1a2.84 2.84 0 00-1.63-.63c-1.45 0-2 1.35-2 3.05 0 1.88.55 2.96 1.73 2.96.63 0 1.36-.36 1.9-.8V19.1zm-11.6 1.26c0-.9-.1-1.7-1-1.7-.73 0-1.64.44-2 .7v5.2c0 .28 0 .37.27.37l.9.18v1.52h-5.25v-1.52l.9-.1c.28 0 .28-.08.28-.35v-5.74a.5.5 0 00-.28-.45l-1-.36.28-1.61h3.35l.19.99h.09c1-.72 2.08-1.26 3.35-1.26 2.09 0 2.9 1.17 2.9 3.32v5.02c0 .27 0 .36.28.36l1 .18v1.52h-4.18v-6.27h-.09zm-14.07 1.97c.1 1.34.73 2.33 2.27 2.33.73 0 1.54-.18 2.9-.63l.73 1.97a8.38 8.38 0 01-3.9.99c-3.72 0-5-2.33-5-5.38 0-3.5 2.19-5.2 4.82-5.2 2.54 0 4.26 1.35 4.26 4.75v1.35h-6.08v-.18zm1.63-3.95c-.81 0-1.54.45-1.63 2.07h3.09c0-1.62-.64-2.07-1.46-2.07zm-7.98.54c0-.18-.09-.18-.27-.18-.54 0-1.09.45-1.36.72v5.2c0 .27 0 .36.27.36l1.9.18v1.52h-6.25v-1.61l.9-.1c.28 0 .28-.08.28-.35v-5.74a.5.5 0 00-.27-.45l-1-.36.18-1.61h3.36l.27 1.52h.09c.63-.98 1.45-1.79 2.72-1.79.45 0 1.36.1 1.63.18v3.59l-2.27-.1-.18-.98zM42.1 26.91c-1 0-1.9-.36-2.72-.99v2.78c0 .36 0 .36.27.36l2 .18v1.53h-6.26v-1.53l.72-.09c.27 0 .36-.09.36-.45v-9.86c0-.18 0-.36-.27-.45l-1-.36.19-1.6h3.35l.18.98h.1c.9-.81 2.17-1.26 3.26-1.26 2.18 0 3.72 1.35 3.72 5.02.09 2.42-.73 5.74-3.9 5.74zm-.73-8.34c-.81 0-1.54.45-2 .72v4.57a3 3 0 001.82.72c1.27 0 1.82-1.26 1.82-3.14 0-2.06-.64-2.87-1.64-2.87zm-12.6 6.55l1.54-.18-.73-2.06h-4.8l-.64 2.06 1.54.18v1.52h-5.35v-1.52l.82-.18c.27-.1.36-.18.45-.36l4.17-12.01h3.36l4.17 12.1c.1.27.27.27.45.36l.91.18v1.52h-5.9v-1.61zm-1.46-9.6h-.09l-1.72 5.3h3.63l-1.82-5.3z" fill="#221318"/><path d="M157.19 40H4.81A3.81 3.81 0 011 36.23V4.77A3.81 3.81 0 014.81 1h152.38c2.09 0 3.81 1.7 3.81 3.77v31.46a3.75 3.75 0 01-3.81 3.77z" stroke="#1E1E1E" stroke-width="2" stroke-miterlimit="10"/></svg>