<svg xmlns="http://www.w3.org/2000/svg" width="179" height="64" xmlns:v="https://vecta.io/nano"><path fill-rule="evenodd" d="M178.673 44.236l-.966 1.864-.782-.283.5-1.747c.016-.083 0-.133-.084-.167l-.582-.233.366-1.381c1.065.033 1.814.166 1.814 1.065 0 .3-.116.599-.266.882zm-5.243-5.475c1.315.299 2.796.765 2.796 2.713 0 2.03-1.648 2.862-3.761 2.862-1.515 0-2.996-.399-3.296-.599v-2.413l1.781.133.166.949c.034.149.05.199.2.249.2.067.649.167 1.282.167.882 0 1.381-.25 1.381-.866 0-.666-.666-.865-1.514-1.015-1.399-.25-3.229-.549-3.229-2.73 0-2.063.864-2.912 3.678-2.912 1.315 0 2.596.299 3.062.482v2.414l-1.781-.117-.166-.865c-.033-.15-.05-.2-.166-.233-.217-.067-.616-.133-1.066-.133-.832 0-1.298.316-1.298.848 0 .683.916.833 1.931 1.066zm-7.756 4.477l-.084-.017c-.632.616-1.464 1.115-2.796 1.115-2.097 0-2.43-1.431-2.43-2.463 0-1.664 1.016-2.413 3.113-2.563l1.914-.133v-.916c0-.782-.084-1.315-1.115-1.315-.799 0-1.215.117-1.215 1.116l-2.347-.2c0-2.247 2.047-2.563 3.578-2.563 2.53 0 3.545.682 3.545 3.012v4.045c0 .266.017.299.267.333l.798.133v1.314h-3.062l-.166-.898zm-.283-2.68l-1.132.083c-.982.067-1.332.317-1.332.982s.4.916.949.916c.566 0 1.132-.316 1.515-.599v-1.382zm-8.672 2.646l-.116-.016c-.699.682-1.515 1.148-2.73 1.148-1.964 0-3.229-1.248-3.229-4.427 0-3.345 1.681-4.61 3.529-4.61.965 0 1.714.333 2.346.799v-2.53c0-.167-.066-.283-.216-.333l-.915-.316.183-1.348h3.345v10.818c0 .249.017.283.266.316l.799.117v1.314h-3.095l-.167-.932zm-.3-5.475c-.416-.283-.948-.5-1.431-.5-1.231 0-1.714 1.149-1.714 2.63 0 1.615.466 2.513 1.514 2.513.566 0 1.182-.333 1.631-.715v-3.928zm-1.647-14.503c1.315.3 2.796.766 2.796 2.713 0 2.031-1.648 2.863-3.762 2.863-1.514 0-2.995-.4-3.295-.6v-2.413l1.781.133.166.949c.034.15.05.2.2.25.2.066.649.166 1.282.166.882 0 1.381-.25 1.381-.865 0-.666-.666-.866-1.515-1.016-1.398-.249-3.228-.549-3.228-2.729 0-2.064 1.764-2.913 3.678-2.913 1.315 0 2.596.3 3.062.483v2.413l-1.781-.116-.166-.866c-.033-.149-.05-.199-.167-.233-.216-.066-.615-.133-1.065-.133-.832 0-1.298.316-1.298.849 0 .682.915.832 1.931 1.065zm-7.607 20.012l-.083-.017c-.632.616-1.464 1.115-2.796 1.115-2.097 0-2.43-1.431-2.43-2.463 0-1.664 1.015-2.413 3.112-2.563l1.914-.133v-.916c0-.782-.083-1.315-1.115-1.315-.799 0-1.215.117-1.215 1.116l-2.346-.2c0-2.247 2.047-2.563 3.578-2.563 2.53 0 3.545.682 3.545 3.012v4.045c0 .266.017.299.266.333l.799.133v1.314h-3.062l-.167-.898zm-.283-2.68l-1.131.083c-.982.067-1.332.317-1.332.982s.4.916.949.916c.566 0 1.132-.316 1.514-.599v-1.382zm.134-12.855l-.084-.016c-.632.615-1.464 1.115-2.796 1.115-2.097 0-2.43-1.432-2.43-2.464 0-1.664 1.016-2.413 3.113-2.563l1.914-.133v-.915c0-.782-.084-1.315-1.115-1.315-.799 0-1.216.117-1.216 1.115l-2.346-.2c0-2.247 2.047-2.563 3.578-2.563 2.53 0 3.545.683 3.545 3.013v4.044c0 .266.017.3.267.333l.798.133v1.315h-3.062l-.166-.899zm-.283-2.679l-1.132.083c-.982.066-1.332.316-1.332.982s.4.915.949.915c.566 0 1.132-.316 1.515-.599v-1.381zm-8.522 18.18l-.117-.016c-.699.682-1.514 1.148-2.729 1.148-1.964 0-3.229-1.248-3.229-4.427 0-3.345 1.681-4.61 3.528-4.61.966 0 1.715.333 2.347.799v-2.53c0-.167-.067-.283-.216-.333l-.916-.316.183-1.348h3.346v10.818c0 .249.016.283.266.316l.799.117v1.314h-3.096l-.166-.932zm-.3-5.475c-.416-.283-.949-.5-1.431-.5-1.232 0-1.714 1.149-1.714 2.63 0 1.615.466 2.513 1.514 2.513.566 0 1.182-.333 1.631-.715v-3.928zm-1.248-10.442l.832-.116c.233-.034.267-.084.267-.333V18.05c0-.183-.05-.3-.217-.35l-.915-.316.183-1.348h3.462v10.802c0 .266.016.299.266.333l.816.116v1.315h-4.694v-1.315zm-6.125-4.061c1.315.3 2.796.766 2.796 2.713 0 2.031-1.648 2.863-3.761 2.863-1.515 0-2.996-.4-3.296-.6v-2.413l1.781.133.167.949c.033.15.049.2.199.25.2.066.649.166 1.282.166.882 0 1.381-.25 1.381-.865 0-.666-.666-.866-1.514-1.016-1.398-.249-3.229-.549-3.229-2.729 0-2.064 1.764-2.913 3.678-2.913 1.315 0 2.596.3 3.062.483v2.413l-1.78-.116-.167-.866c-.033-.149-.05-.199-.166-.233-.217-.066-.616-.133-1.065-.133-.833 0-1.299.316-1.299.849 0 .682.916.832 1.931 1.065zm-6.924-10.159h-5.11v-1.331l1.049-.117c.25-.033.266-.083.266-.332V2.782c0-.25-.033-.3-.266-.333l-1.049-.117V1.018h5.393c4.177 0 5.975 2.246 5.975 5.841 0 3.695-1.947 6.208-6.258 6.208zm-.167-10.252h-1.048v8.455h.949c2.929 0 3.911-1.731 3.911-4.261 0-3.062-1.165-4.194-3.812-4.194zm-2.063 18.597c-.799 0-1.215.117-1.215 1.115l-2.347-.2c0-2.247 2.047-2.563 3.578-2.563 2.53 0 3.545.683 3.545 3.013v4.044c0 .266.017.3.267.333l.799.133v1.315h-3.063l-.166-.899-.084-.016c-.632.615-1.464 1.115-2.796 1.115-2.097 0-2.43-1.432-2.43-2.464 0-1.664 1.016-2.413 3.113-2.563l1.914-.133v-.915c0-.782-.083-1.315-1.115-1.315zm-.017 3.695c-.982.066-1.332.316-1.332.982s.4.915.949.915c.566 0 1.132-.316 1.515-.599v-1.381l-1.132.083zm-7.54 2.563l-.116-.017c-.699.683-1.515 1.149-2.73 1.149-1.964 0-3.229-1.249-3.229-4.428 0-3.345 1.681-4.61 3.529-4.61.965 0 1.714.333 2.346.799v-2.53c0-.166-.066-.283-.216-.333l-.915-.316.183-1.348h3.345v10.818c0 .25.017.283.266.317l.799.116v1.315h-3.095l-.167-.932zm-.299-5.476c-.416-.283-.949-.499-1.432-.499-1.231 0-1.714 1.148-1.714 2.63 0 1.614.466 2.513 1.514 2.513.566 0 1.182-.333 1.632-.716v-3.928zm-3.812-12.821c.083 1.181.599 1.963 1.964 1.963.649 0 1.348-.149 2.48-.565l.616 1.647c-1.032.5-2.164.849-3.412.849-3.212 0-4.311-1.997-4.311-4.593 0-3.013 1.848-4.444 4.128-4.444 2.197 0 3.661 1.148 3.661 4.027l-.033 1.116h-5.093zm1.415-3.346c-.716 0-1.298.4-1.398 1.764h2.646c-.016-1.398-.566-1.764-1.248-1.764zm-5.759 5.376c.466 0 .949-.116 1.348-.266l.449 1.464c-.715.35-1.764.666-2.712.666-1.981 0-2.73-.799-2.73-2.679V6.227c0-.1 0-.166-.133-.166h-1.165V4.579c1.465-.166 2.047-.898 2.23-2.713h1.581V4.23c0 .116 0 .166.133.166h2.347v1.665h-2.48v3.977c0 .982.233 1.365 1.132 1.365zm-7.29-4.943c-.033-.15-.083-.183-.216-.183-.433 0-.949.366-1.199.582v4.411c0 .266.017.316.266.333l1.648.133v1.331h-5.442v-1.348l.749-.1c.233-.033.266-.083.266-.332V6.41c0-.183-.05-.3-.216-.349l-.899-.317.183-1.348h2.929l.2 1.332h.1C97 4.879 97.732 4.23 98.798 4.23c.382 0 1.148.066 1.447.15v3.029l-1.997-.067-.166-.882zm-8.372 5.709l-.083-.017c-.633.616-1.465 1.115-2.796 1.115-2.098 0-2.43-1.431-2.43-2.463 0-1.664 1.015-2.413 3.112-2.563l1.914-.133v-.916c0-.782-.083-1.314-1.115-1.314-.799 0-1.215.116-1.215 1.115l-2.347-.2c0-2.247 2.047-2.563 3.578-2.563 2.53 0 3.545.682 3.545 3.012v4.045c0 .266.017.299.267.332l.799.134v1.314h-3.063l-.166-.898zm-.283-2.68l-1.132.083c-.982.067-1.331.317-1.331.982s.399.916.948.916c.566 0 1.132-.317 1.515-.6V9.489zm-9.637-.865h-1.215v2.663c0 .266.033.316.266.332l2.38.134v1.314h-6.524v-1.314l1.049-.117c.233-.033.266-.083.266-.333V2.798c0-.249-.017-.299-.266-.332l-1.049-.117V1.018h5.642c3.079 0 4.011 1.631 4.011 3.545 0 2.896-1.747 4.061-4.56 4.061zm-.233-5.792h-.982v4.011h.832c1.099 0 2.314-.25 2.314-2.131 0-1.597-.982-1.88-2.164-1.88zm-2.879 18.364l.05.016c.549-.616 1.364-1.331 2.496-1.331a5.19 5.19 0 0 1 1.198.15v2.513l-1.181-.05-.2-1.149c-.017-.133-.05-.166-.2-.166-.749 0-1.597.682-1.98 1.048v5.01c0 .266.016.316.266.333l1.531.133v.899h-4.41v-.915l.832-.1c.233-.034.266-.084.266-.333v-5.659c0-.183-.05-.3-.216-.349l-.949-.317.15-.882h2.18l.167 1.149zm1.448 14.103c2.197 0 3.661 1.148 3.661 4.028l-.033 1.115h-5.093c.083 1.181.599 1.964 1.964 1.964.649 0 1.348-.15 2.48-.566l.616 1.647c-1.032.5-2.164.849-3.412.849-3.213 0-4.311-1.997-4.311-4.593 0-3.013 1.847-4.444 4.128-4.444zm1.198 3.562c-.017-1.399-.566-1.765-1.248-1.765-.716 0-1.299.4-1.398 1.765h2.646zm-7.773-1.332c-.033-.15-.083-.183-.216-.183-.433 0-.949.366-1.199.582v4.411c0 .266.017.316.267.333l1.647.133v1.331h-5.442v-1.348l.749-.099c.233-.034.266-.084.266-.333v-4.877c0-.183-.05-.299-.216-.349l-.899-.317.183-1.348h2.93l.199 1.332h.1c.549-.849 1.282-1.498 2.347-1.498.383 0 1.148.066 1.448.15v3.029l-1.997-.067-.167-.882zm-1.897-8.727c-.999 0-1.864-.35-2.58-1.032l-.05.033-.083.799H65.46c.099-.616.199-1.581.199-2.38v-8.638c0-.183-.05-.3-.216-.35l-.982-.316.15-.882h2.563v4.81c.782-.499 1.681-.965 2.846-.965 1.864 0 3.146 1.198 3.146 4.127 0 3.429-1.415 4.794-3.512 4.794zm-.034-7.656c-.965 0-1.864.516-2.446.932v4.394c.532.499 1.381 1.081 2.28 1.081 1.564 0 2.18-1.298 2.18-3.411 0-2.147-.832-2.996-2.014-2.996zM65.909 9.373c.083 1.181.599 1.963 1.964 1.963.649 0 1.348-.149 2.48-.565l.615 1.647c-1.031.5-2.163.849-3.411.849-3.213 0-4.311-1.997-4.311-4.593 0-3.013 1.847-4.444 4.127-4.444 2.197 0 3.662 1.148 3.662 4.027l-.033 1.116h-5.093zm1.415-3.346c-.716 0-1.299.4-1.398 1.764h2.646c-.017-1.398-.566-1.764-1.248-1.764zm-3.413 22.575h-2.346l-.134-1.132-.033-.016c-.765.649-1.747 1.348-3.212 1.348-1.831 0-2.397-1.115-2.397-3.03v-4.227c0-.266-.016-.316-.266-.383l-.866-.216.134-.899h2.513v5.376c0 1.448.25 2.147 1.298 2.147 1.132 0 2.097-.782 2.68-1.448v-4.593c0-.267-.017-.3-.267-.367l-.832-.216.133-.899h2.48v7.19c0 .25.05.333.233.35l.882.116v.899zM60.799 6.46c-.033-.15-.083-.183-.216-.183-.433 0-.949.366-1.199.582v4.411c0 .266.017.316.267.333l1.647.133v1.331h-5.442v-1.348l.749-.1c.233-.033.266-.083.266-.332V6.41c0-.183-.05-.3-.216-.349l-.899-.317.183-1.348h2.929l.2 1.332h.1c.549-.849 1.282-1.498 2.347-1.498.383 0 1.148.066 1.448.15v3.029l-1.998-.067-.166-.882zm-8.372 5.709l-.083-.017c-.633.616-1.465 1.115-2.796 1.115-2.097 0-2.43-1.431-2.43-2.463 0-1.664 1.015-2.413 3.112-2.563l1.914-.133v-.916c0-.782-.083-1.314-1.115-1.314-.799 0-1.215.116-1.215 1.115l-2.347-.2c0-2.247 2.047-2.563 3.579-2.563 2.529 0 3.545.682 3.545 3.012v4.045c0 .266.016.299.266.332l.799.134v1.314h-3.063l-.166-.898zm-.283-2.68l-1.132.083c-.982.067-1.331.317-1.331.982s.399.916.948.916c.566 0 1.132-.317 1.515-.6V9.489zm-.749 10.392c1.215 0 2.164.333 2.53.516v2.213l-1.115-.05-.2-1.098c-.017-.117-.05-.183-.2-.233-.233-.083-.665-.15-1.131-.15-1.482 0-2.663.866-2.663 3.246 0 2.33 1.098 3.228 2.713 3.228.832 0 1.664-.266 2.13-.549l.483 1.099c-.633.416-1.748.699-2.846.699-2.846 0-4.061-1.748-4.061-4.378 0-3.162 1.83-4.543 4.36-4.543zm-8.006 18.88c0-.799-.05-1.465-.882-1.465-.616 0-1.381.35-1.731.616v4.46c0 .266.017.3.267.333l.798.117v1.314h-4.593v-1.331l.749-.1c.233-.033.266-.083.266-.333v-4.893c0-.183-.05-.299-.216-.349l-.899-.317.2-1.348h2.912l.133.866.067.033c.832-.616 1.797-1.065 2.929-1.065 1.814 0 2.513.998 2.513 2.829v4.244c0 .266.017.3.267.333l.832.117v1.314h-3.612v-5.375zm.583-27.375c.832 0 1.581-.266 2.08-.482l.649 1.548c-.765.466-1.947.815-3.162.815-3.012 0-4.36-1.881-4.36-4.41 0-3.113 1.897-4.627 4.56-4.627 1.298 0 2.446.366 2.962.699v2.613l-1.781-.083-.199-1.099c-.017-.116-.05-.216-.2-.266a2.88 2.88 0 0 0-.849-.117c-.998 0-1.847.683-1.847 2.63 0 2.164.965 2.779 2.147 2.779zm-9.753.367l.848-.117c.233-.033.267-.083.267-.333V6.41c0-.183-.05-.3-.217-.349l-.898-.317.183-1.348h3.445v6.907c0 .267.017.3.266.333l.849.117v1.314h-4.743v-1.314zm2.147-8.688c-.949 0-1.498-.55-1.498-1.498S35.417.102 36.366.102c.965 0 1.514.516 1.514 1.465s-.549 1.498-1.514 1.498zm-5.576 9.07l-.117-.016c-.699.682-1.514 1.148-2.729 1.148-1.964 0-3.229-1.248-3.229-4.427 0-3.345 1.681-4.61 3.528-4.61.966 0 1.714.333 2.347.799v-2.53c0-.167-.067-.283-.216-.333l-.916-.316.183-1.348h3.346V11.32c0 .25.016.283.266.316l.799.117v1.314h-3.096l-.166-.932zm-.3-5.475c-.416-.283-.949-.5-1.431-.5-1.232 0-1.715 1.149-1.715 2.63 0 1.614.467 2.513 1.515 2.513.566 0 1.182-.333 1.631-.715V6.66zM18.972 9.373c.084 1.181.6 1.963 1.964 1.963.649 0 1.348-.149 2.48-.565l.616 1.647c-1.032.5-2.164.849-3.412.849-3.212 0-4.311-1.997-4.311-4.593 0-3.013 1.848-4.444 4.128-4.444 2.197 0 3.662 1.148 3.662 4.027l-.034 1.116h-5.093zm1.415-3.346c-.716 0-1.298.4-1.398 1.764h2.646c-.016-1.398-.565-1.764-1.248-1.764zm-10.003 5.742l1.365-.116c.249-.017.266-.1.266-.333V4.995h-.067l-2.38 5.676H6.855L4.509 4.979h-.083v6.324c0 .267.033.316.266.333l1.431.133v1.298h-5.06v-1.298l1.049-.116c.233-.034.266-.083.266-.333V2.782c0-.25-.033-.3-.266-.333l-1.049-.117V1.018h4.461L8.42 8.557h.066l3.046-7.539h4.328v1.298l-1.116.133c-.249.033-.266.066-.266.316v8.555c0 .216.05.283.266.316l1.116.133v1.298h-5.476v-1.298zm-5.592 9.26c-1.016 0-1.748.033-1.765 1.282l-1.431-.15c0-2.047 1.897-2.28 3.212-2.28 2.364 0 3.163.666 3.163 2.962v4.411c0 .266.016.299.266.333l.849.116v.899h-2.33l-.15-1.082-.05-.017c-.799.749-1.731 1.299-3.013 1.299-2.08 0-2.346-1.432-2.346-2.281 0-1.664 1.032-2.446 3.029-2.613l2.247-.183v-.882c0-1.215-.233-1.814-1.681-1.814zm-.2 3.911c-1.431.134-1.831.55-1.831 1.415 0 .899.383 1.265 1.165 1.265.982 0 2.031-.799 2.547-1.282v-1.564l-1.881.166zm.666 11.873l-1.066.133L5.89 41.69h.117l1.764-4.744-1.082-.133.216-1.348h3.845v1.348l-.599.1c-.25.05-.333.083-.416.283l-2.647 6.94H4.176l-2.646-6.89c-.084-.2-.15-.233-.35-.283l-.699-.15.266-1.348h4.511v1.348zm-2.83 21.493c.017.117.05.183.2.233.216.083.799.267 1.631.267 1.115 0 1.831-.417 1.831-1.315 0-.999-.949-1.232-2.014-1.482-1.298-.299-2.763-.632-2.763-2.463 0-1.897 1.598-2.596 3.312-2.596 1.199 0 2.28.316 2.63.466v2.147l-1.115-.067-.2-1.032c-.017-.116-.033-.166-.166-.216-.233-.083-.733-.183-1.299-.183-1.215 0-1.764.533-1.764 1.248 0 .949.999 1.149 2.081 1.431 1.298.333 2.712.733 2.712 2.53 0 1.931-1.614 2.597-3.378 2.597-1.348 0-2.713-.383-3.013-.566v-2.214l1.116.067.199 1.148zm7.041.017v-5.659c0-.183-.05-.3-.217-.349l-.948-.317.15-.882h2.529v7.207c0 .266-.883.299.267.333l1.065.116v.899H8.104v-.915l1.098-.1c.233-.017.267-.084.267-.333zm.532-9.054c-.682 0-1.082-.383-1.082-1.065 0-.666.4-1.049 1.082-1.049s1.066.383 1.066 1.049c0 .682-.383 1.065-1.066 1.065zm9.121-5.133H16.06l-.167-.898-.083-.017c-.632.616-1.465 1.115-2.796 1.115-2.097 0-2.43-1.431-2.43-2.463 0-1.664 1.015-2.413 3.112-2.563l1.914-.133v-.916c0-.782-.083-1.315-1.115-1.315-.799 0-1.215.117-1.215 1.116l-2.346-.2c0-2.247 2.047-2.563 3.578-2.563 2.53 0 3.545.682 3.545 3.012v4.045c0 .266.017.299.266.333l.799.133v1.314zm-3.512-3.578l-1.131.083c-.982.067-1.332.317-1.332.982s.4.916.949.916c.566 0 1.131-.316 1.514-.599v-1.382zm-5.009-23.324l-.999-.316.15-.882h2.563v4.943c.765-.549 1.731-1.098 2.996-1.098 1.781 0 2.563 1.148 2.563 3.029v4.344c0 .266.016.299.266.333l.949.116v.899h-3.828v-.915l.799-.1c.216-.034.299-.1.299-.333v-3.878c0-1.232-.216-2.214-1.398-2.214-.999 0-1.981.566-2.63 1.082v5.01c0 .266.017.299.267.333l.932.116v.899H9.718v-.915l.833-.1c.233-.034.266-.084.266-.333v-9.67c0-.183-.05-.3-.216-.35zm3.179 35.081l-.949-.317.15-.882h2.18l.133.982.05.017c.866-.616 1.881-1.165 3.079-1.165 1.914 0 2.63 1.231 2.63 3.046v4.327c0 .266.016.299.266.333l.949.116v.899H18.44v-.915l.799-.1c.216-.034.299-.1.299-.333v-3.945c0-1.081-.216-2.13-1.448-2.13-.948 0-1.847.466-2.58 1.065v5.01c0 .266.017.299.267.333l.932.116v.899h-3.812v-.915l.833-.1c.233-.034.266-.084.266-.333v-5.659c0-.183-.05-.3-.216-.349zm5.459-12.389c0-3.113 1.897-4.627 4.56-4.627 1.298 0 2.447.366 2.963.699v2.613l-1.781-.083-.2-1.099c-.017-.116-.05-.216-.2-.266-.199-.067-.516-.117-.848-.117-.999 0-1.848.683-1.848 2.63 0 2.164.966 2.779 2.147 2.779.832 0 1.581-.266 2.081-.482l.649 1.548c-.766.466-1.948.815-3.162.815-3.013 0-4.361-1.881-4.361-4.41zM30.573 50.95c1.215 0 2.164.333 2.53.516v2.213l-1.115-.05-.2-1.098a.24.24 0 0 0-.199-.233c-.233-.083-.666-.15-1.132-.15-1.481 0-2.663.866-2.663 3.246 0 2.33 1.098 3.228 2.713 3.228.832 0 1.664-.266 2.13-.549l.483 1.099c-.633.416-1.748.699-2.846.699-2.846 0-4.061-1.748-4.061-4.378 0-3.162 1.83-4.543 4.36-4.543zm-6.807-22.148c-2.896 0-4.011-1.864-4.011-4.511 0-2.613 1.331-4.41 4.177-4.41s3.945 1.814 3.945 4.31c0 2.796-1.265 4.611-4.111 4.611zm.133-7.656c-1.631 0-2.58.965-2.58 3.162 0 2.213.849 3.279 2.497 3.279 1.614 0 2.496-1.016 2.496-3.296 0-2.18-.798-3.145-2.413-3.145zm5.809.1l-.949-.317.15-.882h2.18l.167 1.149.05.016c.549-.616 1.365-1.331 2.496-1.331.383 0 .899.066 1.199.15v2.513l-1.182-.05-.2-1.149c-.016-.133-.05-.166-.2-.166-.748 0-1.597.682-1.98 1.048v5.01c0 .266.017.316.266.333l1.531.133v.899h-4.41v-.915l.832-.1c.233-.034.266-.084.266-.333v-5.659c0-.183-.05-.3-.216-.349zm9.154-.217c-1.015 0-1.747.033-1.764 1.282l-1.431-.15c0-2.047 1.897-2.28 3.212-2.28 2.363 0 3.162.666 3.162 2.962v4.411c0 .266.017.299.266.333l.849.116v.899h-2.33l-.15-1.082-.05-.017c-.799.749-1.731 1.299-3.012 1.299-2.081 0-2.347-1.432-2.347-2.281 0-1.664 1.032-2.446 3.029-2.613l2.247-.183v-.882c0-1.215-.233-1.814-1.681-1.814zm-.2 3.911c-1.431.134-1.83.55-1.83 1.415 0 .899.382 1.265 1.165 1.265.982 0 2.03-.799 2.546-1.282v-1.564l-1.881.166zm-7.989 19.396c-1.747 0-2.413-.998-2.413-2.929v-4.061c0-.266-.017-.3-.266-.35l-.799-.166.166-1.365h3.412v5.509c0 1.015.167 1.398.882 1.398.732 0 1.332-.416 1.714-.765v-4.278c0-.266-.016-.283-.266-.333l-.716-.166.184-1.365h3.312v6.907c0 .217.033.283.233.317l.832.116v1.331h-3.096l-.133-.898-.083-.017c-.683.516-1.548 1.115-2.963 1.115zm7.207 6.614c2.846 0 3.945 1.814 3.945 4.31 0 2.797-1.265 4.611-4.111 4.611-2.896 0-4.011-1.864-4.011-4.511 0-2.613 1.331-4.41 4.177-4.41zm-.116 7.706c1.614 0 2.496-1.016 2.496-3.296 0-2.18-.799-3.145-2.413-3.145-1.631 0-2.58.965-2.58 3.162 0 2.214.849 3.279 2.497 3.279zm6.308-.35a.24.24 0 0 0 .2.233c.216.083.798.267 1.631.267 1.115 0 1.83-.417 1.83-1.315 0-.999-.948-1.232-2.013-1.482-1.299-.299-2.763-.632-2.763-2.463 0-1.897 1.598-2.596 3.312-2.596 1.198 0 2.28.316 2.63.466v2.147l-1.116-.067-.199-1.032c-.017-.116-.034-.166-.167-.216-.233-.083-.732-.183-1.298-.183-1.215 0-1.764.533-1.764 1.248 0 .949.998 1.149 2.08 1.431 1.298.333 2.713.733 2.713 2.53 0 1.931-1.614 2.597-3.379 2.597-1.348 0-2.712-.383-3.012-.566v-2.214l1.115.067.2 1.148zm7.54-9.387h.982v2.031c0 .1 0 .166.133.166h2.446v1.149h-2.579v4.909c0 1.049.249 1.448 1.198 1.448.516 0 1.098-.149 1.548-.333l.366 1.066c-.666.266-1.465.516-2.314.516-1.597 0-2.313-.749-2.313-2.247v-5.193c0-.1 0-.166-.133-.166h-1.215v-.966c1.298-.166 1.664-.682 1.881-2.38zm-.367-11.973c-.798 0-1.215.117-1.215 1.116l-2.346-.2c0-2.247 2.047-2.563 3.578-2.563 2.53 0 3.545.682 3.545 3.012v4.045c0 .266.017.299.266.333l.799.133v1.314H52.81l-.167-.898-.083-.017c-.632.616-1.464 1.115-2.796 1.115-2.097 0-2.43-1.431-2.43-2.463 0-1.664 1.015-2.413 3.113-2.563l1.913-.133v-.916c0-.782-.083-1.315-1.115-1.315zm-.016 3.695c-.982.067-1.332.317-1.332.982s.4.916.949.916c.566 0 1.132-.316 1.514-.599v-1.382l-1.131.083zm9.171-1.88c1.314.299 2.796.765 2.796 2.713 0 2.03-1.648 2.862-3.762 2.862-1.514 0-2.996-.399-3.295-.599v-2.413l1.781.133.166.949c.033.149.05.199.2.249.2.067.649.167 1.281.167.883 0 1.382-.25 1.382-.866 0-.666-.666-.865-1.515-1.015-1.398-.25-3.229-.549-3.229-2.73 0-2.063 1.765-2.912 3.679-2.912 1.315 0 2.596.299 3.062.482v2.414l-1.781-.117-.166-.865c-.034-.15-.05-.2-.167-.233-.216-.067-.615-.133-1.065-.133-.832 0-1.298.316-1.298.848 0 .683.915.833 1.931 1.066zm-.367 12.189c2.846 0 3.945 1.814 3.945 4.31 0 2.797-1.265 4.611-4.111 4.611-2.896 0-4.011-1.864-4.011-4.511 0-2.613 1.331-4.41 4.177-4.41zm-.116 7.706c1.614 0 2.496-1.016 2.496-3.296 0-2.18-.798-3.145-2.413-3.145-1.631 0-2.58.965-2.58 3.162 0 2.214.849 3.279 2.497 3.279zm9.154-6.341l-.948-.317.149-.882h2.197l.15.966.05.016c.915-.682 1.847-1.148 2.979-1.148 1.864 0 3.129 1.198 3.129 4.127 0 2.497-.849 4.794-3.462 4.794-.948 0-1.747-.233-2.529-.916v2.88c0 .266.016.316.266.332l1.564.134v.898h-4.294v-.915l.683-.1c.233-.033.283-.083.283-.333v-9.187c0-.183-.05-.3-.217-.349zm1.715 5.226c.566.549 1.398 1.081 2.28 1.081 1.581 0 2.18-1.314 2.18-3.412 0-2.263-.882-2.979-1.914-2.979-1.065 0-2.064.649-2.546 1.032v4.278zm9.919-2.563l2.247-.184v-.882c0-1.215-.233-1.814-1.681-1.814-1.015 0-1.747.034-1.764 1.282l-1.431-.15c0-2.047 1.897-2.28 3.212-2.28 2.363 0 3.162.665 3.162 2.962v4.411c0 .266.017.299.267.333l.848.116v.899h-2.33l-.149-1.082-.05-.017c-.799.749-1.731 1.299-3.013 1.299-2.08 0-2.347-1.432-2.347-2.28 0-1.665 1.032-2.447 3.029-2.613zm-.299 3.711c.982 0 2.03-.799 2.546-1.281v-1.565l-1.88.166c-1.432.134-1.831.55-1.831 1.415 0 .899.383 1.265 1.165 1.265zm4.643-31.169c.933 0 1.515-.166 2.397-.599l.483 1.132c-.832.466-1.831.749-3.029.749-3.013 0-3.995-1.981-3.995-4.461 0-3.046 1.698-4.46 3.795-4.46 2.03 0 3.429 1.098 3.429 3.978l-.034.832h-5.592c.05 1.681.732 2.829 2.546 2.829zm1.565-3.978c-.033-1.897-.899-2.446-1.914-2.446-1.115 0-2.047.599-2.18 2.446h4.094zm.449 18.913c.833 0 1.582-.266 2.081-.482l.649 1.548c-.766.466-1.947.815-3.162.815-3.013 0-4.361-1.881-4.361-4.41 0-3.113 1.897-4.627 4.56-4.627 1.299 0 2.447.366 2.963.699v2.613l-1.781-.083-.2-1.099c-.016-.116-.05-.216-.199-.266a2.88 2.88 0 0 0-.849-.117c-.999 0-1.848.683-1.848 2.63 0 2.164.966 2.779 2.147 2.779zm.017 9.86l-.948-.317.149-.882h2.181l.166 1.149.05.016c.549-.616 1.365-1.331 2.497-1.331.382 0 .898.066 1.198.15v2.513l-1.182-.05-.2-1.149c-.016-.133-.05-.166-.199-.166-.749 0-1.598.682-1.981 1.049v5.009c0 .266.017.316.266.333l1.532.133v.899h-4.411v-.915l.832-.1c.233-.034.267-.084.267-.333v-5.659c0-.183-.05-.3-.217-.349zm7.54-17.016c3.079 0 4.277 1.831 4.277 4.377 0 2.829-1.431 4.66-4.493 4.66-3.046 0-4.278-1.864-4.278-4.477 0-2.763 1.448-4.56 4.494-4.56zm-.1 7.29c1.082 0 1.748-.749 1.748-2.83 0-1.964-.599-2.663-1.681-2.663-1.099 0-1.831.683-1.831 2.68 0 2.014.649 2.813 1.764 2.813zm1.149 12.389l2.246-.184v-.882c0-1.215-.233-1.814-1.681-1.814-1.015 0-1.747.034-1.764 1.282l-1.431-.15c0-2.047 1.897-2.28 3.212-2.28 2.363 0 3.162.665 3.162 2.962v4.411c0 .266.017.299.267.333l.848.116v.899h-2.33l-.149-1.082-.05-.017c-.799.749-1.731 1.299-3.013 1.299-2.08 0-2.347-1.432-2.347-2.28 0-1.665 1.032-2.447 3.03-2.613zm-.3 3.711c.982 0 2.031-.799 2.546-1.281v-1.565l-1.88.166c-1.432.134-1.831.55-1.831 1.415 0 .899.383 1.265 1.165 1.265zm7.49-38.925c3.079 0 4.277 1.831 4.277 4.378 0 2.829-1.431 4.66-4.494 4.66-3.045 0-4.277-1.864-4.277-4.477 0-2.763 1.448-4.561 4.494-4.561zm-.1 7.29c1.082 0 1.747-.749 1.747-2.829 0-1.964-.599-2.663-1.681-2.663-1.098 0-1.83.682-1.83 2.679 0 2.014.649 2.813 1.764 2.813zm-6.075-.116c.466 0 .948-.117 1.348-.267l.449 1.465c-.715.349-1.764.666-2.713.666-1.98 0-2.729-.799-2.729-2.68v-4.361c0-.099 0-.166-.133-.166h-1.165v-1.481c1.464-.167 2.047-.899 2.23-2.713h1.581v2.363c0 .117 0 .167.133.167h2.347v1.664h-2.48v3.978c0 .982.233 1.365 1.132 1.365zm6.425 15.767l.815.117v1.314h-4.61v-1.314l.749-.117c.233-.033.266-.083.266-.333v-4.893c0-.183-.05-.299-.216-.349l-.899-.317.183-1.348h2.929l.133.866.084.016c.749-.615 1.597-1.048 2.662-1.048.816 0 1.565.216 2.031.998.549-.432 1.515-.998 2.68-.998 1.78 0 2.446.882 2.446 2.813v4.26c0 .266.017.317.267.35l.832.1v1.314h-3.612v-5.375c0-.649-.067-1.432-.932-1.432-.466 0-.915.167-1.348.45.033.266.05.532.05.815v3.778c0 .283.017.317.266.35l.666.1v1.314h-3.445v-5.459c0-.615-.05-1.348-.882-1.348-.5 0-1.049.25-1.382.533v4.51c0 .266.017.3.267.333zm3.894 8.411v5.376c0 1.448.25 2.147 1.298 2.147 1.132 0 2.097-.782 2.68-1.448v-4.593c0-.267-.017-.3-.266-.367l-.832-.216.133-.899h2.48v7.19c0 .25.05.333.233.35l.882.116v.899h-2.347l-.133-1.132-.034-.016c-.765.649-1.747 1.348-3.212 1.348-1.83 0-2.396-1.115-2.396-3.029v-4.228c0-.266-.017-.316-.267-.383l-.865-.216.133-.899h2.513zm10.835-15.817c2.197 0 3.662 1.148 3.662 4.028l-.033 1.115h-5.093c.083 1.181.599 1.964 1.964 1.964.649 0 1.348-.15 2.48-.566l.615 1.647c-1.031.5-2.163.849-3.411.849-3.213 0-4.311-1.997-4.311-4.593 0-3.013 1.847-4.444 4.127-4.444zm1.199 3.562c-.017-1.399-.566-1.765-1.248-1.765-.716 0-1.299.4-1.398 1.765h2.646zm-3.279 19.445c.017.117.05.183.2.233.216.083.799.267 1.631.267 1.115 0 1.831-.417 1.831-1.315 0-.999-.949-1.232-2.014-1.482-1.298-.299-2.763-.632-2.763-2.463 0-1.897 1.598-2.596 3.312-2.596 1.198 0 2.28.316 2.63.466v2.147l-1.115-.067-.2-1.032c-.017-.116-.033-.166-.167-.216-.233-.083-.732-.183-1.298-.183-1.215 0-1.764.533-1.764 1.248 0 .949.999 1.149 2.08 1.431 1.299.333 2.713.733 2.713 2.53 0 1.931-1.614 2.597-3.378 2.597-1.348 0-2.713-.383-3.013-.566v-2.214l1.115.067.2 1.148zm7.54-9.387h.982v2.031c0 .1 0 .166.133.166h2.446v1.149h-2.579v4.909c0 1.049.249 1.448 1.198 1.448.516 0 1.099-.149 1.548-.333l.366 1.066c-.666.266-1.465.516-2.313.516-1.598 0-2.314-.749-2.314-2.247v-5.193c0-.1 0-.166-.133-.166h-1.215v-.966c1.298-.166 1.665-.682 1.881-2.38zm-.483-11.789l-.899-.317.2-1.348h2.913l.133.866.066.033c.833-.616 1.798-1.065 2.93-1.065 1.814 0 2.513.998 2.513 2.829v4.244c0 .266.017.3.266.333l.832.117v1.314h-3.611v-5.375c0-.799-.05-1.465-.882-1.465-.616 0-1.382.35-1.731.616v4.46c0 .266.016.3.266.333l.799.117v1.314h-4.594v-1.331l.749-.1c.233-.033.267-.083.267-.333v-4.893c0-.183-.05-.299-.217-.349zm8.522 13.82c2.03 0 3.428 1.098 3.428 3.978l-.033.832h-5.592c.05 1.681.732 2.829 2.546 2.829.932 0 1.515-.166 2.397-.599l.483 1.132c-.833.466-1.831.749-3.029.749-3.013 0-3.995-1.981-3.995-4.461 0-3.046 1.698-4.46 3.795-4.46zm1.914 3.661c-.033-1.897-.899-2.446-1.914-2.446-1.115 0-2.047.599-2.18 2.446h4.094zm5.992-3.661c.998 0 1.897.333 2.546.799v-3.113c0-.166-.066-.283-.216-.332l-.999-.317.15-.882h2.547v11.218c0 .266.016.299.266.333l.849.116v.899h-2.347l-.133-1.099-.067-.016c-.765.732-1.631 1.315-2.929 1.315-1.897 0-3.146-1.232-3.146-4.294 0-3.279 1.482-4.627 3.479-4.627zm0 7.656c.982 0 1.781-.649 2.513-1.382v-4.127c-.499-.416-1.398-.899-2.28-.899-1.565 0-2.18 1.365-2.18 3.345 0 2.314.782 3.063 1.947 3.063zm6.957-.832c.699 0 1.099.349 1.099 1.048s-.383 1.049-1.099 1.049-1.098-.35-1.098-1.049.383-1.048 1.098-1.048z"/></svg>