<svg xmlns="http://www.w3.org/2000/svg" width="197" height="71" xmlns:v="https://vecta.io/nano"><path fill-rule="evenodd" fill="#fff" d="M195.1 49.011l-.115 1.959-.822-.298.525-1.836c.017-.088 0-.14-.088-.175l-.612-.245.385-1.452c1.12.035 1.907.175 1.907 1.119 0 .315-.123.63-1.18.928zm-4.611-5.756c1.382.315 2.939.805 2.939 2.852 0 2.134-1.732 3.008-3.953 3.008-1.592 0-3.149-.419-3.464-.629v-2.537l1.872.14.175.997c.035.158.052.21.21.263.209.07.682.175 1.347.175.927 0 1.451-.263 1.451-.91 0-.7-.699-.91-1.591-1.067-1.47-.263-3.394-.577-3.394-2.869 0-2.169 1.854-3.061 3.866-3.061 1.382 0 2.729.315 3.219.507v2.537l-1.872-.123-.175-.91c-.035-.157-.053-.209-.175-.245-.227-.069-.647-.14-1.12-.14-.874 0-1.364.333-1.364.893 0 .717.962.874 2.029 1.119zm-8.152 4.706l-.088-.018c-.664.648-1.539 1.172-2.938 1.172-2.204 0-2.554-1.504-2.554-2.589 0-1.749 1.067-2.536 3.271-2.694l2.012-.139v-.963c0-.822-.088-1.382-1.172-1.382-.84 0-1.277.123-1.277 1.173l-2.467-.21c0-2.362 2.152-2.694 3.761-2.694 2.659 0 3.726.717 3.726 3.166v4.251c0 .28.018.315.28.35l.84.14v1.382h-3.219l-.175-.945zm-.297-2.816l-1.19.087c-1.032.07-1.399.332-1.399 1.032s.42.962.997.962c.595 0 1.189-.332 1.592-.629v-1.452zm-9.115 2.781l-.122-.018c-.735.718-1.592 1.207-2.869 1.207-2.064 0-3.394-1.311-3.394-4.653 0-3.516 1.767-4.845 3.709-4.845 1.014 0 1.802.35 2.466.839v-2.659c0-.174-.07-.297-.227-.35l-.962-.332.192-1.417h3.516v11.371c0 .262.018.297.28.332l.84.123v1.382H173.1l-.175-.98zm-.315-5.755c-.437-.298-.997-.525-1.504-.525-1.294 0-1.802 1.207-1.802 2.764 0 1.697.49 2.641 1.592 2.641.595 0 1.242-.35 1.714-.752v-4.128zm-9.726 5.79l-.088-.018c-.664.648-1.539 1.172-2.938 1.172-2.205 0-2.554-1.504-2.554-2.589 0-1.749 1.067-2.536 3.271-2.694l2.011-.139v-.963c0-.822-.087-1.382-1.172-1.382-.839 0-1.277.123-1.277 1.173l-2.466-.21c0-2.362 2.152-2.694 3.761-2.694 2.659 0 3.726.717 3.726 3.166v4.251c0 .28.018.315.28.35l.84.14v1.382h-3.219l-.175-.945zm-.298-2.816l-1.189.087c-1.032.07-1.4.332-1.4 1.032s.42.962.998.962c.594 0 1.189-.332 1.591-.629v-1.452zm-.997-19.384c1.382.315 2.939.805 2.939 2.852 0 2.134-1.732 3.009-3.953 3.009-1.592 0-3.149-.42-3.464-.63v-2.537l1.872.14.175.997c.035.158.052.21.21.263.21.07.682.175 1.347.175.927 0 1.452-.263 1.452-.91 0-.7-.7-.91-1.592-1.067-1.47-.262-3.394-.577-3.394-2.869 0-2.169 1.854-3.061 3.866-3.061 1.382 0 2.729.315 3.219.507v2.537l-1.872-.123-.175-.909c-.035-.158-.052-.21-.175-.245-.227-.07-.647-.14-1.119-.14-.875 0-1.365.332-1.365.892 0 .717.962.875 2.029 1.119zm-8.117 22.165l-.122-.018c-.735.718-1.592 1.207-2.869 1.207-2.064 0-3.394-1.311-3.394-4.653 0-3.516 1.767-4.845 3.709-4.845 1.014 0 1.801.35 2.466.839v-2.659c0-.174-.07-.297-.227-.35l-.962-.332.192-1.417h3.516v11.371c0 .262.018.297.28.332l.84.123v1.382h-3.254l-.175-.98zm-.315-5.755c-.437-.298-.997-.525-1.504-.525-1.295 0-1.802 1.207-1.802 2.764 0 1.697.49 2.641 1.592 2.641.595 0 1.242-.35 1.714-.752v-4.128zm.28-11.704l-.087-.017c-.665.647-1.54 1.172-2.939 1.172-2.204 0-2.554-1.505-2.554-2.589 0-1.75 1.067-2.537 3.271-2.694l2.012-.14v-.962c0-.823-.088-1.382-1.172-1.382-.84 0-1.277.122-1.277 1.172l-2.467-.21c0-2.362 2.152-2.694 3.761-2.694 2.659 0 3.726.717 3.726 3.166v4.251c0 .28.018.315.28.35l.84.14v1.382h-3.219l-.175-.945zm-.297-2.816l-1.19.087c-1.032.07-1.399.333-1.399 1.032s.42.962.997.962c.595 0 1.189-.332 1.592-.629v-1.452zm-10.584 2.379l.875-.123c.245-.035.28-.087.28-.35v-9.236c0-.192-.053-.315-.228-.367l-.962-.333.193-1.417h3.638v11.353c0 .28.018.315.28.35l.857.123v1.382h-4.933V30.03zm-4.426-16.112h-5.37v-1.4l1.102-.122c.262-.035.28-.088.28-.35V3.107c0-.262-.035-.315-.28-.35l-1.102-.122V1.253h5.667c4.391 0 6.281 2.361 6.281 6.14 0 3.883-2.047 6.525-6.578 6.525zm-.175-10.776h-1.102v8.887h.997c3.079 0 4.111-1.82 4.111-4.479 0-3.218-1.224-4.408-4.006-4.408zm-2.851 24.911c-1.47-.262-3.394-.577-3.394-2.869 0-2.169 1.854-3.061 3.866-3.061 1.382 0 2.729.315 3.219.507v2.537l-1.872-.123-.175-.909c-.035-.158-.052-.21-.175-.245-.227-.07-.647-.14-1.119-.14-.875 0-1.365.332-1.365.892 0 .717.962.875 2.029 1.119 1.382.315 2.939.805 2.939 2.852 0 2.134-1.732 3.009-3.953 3.009-1.592 0-3.149-.42-3.464-.63v-2.537l1.872.14.175.997c.035.158.052.21.21.263.21.07.682.175 1.347.175.927 0 1.452-.263 1.452-.91 0-.7-.7-.91-1.592-1.067zm-7.138 2.414l-.087-.017c-.665.647-1.54 1.172-2.939 1.172-2.204 0-2.554-1.505-2.554-2.589 0-1.75 1.067-2.537 3.271-2.694l2.012-.14v-.962c0-.823-.088-1.382-1.172-1.382-.84 0-1.277.122-1.277 1.172l-2.467-.21c0-2.362 2.152-2.694 3.761-2.694 2.659 0 3.726.717 3.726 3.166v4.251c0 .28.018.315.28.35l.84.14v1.382h-3.219l-.175-.945zm-.297-2.816l-1.19.087c-1.032.07-1.399.333-1.399 1.032s.42.962.997.962c.595 0 1.189-.332 1.592-.629v-1.452zm-4.146-17.617c.087 1.242.63 2.065 2.064 2.065.682 0 1.417-.158 2.606-.595l.648 1.732c-1.085.524-2.274.892-3.586.892-3.377 0-4.531-2.099-4.531-4.828 0-3.167 1.942-4.671 4.338-4.671 2.309 0 3.849 1.207 3.849 4.233l-.035 1.172h-5.353zm1.487-3.516c-.752 0-1.365.42-1.47 1.854h2.782c-.018-1.469-.595-1.854-1.312-1.854zm-6.053 5.651a4.18 4.18 0 0 0 1.417-.28l.472 1.539c-.752.367-1.854.7-2.851.7-2.082 0-2.869-.84-2.869-2.817V6.728c0-.105 0-.175-.14-.175h-1.225V4.996c1.54-.175 2.152-.944 2.344-2.851h1.662v2.484c0 .122 0 .175.14.175h2.467v1.749h-2.607v4.181c0 1.032.245 1.435 1.19 1.435zm-7.662-5.196c-.035-.157-.088-.192-.228-.192-.455 0-.997.384-1.259.612v4.636c0 .279.017.332.279.35l1.732.139v1.4h-5.72v-1.417l.787-.105c.245-.035.28-.088.28-.35V6.921c0-.193-.052-.315-.227-.368l-.945-.332.192-1.417h3.079l.21 1.399h.105c.577-.892 1.347-1.574 2.467-1.574.402 0 1.207.07 1.522.157V7.97l-2.1-.07-.174-.927zm-8.8 6l-.087-.017c-.665.647-1.54 1.172-2.939 1.172-2.204 0-2.554-1.505-2.554-2.589 0-1.75 1.067-2.537 3.271-2.694l2.012-.14v-.962c0-.822-.088-1.382-1.172-1.382-.84 0-1.277.122-1.277 1.172l-2.467-.21c0-2.362 2.152-2.694 3.761-2.694 2.659 0 3.726.717 3.726 3.166v4.251c0 .28.018.315.28.35l.84.14v1.382h-3.219l-.175-.945zm-.297-2.816l-1.19.087c-1.032.07-1.399.333-1.399 1.032s.42.963.997.963c.595 0 1.189-.333 1.592-.63v-1.452zm-10.129-.91h-1.277v2.799c0 .28.035.333.28.35l2.501.14v1.382h-6.857v-1.382l1.102-.123c.245-.034.28-.087.28-.349V3.125c0-.263-.018-.315-.28-.35l-1.102-.123V1.253h5.93c3.236 0 4.216 1.714 4.216 3.726 0 3.044-1.837 4.268-4.793 4.268zm-.245-6.087h-1.032v4.215h.874c1.155 0 2.432-.262 2.432-2.239 0-1.679-1.032-1.976-2.274-1.976zm-.28 23.266l-.035.875h-5.878c.053 1.767.77 2.974 2.677 2.974.979 0 1.591-.175 2.519-.63l.507 1.189c-.875.49-1.924.788-3.184.788-3.166 0-4.198-2.082-4.198-4.689 0-3.201 1.784-4.688 3.988-4.688 2.134 0 3.604 1.155 3.604 4.181zm-5.895-.332h4.303c-.035-1.994-.945-2.572-2.012-2.572-1.172 0-2.151.63-2.291 2.572zm-3.657-2.309c-.017-.14-.052-.175-.21-.175-.787 0-1.679.717-2.081 1.102v5.265c0 .28.017.333.28.35l1.609.14v.945h-4.636v-.962l.875-.105c.245-.035.28-.088.28-.35v-5.948c0-.192-.053-.315-.228-.367l-.997-.333.158-.927h2.291l.175 1.207.053.018c.577-.648 1.434-1.4 2.624-1.4.402 0 .944.07 1.259.158v2.641l-1.242-.052-.21-1.207zm-4.513-13.751c.087 1.242.63 2.065 2.064 2.065.682 0 1.417-.158 2.607-.595l.647 1.732c-1.085.524-2.274.892-3.586.892-3.376 0-4.531-2.099-4.531-4.828 0-3.167 1.942-4.671 4.338-4.671 2.309 0 3.849 1.207 3.849 4.233l-.035 1.172h-5.353zm1.487-3.516c-.752 0-1.365.42-1.47 1.854h2.782c-.018-1.469-.595-1.854-1.312-1.854zm-6.858.455c-.035-.157-.087-.192-.227-.192-.455 0-.997.384-1.26.612v4.636c0 .279.018.332.28.35l1.732.139v1.4h-5.72v-1.417l.787-.105c.245-.035.28-.088.28-.35V6.921c0-.193-.053-.315-.228-.368l-.944-.332L67 4.804h3.079l.21 1.399h.105c.577-.892 1.347-1.574 2.467-1.574.402 0 1.207.07 1.521.157V7.97l-2.099-.07-.175-.927zm-8.799 6l-.088-.017c-.664.647-1.539 1.172-2.938 1.172-2.205 0-2.554-1.505-2.554-2.589 0-1.75 1.067-2.537 2.371-2.694l2.911-.14v-.962c0-.822-.087-1.382-1.172-1.382-1.739 0-1.277.122-1.277 1.172l-2.466-.21c0-2.362 2.152-2.694 3.761-2.694 2.659 0 3.726.717 3.726 3.166v4.251c0 .28.017.315.28.35l.84.14v1.382h-3.219l-.175-.945zm-.298-2.816l-1.189.087c-1.032.07-1.4.333-1.4 1.032s.42.963.998.963c.594 0 1.189-.333 1.591-.63v-1.452zm-8.589 1.994c.875 0 1.662-.28 2.187-.507l.682 1.627c-.805.489-2.047.857-3.324.857-3.166 0-4.583-1.977-4.583-4.636 0-3.271 1.994-4.863 4.793-4.863 1.365 0 2.572.385 3.114.735V8.11l-1.872-.087-.21-1.155c-.017-.122-.052-.227-.21-.28-.21-.07-.542-.122-.892-.122-1.049 0-1.942.717-1.942 2.764 0 2.274 1.015 2.921 2.257 2.921zm-10.251.385l.892-.123c.245-.034.28-.087.28-.349V6.921c0-.193-.053-.315-.228-.368l-.944-.332.192-1.417h3.621v7.26c0 .279.018.315.28.349l.892.123v1.382h-4.985v-1.382zm2.256-9.132c-.997 0-1.574-.577-1.574-1.574S45.43.291 46.427.291c1.015 0 1.592.542 1.592 1.539s-.577 1.574-1.592 1.574zm-5.86 9.534l-.123-.017c-.734.717-1.591 1.207-2.869 1.207-2.064 0-3.393-1.312-3.393-4.653 0-3.517 1.767-4.846 3.708-4.846 1.015 0 1.802.35 2.467.84V2.81c0-.175-.07-.298-.228-.35l-.962-.333.193-1.416h3.516v11.37c0 .262.017.298.28.332l.84.123v1.382h-3.254l-.175-.98zm-.315-5.755c-.437-.297-.997-.525-1.504-.525-1.295 0-1.802 1.207-1.802 2.764 0 1.697.49 2.642 1.592 2.642.594 0 1.242-.35 1.714-.753V7.183zm-4.549 15.22v2.641l-1.242-.052-.209-1.207c-.018-.14-.053-.175-.21-.175-.787 0-1.68.717-2.082 1.102v5.265c0 .28.017.333.28.35l1.609.14v.945h-4.635v-.962l.874-.105c.245-.035.28-.088.28-.35v-5.948c0-.192-.052-.315-.227-.367l-.997-.333.157-.927h2.292l.175 1.207.052.018c.577-.648 1.435-1.4 2.624-1.4a5.47 5.47 0 0 1 1.259.158zm-7.557-12.369c.088 1.242.63 2.065 2.065 2.065.682 0 1.417-.158 2.606-.595l.647 1.732c-1.084.524-2.274.892-3.586.892-3.376 0-4.531-2.099-4.531-4.828 0-3.167 1.942-4.671 4.339-4.671 2.309 0 3.848 1.207 3.848 4.233l-.035 1.172h-5.353zm1.487-3.516c-.752 0-1.364.42-1.469 1.854h2.781c-.017-1.469-.595-1.854-1.312-1.854zm-10.514 6.035l1.435-.122c.262-.018.279-.105.279-.35V5.434h-.069l-2.502 5.965h-2.851l-2.467-5.983h-.087v6.648c0 .279.035.332.28.349l1.504.14v1.365H9.323v-1.365l1.102-.122c.245-.035.28-.088.28-.35V3.107c0-.262-.035-.315-.28-.35l-1.102-.122V1.253h4.688l3.044 7.924h.07l3.201-7.924h4.548v1.364l-1.172.14c-.262.035-.279.07-.279.333v8.991c0 .227.052.298.279.332l1.172.14v1.365h-5.755v-1.365zM11.86 23.4c.804-.577 1.819-1.155 3.148-1.155 1.872 0 2.694 1.207 2.694 3.184v4.566c0 .28.018.315.28.35l.997.122v.945h-4.023v-.962l.84-.105c.227-.035.314-.105.314-.35v-4.076c0-1.295-.227-2.327-1.469-2.327-1.05 0-2.082.595-2.764 1.137v5.266c0 .28.018.315.28.35l.98.122v.945H9.131v-.962l.874-.105c.245-.035.28-.088.28-.35V19.831c0-.192-.052-.315-.227-.367l-1.05-.332.158-.928h2.694V23.4zm1.871 17.809l-1.119.139 1.784 4.986h.122l1.855-4.986-1.137-.139.227-1.417h4.041v1.417l-.63.105c-.262.052-.35.087-.437.297l-2.781 7.295h-3.062l-2.781-7.243c-.088-.209-.158-.244-.367-.297l-.735-.157.28-1.417h4.74v1.417zM5.859 30.275l-.052-.018c-.84.787-1.82 1.365-3.167 1.365-2.186 0-2.466-1.505-2.466-2.397 0-1.749 1.084-2.571 3.184-2.746l2.361-.193v-.927c0-1.277-.245-1.907-1.767-1.907-1.067 0-1.836.035-1.854 1.347l-1.504-.157c0-2.152 1.994-2.397 3.376-2.397 2.484 0 3.323.7 3.323 3.114v4.636c0 .28.018.315.28.35l.892.122v.945H6.017l-.158-1.137zm-.14-2.887l-1.977.175c-1.504.14-1.924.577-1.924 1.487 0 .945.402 1.33 1.225 1.33 1.032 0 2.134-.84 2.676-1.347v-1.645zM1.468 64.965c.018.122.053.192.21.245.228.087.84.28 1.714.28 1.173 0 1.925-.438 1.925-1.382 0-1.05-.997-1.295-2.117-1.557-1.364-.315-2.904-.665-2.904-2.589 0-1.994 1.68-2.729 3.481-2.729 1.26 0 2.397.332 2.764.49v2.256l-1.172-.07-.21-1.084c-.017-.123-.035-.175-.175-.227-.245-.088-.769-.193-1.364-.193-1.277 0-1.854.56-1.854 1.312 0 .997 1.049 1.207 2.186 1.504 1.365.35 2.852.77 2.852 2.659 0 2.03-1.697 2.729-3.551 2.729-1.417 0-2.852-.402-3.167-.595v-2.326l1.172.07.21 1.207zm7.96-9.499c-.717 0-1.137-.402-1.137-1.119 0-.7.42-1.102 1.137-1.102s1.12.402 1.12 1.102c0 .717-.403 1.119-1.12 1.119zm-.56 9.517v-5.948c0-.193-.052-.315-.227-.368l-.997-.332.157-.927h2.659v7.575c0 .279.018.314.28.349l1.119.123v.944H7.434v-.962l1.154-.105c.245-.017.28-.087.28-.349zm4.531-6.316l-.997-.332.157-.927h2.292l.14 1.032.052.018c.91-.648 1.977-1.225 3.237-1.225 2.011 0 2.764 1.294 2.764 3.201v4.549c0 .279.017.314.28.349l.997.123v.944h-4.024v-.962l.84-.105c.227-.035.315-.105.315-.349v-4.146c0-1.137-.228-2.239-1.522-2.239-.997 0-1.942.489-2.712 1.119v5.266c0 .279.018.314.28.349l.98.123v.944h-4.006v-.962l.875-.105c.245-.035.279-.087.279-.349v-5.948c0-.193-.052-.315-.227-.368zm10.496-27.045c-3.044 0-4.216-1.96-4.216-4.741 0-2.746 1.4-4.636 4.391-4.636s4.146 1.907 4.146 4.531c0 2.939-1.329 4.846-4.321 4.846zm.14-8.047c-1.714 0-2.711 1.014-2.711 3.323 0 2.327.892 3.447 2.624 3.447 1.697 0 2.624-1.067 2.624-3.464 0-2.292-.84-3.306-2.537-3.306zM19.33 46.526c0-1.749 1.067-2.536 3.271-2.694l2.012-.139v-.963c0-.822-.088-1.382-1.173-1.382-.839 0-1.277.123-1.277 1.173l-2.466-.21c0-2.362 2.152-2.694 3.761-2.694 2.659 0 3.726.717 3.726 3.166v4.251c0 .28.017.315.28.35l.839.14v1.382h-3.218l-.175-.945-.088-.018c-.664.648-1.539 1.172-2.938 1.172-2.205 0-2.554-1.504-2.554-2.589zm3.691.7c.594 0 1.189-.332 1.592-.629v-1.452l-1.19.087c-1.032.07-1.399.332-1.399 1.032s.419.962.997.962zm8.029 10.007c1.277 0 2.274.35 2.659.542v2.327l-1.172-.053-.21-1.154c-.017-.123-.052-.193-.21-.245-.245-.088-.699-.157-1.189-.157-1.557 0-2.799.909-2.799 3.411 0 2.449 1.154 3.393 2.851 3.393.875 0 1.75-.28 2.239-.577l.508 1.155c-.665.437-1.837.734-2.992.734-2.991 0-4.268-1.836-4.268-4.6 0-3.324 1.924-4.776 4.583-4.776zm7.68 0c2.991 0 4.146 1.907 4.146 4.531 0 2.939-1.33 4.845-4.321 4.845-3.044 0-4.216-1.959-4.216-4.74 0-2.747 1.4-4.636 4.391-4.636zm-.122 8.099c1.696 0 2.624-1.067 2.624-3.463 0-2.292-.84-3.307-2.537-3.307-1.714 0-2.711 1.015-2.711 3.324 0 2.327.892 3.446 2.624 3.446zm-5.144-18.193c.875 0 1.662-.28 2.187-.508l.682 1.627c-.804.49-2.046.857-3.323.857-3.167 0-4.584-1.976-4.584-4.635 0-3.271 1.995-4.863 4.793-4.863 1.365 0 2.572.385 3.114.734v2.747l-1.872-.088-.209-1.154c-.018-.123-.053-.228-.21-.28-.21-.07-.543-.122-.892-.122-1.05 0-1.942.717-1.942 2.763 0 2.274 1.014 2.922 2.256 2.922zm6.298-23.687c-1.067 0-1.837.035-1.854 1.347l-1.504-.157c0-2.152 1.994-2.397 3.376-2.397 2.484 0 3.323.7 3.323 3.114v4.636c0 .28.018.315.28.35l.892.122v.945h-2.449l-.157-1.137-.052-.018c-.84.787-1.82 1.365-3.167 1.365-2.186 0-2.466-1.505-2.466-2.397 0-1.749 1.084-2.571 3.183-2.746l2.362-.193v-.927c0-1.277-.245-1.907-1.767-1.907zm-.21 4.111c-1.504.14-1.924.577-1.924 1.487 0 .945.402 1.33 1.225 1.33 1.032 0 2.134-.84 2.676-1.347v-1.645l-1.977.175zm.893 21.552c-1.837 0-2.537-1.049-2.537-3.078v-4.269c0-.28-.017-.314-.28-.367l-.84-.175.175-1.434h3.586v5.79c0 1.067.175 1.469.928 1.469.769 0 1.399-.437 1.801-.804v-4.496c0-.28-.017-.297-.28-.35l-.752-.175.193-1.434h3.481v7.259c0 .228.035.298.245.333l.874.122v1.4h-3.253l-.14-.945-.088-.018c-.717.543-1.627 1.172-3.113 1.172zm4.793 15.85c.017.122.052.192.21.245.227.087.839.28 1.714.28 1.172 0 1.924-.438 1.924-1.382 0-1.05-.997-1.295-2.116-1.557-1.365-.315-2.904-.665-2.904-2.589 0-1.994 1.679-2.729 3.481-2.729 1.26 0 2.396.332 2.764.49v2.256l-1.172-.07-.21-1.084c-.018-.123-.035-.175-.175-.227-.245-.088-.77-.193-1.364-.193-1.277 0-1.855.56-1.855 1.312 0 .997 1.05 1.207 2.187 1.504 1.364.35 2.851.77 2.851 2.659 0 2.03-1.697 2.729-3.551 2.729-1.417 0-2.851-.402-3.166-.595v-2.326l1.172.07.21 1.207zm7.925-9.866h1.032v2.134c0 .105 0 .175.14.175h2.571v1.207h-2.711v5.16c0 1.103.262 1.522 1.259 1.522.542 0 1.155-.157 1.627-.35l.385 1.12c-.7.28-1.539.542-2.432.542-1.679 0-2.431-.787-2.431-2.361V58.79c0-.105 0-.175-.14-.175h-1.277V57.6c1.364-.175 1.749-.717 1.977-2.501zm-.298-24.789c.875 0 1.749-.28 2.239-.578l.507 1.155c-.664.437-1.836.735-2.991.735-2.991 0-4.268-1.837-4.268-4.601 0-3.324 1.924-4.776 4.583-4.776 1.277 0 2.274.35 2.659.543v2.326l-1.172-.052-.21-1.155c-.017-.122-.052-.192-.21-.245-.245-.087-.7-.157-1.189-.157-1.557 0-2.799.909-2.799 3.411 0 2.449 1.154 3.394 2.851 3.394zm.945 12.945c0-.839-.053-1.539-.928-1.539-.647 0-1.451.367-1.819.647v4.688c0 .28.018.315.28.35l.84.123v1.382h-4.828v-1.4l.787-.105c.245-.035.28-.087.28-.35v-5.143c0-.192-.053-.315-.228-.367l-.944-.332.21-1.417h3.061l.14.909.07.035c.875-.647 1.889-1.119 3.079-1.119 1.906 0 2.641 1.049 2.641 2.973v4.461c0 .28.018.315.28.35l.875.123v1.382H53.81v-5.651zm8.204 13.978c2.992 0 4.146 1.907 4.146 4.531 0 2.939-1.329 4.845-4.321 4.845-3.043 0-4.215-1.959-4.215-4.74 0-2.747 1.399-4.636 4.39-4.636zm-.122 8.099c1.697 0 2.624-1.067 2.624-3.463 0-2.292-.84-3.307-2.537-3.307-1.714 0-2.711 1.015-2.711 3.324 0 2.327.892 3.446 2.624 3.446zm1.154-41.74l-.874-.227.14-.945h2.606v7.557c0 .263.053.35.245.368l.927.122v.945h-2.466l-.14-1.19-.035-.017c-.805.682-1.837 1.417-3.376 1.417-1.925 0-2.519-1.172-2.519-3.184v-4.443c0-.28-.018-.333-.28-.403l-.91-.227.14-.945h2.641v5.651c0 1.521.263 2.256 1.365 2.256 1.189 0 2.204-.822 2.816-1.522v-4.828c0-.28-.017-.315-.28-.385zm.49 24.369l-.087-.018a3.94 3.94 0 0 1-2.939 1.172c-2.204 0-2.554-1.504-2.554-2.589 0-1.749 1.067-2.536 3.271-2.694l2.012-.139v-.963c0-.822-.088-1.382-1.172-1.382-.84 0-1.277.123-1.277 1.173l-2.467-.21c0-2.362 2.152-2.694 3.761-2.694 2.659 0 3.726.717 3.726 3.166v4.251c0 .28.018.315.28.35l.84.14v1.382h-3.219l-.175-.945zm-.297-2.816l-1.19.087c-1.032.07-1.399.332-1.399 1.032s.42.962.997.962c.595 0 1.19-.332 1.592-.629v-1.452zm6.018 1.941c.035.158.052.21.21.263.21.07.682.175 1.347.175.927 0 1.452-.263 1.452-.91 0-.7-.7-.91-1.592-1.067-1.47-.263-3.394-.577-3.394-2.869 0-2.169 1.854-3.061 3.866-3.061 1.382 0 2.729.315 3.219.507v2.537l-1.872-.123-.175-.91c-.035-.157-.052-.209-.175-.245-.227-.069-.647-.14-1.119-.14-.875 0-1.365.333-1.365.893 0 .717.962.874 2.029 1.119 1.382.315 2.939.805 2.939 2.852 0 2.134-1.732 3.008-3.953 3.008-1.592 0-3.149-.419-3.464-.629v-2.537l1.872.14.175.997zM67.7 19.464l-1.032-.332.157-.928h2.694v5.056c.823-.525 1.767-1.015 2.992-1.015 1.959 0 3.306 1.26 3.306 4.339 0 3.603-1.487 5.038-3.691 5.038a3.81 3.81 0 0 1-2.712-1.085l-.052.035-.088.84h-1.556c.104-.648.209-1.662.209-2.502v-9.079c0-.192-.052-.315-.227-.367zm1.819 9.709c.56.524 1.452 1.137 2.397 1.137 1.644 0 2.291-1.365 2.291-3.586 0-2.257-.874-3.149-2.116-3.149-1.015 0-1.959.542-2.572.979v4.619zm1.995 29.494l-.997-.332.157-.927h2.309l.158 1.014.052.018c.962-.717 1.942-1.207 3.131-1.207 1.96 0 3.289 1.26 3.289 4.338 0 2.624-.892 5.038-3.639 5.038-.997 0-1.836-.245-2.659-.962v3.027c0 .279.018.332.28.349l1.645.14v.945h-4.514v-.962l.718-.105c.245-.035.297-.088.297-.35v-9.656c0-.193-.052-.315-.227-.368zm1.801 5.493c.595.578 1.47 1.137 2.397 1.137 1.662 0 2.292-1.382 2.292-3.586 0-2.379-.928-3.131-2.012-3.131-1.12 0-2.169.682-2.677 1.085v4.495zm5.738-22.619l-.944-.332.192-1.417h3.079l.21 1.399h.105c.577-.892 1.347-1.574 2.467-1.574.402 0 1.207.07 1.521.157v3.184l-2.099-.07-.175-.927c-.035-.158-.087-.193-.227-.193-.455 0-.997.385-1.26.613v4.635c0 .28.018.333.28.35l1.732.14v1.4h-5.72v-1.417l.787-.105c.245-.035.28-.088.28-.35v-5.126c0-.192-.053-.315-.228-.367zm4.689 19.925l2.361-.192v-.927c0-1.277-.245-1.907-1.766-1.907-1.068 0-1.837.035-1.855 1.347l-1.504-.158c0-2.151 1.994-2.396 3.376-2.396 2.484 0 3.324.7 3.324 3.114v4.636c0 .279.017.314.28.349l.892.123v.944h-2.449l-.158-1.137-.052-.017c-.84.787-1.82 1.364-3.166 1.364-2.187 0-2.467-1.504-2.467-2.396 0-1.75 1.085-2.572 3.184-2.747zm-.315 3.901c1.032 0 2.134-.839 2.676-1.347v-1.644l-1.976.175c-1.505.14-1.925.577-1.925 1.487 0 .945.403 1.329 1.225 1.329zm7.417-18.281c.682 0 1.417-.157 2.607-.595l.647 1.732c-1.085.525-2.274.892-3.586.892-3.376 0-4.531-2.099-4.531-4.828 0-3.166 1.942-4.67 4.338-4.67 2.309 0 3.849 1.207 3.849 4.233l-.035 1.172H88.78c.088 1.242.63 2.064 2.064 2.064zm.735-3.726c-.018-1.469-.595-1.854-1.312-1.854-.752 0-1.365.42-1.469 1.854h2.781zm-1.137 15.307l-.997-.332.157-.927h2.292l.175 1.207.052.017c.578-.647 1.435-1.399 2.624-1.399.403 0 .945.07 1.26.157v2.642l-1.242-.053-.21-1.207c-.018-.14-.053-.174-.21-.174-.787 0-1.679.717-2.082 1.102v5.265c0 .28.018.332.28.35l1.61.14v.944h-4.636v-.962l.875-.105c.244-.035.279-.087.279-.349v-5.948c0-.193-.052-.315-.227-.368zm9.027 2.799l2.361-.192v-.927c0-1.277-.245-1.907-1.766-1.907-1.068 0-1.837.035-1.855 1.347l-1.504-.158c0-2.151 1.994-2.396 3.376-2.396 2.484 0 3.324.7 3.324 3.114v4.636c0 .279.017.314.28.349l.892.123v.944h-2.449l-.158-1.137-.052-.017c-.84.787-1.82 1.364-3.166 1.364-2.187 0-2.467-1.504-2.467-2.396 0-1.75 1.085-2.572 3.184-2.747zm-.315 3.901c1.032 0 2.134-.839 2.676-1.347v-1.644l-1.976.175c-1.505.14-1.925.577-1.925 1.487 0 .945.403 1.329 1.225 1.329zm7.872-43.244c3.236 0 4.496 1.924 4.496 4.601 0 2.973-1.505 4.898-4.723 4.898-3.202 0-4.496-1.96-4.496-4.706 0-2.904 1.522-4.793 4.723-4.793zm-.105 7.662c1.137 0 1.837-.787 1.837-2.974 0-2.064-.63-2.799-1.767-2.799-1.154 0-1.924.717-1.924 2.817 0 2.116.682 2.956 1.854 2.956zm-7.207 17.354c.874 0 1.661-.28 2.186-.508l.682 1.627c-.804.49-2.046.857-3.323.857-3.166 0-4.583-1.976-4.583-4.635 0-3.271 1.994-4.863 4.793-4.863 1.364 0 2.571.385 3.113.734v2.747l-1.871-.088-.21-1.154c-.018-.123-.053-.228-.21-.28-.21-.07-.542-.122-.892-.122-1.05 0-1.942.717-1.942 2.763 0 2.274 1.015 2.922 2.257 2.922zm.822-17.477c.49 0 .997-.122 1.417-.28l.472 1.54c-.752.367-1.854.7-2.851.7-2.082 0-2.869-.84-2.869-2.817v-4.583c0-.105 0-.175-.14-.175H95.34V22.49c1.54-.175 2.152-.944 2.344-2.851h1.662v2.484c0 .122 0 .175.14.175h2.467v1.749h-2.607v4.181c0 1.032.245 1.434 1.19 1.434zm7.12 9.955c3.236 0 4.496 1.924 4.496 4.6 0 2.974-1.505 4.898-4.724 4.898-3.201 0-4.495-1.959-4.495-4.705 0-2.904 1.522-4.793 4.723-4.793zm-.105 7.662c1.137 0 1.837-.788 1.837-2.974 0-2.064-.63-2.799-1.767-2.799-1.155 0-1.924.717-1.924 2.816 0 2.117.682 2.957 1.854 2.957zm3.831 10.129v5.65c0 1.522.263 2.257 1.365 2.257 1.189 0 2.204-.822 2.816-1.522v-4.828c0-.28-.018-.315-.28-.385l-.875-.227.14-.945h2.607v7.557c0 .262.052.35.245.367l.927.123v.944h-2.467l-.14-1.189-.035-.018c-.804.683-1.836 1.417-3.376 1.417-1.924 0-2.519-1.172-2.519-3.183v-4.444c0-.28-.017-.332-.28-.402l-.909-.227.14-.945h2.641zm6.735-37.454l-.962-.333.192-1.417h3.517v11.371c0 .262.017.297.279.332l.84.123v1.382h-3.254l-.175-.98-.122-.017c-.735.717-1.592 1.207-2.869 1.207-2.064 0-3.394-1.312-3.394-4.654 0-3.516 1.767-4.845 3.709-4.845 1.015 0 1.802.35 2.466.839v-2.658c0-.175-.07-.298-.227-.35zm.123 4.723c-.438-.298-.998-.525-1.505-.525-1.294 0-1.802 1.207-1.802 2.764 0 1.697.49 2.641 1.592 2.641.595 0 1.242-.349 1.715-.752v-4.128zm-.49 17.074c-.525 0-1.102.262-1.452.56v4.74c0 .28.017.315.28.35l.857.123v1.382h-4.846v-1.382l.787-.123c.245-.035.28-.087.28-.35v-5.143c0-.192-.052-.315-.227-.367l-.945-.332.193-1.417h3.079l.14.909.087.018c.787-.647 1.679-1.102 2.799-1.102.857 0 1.644.227 2.134 1.049.577-.454 1.592-1.049 2.816-1.049 1.872 0 2.572.927 2.572 2.956v4.478c0 .28.017.333.28.368l.874.105v1.382h-3.796v-5.651c0-.682-.07-1.504-.979-1.504-.49 0-.962.175-1.417.472a6.84 6.84 0 0 1 .052.857v3.971c0 .298.018.333.28.368l.7.105v1.382h-3.621v-5.738c0-.647-.053-1.417-.927-1.417zm2.834 23.214c.017.122.052.192.21.245.227.087.839.28 1.714.28 1.172 0 1.924-.438 1.924-1.382 0-1.05-.997-1.295-2.116-1.557-1.365-.315-2.904-.665-2.904-2.589 0-1.994 1.679-2.729 3.481-2.729 1.259 0 2.397.332 2.764.49v2.256l-1.172-.07-.21-1.084c-.017-.123-.035-.175-.175-.227-.245-.088-.77-.193-1.364-.193-1.277 0-1.855.56-1.855 1.312 0 .997 1.05 1.207 2.187 1.504 1.364.35 2.851.77 2.851 2.659 0 2.03-1.697 2.729-3.551 2.729-1.417 0-2.851-.402-3.166-.595v-2.326l1.172.07.21 1.207zm7.925-9.866h1.032v2.134c0 .105 0 .175.14.175h2.571v1.207h-2.711v5.16c0 1.103.262 1.522 1.259 1.522.542 0 1.155-.157 1.627-.35l.385 1.12c-.7.28-1.54.542-2.432.542-1.679 0-2.431-.787-2.431-2.361V58.79c0-.105 0-.175-.14-.175h-1.277V57.6c1.364-.175 1.749-.717 1.977-2.501zm4.076-8.013c.682 0 1.416-.157 2.606-.595l.647 1.732c-1.084.525-2.274.892-3.586.892-3.376 0-4.531-2.099-4.531-4.828 0-3.166 1.942-4.67 4.339-4.67 2.309 0 3.848 1.207 3.848 4.233l-.035 1.172h-5.353c.088 1.242.63 2.064 2.065 2.064zm.734-3.726c-.017-1.469-.594-1.854-1.312-1.854-.752 0-1.364.42-1.469 1.854h2.781zm3.639 13.873c2.134 0 3.604 1.155 3.604 4.181l-.035.875h-5.878c.052 1.766.77 2.973 2.676 2.973.98 0 1.592-.175 2.519-.629l.508 1.189c-.875.49-1.925.787-3.184.787-3.166 0-4.198-2.081-4.198-4.688 0-3.201 1.784-4.688 3.988-4.688zm2.012 3.848c-.035-1.994-.945-2.571-2.012-2.571-1.172 0-2.152.63-2.292 2.571h4.304zm1.469-13.68l.84.123v1.382h-4.828v-1.4l.787-.105c.245-.035.28-.087.28-.35v-5.143c0-.192-.052-.315-.227-.367l-.945-.332.21-1.417h3.061l.14.909.07.035c.875-.647 1.889-1.119 3.079-1.119 1.907 0 2.641 1.049 2.641 2.973v4.461c0 .28.018.315.28.35l.875.123v1.382h-3.796v-5.651c0-.839-.053-1.539-.927-1.539-.648 0-1.452.367-1.82.647v4.688c0 .28.018.315.28.35zm4.829 9.832c1.049 0 1.994.35 2.676.84v-3.271c0-.176-.07-.298-.227-.35l-1.05-.333.157-.927h2.677v11.791c0 .279.018.314.28.349l.892.123v.944h-2.467l-.14-1.154-.07-.018c-.804.77-1.714 1.382-3.078 1.382-1.995 0-3.306-1.294-3.306-4.513 0-3.446 1.556-4.863 3.656-4.863zm0 8.047c1.032 0 1.871-.682 2.641-1.452V59.49c-.525-.438-1.469-.945-2.397-.945-1.644 0-2.291 1.434-2.291 3.516 0 2.432.822 3.219 2.047 3.219zm7.312-.875c.735 0 1.155.368 1.155 1.102s-.403 1.102-1.155 1.102-1.154-.367-1.154-1.102.402-1.102 1.154-1.102z"/></svg>