<svg width="172" height="44" viewBox="0 0 172 44" fill="none" xmlns="http://www.w3.org/2000/svg"><path fill-rule="evenodd" clip-rule="evenodd" d="M147.87 19.94c0-.19-.1-.28-.2-.28-.28-.1-.76-.19-1.34-.19-1.06 0-1.64.38-1.64 1.04 0 .85 1.16 1.03 2.41 1.32 1.64.37 3.47.94 3.47 3.39 0 2.54-2.03 3.58-4.63 3.58-1.83 0-3.66-.47-4.04-.75v-3.02l2.21.19.2 1.13c0 .19.1.28.28.28.3.1.78.2 1.55.2 1.06 0 1.73-.29 1.73-1.04 0-.85-.77-1.04-1.83-1.23-1.73-.28-3.95-.66-3.95-3.4 0-2.54 2.12-3.57 4.53-3.57 1.64 0 3.18.37 3.76.56v3.02l-2.22-.2-.29-1.03zm-10.8 7.45h-.09a4.7 4.7 0 01-3.47 1.41c-2.6 0-2.99-1.79-2.99-3.01 0-2.08 1.26-3.02 3.86-3.2l2.31-.2v-1.13c0-.94-.1-1.6-1.35-1.6-.96 0-1.44.19-1.44 1.41l-2.9-.28c0-2.73 2.51-3.2 4.44-3.2 3.08 0 4.34.84 4.34 3.67v5c0 .28 0 .37.28.37l.97.2v1.6h-3.76l-.2-1.04zm-.28-3.3l-1.35.1c-1.16.09-1.64.37-1.64 1.22s.48 1.13 1.16 1.13c.67 0 1.35-.38 1.83-.75v-1.7zm-3.66-8.1l3.08-3.59 1.64 1.6-3.66 3.02-1.06-1.04zm-10.5 10.93l1.63-.2c.29 0 .29-.09.29-.37v-7.82h-.1l-2.89 6.97h-3.37l-2.9-7.07v7.83c0 .28 0 .37.3.37l1.73.2v1.6h-6.17v-1.6l1.26-.2c.28 0 .28-.09.28-.37V15.7c0-.28 0-.38-.28-.38l-1.26-.19v-1.6h5.5l3.56 9.33h.1l3.76-9.33h5.3v1.6l-1.35.2c-.3 0-.3.09-.3.37v10.56c0 .28.1.37.3.37l1.35.2v1.6h-6.75v-1.51zm-20.63.47h-.1a4.7 4.7 0 01-3.47 1.41c-2.6 0-2.99-1.79-2.99-3.01 0-2.08 1.26-3.02 3.86-3.2l2.31-.2v-1.13c0-.94-.1-1.6-1.35-1.6-.96 0-1.44.19-1.44 1.41l-2.9-.28c0-2.73 2.51-3.2 4.44-3.2 3.08 0 4.34.84 4.34 3.67v5c0 .28 0 .37.28.37l.97.2v1.6h-3.76l-.2-1.04zm-.3-3.3l-1.34.1c-1.25.09-1.64.37-1.64 1.22s.48 1.13 1.16 1.13c.67 0 1.35-.38 1.83-.75v-1.7zm-11.07 3.3h-.1a4.46 4.46 0 01-3.37 1.41c-2.41 0-3.95-1.5-3.95-5.47 0-4.14 2.02-5.65 4.33-5.65a4.8 4.8 0 012.9.94v-3.1c0-.2-.1-.39-.3-.39L89 14.76l.19-1.7h4.14v13.39c0 .28 0 .37.3.37l.96.2v1.6h-3.76l-.2-1.23zm-.39-6.79a3.04 3.04 0 00-1.73-.66c-1.55 0-2.12 1.42-2.12 3.2 0 1.99.57 3.12 1.83 3.12.67 0 1.44-.38 2.02-.85v-4.8zM77.9 21.92c0-.94-.1-1.79-1.06-1.79a4.3 4.3 0 00-2.12.75v5.47c0 .28 0 .38.3.38l.96.19v1.6h-5.6v-1.6l.97-.1c.3 0 .3-.1.3-.37V20.4c0-.19-.1-.37-.3-.47l-1.06-.38.3-1.7h3.56l.19 1.05h.1A6.12 6.12 0 0178 17.59c2.22 0 3.09 1.22 3.09 3.48v5.28c0 .28 0 .38.28.38l1.06.19v1.6H78v-6.6h-.1zM62.97 24c.1 1.42.77 2.46 2.4 2.46.78 0 1.64-.2 3.09-.66l.77 2.07a8.98 8.98 0 01-4.14 1.04c-3.95 0-5.3-2.45-5.3-5.66 0-3.68 2.31-5.47 5.1-5.47 2.7 0 4.53 1.42 4.53 5v1.41h-6.45V24zm1.73-4.14c-.87 0-1.64.47-1.73 2.17h3.27c0-1.7-.67-2.17-1.54-2.17zm-8.48.56c0-.19-.1-.19-.29-.19-.58 0-1.15.48-1.44.76v5.47c0 .28 0 .37.29.37l2.02.2v1.6h-6.65v-1.7l.96-.1c.3 0 .3-.1.3-.37V20.4c0-.19-.1-.37-.3-.47l-1.06-.38.2-1.7h3.56l.3 1.61h.09c.67-1.04 1.54-1.88 2.89-1.88.48 0 1.44.09 1.73.18v3.77l-2.4-.09-.2-1.04zm-11.56 8.4a4.71 4.71 0 01-2.9-1.05v2.93c0 .37 0 .37.3.37l2.11.2v1.6h-6.64v-1.6l.77-.1c.29 0 .38-.1.38-.47V20.32c0-.19 0-.38-.29-.47l-1.06-.38.2-1.7h3.56l.2 1.04h.09a5.5 5.5 0 013.47-1.32c2.31 0 3.95 1.42 3.95 5.28.1 2.54-.77 6.03-4.14 6.03zm-.77-8.77c-.87 0-1.64.47-2.12.75v4.8a3.2 3.2 0 001.92.76c1.35 0 1.93-1.32 1.93-3.3 0-2.17-.67-3.01-1.73-3.01zm-13.4 6.88l1.64-.2-.77-2.16h-5.11l-.68 2.17 1.64.19v1.6h-5.68v-1.6l.86-.2c.3-.09.39-.18.49-.37l4.43-12.63h3.57l4.43 12.73c.1.28.29.28.48.37l.96.2v1.6H30.5v-1.7zm-1.54-10.09h-.1l-1.83 5.56h3.86l-1.93-5.56z" fill="#1E1E1E"/><path d="M166.95 42.56H5.05A4.03 4.03 0 011 38.6V5.52a4.03 4.03 0 014.05-3.96h161.9c2.22 0 4.05 1.8 4.05 3.96V38.6a3.97 3.97 0 01-4.05 3.96z" stroke="#1E1E1E" stroke-width="2" stroke-miterlimit="10"/></svg>