<svg width="174" height="63" viewBox="0 0 174 63" fill="none" xmlns="http://www.w3.org/2000/svg"><path fill-rule="evenodd" clip-rule="evenodd" d="M172.48 62.06c-.95 0-1.46-.46-1.46-1.39 0-.92.5-1.38 1.46-1.38.92 0 1.45.46 1.45 1.38 0 .93-.5 1.39-1.45 1.39zm-5.82-1.7l-.06-.02a5.62 5.62 0 01-3.99 1.72c-2.75 0-3.1-1.89-3.1-3.01 0-2.2 1.36-3.23 4-3.45l2.98-.24v-1.17c0-1.6-.31-2.39-2.23-2.39-1.34 0-2.31.04-2.33 1.7l-1.9-.2c0-2.7 2.51-3.01 4.25-3.01 3.13 0 4.19.87 4.19 3.9v5.83c0 .35.02.4.35.43l1.12.16v1.18h-3.08l-.2-1.42zm-.17-3.62l-2.5.22c-1.89.18-2.42.73-2.42 1.87 0 1.19.51 1.67 1.55 1.67 1.3 0 2.68-1.06 3.37-1.7v-2.06zm-11.1 5.32c-2.12 0-3.06-.99-3.06-2.97v-6.85c0-.13 0-.22-.18-.22h-1.6v-1.27c1.7-.22 2.2-.9 2.48-3.14h1.3v2.68c0 .13 0 .22.18.22h3.23v1.51h-3.41v6.48c0 1.38.33 1.91 1.58 1.91.69 0 1.46-.2 2.05-.44l.49 1.4c-.88.36-1.94.69-3.06.69zm-4.5-28c.06 2.21.97 3.73 3.37 3.73 1.23 0 2-.22 3.17-.79l.64 1.5c-1.1.6-2.43.98-4.01.98-3.99 0-5.29-2.61-5.29-5.89 0-4.01 2.25-5.88 5.02-5.88 2.69 0 4.54 1.45 4.54 5.25 0 .28-.02.72-.04 1.1h-7.4zm2.9-4.75c-1.47 0-2.7.8-2.88 3.23h5.42c-.05-2.5-1.2-3.23-2.54-3.23zm-2.22-3.36l3.41-3.6 1.32 1.32-3.87 3.1-.86-.82zm-3.92-10.52l1.05-.13c.29-.04.4-.13.4-.44v-5.2c0-1.43-.29-2.81-1.92-2.81-1.25 0-2.44.6-3.4 1.4v6.61c0 .35.01.4.34.44l1.24.15v1.2h-5.05v-1.22l1.1-.13c.31-.04.36-.1.36-.44V7.4c0-.24-.07-.4-.29-.46l-1.25-.41.2-1.17h2.88l.17 1.3.07.02a7.07 7.07 0 014.07-1.54c2.54 0 3.48 1.63 3.48 4.02v5.71c0 .35.03.4.36.44l1.25.15v1.2h-5.06v-1.22zm-3.72 20.51v-6.06c0-.35-.02-.4-.35-.48l-1.1-.29.18-1.18h3.28v9.49c0 .33.06.44.3.46l1.17.15v1.19h-3.1l-.18-1.5-.04-.02a6.34 6.34 0 01-4.25 1.78c-2.43 0-3.18-1.47-3.18-4V29.9c0-.35-.02-.41-.35-.5l-1.14-.29.17-1.18h3.33v7.1c0 1.9.33 2.83 1.72 2.83 1.5 0 2.77-1.04 3.54-1.92zM133.3 16.9c-3.84 0-5.31-2.46-5.31-5.95 0-3.45 1.76-5.82 5.53-5.82 3.76 0 5.22 2.4 5.22 5.69 0 3.69-1.68 6.08-5.44 6.08zm.17-10.1c-2.16 0-3.41 1.27-3.41 4.17 0 2.92 1.12 4.33 3.3 4.33 2.14 0 3.3-1.34 3.3-4.35 0-2.88-1.05-4.15-3.19-4.15zm-2.66 22.05l.24-.92h1.9a25.53 25.53 0 00-.22 3.05V42.1c0 .33.04.4.35.44l1.12.14v1.2h-5.4V42.7l1.66-.16c.33-.02.37-.1.37-.44v-4.28l-.06-.02a5.25 5.25 0 01-3.73 1.7c-2.55 0-4.22-1.61-4.22-5.65 0-4.3 1.98-6.13 4.55-6.13a5.6 5.6 0 013.44 1.14zm-3.1.5c-2.07 0-2.87 1.79-2.87 4.4 0 3.07 1.02 4.06 2.56 4.06 1.3 0 2.44-.94 3.32-1.93v-5.34a4.87 4.87 0 00-3.02-1.18zm-4.43-14.1c1.1 0 2.2-.34 2.82-.72l.64 1.45c-.84.55-2.31.92-3.77.92-3.76 0-5.37-2.3-5.37-5.77 0-4.18 2.42-6 5.77-6 1.6 0 2.86.44 3.35.68v2.92l-1.48-.06-.26-1.45c-.03-.16-.07-.24-.27-.3a5 5 0 00-1.5-.2c-1.95 0-3.52 1.14-3.52 4.28 0 3.07 1.45 4.26 3.6 4.26zm-.76 35.72v2.92l-1.47-.07-.27-1.45c-.02-.15-.06-.24-.26-.3a5 5 0 00-1.5-.2c-1.96 0-3.52 1.14-3.52 4.28 0 3.08 1.45 4.26 3.59 4.26 1.1 0 2.2-.35 2.82-.72l.63 1.45c-.83.54-2.3.92-3.76.92-3.77 0-5.38-2.3-5.38-5.78 0-4.17 2.43-6 5.77-6 1.61 0 2.87.44 3.35.69zm-11.58-11.49c-3.83 0-5.3-2.46-5.3-5.95 0-3.45 1.76-5.82 5.53-5.82 3.76 0 5.22 2.4 5.22 5.69 0 3.69-1.68 6.08-5.45 6.08zm.18-10.1c-2.16 0-3.41 1.27-3.41 4.17 0 2.92 1.12 4.33 3.3 4.33 2.14 0 3.3-1.34 3.3-4.35 0-2.88-1.05-4.15-3.19-4.15zm-7.15-17.9c.07 2.22.97 3.73 3.37 3.73 1.23 0 2-.22 3.17-.79l.64 1.5c-1.1.61-2.42.98-4 .98-4 0-5.3-2.61-5.3-5.88 0-4.02 2.25-5.89 5.03-5.89 2.69 0 4.54 1.45 4.54 5.25 0 .29-.03.73-.05 1.1h-7.4zm2.9-4.75c-1.47 0-2.7.8-2.88 3.23h5.42c-.04-2.5-1.19-3.23-2.53-3.23zM98.2 16.9c-2.12 0-3.07-.98-3.07-2.96V7.09c0-.14 0-.22-.17-.22h-1.6V5.59c1.7-.22 2.2-.9 2.48-3.14h1.3v2.68c0 .13 0 .22.18.22h3.23v1.52h-3.41v6.48c0 1.38.33 1.9 1.58 1.9.69 0 1.46-.19 2.05-.43l.49 1.4c-.88.35-1.94.68-3.06.68zm-3.66 22.32h-5.57V38l1.45-.13c.31-.02.35-.11.35-.44v-7.47c0-.24-.06-.4-.28-.46l-1.26-.42.2-1.16h3.35v9.5c0 .36.02.4.35.45l1.4.15v1.19zm-3.06-13.73c-.9 0-1.43-.5-1.43-1.4 0-.88.52-1.39 1.43-1.39.9 0 1.4.5 1.4 1.38 0 .9-.5 1.41-1.4 1.41zm-4.32-10.06l1.37-.13c.3-.02.35-.1.35-.44V2.1c0-.24-.06-.4-.28-.46l-1.33-.42.2-1.16h3.42v14.8c0 .35.02.4.35.44l1.32.15v1.2h-5.4v-1.22zm.79 23.79h-3.1l-.18-1.45-.09-.02a5.35 5.35 0 01-3.87 1.73c-2.52 0-4.17-1.62-4.17-5.67 0-4.32 1.96-6.1 4.6-6.1 1.33 0 2.52.44 3.38 1.05v-4.1c0-.22-.1-.38-.3-.44l-1.31-.42.2-1.17h3.37v14.8c0 .36.02.4.35.45l1.12.15v1.19zm-3.48-8.68a5.14 5.14 0 00-3.02-1.18c-2.07 0-2.88 1.8-2.88 4.41 0 3.05 1.03 4.04 2.58 4.04 1.3 0 2.35-.85 3.32-1.82v-5.45zm-1.73-15.4l-.04-.01a6.34 6.34 0 01-4.25 1.77c-2.42 0-3.17-1.47-3.17-4V7.34c0-.35-.02-.42-.35-.5l-1.15-.3.18-1.18h3.32v7.1c0 1.9.33 2.83 1.72 2.83 1.5 0 2.77-1.03 3.54-1.91V7.3c0-.36-.02-.4-.35-.49l-1.1-.28.18-1.19h3.28v9.49c0 .33.07.44.3.46l1.17.15v1.2h-3.1l-.18-1.5zm-14.6 10.81l3.42-3.6 1.32 1.32-3.88 3.1-.86-.82zm.83-15.81c1.72.44 3.6.97 3.6 3.34 0 2.55-2.14 3.42-4.48 3.42-1.78 0-3.59-.5-3.98-.74v-2.92l1.47.08.27 1.52c.02.15.06.24.26.3.29.12 1.06.36 2.16.36 1.48 0 2.42-.55 2.42-1.74 0-1.31-1.25-1.62-2.66-1.95-1.72-.4-3.66-.84-3.66-3.25 0-2.5 2.12-3.43 4.38-3.43 1.59 0 3.02.42 3.48.62v2.83l-1.47-.09-.27-1.36c-.02-.15-.04-.22-.22-.28-.3-.12-.97-.25-1.71-.25-1.61 0-2.34.7-2.34 1.65 0 1.25 1.32 1.52 2.75 1.89zm-11.05 5.3l1.06-.14c.29-.04.4-.13.4-.44v-5.2c0-1.43-.29-2.81-1.92-2.81-1.25 0-2.44.6-3.41 1.4v6.61c0 .35.02.4.35.44l1.23.15v1.2h-5.04v-1.22l1.1-.13c.31-.04.35-.1.35-.44V7.4c0-.24-.06-.4-.28-.46l-1.26-.41.2-1.17h2.89l.17 1.3.07.02a7.07 7.07 0 014.07-1.54c2.53 0 3.48 1.63 3.48 4.02v5.71c0 .35.02.4.35.44l1.26.15v1.2h-5.07v-1.22zM43.57 16.9c-3.84 0-5.31-2.46-5.31-5.95 0-3.45 1.76-5.82 5.52-5.82 3.77 0 5.23 2.4 5.23 5.69 0 3.69-1.68 6.08-5.44 6.08zm.17-10.1c-2.16 0-3.41 1.27-3.41 4.17 0 2.92 1.12 4.33 3.3 4.33 2.14 0 3.3-1.34 3.3-4.35 0-2.88-1.05-4.15-3.19-4.15zm-4.32 32.42h-3.1l-.18-1.5-.05-.02a6.34 6.34 0 01-4.25 1.78c-2.42 0-3.17-1.47-3.17-4V29.9c0-.35-.02-.41-.35-.5l-1.15-.29.18-1.18h3.33v7.1c0 1.9.33 2.83 1.71 2.83 1.5 0 2.78-1.04 3.55-1.92v-6.06c0-.35-.02-.4-.35-.48l-1.1-.29.17-1.18h3.28v9.49c0 .33.07.44.31.46l1.17.15v1.19zM31.17 16.9c-5.38 0-7.53-3.38-7.53-8.21 0-4.77 2.62-8.24 7.9-8.24 1.94 0 3.77.46 4.87 1.19v3.51l-1.5-.08-.37-2.1c-.05-.19-.1-.32-.31-.39a8.72 8.72 0 00-2.78-.48c-3.45 0-5.7 2.28-5.7 6.59 0 4.28 2.11 6.57 5.55 6.57 1 0 2.25-.11 3.08-.46.18-.07.27-.14.31-.4l.35-1.98h1.41v3.32c-1.19.8-3.26 1.16-5.28 1.16zm-5.54 14.26l-1.48-.1-.26-1.35c-.02-.16-.05-.22-.22-.29-.31-.1-.97-.24-1.72-.24-1.6 0-2.33.7-2.33 1.65 0 1.25 1.32 1.51 2.75 1.89 1.72.44 3.59.96 3.59 3.34 0 2.54-2.14 3.42-4.47 3.42-1.79 0-3.6-.5-3.99-.75v-2.92l1.48.1.26 1.5c.02.16.07.25.27.31.28.11 1.05.36 2.15.36 1.48 0 2.43-.55 2.43-1.74 0-1.32-1.26-1.62-2.67-1.95-1.72-.4-3.65-.84-3.65-3.25 0-2.5 2.11-3.43 4.38-3.43 1.59 0 3.02.42 3.48.61v2.84zm-2.94 23.03v5.83c0 .35.03.4.36.43l1.12.16v1.18h-3.08l-.2-1.42-.07-.02a5.62 5.62 0 01-3.98 1.7c-2.76 0-3.11-1.88-3.11-3 0-2.2 1.36-3.23 4-3.45l2.98-.24v-1.17c0-1.6-.3-2.39-2.22-2.39-1.35 0-2.32.04-2.34 1.7l-1.9-.2c0-2.7 2.52-3.01 4.26-3.01 3.13 0 4.18.87 4.18 3.9zm-4.47 2.77c-1.9.18-2.42.73-2.42 1.87 0 1.19.5 1.67 1.54 1.67 1.3 0 2.69-1.06 3.37-1.7v-2.06l-2.49.22zm-6.17-4.74l-3.7 9.57H6.06l-3.72-9.5c-.11-.27-.2-.31-.46-.38l-.95-.2.26-1.2h4.63v1.2l-1.52.18 2.97 8.2 3.02-8.2-1.48-.18.25-1.2h4.27v1.2l-.73.13c-.3.07-.44.11-.55.38zm18.97-1.93c1.6 0 2.86.43 3.34.68v2.92l-1.47-.07-.27-1.45c-.02-.15-.06-.24-.26-.3a5 5 0 00-1.5-.2c-1.96 0-3.52 1.14-3.52 4.28 0 3.08 1.45 4.26 3.59 4.26 1.1 0 2.2-.35 2.82-.72l.64 1.45c-.84.54-2.32.92-3.77.92-3.77 0-5.37-2.3-5.37-5.78 0-4.17 2.42-6 5.77-6zm8.05.22v7.09c0 1.91.33 2.83 1.72 2.83 1.5 0 2.78-1.03 3.55-1.9v-6.07c0-.35-.03-.4-.36-.48l-1.1-.29.18-1.18h3.28v9.48c0 .33.07.44.3.46l1.18.16v1.18H44.7l-.18-1.49-.04-.02a6.34 6.34 0 01-4.25 1.78c-2.42 0-3.17-1.47-3.17-4v-5.58c0-.35-.02-.42-.35-.5l-1.15-.29.18-1.18h3.32zm11.32 1.58l-1.26-.42.2-1.16h2.88l.18 1.3.07.01a7.06 7.06 0 014.07-1.53c2.53 0 3.48 1.62 3.48 4.01v5.72c0 .35.02.4.35.43l1.26.16v1.18h-5.07v-1.2l1.06-.14c.29-.04.4-.13.4-.43V54.8c0-1.43-.29-2.81-1.92-2.81-1.25 0-2.44.61-3.41 1.4v6.62c0 .35.02.4.35.43l1.23.16v1.18h-5.04v-1.2l1.1-.14c.3-.04.35-.1.35-.43v-7.47c0-.24-.06-.4-.28-.46zM46.7 29.5l-1.25-.42.2-1.16h2.88l.18 1.3.06.02c1.17-.9 2.25-1.54 3.9-1.54 1.06 0 2.16.37 2.71 1.4a6.6 6.6 0 013.9-1.4c2.5 0 3.26 1.54 3.26 4.08v5.65c0 .35.02.4.35.44l1.26.15v1.19h-5.07V38l1.06-.13c.28-.05.4-.13.4-.44v-5.3c0-1.38-.31-2.7-1.88-2.7-1.19 0-2.22.6-2.9 1.08.04.4.06.86.06 1.34v5.58c0 .35.02.4.35.44l1.08.15v1.19h-4.89V38l1.06-.13c.29-.05.4-.13.4-.44v-5.32c0-1.25-.1-2.68-1.68-2.68-1.14 0-2.3.68-3.15 1.37v6.63c0 .35.03.4.36.44l1.19.15v1.19h-5V38l1.1-.13c.3-.05.35-.11.35-.44v-7.47c0-.24-.07-.4-.29-.46zM66.85 55.6l2.98-.24v-1.17c0-1.6-.31-2.39-2.23-2.39-1.34 0-2.3.04-2.33 1.7l-1.9-.2c0-2.7 2.52-3.01 4.26-3.01 3.12 0 4.18.87 4.18 3.9v5.83c0 .35.02.4.35.43l1.13.16v1.18H70.2l-.2-1.42-.06-.02a5.62 5.62 0 01-3.99 1.7c-2.75 0-3.1-1.88-3.1-3 0-2.2 1.36-3.23 4-3.45zm-.4 4.9c1.3 0 2.7-1.06 3.38-1.7v-2.06l-2.5.22c-1.89.18-2.41.73-2.41 1.87 0 1.19.5 1.67 1.54 1.67zm-1.11-26.9c0-4.02 2.24-5.9 5.02-5.9 2.69 0 4.54 1.46 4.54 5.26 0 .28-.03.72-.05 1.1h-7.4c.07 2.21.97 3.73 3.37 3.73 1.23 0 2-.22 3.17-.79l.64 1.5c-1.1.6-2.42.98-4 .98-4 0-5.3-2.61-5.3-5.89zm7.55-1.06c-.04-2.5-1.19-3.23-2.53-3.23-1.48 0-2.71.8-2.89 3.23h5.42zm3.24 27.45c.02.16.06.25.26.31.29.11 1.06.35 2.16.35 1.47 0 2.42-.55 2.42-1.73 0-1.32-1.25-1.63-2.66-1.96-1.72-.4-3.66-.83-3.66-3.25 0-2.5 2.11-3.42 4.38-3.42 1.59 0 3.02.41 3.48.61v2.83l-1.47-.08-.27-1.37c-.02-.15-.04-.22-.22-.28-.3-.11-.97-.24-1.72-.24-1.6 0-2.33.7-2.33 1.64 0 1.26 1.32 1.52 2.75 1.9 1.72.43 3.6.96 3.6 3.33 0 2.55-2.14 3.43-4.48 3.43-1.78 0-3.59-.5-3.98-.75V58.4l1.47.09.27 1.51zm13.93-7.9l-1.26-.42.2-1.16h2.89l.17 1.3.07.01a7.07 7.07 0 014.07-1.53c2.53 0 3.48 1.62 3.48 4.01v5.72c0 .35.02.4.35.43l1.26.16v1.18h-5.07v-1.2l1.06-.14c.29-.04.4-.13.4-.43V54.8c0-1.43-.29-2.81-1.92-2.81-1.25 0-2.44.61-3.41 1.4v6.62c0 .35.02.4.35.43l1.23.16v1.18H88.9v-1.2l1.1-.14c.31-.04.35-.1.35-.43v-7.47c0-.24-.06-.4-.28-.46zm10.87-14.26c1.1 0 2.2-.35 2.82-.72l.64 1.45c-.84.55-2.32.92-3.77.92-3.76 0-5.37-2.3-5.37-5.77 0-4.18 2.42-6 5.77-6 1.6 0 2.86.44 3.35.68v2.92l-1.48-.07-.27-1.44c-.02-.16-.06-.25-.26-.31a5 5 0 00-1.5-.2c-1.96 0-3.52 1.14-3.52 4.28 0 3.08 1.45 4.26 3.59 4.26zm6.48 12.46c2.68 0 4.53 1.45 4.53 5.24 0 .29-.02.73-.04 1.1h-7.4c.06 2.22.97 3.74 3.37 3.74 1.23 0 2-.22 3.17-.8l.64 1.5c-1.1.61-2.42.99-4 .99-4 0-5.3-2.62-5.3-5.89 0-4.02 2.25-5.88 5.03-5.88zm2.53 4.83c-.05-2.5-1.19-3.23-2.53-3.23-1.48 0-2.71.79-2.89 3.23h5.42zm18.88-4.83c2.68 0 4.53 1.45 4.53 5.24 0 .29-.02.73-.04 1.1h-7.4c.06 2.22.97 3.74 3.37 3.74 1.23 0 2-.22 3.17-.8l.64 1.5c-1.1.61-2.42.99-4.01.99-3.99 0-5.29-2.62-5.29-5.89 0-4.02 2.25-5.88 5.03-5.88zm2.53 4.83c-.05-2.5-1.19-3.23-2.53-3.23-1.48 0-2.71.79-2.89 3.23h5.42zm5.23 4.87c.02.16.06.25.26.31.29.11 1.06.35 2.16.35 1.47 0 2.42-.55 2.42-1.73 0-1.32-1.25-1.63-2.66-1.96-1.72-.4-3.66-.83-3.66-3.25 0-2.5 2.12-3.42 4.38-3.42 1.59 0 3.02.41 3.48.61v2.83l-1.47-.08-.27-1.37c-.02-.15-.04-.22-.22-.28-.3-.11-.97-.24-1.72-.24-1.6 0-2.33.7-2.33 1.64 0 1.26 1.32 1.52 2.75 1.9 1.72.43 3.6.96 3.6 3.33 0 2.55-2.14 3.43-4.48 3.43-1.78 0-3.59-.5-3.98-.75V58.4l1.47.09.27 1.51zm10.2-11.92c-.9 0-1.43-.5-1.43-1.4 0-.89.53-1.4 1.43-1.4.9 0 1.4.51 1.4 1.4 0 .9-.5 1.4-1.4 1.4zm-.7 11.95v-7.47c0-.24-.07-.4-.3-.46l-1.25-.42.2-1.16h3.35V60c0 .36.02.4.35.44l1.4.16v1.18h-5.56v-1.2l1.45-.14c.3-.02.35-.1.35-.43z" fill="#000"/></svg>