<svg width="165" height="52" viewBox="0 0 165 52" fill="none" xmlns="http://www.w3.org/2000/svg"><path fill-rule="evenodd" clip-rule="evenodd" d="M163.5 52c-1 0-1.5-.47-1.5-1.4 0-.92.5-1.41 1.5-1.41.99 0 1.5.49 1.5 1.4 0 .92-.51 1.41-1.5 1.41zm-6.09-1.45l-.06-.02c-.9.86-2 1.47-3.6 1.47-2.58 0-2.93-1.75-2.93-2.9 0-2.03 1.27-3.01 3.77-3.21l2.6-.2v-1.05c0-1.28-.23-1.98-1.8-1.98-1.13 0-1.89.09-1.89 1.5l-2.2-.21c0-2.61 2.39-2.94 4.13-2.94 2.96 0 4.07.84 4.07 3.65v5.24c0 .33.02.37.32.4l1 .15v1.3h-3.2l-.2-1.2zm-.22-3.38l-1.95.16c-1.53.13-2 .57-2 1.55 0 .98.47 1.3 1.3 1.3 1 0 2.03-.6 2.65-1.22v-1.79zm-10.95 3.38l-.12-.02c-.9.9-1.92 1.47-3.48 1.47-2.35 0-3.9-1.5-3.9-5.32 0-4.06 1.92-5.67 4.29-5.67 1.23 0 2.25.35 3.03.92v-3.46c0-.2-.06-.35-.27-.41l-1.16-.39.2-1.3h3.52V49.9c0 .33.02.37.33.4l1 .15v1.3h-3.25l-.19-1.2zm-.24-6.68a3.96 3.96 0 00-2.38-.98c-1.76 0-2.45 1.55-2.45 3.73 0 2.5.76 3.46 2.13 3.46 1 0 1.98-.6 2.7-1.36v-4.85zm-6.02-11.42l-.06-.02c-.9.86-2 1.47-3.6 1.47-2.58 0-2.93-1.75-2.93-2.9 0-2.03 1.27-3.01 3.77-3.22l2.6-.2v-1.04c0-1.28-.23-1.98-1.8-1.98-1.13 0-1.89.09-1.89 1.5l-2.2-.21c0-2.61 2.39-2.94 4.13-2.94 2.96 0 4.07.84 4.07 3.65v5.24c0 .33.02.37.33.4l1 .15v1.3h-3.21l-.2-1.2zm-.22-3.38l-1.95.16c-1.53.12-2 .57-2 1.55 0 .98.47 1.3 1.3 1.3 1.01 0 2.03-.6 2.65-1.22v-1.8zm-3.4 15.6v5.23c0 .33.02.37.33.4l1 .15v1.3h-3.21l-.2-1.2-.07-.02c-.9.86-2 1.47-3.6 1.47-2.58 0-2.92-1.75-2.92-2.9 0-2.03 1.27-3.01 3.76-3.21l2.6-.2v-1.05c0-1.28-.23-1.98-1.8-1.98-1.13 0-1.88.09-1.88 1.5l-2.21-.21c0-2.61 2.4-2.94 4.13-2.94 2.97 0 4.07.84 4.07 3.65zm-2.31 2.5l-1.94.16c-1.54.13-2 .57-2 1.55 0 .98.46 1.3 1.3 1.3 1 0 2.03-.6 2.64-1.22v-1.79zm-5.24-14.72l-.12-.02c-.9.9-1.92 1.47-3.48 1.47-2.35 0-3.9-1.51-3.9-5.32 0-4.06 1.92-5.67 4.3-5.67 1.22 0 2.24.35 3.02.92v-3.47c0-.2-.06-.34-.27-.4l-1.16-.39.2-1.3h3.52V31.8c0 .33.02.37.33.4l1 .15v1.3H129l-.19-1.2zm-.24-6.68a3.96 3.96 0 00-2.38-.98c-1.75 0-2.45 1.55-2.45 3.73 0 2.5.76 3.46 2.13 3.46 1 0 1.98-.6 2.7-1.36v-4.85zm-3.38 18.97v5.16c0 .33.02.37.33.4l1.13.15v1.3h-5.16v-1.28l1.02-.12c.29-.04.33-.16.33-.4V45.2c0-1.22-.14-2.24-1.45-2.24a5.2 5.2 0 00-2.8 1.06v5.87c0 .33.02.37.32.4l1.09.15v1.3h-5.08v-1.32l.98-.12c.3-.04.33-.1.33-.4v-6.57c0-.23-.06-.37-.26-.43l-1.13-.39.2-1.3h3.03l.17 1.12.08.02a6.7 6.7 0 013.82-1.35c2.21 0 3.05 1.39 3.05 3.73zm-10.35-12.37l1.23-.16c.29-.04.33-.1.33-.41v-6.56c0-.23-.07-.37-.27-.43l-1.13-.39.21-1.3h3.54v8.68c0 .33.02.37.33.4l1.2.15v1.3h-5.44v-1.28zm2.48-11.25c-.98 0-1.54-.55-1.54-1.53 0-.96.55-1.49 1.54-1.49.96 0 1.53.53 1.53 1.49 0 .98-.57 1.53-1.53 1.53zM115.2 9.3c1.62.38 3.44.87 3.44 3.2 0 2.4-2 3.3-4.34 3.3a9.77 9.77 0 01-3.85-.72v-2.77l1.7.1.2 1.25c.03.16.07.22.25.28.27.1.92.29 1.84.29 1.27 0 2.05-.37 2.05-1.4 0-1.15-1.31-1.33-2.68-1.64-1.56-.35-3.2-.84-3.2-3 0-2.46 2.07-3.38 4.28-3.38 1.52 0 2.95.39 3.44.6v2.74l-1.7-.1-.22-1.18c-.02-.14-.06-.22-.23-.29-.26-.08-.84-.2-1.47-.2-1.31 0-1.94.47-1.94 1.28 0 1.08 1.14 1.33 2.43 1.64zm-.76 15.16l-.7.12c-.26.04-.4.09-.5.35l-3.36 8.72h-2.72L103.79 25c-.1-.24-.18-.28-.43-.34l-.85-.19.26-1.34h4.83v1.34l-1.37.16 2.52 6.8h.08l2.53-6.8-1.35-.16.23-1.34h4.21v1.34zM102.57 10.9c.1 1.9.84 3.02 2.82 3.02 1 0 1.78-.2 3-.71l.66 1.63a8.6 8.6 0 01-3.92.96c-3.81 0-5.06-2.43-5.06-5.57 0-3.69 2.15-5.42 4.83-5.42 2.58 0 4.34 1.37 4.34 4.91 0 .27-.02.8-.06 1.18h-6.61zm2.29-4.32c-1.17 0-2.17.78-2.27 2.63h4.3c0-2-.93-2.63-2.03-2.63zm-7.7.41c-.03-.18-.05-.22-.24-.22-.78 0-1.66.67-2.06 1.06v5.85c0 .32.04.38.34.4l1.93.17v1.3h-5.94v-1.32l.99-.12c.28-.05.32-.1.32-.41V7.13c0-.22-.06-.34-.26-.42l-1.13-.4.2-1.3h3.06l.22 1.5.06.01c.68-.87 1.64-1.71 3-1.71.48 0 1.24.08 1.6.18v3.35l-1.84-.09L97.17 7zm-.42 19.57v5.24c0 .33.02.37.33.4l1 .15v1.3h-3.21l-.2-1.2-.07-.02c-.9.86-2 1.47-3.6 1.47-2.58 0-2.93-1.75-2.93-2.9 0-2.03 1.27-3.01 3.77-3.22l2.6-.2v-1.04c0-1.28-.23-1.98-1.8-1.98-1.13 0-1.89.09-1.89 1.5l-2.2-.21c0-2.61 2.39-2.94 4.13-2.94 2.96 0 4.07.84 4.07 3.65zm-4.26 2.67c-1.53.12-2 .57-2 1.55 0 .98.47 1.3 1.3 1.3 1.01 0 2.03-.6 2.65-1.22v-1.8l-1.95.17zm-7.7-13.43c-3.75 0-5.1-2.29-5.1-5.4 0-3.39 1.7-5.59 5.3-5.59 3.6 0 4.99 2.22 4.99 5.32 0 3.42-1.6 5.67-5.2 5.67zm.13-9.22c-1.74 0-2.78 1.08-2.78 3.7 0 2.6.94 3.78 2.7 3.78 1.74 0 2.7-1.14 2.7-3.8 0-2.6-.88-3.68-2.62-3.68zm-2.25 31.78v2.65c0 .15 0 .2.17.2h2.96v1.68h-3.13v5.54c0 1.27.33 1.74 1.48 1.74.61 0 1.24-.17 1.78-.35l.47 1.47c-.84.38-1.95.71-3.03.71-2.15 0-3.05-.94-3.05-2.96V43.1c0-.12 0-.2-.16-.2h-1.48v-1.45c1.6-.2 2.23-1.28 2.5-3.08h1.5zM76.3 3.02c-.96 0-1.53-.55-1.53-1.53 0-.96.57-1.49 1.53-1.49.96 0 1.54.53 1.54 1.49 0 .98-.58 1.53-1.54 1.53zm1.41 13.76c0 2.3-1.06 3.32-3.19 3.32-1.41 0-2.6-.53-3.07-.94l.78-1.39a3.5 3.5 0 001.82.57c1 0 1.31-.55 1.31-2v-9.2c0-.25-.04-.37-.24-.43l-1.27-.4.2-1.3h3.66v11.77zM66.2 10.9c.1 1.9.84 3.02 2.82 3.02 1 0 1.78-.2 3-.71l.66 1.63a8.6 8.6 0 01-3.93.96c-3.8 0-5.05-2.43-5.05-5.57 0-3.69 2.15-5.42 4.83-5.42 2.58 0 4.33 1.37 4.33 4.91 0 .27-.02.8-.06 1.18h-6.6zm2.29-4.32c-1.17 0-2.17.78-2.27 2.63h4.3c0-2-.93-2.63-2.03-2.63zm-10.9 7.69l1.06-.14c.29-.05.33-.17.33-.41v-4.8c0-1.15-.15-2.13-1.3-2.13-.91 0-1.87.4-2.51.81.06.35.08.74.08 1.14v4.96c0 .32.02.36.33.4l.94.15v1.3H51.5v-1.28l1.08-.14c.3-.05.33-.17.33-.41V9.03c0-1.18-.06-2.26-1.27-2.26-.98 0-1.86.5-2.54 1.04v5.89c0 .32.02.36.33.4l1 .15v1.3h-4.99v-1.28l.99-.16c.28-.05.32-.1.32-.41V7.13c0-.22-.06-.36-.26-.42l-1.13-.4.2-1.3h3.03l.17 1.15.08.02a5.59 5.59 0 013.5-1.37c.98 0 1.9.29 2.43 1.22a6.31 6.31 0 013.56-1.22c2.27 0 3 1.37 3 3.49v5.4c0 .32.03.36.34.4l1.12.15v1.3h-5.2v-1.28zm-8.06 9.23v2.75l-1.7-.1-.23-1.18c-.02-.14-.06-.22-.22-.29a5.5 5.5 0 00-1.48-.2c-1.3 0-1.94.47-1.94 1.29 0 1.08 1.15 1.32 2.44 1.63 1.61.38 3.43.87 3.43 3.2 0 2.4-2 3.3-4.33 3.3a9.76 9.76 0 01-3.85-.71V30.4l1.7.1.2 1.25c.02.16.06.22.25.28.26.1.92.29 1.84.29 1.27 0 2.04-.37 2.04-1.4 0-1.15-1.3-1.33-2.67-1.64-1.56-.34-3.2-.83-3.2-3 0-2.46 2.07-3.38 4.28-3.38 1.51 0 2.94.39 3.44.6zM37.3 32.45l-.06-.02c-.9.86-2 1.47-3.6 1.47-2.58 0-2.92-1.75-2.92-2.9 0-2.03 1.26-3.01 3.76-3.22l2.6-.2v-1.04c0-1.28-.23-1.98-1.8-1.98-1.13 0-1.88.09-1.88 1.5l-2.21-.21c0-2.61 2.39-2.94 4.13-2.94 2.96 0 4.07.84 4.07 3.65v5.24c0 .33.02.37.33.4l1 .15v1.3h-3.21l-.2-1.2zm-.22-3.38l-1.95.16c-1.53.12-2 .57-2 1.55 0 .98.47 1.3 1.3 1.3 1.01 0 2.03-.6 2.65-1.22v-1.8zM36.64 9.3c1.61.38 3.43.87 3.43 3.2 0 2.4-2 3.3-4.33 3.3a9.77 9.77 0 01-3.85-.72v-2.77l1.7.1.2 1.25c.02.16.06.22.25.28.27.1.92.29 1.84.29 1.27 0 2.05-.37 2.05-1.4 0-1.15-1.31-1.33-2.68-1.64-1.56-.35-3.2-.84-3.2-3 0-2.46 2.07-3.38 4.28-3.38 1.51 0 2.95.39 3.44.6v2.74l-1.7-.1-.23-1.18c-.02-.14-.06-.22-.22-.29a5.5 5.5 0 00-1.47-.2c-1.31 0-1.95.47-1.95 1.28 0 1.08 1.15 1.33 2.44 1.64zm-9.09 5.05l-.06-.02c-.9.86-2 1.47-3.6 1.47-2.58 0-2.92-1.76-2.92-2.9 0-2.04 1.27-3.01 3.76-3.22l2.6-.2V8.44c0-1.29-.23-1.98-1.8-1.98-1.13 0-1.88.08-1.88 1.49l-2.21-.2c0-2.61 2.4-2.94 4.13-2.94 2.97 0 4.07.84 4.07 3.65v5.24c0 .32.02.36.33.4l1 .15v1.3h-3.21l-.2-1.2zm-.22-3.38l-1.94.16c-1.54.12-2 .57-2 1.55 0 .98.46 1.3 1.3 1.3 1 0 2.03-.6 2.64-1.22v-1.8zM14.9 50.47l1.03-.12c.28-.04.32-.16.32-.4V45.2c0-1.22-.14-2.24-1.45-2.24a5.2 5.2 0 00-2.8 1.06v5.87c0 .33.02.37.33.4l1.08.15v1.3H8.35v-1.32l.98-.12c.28-.04.33-.1.33-.4v-6.57c0-.23-.07-.37-.27-.43l-1.13-.39.2-1.3h3.04l.16 1.12.08.02A6.7 6.7 0 0115.57 41c2.2 0 3.05 1.39 3.05 3.73v5.16c0 .33.02.37.32.4l1.13.15v1.3H14.9v-1.28zm-.06-16.57c-3.74 0-5.1-2.28-5.1-5.4 0-3.39 1.7-5.59 5.3-5.59 3.6 0 5 2.22 5 5.32 0 3.43-1.6 5.67-5.2 5.67zm.14-9.21c-1.73 0-2.78 1.08-2.78 3.69 0 2.6.94 3.79 2.7 3.79 1.74 0 2.7-1.14 2.7-3.82 0-2.58-.88-3.67-2.62-3.67zM8.7 14.24l1.3-.14c.28-.05.32-.1.32-.41V2.67c0-.3-.04-.37-.33-.4L8.7 2.11V.79h6.04v1.33l-1.7.16c-.3.02-.33.1-.33.39v11.15h4.59c.22 0 .28-.02.32-.22l.33-1.94h1.72v3.9H8.69v-1.31zm.09 12.29l-1.7-.08-.25-1.35c-.02-.14-.06-.22-.22-.28-.27-.1-.76-.18-1.27-.18-1.58 0-2.88.97-2.88 3.68 0 2.78 1.28 3.7 3.06 3.7 1.03 0 1.95-.3 2.6-.64L8.8 33c-.86.52-2.25.9-3.67.9C1.55 33.9 0 31.65 0 28.53c0-3.84 2.27-5.6 5.44-5.6 1.56 0 2.8.42 3.34.73v2.89zm17.3.86c1.62.38 3.44.87 3.44 3.2 0 2.4-2 3.3-4.34 3.3a9.77 9.77 0 01-3.84-.71V30.4l1.7.1.2 1.25c.02.16.06.22.24.28.27.1.92.29 1.85.29 1.26 0 2.04-.37 2.04-1.4 0-1.15-1.3-1.33-2.68-1.64-1.55-.34-3.19-.83-3.19-3 0-2.46 2.07-3.38 4.28-3.38 1.5 0 2.94.39 3.43.6v2.74l-1.7-.1-.22-1.18c-.02-.14-.06-.22-.23-.29a5.5 5.5 0 00-1.47-.2c-1.3 0-1.94.47-1.94 1.29 0 1.08 1.14 1.32 2.43 1.63zm.2 13.61c3.6 0 5 2.23 5 5.32 0 3.43-1.6 5.67-5.2 5.67-3.74 0-5.1-2.28-5.1-5.4 0-3.38 1.7-5.59 5.3-5.59zm-.14 9.26c1.74 0 2.7-1.14 2.7-3.81 0-2.6-.88-3.67-2.62-3.67-1.73 0-2.78 1.08-2.78 3.69 0 2.6.94 3.79 2.7 3.79zM42.12 41c1.55 0 2.8.43 3.33.74v2.9l-1.7-.09-.24-1.34c-.02-.15-.06-.23-.22-.29-.27-.1-.76-.18-1.27-.18-1.58 0-2.89.98-2.89 3.69 0 2.77 1.3 3.69 3.07 3.69 1.02 0 1.94-.29 2.6-.64l.67 1.6a7.4 7.4 0 01-3.66.91c-3.58 0-5.13-2.26-5.13-5.38 0-3.83 2.27-5.6 5.44-5.6zm8.12.2v6.82c0 1.36.23 2.1 1.37 2.1 1.19 0 2.21-.78 2.84-1.43v-5.46c0-.33-.02-.37-.32-.45l-.98-.25.18-1.32h3.48v8.68c0 .27.04.39.26.4l1.07.15v1.3H54.9l-.18-1.24-.06-.02c-.9.72-2.05 1.51-3.83 1.51-2.2 0-2.94-1.12-2.94-3.46v-5.3c0-.33-.02-.37-.33-.45l-1.04-.25.18-1.32h3.54zm12.2-21.25l-1.17-.39.2-1.3H65V31.8c0 .33.02.37.33.4l1 .15v1.3h-3.25l-.19-1.2-.12-.02c-.9.9-1.92 1.47-3.48 1.47-2.35 0-3.9-1.51-3.9-5.32 0-4.06 1.92-5.67 4.3-5.67 1.22 0 2.24.35 3.02.92v-3.47c0-.2-.06-.34-.27-.4zm.2 5.8a3.96 3.96 0 00-2.37-.97c-1.76 0-2.46 1.55-2.46 3.73 0 2.5.76 3.46 2.13 3.46 1 0 1.98-.6 2.7-1.36v-4.85zm1.39 15.25c2.58 0 4.33 1.37 4.33 4.92 0 .26-.02.8-.06 1.18h-6.6c.1 1.9.83 3.02 2.82 3.02 1 0 1.78-.2 3-.72l.66 1.63a8.6 8.6 0 01-3.93.96c-3.8 0-5.05-2.43-5.05-5.56 0-3.7 2.15-5.43 4.83-5.43zm1.98 4.4c0-2-.92-2.62-2.02-2.62-1.17 0-2.17.77-2.27 2.63h4.3zm6.65-13.39c1 0 1.78-.2 3-.71l.66 1.63a8.6 8.6 0 01-3.92.96c-3.81 0-5.06-2.43-5.06-5.57 0-3.68 2.15-5.42 4.83-5.42 2.58 0 4.34 1.37 4.34 4.91 0 .27-.02.8-.06 1.19h-6.61c.1 1.9.84 3.01 2.82 3.01zm1.5-4.7c0-2-.93-2.64-2.03-2.64-1.17 0-2.17.78-2.27 2.64h4.3zm-2.67 22.54c.02.16.07.22.25.29.27.1.92.28 1.84.28 1.27 0 2.05-.37 2.05-1.4 0-1.15-1.31-1.33-2.68-1.64-1.56-.34-3.2-.83-3.2-3 0-2.46 2.07-3.38 4.28-3.38 1.51 0 2.95.4 3.44.6v2.75l-1.7-.1-.23-1.19c-.02-.14-.06-.22-.22-.28a5.5 5.5 0 00-1.47-.2c-1.31 0-1.95.46-1.95 1.28 0 1.08 1.15 1.32 2.44 1.63 1.61.39 3.43.87 3.43 3.2 0 2.4-2 3.3-4.33 3.3a9.77 9.77 0 01-3.85-.71V48.5l1.7.1.2 1.25zm11.46-29.9l-1.17-.39.2-1.3h3.59V31.8c0 .33.02.37.33.4l1.14.15v1.3h-5.32v-1.28l1.17-.16c.29-.04.33-.1.33-.41V20.38c0-.22-.07-.36-.27-.42zm8.06 25.93l2.6-.2v-1.05c0-1.28-.23-1.98-1.8-1.98-1.13 0-1.88.09-1.88 1.5l-2.21-.21c0-2.61 2.39-2.94 4.13-2.94 2.96 0 4.07.84 4.07 3.65v5.24c0 .33.02.37.33.4l1 .15v1.3h-3.21l-.2-1.2-.07-.02c-.9.86-2 1.47-3.6 1.47-2.58 0-2.92-1.75-2.92-2.9 0-2.03 1.26-3.01 3.76-3.21zm-.04 4.3c1 0 2.02-.62 2.64-1.23v-1.79l-1.95.16c-1.53.13-2 .57-2 1.55 0 .98.47 1.3 1.3 1.3zm8.18-7.28l-1.12-.39.2-1.3h3.03l.16 1.12.08.02a6.7 6.7 0 013.83-1.35c2.2 0 3.05 1.39 3.05 3.73v5.16c0 .33.02.37.32.4l1.13.15v1.3h-5.16v-1.28l1.03-.12c.28-.04.33-.16.33-.4V45.2c0-1.22-.15-2.24-1.46-2.24a5.2 5.2 0 00-2.8 1.06v5.87c0 .33.02.37.33.4l1.08.15v1.3h-5.07v-1.32l.98-.12c.29-.04.33-.1.33-.4v-6.57c0-.23-.06-.37-.27-.43z" fill="#363535"/></svg>