<svg width="142" height="35" viewBox="0 0 142 35" fill="none" xmlns="http://www.w3.org/2000/svg"><path fill-rule="evenodd" clip-rule="evenodd" d="M121.95 15.8c0-.16-.08-.23-.16-.23a3.84 3.84 0 00-1.1-.16c-.88 0-1.36.3-1.36.84 0 .68.96.83 1.99 1.06 1.35.3 2.86.76 2.86 2.73 0 2.05-1.67 2.88-3.82 2.88a8.3 8.3 0 01-3.33-.6v-2.43l1.83.15.16.91c0 .15.08.23.23.23.24.08.64.15 1.27.15.88 0 1.43-.23 1.43-.83 0-.69-.63-.84-1.5-.99-1.43-.23-3.26-.53-3.26-2.73 0-2.05 1.75-2.88 3.73-2.88 1.35 0 2.62.3 3.1.45v2.43l-1.83-.15-.24-.84zm-8.89 5.99h-.08c-.63.6-1.5 1.13-2.85 1.13-2.15 0-2.46-1.44-2.46-2.42 0-1.67 1.03-2.43 3.17-2.58l1.9-.15v-.91c0-.76-.07-1.3-1.1-1.3-.8 0-1.2.16-1.2 1.14l-2.38-.22c0-2.2 2.07-2.58 3.65-2.58 2.54 0 3.58.68 3.58 2.96v4.02c0 .22 0 .3.23.3l.8.15v1.3h-3.1l-.16-.84zm-.23-2.66l-1.12.08c-.95.07-1.34.3-1.34.98 0 .69.4.91.95.91.55 0 1.1-.3 1.5-.6v-1.37zm-3.02-6.52l2.54-2.89 1.35 1.3-3.02 2.42-.87-.83zm-8.65 8.8l1.35-.15c.24 0 .24-.08.24-.3v-6.3h-.08l-2.38 5.6H97.5l-2.38-5.68v6.3c0 .22 0 .3.24.3l1.42.15v1.3h-5.08v-1.3l1.04-.15c.23 0 .23-.08.23-.3v-8.5c0-.23 0-.3-.23-.3l-1.04-.16v-1.29h4.53l2.93 7.51h.08l3.1-7.5h4.36v1.28l-1.1.16c-.25 0-.25.07-.25.3v8.5c0 .22.08.3.24.3l1.11.15v1.3h-5.55V21.4zm-16.99.38h-.07c-.64.6-1.51 1.13-2.86 1.13-2.14 0-2.46-1.44-2.46-2.42 0-1.67 1.03-2.43 3.17-2.58l1.9-.15v-.91c0-.76-.07-1.3-1.1-1.3-.8 0-1.2.16-1.2 1.14l-2.38-.22c0-2.2 2.07-2.58 3.66-2.58 2.54 0 3.57.68 3.57 2.96v4.02c0 .22 0 .3.23.3l.8.15v1.3h-3.1l-.16-.84zm-.23-2.66l-1.11.08c-1.04.07-1.35.3-1.35.98 0 .69.4.91.95.91.55 0 1.11-.3 1.5-.6v-1.37zM74.8 21.8h-.08a3.71 3.71 0 01-2.78 1.13c-1.98 0-3.25-1.21-3.25-4.4 0-3.33 1.67-4.55 3.57-4.55.95 0 1.75.3 2.38.76v-2.5c0-.15-.08-.3-.24-.3l-.95-.3.16-1.37h3.41v10.77c0 .23 0 .3.24.3l.8.15v1.3h-3.1l-.16-1zm-.32-5.47c-.4-.3-.95-.53-1.43-.53-1.27 0-1.74 1.14-1.74 2.58 0 1.6.47 2.5 1.5 2.5.56 0 1.2-.3 1.67-.68v-3.87zM64.33 17.4c0-.76-.08-1.45-.87-1.45a3.6 3.6 0 00-1.75.61v4.4c0 .23 0 .3.24.3l.8.16v1.29h-4.6v-1.3l.79-.07c.23 0 .23-.07.23-.3v-4.86c0-.15-.07-.3-.23-.38l-.88-.3.24-1.37h2.94l.16.84h.08a5.11 5.11 0 012.93-1.06c1.83 0 2.54.98 2.54 2.8v4.25c0 .23 0 .3.24.3l.87.16v1.29h-3.65v-5.31h-.08zm-12.3 1.67c.08 1.13.64 1.97 1.99 1.97.63 0 1.35-.15 2.54-.53l.63 1.67a7.54 7.54 0 01-3.41.83c-3.26 0-4.37-1.97-4.37-4.55 0-2.96 1.9-4.4 4.2-4.4 2.23 0 3.74 1.14 3.74 4.02v1.14h-5.32v-.15zm1.43-3.34c-.71 0-1.35.38-1.43 1.74h2.7c0-1.36-.56-1.74-1.27-1.74zm-6.98.45c0-.15-.08-.15-.24-.15-.48 0-.95.38-1.2.6v4.4c0 .24 0 .31.25.31l1.66.15v1.3h-5.47V21.4l.79-.08c.24 0 .24-.07.24-.3v-4.86c0-.15-.08-.3-.24-.38l-.87-.3.16-1.37h2.93l.24 1.3h.08c.56-.84 1.27-1.52 2.38-1.52.4 0 1.2.07 1.43.15v3.03l-1.99-.07-.15-.84zm-9.53 6.75c-.87 0-1.66-.3-2.38-.83v2.35c0 .3 0 .3.24.3l1.75.16v1.29h-5.48v-1.3l.63-.07c.24 0 .32-.07.32-.38V16.1c0-.16 0-.3-.24-.38l-.87-.3.16-1.37h2.94l.15.83h.08c.8-.68 1.9-1.06 2.86-1.06 1.9 0 3.26 1.14 3.26 4.25.07 2.05-.64 4.85-3.42 4.85zm-.63-7.05c-.72 0-1.35.38-1.75.6v3.87c.4.3.95.61 1.59.61 1.11 0 1.59-1.06 1.59-2.65 0-1.75-.56-2.43-1.43-2.43zM25.29 21.4l1.34-.15L26 19.5h-4.2l-.56 1.75 1.35.15v1.29H17.9v-1.3l.72-.14c.24-.08.32-.16.4-.3l3.65-10.17h2.93l3.65 10.24c.08.23.24.23.4.3l.8.15v1.3h-5.16V21.4zm-1.27-8.12h-.08l-1.51 4.48h3.17l-1.58-4.48z" fill="#000"/><path d="M137.67 34H4.33A3.28 3.28 0 011 30.81V4.2C1 2.44 2.5 1 4.33 1h133.34A3.28 3.28 0 01141 4.19V30.8c0 1.82-1.5 3.19-3.33 3.19z" stroke="#000" stroke-width="2" stroke-miterlimit="10"/></svg>