<svg width="160" height="122" viewBox="0 0 160 122" fill="none" xmlns="http://www.w3.org/2000/svg"><path fill="#C4A79F" d="M0 0h160v122H0z"/><path d="M79.14 63.28c0 .72.24.96.87.96.24 0 .24 0 .24-.08V62.4c0-.16 0-.16-.24-.16-.63 0-.87.32-.87 1.04zm-4.42 0c-.08.4.16.48.47.56.16 0 .16 0 .16-.08l.16-.88h-.16c-.23 0-.55 0-.63.4zm-1.58-1.12c0 .08 0 .08 0 0l.08.88.55-.72v-.08l-.63-.08zm-2.68-.24c-.08.24 0 .48.31.64.24.08.24.08.24 0l.31-.64c0-.08 0-.08-.15-.16-.48-.16-.71 0-.71.16zm-11.54-10c.16.32.56.4 1.19.08.63-.32.79-.72.63-1.04-.16-.32-.55-.4-1.19-.08-.63.32-.79.72-.63 1.04zm-1.58-10.56l-.79.32.87.32h.08v-.64c0-.08 0-.08-.16 0 .08-.08.08-.08 0 0zm1.58-9.68c0-.16-.16-.32-.23-.32-.08-.08-.32-.08-.32.08-.08.08 0 .24.16.32.08 0 .23 0 .4-.08zm1.27.24c-.24.08-.87.16-1.1.16 0 .24.07.4.23.48.23.08.63.08.79-.24.08-.08.08-.24.08-.4zm7.42-9.2l-.7-.56.15.88v.08h.08l.47-.4zm9.88-4.08c0-.24-.24-.4-.64-.4-.23 0-.23 0-.23.16l.08.72c0 .08 0 .08.23.08.48-.08.56-.4.56-.56zm16.74 6.4l.32-.8-.8.4h-.07v.08l.55.32c0 .08 0 .08 0 0zM103 50.56c-.95 1.28-2.13 2.4-3.87 2.32-1.82-.08-3-1.76-4.9-1.44-1.34.24-2.6 1.04-4.03.48-.31-.24-.47-.8-.4-1.36-.07-.32-.86-.4-.3-.8-.17-.08-.4 0-.48-.24-.08-.24.24-.64-.16-.8-.32-.08-.63.16-.87-.16-.16-.16-.08-.32-.08-.56.24-.48.8-.88.63-1.44-.39-.32-.23-.96-.23-1.44.23-1.12.31-2.32 1.34-3.12l5.77-4.8c1.18-1.12 2.68-1.92 3.55-3.44.48.64.71 1.6.32 2.4-.8 1.28-2.14 2.24-3.32 3.2l-4.66 3.92a2.9 2.9 0 00-.71 3.12c.08.56-.32.88-.48 1.36 0 .16.08.32.16.32.24.08.48 0 .63.24 0 .24-.07.56.24.64.16.08.32-.16.32.08-.08.16-.16.24-.08.4.16.32.47.16.63.32.08.32.08.72.4.8 1.18.24 2.13-.64 3.23-.8 1.74-.56 3.4.16 4.98.56.79.32 1.66.32 2.37.24zm-1.97-21.92c.15 1.6-1.11 2.32-2.06 3.28l-4.1 3.52-7.27 6.16c-1.03 1.12-1.1 2.8-1.35 4.24.08.48.56.72.4 1.2l-1.03 1.84c.08.72.95.32 1.27.8 0 .24-.16.56.07.8.16.24.72-.08.4.32a.25.25 0 000 .32c.16.16.32.16.4.4-.08.32-.08.72.07.96 1.27 1.36 3.4-.32 4.74.96.32.32.32.88.24 1.28-.71 2.08-4.82 2.16-3.4 5.12.24.48.8.8 1.35.88.47.08.87-.16 1.18-.24.16 0 .16.16.16.16v.08c-1.19.88-2.77 2.08-4.35 1.2-.79-.48-1.18-1.52-1.02-2.56.47-1.6 2.37-2 3.24-3.36.23-.4.15-.88-.08-1.28-.32-.56-.95-.64-1.58-.8-1.03 0-2.53.64-3-.56-.16-.48.31-1.2-.4-1.36-.08-.16-.31-.24-.24-.4 0-.16.24-.16.16-.32-.16-.08-.31 0-.47-.16-.4-.4.7-.88-.08-1.2-.4-.08-.87.24-1.19-.24-.15-.4.16-.72.32-1.04.24-.56 1.03-.96.79-1.68l-.4-.64c.08-1.44.32-2.88.72-4.24.47-1.52 1.97-2.4 3.08-3.44l6.08-5.12 4.26-3.76c.8-.72 1.43-1.44 1.43-2.56.23-.08.4.24.55.32.79.24 1.03.56 1.1 1.12zm-2.93-2.88c.08 1.6-1.18 2.64-2.2 3.6l-9.96 8.4c-.87.88-2.21 1.52-2.69 2.8-.63 1.68-.87 3.52-1.18 5.36-.16 1.36-1.42 2.48-2.53 2.96-.87.32-1.98.16-2.92.24h-3.48c-.31.08-.55.24-.71.48l-.16.32c-.4.08-.23-.24-.31-.48 0-.8.15-1.6.79-2 .31-.32.7-.4 1.18-.48l5.06-.08c.31 0 .47-.16.7-.32l.24-.4c.4-2.56.64-5.12 1.9-7.28 1.19-1.36 2.6-2.32 3.95-3.52 3-2.56 6.16-5.12 9.08-7.76a5.9 5.9 0 001.98-3.12l.08-.32c.63.16 1.18.8 1.18 1.6zM95.02 24a.61.61 0 00-.16.32l-.55 1.6c-.08.24-.08.24.16.4l-.08.08-.79-.72.08-.08c.24.24.31.24.31.16.08-.08.16-.4.24-.4v-.08l-.4-.4c-.15-.16-.15-.16-.23-.08-.24.08-.32.16-.32.24-.07.08-.07.08.16.32l-.08.08-.63-.56.08-.08c.24.16.32.16.55 0l1.35-.64c.23-.16.31-.16.4-.24l-.09.08zm-1.42-1.12l-.08.08c-.08.16-.16.24-.24.4l-.15-.08c.23-.32.15-.56-.16-.72-.24-.16-.48-.16-.63 0-.08.16-.08.24.08.4l.31.48c.24.32.24.48 0 .8-.24.32-.71.32-1.1.08-.24-.16-.32-.32-.48-.48l.32-.56.16.08c-.16.32-.16.72.15.88a.5.5 0 00.71 0c.16-.16 0-.32-.07-.48l-.16-.24c-.32-.48-.24-.72-.16-.88.24-.32.71-.32 1.1-.08.16.08.32.24.4.32zm-1.5-1.12l-.08.08c-.32-.16-.32-.16-.4-.08-.07.08-.23.32-.55.88-.23.4-.55.8-1.26.4-.4-.24-.63-.64-.32-1.2.4-.72.56-.88.56-1.04.07-.08 0-.08-.24-.24l.08-.16.95.56-.08.16c-.32-.16-.32-.16-.4-.08a8.3 8.3 0 00-.63.96c-.16.24-.24.64.16.8.47.32.7.08 1.02-.48.24-.48.4-.64.4-.8 0-.08 0-.08-.24-.32l.08-.16.95.72zm-3.08-.4c-.08.08-.16.16-.32.08s-.16-.16-.08-.32.16-.16.32-.08c.08.08.16.16.08.32zm-.95-1.68c0 .08 0 .08-.08.16-.08.16-.08.24-.16.4l-.15-.08c.07-.4-.08-.56-.32-.72-.24-.08-.55 0-.63.16-.08.16 0 .24.16.4l.4.32c.23.24.3.4.23.72-.16.4-.56.56-1.03.32-.24-.08-.4-.24-.63-.32.08-.16.16-.4.16-.64h.15c-.07.4 0 .72.32.8.32.16.55 0 .63-.24.08-.24-.08-.32-.23-.48l-.24-.16c-.48-.4-.48-.56-.4-.8.16-.4.56-.56 1.03-.32.47.32.71.4.8.48zm-1.97-.8c0 .16-.08.48-.08.64h-.16c0-.4 0-.48-.48-.64l-.31-.08c-.08 0-.08 0-.08.08l-.16.72c0 .08 0 .08.08.08H85c.32.08.4.08.47-.16l.16.08c0 .08-.08.24-.08.32 0 .16-.08.24-.08.32h-.15c.07-.24 0-.32-.24-.32l-.24-.08s-.08 0-.08.08l-.23.8c0 .08 0 .08.08.08l.55.16c.23.08.31 0 .47-.16l.16-.24.16.08c-.08.16-.24.4-.24.56l-1.74-.48.08-.16c.32.08.32.08.32 0s.08-.32.23-.8c.16-.48.24-.72.24-.88 0-.08 0-.08-.31-.24v-.16l1.18.32c.08.08.24.08.4.08zm-2.14-.4v.64h-.15c-.08-.4-.24-.64-.56-.72-.4-.08-.7.24-.87.88-.08.64.16 1.04.56 1.04.31.08.63-.08.79-.32l.15.08c-.31.32-.63.48-1.02.4a1.1 1.1 0 01-.87-1.36c.08-.56.55-1.12 1.34-.96.16.08.4.24.63.32zm-2.2-.4v.16c-.32 0-.32 0-.4.08 0 .08-.08.32-.08.88-.08.48-.08.72-.08.88 0 .08 0 .08.31.16v.16l-1.18-.08v-.16c.32 0 .4 0 .4-.08s.07-.32.07-.88c.08-.48.08-.72.08-.88 0-.08 0-.08-.31-.16V18l1.18.08zm-1.35 0h-.08c-.16 0-.24.08-.32.48l-.63 1.68h-.24c0-.24-.63-1.52-.79-1.84-.15-.24-.15-.24-.39-.24V18h1.1v.16h-.15c-.16 0-.16.08-.16.08 0 .08.16.48.32.88l.23.64.24-.64c.16-.32.32-.8.32-.88 0-.08-.08-.08-.32-.08V18h.87v.08zm-2.53.48c.08.48-.47.64-.47.64l.08.08.63.64c.16.16.16.16.31.16v.16l-.55.08-.79-.96h-.24c-.15 0-.15 0-.15.08a5 5 0 01.07.72c0 .08.08.08.4.08v.16l-1.1.08v-.16c.31-.08.31-.08.31-.16s0-.32-.08-.88c-.08-.48-.08-.72-.08-.88 0-.08-.08-.08-.4-.08v-.16L77.1 18c.24 0 .4 0 .55.08.16.16.24.24.24.48zm-2.05 1.92l-1.74.32v-.16c.24-.08.32-.08.32-.16 0-.16-.08-.32-.16-.8-.08-.48-.16-.72-.16-.88 0-.08-.08-.08-.32-.08v-.16l1.19-.24c.16 0 .31-.08.47-.16 0 .16.16.48.16.56l-.16.08c-.16-.4-.24-.4-.7-.32l-.25.08s-.07 0-.07.08l.15.72c0 .08 0 .08.08.08h.08c.32-.08.32-.16.32-.32h.15c0 .08 0 .24.08.32 0 .16.08.24.08.32h-.16c-.07-.24-.15-.24-.39-.24l-.24.08s-.08 0-.08.08l.16.8c0 .08 0 .08.08.08l.55-.08c.24-.08.32-.16.32-.32v-.24h.16c.08.08.08.4.08.56zm-3.72-.88c.08.16.16.24.4.24h.55c.32 0 .56.16.63.4.16.4-.15.8-.63.88-.23.08-.47.08-.7.08-.09-.16-.17-.4-.25-.64l.16-.08c.24.32.48.56.8.4.3-.08.47-.32.39-.56-.08-.24-.24-.24-.48-.24h-.23c-.64 0-.71-.16-.8-.4-.15-.4.16-.8.64-.88.24-.08.47-.08.63-.08 0 0 0 .08.08.16.08.16.08.24.16.4l-.16.08c-.16-.32-.4-.4-.71-.32-.32.16-.48.4-.48.56zm1.58 30.8c2.77.8 5.61 1.68 8.22 2.8 1.66.72 3.32 1.36 4.82 2.32.31.24.7.72.63 1.28-.47 2.08-3.4 2.32-2.92 4.72.16.88.7 1.68 1.58 1.92.4.16.94.16 1.34 0 .08.16.32.32 0 .4-1.19.8-2.69 1.6-4.1.88-.72-.32-1.11-1.12-1.35-1.84-.32-2.24 1.74-2.88 2.76-4.4.16-.32.24-.64.16-.96a2.3 2.3 0 00-.87-.88 51.67 51.67 0 00-12.4-4.72c-.71-.08-1.82-.48-2.29.32v.08c-.4.08-.24-.4-.24-.56.16-.72.56-1.28 1.19-1.52 1.18-.4 2.37 0 3.47.16zM70.77 22l-.24.08c-.23-.16-.4-.24-.7-.4l-1.2-.64.32.56c.24.4.32.64.4.8.08.08.08.08.4-.08l.07.16-.87.4-.07-.16c.31-.16.31-.16.23-.24 0-.08-.16-.32-.4-.8-.23-.4-.3-.64-.39-.8-.08-.08-.08-.08-.31.08l-.08-.16.63-.32s.08.08.16.08l1.58.88-.24-.4c-.24-.4-.32-.64-.4-.8-.07-.08-.07-.08-.39.08l-.08-.16.8-.4.07.16c-.32.16-.32.16-.24.32l.24.48c.32.64.55 1.12.71 1.28zm-3.71-.16l1.42.96c.16.16.24.16.47 0l.08.08-.87.56-.07-.16c.23-.16.23-.24.23-.32 0-.08-.31-.24-.4-.32h-.07c-.08.08-.24.16-.48.32-.15.08-.15.16-.15.24.08.24.08.4.08.4.07.08.07.08.31-.08l.08.16-.71.48-.08-.08c.24-.16.24-.24.16-.56l-.32-1.44c-.08-.24-.08-.32-.08-.4l.16-.08c0 .08.16.24.24.24zm-.4 2.32l.08.08-.79.72-.08-.08c.24-.24.24-.24.24-.32l-1.18-1.36.7 1.76c0 .08.09.08.09.16l-.16.16s-.08-.08-.16-.08l-1.66-.96.95 1.12.24.24c.08.08.08.08.31-.16l.08.08-.71.56-.08-.08c.24-.24.24-.24.24-.32-.08-.08-.24-.32-.55-.64-.32-.32-.48-.56-.56-.64-.08-.08-.08-.08-.31.16l-.08-.08.63-.56.08.08 1.5.88-.71-1.76.63-.56.08.08c-.24.24-.24.24-.24.32 0 .08.24.24.56.64.31.4.47.56.55.64.08.16.08.16.31-.08zm-3.63.64c-.24.24-.24.32-.16.32.08.08.32.24.8.72.39.32.7.72.15 1.28-.32.4-.79.48-1.26.08-.64-.56-.8-.72-.87-.8-.08-.08-.08-.08-.32.16l-.08-.08.8-.8.07.08c-.24.24-.24.32-.16.32.08.08.24.24.87.8.16.16.56.4.87 0 .4-.4.24-.64-.31-1.12-.4-.32-.56-.48-.72-.56-.07-.08-.07-.08-.31.24l-.08-.08.63-.72.08.16zm-1.9 2.16c-.15.32-.15.32-.07.32.07.08.31.24.7.48.4.32.64.4.72.48.08.08.08 0 .31-.24l.16.08-.63.88-.16-.08c.16-.24.16-.32.08-.32a2.98 2.98 0 00-.63-.4c-.08-.08-.08-.08-.16 0l-.47.72c-.08.08-.08.08 0 .16.31.24.55.32.63.4.08.08.08 0 .31-.24l.08.08-.63.88-.08-.08c.16-.24.16-.32.08-.32a5.04 5.04 0 00-.7-.48c-.4-.24-.64-.4-.72-.48-.08-.08-.08 0-.32.24l-.15-.08.63-.88.08.08c-.16.32-.16.32-.08.32.08.08.23.16.31.24l.16.16c.08.08.08.08.16 0l.47-.72c.08-.08.08-.08-.08-.16l-.15-.16a1.1 1.1 0 01-.32-.24c-.08 0-.08 0-.32.24l-.07-.08.63-.88.23.08zm-1.02 4.64c-.08-.16-.24-.4-.32-.4-.08-.08-.16 0-.24.08l-.15-.08.31-.64.16.08c-.08.16-.08.32.08.48.08.08.16.24.32.48.23-.08.31-.08.39-.24.08-.08.08-.24 0-.4l.16.08c0 .24 0 .4-.08.56-.08.16-.16.24-.4.32.08.24.08.4-.07.72-.16.4-.56.48-.87.32-.24-.16-.4-.4-.4-.88h-.55c-.24-.08-.32-.32-.16-.64.16-.24.32-.4.55-.24.24.16.32.32.32.56.24-.08.63-.08.95-.16zM57.5 34c.07.08.3.08.78.24.47.16.71.24.87.24.08 0 .08 0 .24-.32h.15l-.31 1.04-.16-.08c.08-.32.08-.32 0-.4-.08-.08-.32-.08-.71-.24-.08 0-.08 0-.16.08l-.24.8c0 .08 0 .08.08.16.32.08.64.16.71.16.08 0 .08 0 .24-.32h.16l-.32 1.04h-.15c.07-.32.07-.32 0-.4-.08-.08-.32-.08-.8-.24a3.56 3.56 0 00-.86-.24c-.08 0-.08 0-.24.32l-.16-.08.32-1.04h.16c-.08.32-.08.32 0 .4.07 0 .23.08.4.16l.23.08c.08 0 .08 0 .16-.08l.23-.8c0-.08 0-.08-.08-.16l-.23-.08c-.16-.08-.32-.08-.4-.08-.08 0-.08 0-.24.32h-.15l.31-1.04h.16c-.08.56-.08.56 0 .56zm-.88 2.32c.24.08.48.08.63.08v.16c-.4.08-.47.08-.47.24l-.08.32 1.42.24a.8.8 0 01.32.08c.08 0 .08 0 .16-.32h.15l-.23 1.12h-.16c0-.32 0-.32-.08-.4-.08 0-.16-.08-.32-.08l-1.42-.24-.08.32c0 .08.08.16.4.32l-.08.16c-.16-.08-.32-.08-.55-.16 0-.08 0-.16.08-.16 0-.08 0-.16.08-.16l.15-1.12c0-.24.08-.32.08-.4zm-.4 2.72h.17c0 .32 0 .32.07.32.08 0 .24 0 .4.08l1.26.08c.08 0 .16 0 .16-.16v-.32c0-.32-.08-.32-.47-.56l.08-.16c.07.08.47.16.63.16l-.16 1.76h-.16c0-.32 0-.32-.08-.32s-.31-.08-.87-.08c-.47-.08-.79-.08-.86-.08-.08 0-.08 0-.16.32h-.16l.16-1.04zm-.15 2.4c.08 0 .24-.08.4-.16l1.5-.64c.23-.08.23-.08.23-.4h.16v1.12h-.16c0-.32-.08-.32-.16-.32s-.4.16-.47.16v.64c0 .24 0 .24.08.24.24.08.4.16.4.16.07 0 .15-.08.15-.32h.16v.88h-.16c0-.24-.08-.24-.4-.4l-1.41-.56c-.24-.08-.32-.16-.4-.16l.08-.24zm.08 1.76c.16 0 .47-.08.63-.16l.08.16c-.4.16-.4.24-.4.64v.32c0 .08 0 .08.08.08l.71-.08c.08 0 .08 0 .08-.08V44c-.08-.32-.08-.32-.31-.32v-.16c.08 0 .23 0 .31-.08.16 0 .24 0 .32-.08v.16c-.24.08-.24.08-.24.32v.24c0 .08 0 .08.08.08l.8-.08c.07 0 .07 0 .07-.08l-.08-.56c0-.24-.08-.32-.32-.32l-.23-.08v-.16h.63l.24 1.76h-.16c-.08-.32-.08-.32-.16-.32s-.32 0-.87.08c-.47.08-.79.08-.87.16-.08 0-.08 0-.08.32h-.15l-.16-1.2a.52.52 0 000-.48zm.31 2.08h.16c.08.32.08.32.24.32.16 0 .31-.08.87-.16.47-.16.7-.16.87-.24.08 0 .08-.08 0-.4h.15l.24 1.04h-.16c-.08-.32-.08-.32-.23-.32-.08 0-.32.08-.71.16-.08 0-.08 0-.08.08l.23.8c0 .08 0 .08.16.08.32-.08.63-.16.71-.16.08 0 .08-.08 0-.4h.16l.24 1.12h-.16c-.08-.32-.16-.32-.24-.32-.08 0-.31.08-.87.16-.47.08-.7.16-.79.24-.08 0-.08.08 0 .4h-.15l-.24-1.04h.16c.08.32.08.32.23.32.08 0 .24-.08.4-.08l.24-.08c.07 0 .07 0 .07-.16l-.23-.8c0-.08 0-.08-.16-.08l-.24.08c-.16.08-.31.08-.4.08-.07 0-.07.08-.07.4h-.16l-.24-1.04zm1.03 3.84c.16-.08.47-.24.55-.32l.08.08c-.31.24-.31.32-.23.72l.07.24s.08.08.08 0l.71-.32s.08 0 0-.16v-.08c-.15-.32-.15-.32-.39-.24l-.08-.16a.6.6 0 00.32-.16c.15-.08.23-.08.31-.16l.08.16c-.24.08-.24.16-.16.4l.08.24s0 .08.08 0l.71-.24c.08 0 .08-.08 0-.4l.16-.08.4.96-.16.08c-.16-.24-.16-.32-.24-.24-.08 0-.32.16-.79.32-.47.16-.71.24-.79.32-.08.08-.08.08 0 .32l-.16.08-.47-1.12s-.08-.16-.16-.24zm1.82 1.44c.63-.32 1.26-.16 1.5.4s.08 1.12-.55 1.44c-.64.32-1.27.16-1.5-.4-.24-.48-.08-1.12.55-1.44zm.87 3.76c.23-.16.4-.32.47-.4l.08.08c-.24.32-.24.4-.24.48l.24.32 1.18-.88c.16-.08.24-.16.32-.24.08-.08.08-.08-.16-.4l.08-.08.71.88-.08.08c-.23-.24-.23-.32-.31-.24-.08 0-.16.08-.32.24l-1.18.88.23.24c.08.08.16.08.56-.08l.08.16c-.16.08-.24.16-.56.32 0-.08-.08-.08-.08-.16s-.08-.08-.08-.16l-.63-.88c-.16 0-.23-.08-.31-.16zm1.34 1.76l.08-.08c.24.24.24.24.4.16.15-.08.3-.24.39-.32.47-.4.87-.8 1.03-.96l.15.16c-.08.24-.15.48-.23.8l-.32 1.36.47-.4c.32-.32.56-.48.64-.56.08-.08.08-.08-.24-.4l.08-.08.63.72-.08.08c-.24-.24-.24-.24-.31-.16-.08.08-.32.24-.64.56-.31.32-.55.48-.63.56-.08.08-.08.08.16.32l-.08.08-.4-.64c0-.08 0-.08.08-.16l.4-1.76-.32.32c-.31.32-.55.48-.63.56-.08.08-.08.08.16.32l-.08.08-.71-.56zm1.97 2.08c.08-.16.32-.4.32-.48l.16.08c-.24.4-.16.48.16.72l.23.16h.08l.48-.56s0-.08-.08-.08l-.08-.08c-.24-.24-.32-.24-.48-.08l-.07-.08.23-.24c.08-.08.16-.24.24-.32l.08.08c-.16.16-.16.24.08.4l.16.16h.07l.56-.64v-.08l-.4-.32c-.23-.16-.31-.16-.47-.08l-.24.16-.08-.16c.16-.08.4-.32.48-.4l1.34 1.2-.08.08c-.24-.16-.24-.16-.32-.16-.08.08-.23.24-.55.64-.31.4-.47.56-.55.64-.08.08-.08.08.16.32l-.08.08-.87-.8c-.24 0-.32-.08-.48-.16zm1.5 1.28l.08-.16c.32.16.32.16.4.16.08-.08.24-.32.47-.72.24-.4.4-.64.48-.72.08-.08 0-.08-.24-.32l.08-.08.95.64-.08.08c-.32-.16-.32-.16-.32-.08l-1.02 1.44 1.57-1.12c.08 0 .08-.08.16-.08l.24.16s0 .08-.08.16l-.47 1.92.87-1.2c.07-.08.15-.24.15-.24.08-.08 0-.08-.23-.32l.08-.08.79.48-.08.16c-.32-.16-.32-.16-.4-.16a5.1 5.1 0 00-.47.72c-.24.4-.4.64-.48.72 0 .08 0 .08.24.32l-.08.08-.7-.48v-.08l.46-1.68-1.5 1.12-.86-.64zm2.77 1.92c.16-.24.16-.4.24-.56h.15c-.07.4-.07.48.08.56l.32.16.71-1.28.16-.32c0-.08 0-.08-.24-.32l.08-.16 1.03.56-.08.16c-.32-.16-.32-.16-.4-.08 0 .08-.08.16-.15.32l-.72 1.28.32.16c.08.08.16 0 .47-.32l.16.08c-.08.08-.16.24-.31.48-.08-.08-.08-.08-.16-.08s-.08-.08-.16-.08l-.95-.48c-.23 0-.4-.08-.55-.08zm2.3.48c.15-.4.7-.32.7-.32v-.08l-.24-.88c-.07-.24-.07-.24-.23-.32l.08-.16.47.24.24 1.2c0 .08 0 .08.16.08.15.08.15.08.15 0 .24-.56.24-.64.32-.72 0-.08 0-.08-.32-.24l.08-.16.95.4-.08.16c-.31-.08-.31-.08-.31 0-.08.08-.16.32-.32.8-.16.48-.24.72-.32.8 0 .08 0 .08.32.24l-.08.16-1.1-.48c-.24-.08-.32-.16-.4-.32-.16-.08-.16-.24-.08-.4zm2.36-.72l.08-.16 1.03.32-.08.16c-.32-.08-.32-.08-.32 0v.48c.08 0 .24.08.55.16.24.08.24.08.24 0 .16-.16.24-.32.24-.32 0-.08 0-.16-.32-.24l.08-.16.87.24v.16c-.24-.08-.32 0-.47.24l-.87 1.2c-.16.24-.24.24-.24.32l-.16-.08v-.4l-.23-1.68c-.08-.16-.16-.16-.4-.24zm1.82 2.08c.08-.4.47-.56 1.02-.48.08 0 .16.08.24.08l.16-.72c0-.08 0-.08-.4-.24v-.16l1.11.24v.16c-.32 0-.32 0-.4.08 0 .08-.07.32-.15.8-.08.48-.16.72-.16.88 0 .08 0 .08.31.16v.16l-1.18-.24c-.24-.08-.4-.16-.55-.24.08-.16 0-.32 0-.48zm3.55-.96l-.55-.08c-.24 0-.32.08-.4.24l-.08.24-.15-.08c.08-.16.15-.48.15-.64l1.82.16v.16c-.31 0-.31 0-.31.08s-.08.32-.08.88c-.08.48-.08.72-.08.88 0 .08 0 .08.31.16v.16l-1.18-.08h-.48v-.64h.16c.08.4.16.48.56.48h.23s.08 0 .08-.08l.08-.72c0-.08 0-.08-.08-.08h-.08c-.31 0-.4 0-.4.24h-.15c0-.08 0-.24.08-.32v-.32h.16c0 .24 0 .24.31.32h.24s.08 0 .08-.08l-.24-.88zm.87 1.04c0-.56.32-1.12 1.19-1.12h1.02v.16c-.31 0-.31.08-.4.16v1.76c0 .08 0 .08.4.08v.16h-1.1c-.48 0-.64-.08-.87-.32-.08-.24-.24-.56-.24-.88zM23.28 95.19c-.89 1.27-2.1 1.84-3.88 1.84a4.23 4.23 0 01-4.4-4.37 4.27 4.27 0 014.4-4.37c2.67 0 4.46 1.9 4.46 4.56v.5H17.1c.2 1.27 1.15 1.97 2.36 1.97.9 0 1.46-.26 2.1-.83l1.72.7zm-1.53-3.6a2.36 2.36 0 00-2.3-1.59c-1.01 0-1.84.5-2.28 1.58h4.58zM27.23 93.16c-1.34-.7-2.04-1.45-2.04-2.53 0-1.33 1.09-2.4 2.74-2.4 1.09 0 2.1.5 2.8 1.39l-1.27 1.33c-.5-.5-.95-.76-1.46-.76-.45 0-.77.19-.77.5 0 .32.32.45.77.7l.76.38c1.4.7 2.17 1.46 2.17 2.66 0 1.46-1.21 2.6-3 2.6-1.2 0-2.23-.51-2.93-1.46l1.28-1.46c.5.57 1.2.95 1.78.95.5 0 .96-.31.96-.7 0-.37-.39-.63-.96-.94l-.83-.26zM34.88 95.82c0 .64-.51 1.2-1.21 1.2-.64 0-1.21-.56-1.21-1.2 0-.7.57-1.2 1.2-1.2.7 0 1.22.5 1.22 1.2zM38.32 85.5h2.1l2.61 7.92 2.68-7.91h2.1l1.9 11.33h-2.1l-1.2-7.16-2.42 7.16h-1.92l-2.42-7.16-1.27 7.16h-2.04l1.98-11.33zM59.15 95.19c-.9 1.27-2.1 1.84-3.89 1.84a4.24 4.24 0 01-4.4-4.37 4.27 4.27 0 014.4-4.37c2.68 0 4.46 1.9 4.46 4.56v.5H52.9c.2 1.27 1.15 1.97 2.36 1.97.9 0 1.47-.26 2.1-.83l1.79.7zm-1.6-3.6A2.36 2.36 0 0055.26 90c-1.02 0-1.85.5-2.3 1.58h4.6zM67.62 95.95a3.62 3.62 0 01-2.61 1.08c-2.17 0-4.01-1.84-4.01-4.37 0-2.6 1.78-4.37 3.94-4.37 1.02 0 1.92.38 2.68 1.14v-4.11h2.1V96.9h-2.1v-.95zm-4.46-3.35c0 1.45.96 2.46 2.3 2.46 1.27 0 2.29-.95 2.29-2.46 0-1.46-.96-2.47-2.3-2.47-1.46 0-2.29 1.14-2.29 2.47zM74.05 86.4a1.3 1.3 0 01-1.33 1.32c-.77 0-1.34-.7-1.34-1.45 0-.7.64-1.27 1.34-1.27.76 0 1.33.63 1.33 1.4zm-2.42 2.02h2.1v8.35h-2.1v-8.35zM83.8 95.25a4.61 4.61 0 01-3.82 1.78c-2.87 0-4.72-1.97-4.72-4.37 0-2.47 1.98-4.43 4.78-4.43 1.66 0 3.06.7 3.89 1.9l-1.78.95a2.64 2.64 0 00-2.1-.95c-1.6 0-2.68 1.07-2.68 2.53 0 1.45.95 2.47 2.55 2.47a2.8 2.8 0 002.23-.95l1.65 1.07zM92.02 95.95a3.62 3.62 0 01-2.61 1.08c-2.17 0-4.02-1.84-4.02-4.37 0-2.6 1.79-4.37 3.95-4.37 1.02 0 1.92.38 2.68 1.14v-.95h2.1v8.36h-2.1v-.9zm-4.46-3.36c0 1.46.96 2.47 2.3 2.47 1.27 0 2.29-.95 2.29-2.47 0-1.45-.96-2.46-2.3-2.46-1.46 0-2.29 1.14-2.29 2.47zM97.63 89.5c.38-.9 1.08-1.27 1.78-1.27.45 0 .7.12.95.19l-.63 1.77a1.52 1.52 0 00-.64-.19c-.57 0-1.08.7-1.15 1.96v4.88h-2.1v-8.36h1.85l-.06 1.01zM109.1 95.19c-.9 1.27-2.11 1.84-3.9 1.84a4.23 4.23 0 01-4.39-4.37 4.27 4.27 0 014.4-4.37c2.67 0 4.46 1.9 4.46 4.56v.5h-6.82c.19 1.27 1.15 1.97 2.36 1.97.89 0 1.46-.26 2.1-.83l1.78.7zm-1.54-3.6a2.36 2.36 0 00-2.29-1.59c-1.02 0-1.85.5-2.3 1.58h4.6zM113.68 96.08c0 .5-.45.95-.96.95a.98.98 0 01-.95-.95c0-.51.44-.95.95-.95.51-.07.96.44.96.95zM124.25 95.06c0 1.4-.06 2.47-.76 3.42-.7.95-1.97 1.52-3.57 1.52-2.42 0-3.56-.95-4.33-2.6h1.15c.63 1.08 1.59 1.65 3.12 1.65 1.4 0 2.42-.5 2.93-1.46.32-.56.38-1.2.38-1.83v-.63a4.11 4.11 0 01-3.38 1.58 4.23 4.23 0 01-4.33-4.24 4.38 4.38 0 014.34-4.37c1.46 0 2.48.63 3.37 1.65v-1.46h1.08v6.77zm-7.64-2.47c0 1.65 1.21 3.1 3.44 3.1 1.85 0 3.25-1.26 3.25-3.22 0-2.03-1.47-3.3-3.25-3.3a3.41 3.41 0 00-3.44 3.42zM134.96 92.66c0 2.4-1.85 4.37-4.4 4.37a4.31 4.31 0 01-4.4-4.37 4.4 4.4 0 118.8 0zm-7.65 0a3.3 3.3 0 003.31 3.35 3.26 3.26 0 003.32-3.35c0-1.9-1.47-3.42-3.31-3.42a3.39 3.39 0 00-3.32 3.42zM136.17 88.42h1.14l2.8 6.07 2.81-6.07h1.15l-3.89 8.35H140l-3.82-8.35z" fill="#323A45"/></svg>