<svg xmlns="http://www.w3.org/2000/svg" width="130" height="83" xmlns:v="https://vecta.io/nano"><path fill-rule="evenodd" d="M124.764 16.371v-1.183l1.033-.129c.279-.043.387-.129.387-.43V9.533c0-1.397-.28-2.752-1.871-2.752-1.226 0-2.387.602-3.333 1.376v6.472c0 .344.022.387.344.43l1.204.151v1.161h-4.924v-1.183l1.075-.129c.301-.043.344-.107.344-.43v-7.31c0-.237-.064-.387-.279-.452l-1.226-.408.194-1.14h2.817l.172 1.269.064.021c1.118-.796 2.43-1.505 3.978-1.505 2.473 0 3.397 1.591 3.397 3.935v5.59c0 .344.022.387.344.43l1.226.151v1.161h-4.946zm-1.091 33.538v2.774l-1.441-.086-.258-1.333c-.022-.151-.043-.215-.215-.28-.301-.107-.946-.236-1.677-.236-1.57 0-2.28.688-2.28 1.612 0 1.226 1.291 1.484 2.688 1.85 1.677.43 3.505.946 3.505 3.268 0 2.494-2.086 3.354-4.365 3.354-1.741 0-3.505-.494-3.892-.731v-2.86l1.441.087.258 1.483c.021.151.064.237.258.301.279.108 1.032.344 2.107.344 1.441 0 2.365-.537 2.365-1.699 0-1.29-1.225-1.591-2.601-1.913-1.677-.387-3.57-.817-3.57-3.183 0-2.451 2.064-3.354 4.279-3.354 1.548 0 2.946.409 3.398.602zm-13.226-33.28c-3.742 0-5.182-2.408-5.182-5.827 0-3.376 1.72-5.698 5.397-5.698s5.096 2.344 5.096 5.569c0 3.612-1.634 5.956-5.311 5.956zm.172-9.891c-2.107 0-3.333 1.247-3.333 4.085 0 2.86 1.097 4.236 3.225 4.236 2.086 0 3.226-1.311 3.226-4.257 0-2.817-1.032-4.064-3.118-4.064zm-1.81 44.053c-1.312 0-2.258.043-2.28 1.655l-1.849-.193c0-2.645 2.452-2.946 4.15-2.946 3.054 0 4.086.86 4.086 3.828v5.698c0 .344.021.387.344.43l1.096.15v1.161h-3.01l-.194-1.397-.064-.022c-1.032.968-2.236 1.677-3.892 1.677-2.688 0-3.032-1.849-3.032-2.946 0-2.15 1.333-3.16 3.914-3.375l2.902-.237v-1.139c0-1.57-.301-2.344-2.171-2.344zm-.258 5.053c-1.85.172-2.366.709-2.366 1.828 0 1.161.495 1.634 1.506 1.634 1.268 0 2.623-1.032 3.289-1.656v-2.021l-2.429.215zm-7.883-40.828c1.075 0 2.15-.344 2.752-.709l.624 1.419c-.817.537-2.258.903-3.677.903-3.677 0-5.247-2.258-5.247-5.655 0-4.085 2.366-5.87 5.634-5.87 1.569 0 2.795.43 3.268.666v2.86l-1.44-.064-.259-1.419c-.021-.151-.064-.237-.258-.302-.3-.107-.86-.193-1.462-.193-1.913 0-3.44 1.118-3.44 4.193 0 3.01 1.419 4.171 3.505 4.171zm-1.203 17.759c0 3.612-1.634 5.956-5.311 5.956-3.741 0-5.182-2.409-5.182-5.827 0-3.376 1.72-5.699 5.397-5.699s5.096 2.344 5.096 5.57zm-5.139-3.935c-2.107 0-3.333 1.247-3.333 4.085 0 2.86 1.097 4.236 3.226 4.236 2.085 0 3.225-1.312 3.225-4.257 0-2.817-1.032-4.064-3.118-4.064zM85.67 59.112l-.043-.021c-.989.838-2.258 1.741-4.15 1.741-2.365 0-3.096-1.44-3.096-3.913v-5.462c0-.344-.022-.408-.344-.494l-1.118-.28.172-1.161h3.246v6.945c0 1.871.323 2.774 1.678 2.774 1.462 0 2.709-1.01 3.461-1.871v-5.934c0-.344-.021-.387-.344-.473l-1.075-.28.172-1.161h3.204v9.289c0 .323.065.43.301.452l1.14.15v1.161h-3.032l-.172-1.462zm-4.471-47.794c.065 2.172.946 3.655 3.29 3.655 1.204 0 1.957-.215 3.096-.774l.624 1.462c-1.075.602-2.365.968-3.913.968-3.892 0-5.161-2.559-5.161-5.763 0-3.934 2.193-5.762 4.902-5.762 2.624 0 4.43 1.419 4.43 5.139l-.043 1.075h-7.225zm2.838-4.645c-1.44 0-2.644.775-2.816 3.161h5.289c-.043-2.451-1.161-3.161-2.473-3.161zm.338 30.445c1.075 0 2.15-.344 2.752-.71l.624 1.42c-.817.537-2.258.903-3.677.903-3.677 0-5.246-2.258-5.246-5.655 0-4.086 2.365-5.871 5.633-5.871 1.57 0 2.795.431 3.268.667v2.86l-1.44-.065-.258-1.419c-.022-.15-.065-.236-.258-.301-.301-.107-.86-.193-1.462-.193-1.914 0-3.441 1.118-3.441 4.193 0 3.01 1.419 4.171 3.505 4.171zM72.561 13.726V7.018c0-.129 0-.215-.172-.215H70.82V5.555c1.677-.215 2.15-.881 2.43-3.074h1.268v2.623c0 .129 0 .215.172.215h3.161v1.484h-3.333v6.343c0 1.354.323 1.87 1.548 1.87.667 0 1.42-.193 2-.43l.473 1.376c-.86.345-1.892.667-2.989.667-2.064 0-2.989-.968-2.989-2.903zm-1.483 24.747h-3.031l-.173-1.42-.086-.021c-.989.946-2.107 1.699-3.784 1.699-2.451 0-4.064-1.591-4.064-5.548 0-4.236 1.914-5.978 4.494-5.978 1.29 0 2.451.431 3.29 1.033v-4.021c0-.215-.086-.366-.28-.43l-1.29-.409.194-1.139h3.29v14.492c0 .344.021.387.344.43l1.096.151v1.161zm-3.397-8.494c-.645-.537-1.806-1.161-2.946-1.161-2.021 0-2.817 1.763-2.817 4.322 0 2.989 1.011 3.956 2.516 3.956 1.269 0 2.301-.838 3.247-1.784v-5.333zm-3.209-14.791l1.333-.129c.301-.021.344-.107.344-.43V2.136c0-.236-.065-.386-.28-.451l-1.29-.409.194-1.139h3.333v14.492c0 .344.021.387.344.43l1.29.151v1.161h-5.268v-1.183zm-4.624-.279l-.043-.022c-.99.839-2.258 1.742-4.15 1.742-2.366 0-3.097-1.441-3.097-3.913V7.254c0-.344-.021-.409-.344-.494l-1.118-.28.172-1.161h3.247v6.945c0 1.871.323 2.774 1.677 2.774 1.462 0 2.71-1.011 3.462-1.871V7.233c0-.344-.021-.388-.344-.473l-1.075-.28.172-1.161h3.204v9.289c0 .322.064.43.301.451l1.139.151v1.161H60.02l-.172-1.462zm-8.416 10.576l3.333-3.526 1.29 1.29-3.784 3.032-.839-.796zm6.601 6.859l-.043 1.076h-7.224c.064 2.171.946 3.655 3.289 3.655 1.205 0 1.957-.215 3.097-.774l.623 1.462c-1.075.602-2.365.968-3.913.968-3.892 0-5.161-2.559-5.161-5.763 0-3.935 2.194-5.763 4.903-5.763 2.623 0 4.429 1.42 4.429 5.139zm-7.246-.408h5.29c-.043-2.451-1.162-3.161-2.473-3.161-1.441 0-2.645.774-2.817 3.161zm-4.69-21.93c1.677.43 3.505.946 3.505 3.269 0 2.494-2.086 3.354-4.365 3.354-1.742 0-3.505-.494-3.892-.731v-2.86l1.441.086.258 1.484c.021.15.064.236.258.301.279.107 1.032.344 2.107.344 1.441 0 2.365-.538 2.365-1.699 0-1.29-1.225-1.591-2.602-1.913-1.677-.388-3.569-.818-3.569-3.183 0-2.451 2.064-3.354 4.279-3.354 1.548 0 2.946.408 3.397.602V8.48l-1.44-.086-.258-1.333c-.022-.151-.043-.216-.215-.28-.301-.108-.946-.237-1.677-.237-1.57 0-2.28.689-2.28 1.613 0 1.226 1.29 1.484 2.688 1.849zm-11.096 5.182l1.032-.129c.279-.043.387-.129.387-.43V9.533c0-1.397-.28-2.752-1.871-2.752-1.225 0-2.387.602-3.333 1.376v6.472c0 .344.022.387.344.43l1.204.151v1.161H27.84v-1.183l1.076-.129c.301-.043.344-.107.344-.43v-7.31c0-.237-.065-.387-.28-.452l-1.225-.408.193-1.14h2.817l.172 1.269.064.021c1.118-.796 2.43-1.505 3.978-1.505 2.473 0 3.398 1.591 3.398 3.935v5.59c0 .344.021.387.344.43l1.225.151v1.161h-4.945v-1.183zm-3.223 34.119c2.623 0 4.429 1.419 4.429 5.139l-.043 1.075h-7.225c.065 2.172.947 3.656 3.29 3.656 1.205 0 1.957-.215 3.097-.774l.623 1.462c-1.075.602-2.365.967-3.913.967-3.892 0-5.161-2.558-5.161-5.762 0-3.935 2.193-5.763 4.903-5.763zm2.473 4.731c-.043-2.452-1.162-3.161-2.473-3.161-1.441 0-2.645.774-2.817 3.161h5.29zM20.683 16.629c-3.741 0-5.182-2.408-5.182-5.827 0-3.376 1.72-5.698 5.397-5.698s5.096 2.344 5.096 5.569c0 3.612-1.634 5.956-5.311 5.956zm.172-9.891c-2.107 0-3.333 1.247-3.333 4.085 0 2.86 1.097 4.236 3.226 4.236 2.085 0 3.225-1.311 3.225-4.257 0-2.817-1.032-4.064-3.118-4.064zm-1.779 28.531v-5.935c0-.344-.022-.387-.344-.473l-1.075-.279.172-1.161h3.204v9.288c0 .323.064.431.301.452l1.139.151v1.161h-3.032l-.172-1.462-.043-.022c-.989.839-2.257 1.742-4.15 1.742-2.365 0-3.096-1.441-3.096-3.914v-5.461c0-.344-.021-.409-.344-.495l-1.118-.279.172-1.161h3.247v6.945c0 1.87.322 2.774 1.677 2.774 1.462 0 2.709-1.011 3.462-1.871zM.918 8.587C.918 3.921 3.476.524 8.637.524c1.892 0 3.677.451 4.752 1.161v3.44l-1.462-.086-.366-2.042c-.043-.194-.086-.323-.301-.387-.753-.258-1.699-.474-2.709-.474-3.376 0-5.569 2.237-5.569 6.451 0 4.193 2.064 6.429 5.418 6.429.968 0 2.193-.107 3.01-.451.173-.065.258-.129.302-.387l.344-1.935h1.376v3.246c-1.161.774-3.183 1.14-5.161 1.14-5.246 0-7.353-3.311-7.353-8.042zm1.548 28.122c.021.151.064.237.258.302.279.107 1.032.344 2.107.344 1.44 0 2.365-.538 2.365-1.699 0-1.29-1.225-1.591-2.602-1.914-1.677-.387-3.569-.817-3.569-3.182 0-2.451 2.064-3.355 4.279-3.355 1.548 0 2.946.409 3.397.603v2.773l-1.44-.086-.258-1.333c-.022-.15-.043-.215-.215-.279-.301-.108-.946-.237-1.678-.237-1.569 0-2.279.688-2.279 1.613 0 1.225 1.29 1.483 2.688 1.849 1.677.43 3.505.946 3.505 3.268 0 2.495-2.086 3.355-4.365 3.355-1.742 0-3.505-.495-3.892-1.631v-1.96l1.441.086.258 1.483zm8.471 27.112l1.097.129v1.183H6.766v-1.161l1.613-.151c.322-.021.365-.107.365-.43v-4.193l-.064-.021c-.903.86-2.021 1.655-3.634 1.655-2.494 0-4.128-1.569-4.128-5.526 0-4.214 1.935-5.999 4.45-5.999 1.377 0 2.516.473 3.355 1.118l.236-.903h1.849c-.129 1.097-.215 2.021-.215 2.989v10.88c0 .323.043.387.344.43zm-2.3-11.74c-.645-.581-1.806-1.161-2.946-1.161-2.021 0-2.795 1.741-2.795 4.3 0 3.011.989 3.978 2.494 3.978 1.269 0 2.387-.924 3.247-1.892v-5.225zM1.928 73.172l-1.226-.409.194-1.139h2.817l.172 1.268.064.022c1.118-.796 2.43-1.505 3.978-1.505 2.473 0 3.398.691 3.398 3.935v5.59c0 .344.021.387.343.43l1.226.151v1.161H7.949v-1.183l1.032-.129c.279-.043.387-.129.387-.43v-5.096c0-1.397-.28-2.752-1.871-2.752-1.226 0-2.387.602-3.333 1.376v6.472c0 .344.022.387.344.43l1.204.151v1.161H.789v-1.183l1.075-.129c.301-.043.344-.107.344-.43v-7.31c0-.237-.065-.388-.28-.452zm14.776-23.65v6.945c0 1.871.322 2.774 1.677 2.774 1.462 0 2.709-1.01 3.462-1.871v-5.934c0-.344-.022-.387-.344-.473l-1.075-.28.171-1.161h3.204v9.289c0 .323.065.43.301.452l1.14.15v1.161h-3.032l-.172-1.462-.043-.021c-.989.838-2.258 1.741-4.15 1.741-2.365 0-3.096-1.44-3.096-3.913v-5.462c0-.344-.022-.408-.344-.494l-1.118-.28.172-1.161h3.247zm2.47 21.887c2.623 0 4.429 1.419 4.429 5.139 0 .279-.021.709-.043 1.075h-7.224c.064 2.172.946 3.655 3.289 3.655 1.205 0 1.957-.215 3.097-.774l.623 1.462c-1.075.602-2.365.968-3.913.968-3.892 0-5.16-2.559-5.16-5.763 0-3.935 2.193-5.762 4.902-5.762zm2.473 4.73c-.043-2.451-1.161-3.16-2.473-3.16-1.441 0-2.645.774-2.817 3.16h5.29zm9.325-4.73c1.57 0 2.795.43 3.268.666v2.86l-1.44-.064-.258-1.419c-.022-.151-.065-.237-.259-.301-.301-.108-.86-.194-1.462-.194-1.913 0-3.44 1.118-3.44 4.193 0 3.01 1.419 4.171 3.505 4.171 1.075 0 2.15-.344 2.752-.709l.624 1.419c-.817.537-2.258.903-3.677.903-3.677 0-5.247-2.258-5.247-5.655 0-4.086 2.365-5.87 5.634-5.87zm9.413 0c2.623 0 4.43 1.419 4.43 5.139a21.96 21.96 0 0 1-.043 1.075h-7.225c.064 2.172.946 3.655 3.29 3.655 1.204 0 1.957-.215 3.096-.774l.624 1.462c-1.075.602-2.366.968-3.914.968-3.892 0-5.16-2.559-5.16-5.763 0-3.935 2.193-5.762 4.902-5.762zm2.473 4.73c-.043-2.451-1.161-3.16-2.473-3.16-1.44 0-2.645.774-2.816 3.16h5.289zM30.445 48.383l-.839-.796 3.333-3.526 1.29 1.29-3.784 3.032zm-.235-19.414l-1.226-.409.194-1.139h2.816l.172 1.268.065.022c1.14-.882 2.193-1.506 3.806-1.506 1.032 0 2.107.366 2.645 1.377.946-.688 2.214-1.377 3.805-1.377 2.452 0 3.183 1.506 3.183 4v5.526c0 .344.021.387.344.43l1.225.151v1.161h-4.945V37.29l1.032-.129c.28-.043.387-.129.387-.43v-5.182c0-1.355-.301-2.645-1.828-2.645-1.161 0-2.171.581-2.838 1.054.043.387.065.838.065 1.311v5.462c0 .344.021.387.344.43l1.053.151v1.161h-4.773V37.29l1.032-.129c.279-.043.387-.129.387-.43v-5.204c0-1.225-.086-2.623-1.634-2.623-1.118 0-2.258.667-3.075 1.333v6.494c0 .344.022.387.344.43l1.161.151v1.161H29.07V37.29l1.075-.129c.301-.043.344-.108.344-.43V29.42c0-.236-.064-.387-.279-.451zm19.897 20.553h4.171v1.183l-.709.129c-.301.064-.43.107-.538.365l-3.612 9.375h-2.236l-3.634-9.31c-.108-.258-.194-.301-.452-.366l-.924-.193.258-1.183h4.515v1.183l-1.484.172 2.903 8.02 2.946-8.02-1.441-.172.237-1.183zM48.27 80.913c.021.15.064.236.258.301.279.107 1.032.344 2.107.344 1.441 0 2.365-.538 2.365-1.699 0-1.29-1.225-1.591-2.602-1.914-1.677-.387-3.569-.817-3.569-3.182 0-2.451 2.064-3.354 4.279-3.354 1.548 0 2.946.408 3.397.602v2.774l-1.44-.086-.258-1.334a.27.27 0 0 0-.215-.279c-.301-.107-.946-.237-1.677-.237-1.57 0-2.28.688-2.28 1.613 0 1.226 1.29 1.484 2.688 1.849 1.677.43 3.505.946 3.505 3.269 0 2.494-2.086 3.354-4.365 3.354-1.742 0-3.505-.495-3.892-.731v-2.86l1.441.086.258 1.484zm10.622-26.402l2.903-.237v-1.139c0-1.57-.301-2.344-2.172-2.344-1.312 0-2.258.043-2.279 1.655l-1.849-.193c0-2.645 2.451-2.946 4.15-2.946 3.053 0 4.085.86 4.085 3.828v5.698c0 .344.022.387.344.43l1.097.15v1.161H62.16l-.193-1.397-.065-.022c-1.032.968-2.236 1.677-3.892 1.677-2.687 0-3.031-1.849-3.031-2.946 0-2.15 1.333-3.16 3.913-3.375zm-.387 4.795c1.269 0 2.623-1.032 3.29-1.656v-2.021l-2.43.215c-1.849.172-3.265.709-3.265 1.828 0 1.161 1.394 1.634 2.405 1.634zm.032 9.931c-.882 0-1.398-.494-1.398-1.376 0-.86.516-1.355 1.398-1.355s1.376.495 1.376 1.355c0 .882-.495 1.376-1.376 1.376zm-.688 11.697v-7.31c0-.237-.065-.388-.28-.452l-1.225-.409.193-1.139h3.269v9.31c0 .344.021.387.343.43l1.377.151v1.161h-5.44v-1.183l1.419-.129c.301-.021.344-.107.344-.43zm7.1-12.148h1.269v2.623c0 .129 0 .215.172.215h3.161v1.483h-3.333v6.344c0 1.354.323 1.87 1.548 1.87.667 0 1.419-.193 2-.43l.473 1.376c-.86.344-1.892.667-2.989.667-2.064 0-2.989-.968-2.989-2.903v-6.709c0-.129 0-.215-.172-.215H62.52V71.86c1.677-.215 2.15-.881 2.429-3.074zm7.13-9.566c1.075 0 2.15-.344 2.752-.71l.624 1.419c-.817.538-2.258.903-3.677.903-3.677 0-5.247-2.257-5.247-5.655 0-4.085 2.365-5.87 5.634-5.87 1.569 0 2.795.43 3.268.667v2.859l-1.441-.064-.258-1.419c-.021-.151-.064-.237-.258-.301-.301-.108-.86-.194-1.462-.194-1.913 0-3.44 1.118-3.44 4.193 0 3.01 1.419 4.172 3.505 4.172zm2.751-34.186c-.882 0-1.398-.495-1.398-1.376 0-.861.516-1.355 1.398-1.355s1.376.494 1.376 1.355c0 .881-.495 1.376-1.376 1.376zm2.988 12.278v1.161h-5.44V37.29l1.419-.129c.302-.021.344-.108.344-.43V29.42c0-.236-.064-.387-.279-.451l-1.226-.409.194-1.139h3.268v9.31c0 .344.022.387.344.43l1.376.151zm-2.633 39.3l2.903-.236v-1.14c0-1.57-.302-2.344-2.172-2.344-1.312 0-2.258.043-2.279 1.656l-1.85-.193c0-2.645 2.452-2.946 4.15-2.946 3.054 0 4.086.86 4.086 3.827v5.698c0 .344.021.387.344.43l1.096.151v1.161h-3.01l-.193-1.398-.065-.021c-1.032.967-2.236 1.677-3.892 1.677-2.688 0-3.032-1.849-3.032-2.946 0-2.15 1.334-3.161 3.914-3.376zm-.387 4.795c1.268 0 2.623-1.032 3.29-1.655V77.73l-2.43.215c-1.849.172-2.365.71-2.365 1.828 0 1.161.494 1.634 1.505 1.634zm9.445-1.182c.903 0 1.419.451 1.419 1.354s-.494 1.355-1.419 1.355-1.419-.452-1.419-1.355.494-1.354 1.419-1.354zm7.449-29.155l-1.226-.408.194-1.14h2.816l.172 1.269.065.021c1.118-.795 2.43-1.505 3.978-1.505 2.473 0 3.397 1.591 3.397 3.935v5.591c0 .344.022.387.344.43l1.226.15v1.161h-4.946v-1.182l1.032-.129c.28-.043.388-.129.388-.43v-5.096c0-1.398-.28-2.753-1.871-2.753-1.226 0-2.387.602-3.333 1.376v6.473c0 .344.021.387.344.43l1.204.15v1.161h-4.924v-1.182l1.075-.129c.301-.043.344-.108.344-.43v-7.311c0-.237-.064-.387-.279-.452z"/></svg>