<svg xmlns="http://www.w3.org/2000/svg" width="142" height="178" xmlns:v="https://vecta.io/nano"><path fill-rule="evenodd" fill="#fff" d="M141.418 131.562l-1.211 2.334-.981-.355.627-2.187c.02-.104 0-.166-.105-.208l-.731-.292.46-1.729c1.336.042 2.275.208 2.275 1.333 0 .375-.146.75-.334 1.104zm-6.663-6.853c1.649.375 3.507.958 3.507 3.395 0 2.542-2.067 3.583-4.718 3.583-1.9 0-3.758-.499-4.133-.749v-3.021l2.233.167.209 1.187c.042.187.063.25.25.312.251.084.814.209 1.608.209 1.106 0 1.732-.313 1.732-1.083 0-.834-.835-1.084-1.899-1.271-1.754-.313-4.05-.688-4.05-3.417 0-2.583 2.213-3.645 4.613-3.645 1.65 0 3.257.375 3.841.604v3.021l-2.233-.146-.209-1.083c-.042-.188-.063-.25-.209-.292-.271-.083-.772-.167-1.336-.167-1.044 0-1.628.396-1.628 1.063 0 .854 1.148 1.041 2.422 1.333zm-9.592 5.604l-.105-.021c-.793.771-1.837 1.395-3.507 1.395-2.63 0-3.047-1.791-3.047-3.083 0-2.083 1.273-3.02 3.903-3.208l2.401-.166v-1.146c0-.979-.105-1.646-1.399-1.646-1.002 0-1.524.146-1.524 1.396l-2.943-.25c0-2.812 2.567-3.208 4.488-3.208 3.173 0 4.446.854 4.446 3.77v5.063c0 .333.021.374.334.416l1.002.167v1.645h-3.841l-.208-1.124zm-.355-3.354l-1.42.104c-1.231.083-1.67.396-1.67 1.229s.501 1.146 1.19 1.146c.71 0 1.42-.396 1.9-.75v-1.729zm-10.878 3.312l-.146-.021c-.877.854-1.9 1.437-3.424 1.437-2.463 0-4.049-1.562-4.049-5.541 0-4.187 2.108-5.77 4.425-5.77 1.211 0 2.15.417 2.943 1v-3.167c0-.208-.083-.354-.271-.416l-1.148-.396.23-1.687h4.195v13.54c0 .313.021.354.334.396l1.002.146v1.645h-3.882l-.209-1.166zm-.376-6.854c-.522-.354-1.19-.625-1.795-.625-1.545 0-2.15 1.438-2.15 3.292 0 2.02.584 3.145 1.899 3.145.71 0 1.483-.416 2.046-.895v-4.917zm-9.862-65.625c.063 2.104.918 3.541 3.194 3.541 1.169 0 1.899-.208 3.006-.75l.605 1.417c-1.044.583-2.296.938-3.799.938-3.779 0-5.01-2.48-5.01-5.583 0-3.812 2.129-5.583 4.759-5.583 2.547 0 4.301 1.375 4.301 4.979l-.042 1.041h-7.014zm2.755-4.5c-1.398 0-2.567.75-2.734 3.063h5.135c-.042-2.375-1.127-3.063-2.401-3.063zm-7.047.313c-.021-.167-.063-.208-.251-.208-.939 0-2.004.854-2.484 1.312v6.27c0 .334.021.396.334.417l1.921.167v1.124h-5.532v-1.145l1.044-.125c.292-.042.334-.104.334-.417v-7.083c0-.229-.063-.374-.272-.437l-1.19-.396.188-1.104h2.735l.209 1.437.062.021c.689-.77 1.712-1.666 3.131-1.666.48 0 1.128.083 1.503.187v3.146l-1.482-.063-.25-1.437zm-11.832 9.333c-1.252 0-2.338-.438-3.235-1.292l-.063.042-.104.999h-1.858c.125-.77.25-1.978.25-2.978V48.897c0-.229-.062-.375-.271-.437l-1.232-.396.188-1.104h3.215v6.02c.981-.625 2.108-1.208 3.57-1.208 2.338 0 3.945 1.5 3.945 5.166 0 4.291-1.774 6-4.405 6zm-.041-9.583c-1.211 0-2.338.646-3.069 1.167v5.499c.668.625 1.733 1.354 2.86 1.354 1.962 0 2.734-1.625 2.734-4.27 0-2.688-1.043-3.75-2.525-3.75zM82.512 12.23c.104 1.479.751 2.458 2.463 2.458.814 0 1.691-.188 3.11-.709l.773 2.063c-1.295.625-2.714 1.062-4.28 1.062-4.029 0-5.406-2.5-5.406-5.749 0-3.771 2.317-5.562 5.177-5.562 2.755 0 4.592 1.437 4.592 5.041l-.042 1.396h-6.387zm1.774-4.188c-.898 0-1.628.5-1.753 2.209h3.319c-.021-1.75-.71-2.209-1.566-2.209zM80.42 61.563v1.124h-2.943l-.167-1.416-.042-.021c-.96.813-2.191 1.688-4.029 1.688-2.296 0-3.005-1.396-3.005-3.792v-5.291c0-.333-.021-.396-.334-.479l-1.086-.271.167-1.125h3.152v6.729c0 1.812.313 2.687 1.628 2.687 1.42 0 2.631-.979 3.361-1.812v-5.75c0-.333-.021-.375-.334-.458l-1.044-.271.167-1.125h3.111v8.999c0 .313.063.417.292.438l1.106.146zM76.175 8.584c-.042-.187-.105-.229-.272-.229-.543 0-1.19.458-1.503.729v5.52c0 .334.021.396.334.417l2.067.167v1.666h-6.826v-1.687l.939-.125c.292-.042.334-.104.334-.417V8.522c0-.23-.063-.375-.271-.438l-1.128-.396.23-1.687h3.674l.251 1.666h.125c.689-1.062 1.607-1.874 2.943-1.874.48 0 1.44.083 1.816.187v3.791l-2.505-.083-.208-1.104zm-10.518 7.145l-.104-.021c-.793.771-1.837 1.396-3.507 1.396-2.63 0-3.048-1.791-3.048-3.083 0-2.083 1.274-3.02 3.904-3.208l2.401-.167V9.501c0-.979-.105-1.646-1.399-1.646-1.002 0-1.524.146-1.524 1.396l-2.943-.25c0-2.813 2.567-3.208 4.488-3.208 3.173 0 4.446.854 4.446 3.77v5.062c0 .333.021.375.334.417l1.002.167v1.645h-3.841l-.209-1.125zm-.354-3.354l-1.42.105c-1.232.083-1.67.395-1.67 1.229s.501 1.145 1.19 1.145c.71 0 1.42-.395 1.9-.75v-1.729zm-10.15 2.375c1.044 0 1.983-.333 2.609-.604l.814 1.937c-.96.584-2.442 1.021-3.966 1.021-3.778 0-5.469-2.354-5.469-5.52 0-3.896 2.38-5.791 5.72-5.791 1.628 0 3.068.458 3.715.875v3.27l-2.233-.104-.251-1.375c-.021-.146-.062-.271-.25-.333-.251-.084-.647-.146-1.065-.146-1.252 0-2.317.854-2.317 3.291 0 2.708 1.211 3.479 2.693 3.479zm-12.276.459l1.065-.146c.292-.042.334-.105.334-.417V8.522c0-.23-.063-.375-.271-.438l-1.128-.396.23-1.687h4.321v8.645c0 .333.021.375.334.417l1.065.146v1.645h-5.95v-1.645zM45.57 4.334c-1.19 0-1.878-.687-1.878-1.874S44.38.627 45.57.627c1.211 0 1.9.645 1.9 1.833s-.689 1.874-1.9 1.874zm-6.995 11.354l-.146-.021c-.877.854-1.9 1.437-3.423 1.437-2.464 0-4.05-1.562-4.05-5.541 0-4.187 2.108-5.77 4.425-5.77 1.211 0 2.15.416 2.944 1V3.626c0-.208-.084-.354-.272-.416l-1.148-.396.23-1.688h4.196v13.541c0 .312.021.354.334.396l1.002.146v1.645h-3.883l-.209-1.166zm-.376-6.854c-.521-.354-1.189-.625-1.795-.625-1.544 0-2.15 1.437-2.15 3.291 0 2.021.585 3.146 1.9 3.146.709 0 1.482-.417 2.045-.896V8.834zM23.841 12.23c.104 1.479.751 2.458 2.463 2.458.814 0 1.691-.188 3.11-.709l.773 2.063c-1.295.625-2.714 1.062-4.28 1.062-4.029 0-5.406-2.5-5.406-5.749 0-3.771 2.317-5.562 5.177-5.562 2.755 0 4.592 1.437 4.592 5.041l-.042 1.396h-6.387zm1.774-4.188c-.898 0-1.628.5-1.754 2.209h3.32c-.021-1.75-.71-2.209-1.566-2.209zm-12.659 7.187l1.712-.145c.313-.021.334-.126.334-.417V6.751h-.084l-2.985 7.103H8.53L5.587 6.73h-.104v7.916c0 .333.041.396.334.417l1.795.166v1.625H1.266v-1.625l1.315-.145c.292-.042.334-.105.334-.417V3.98c0-.312-.042-.375-.334-.416l-1.315-.146V1.772H6.86l3.633 9.437h.083l3.82-9.437h5.428v1.625l-1.399.167c-.313.041-.334.083-.334.396v10.707c0 .271.063.354.334.396l1.399.166v1.625h-6.868v-1.625zM3.437 71.585H5.42v2.958c0 .145 0 .208.167.208H8.53v2.083H5.42v4.979c0 1.229.292 1.708 1.419 1.708.585 0 1.19-.146 1.691-.333l.564 1.833c-.898.437-2.213.833-3.403.833-2.484 0-3.423-1-3.423-3.354v-5.458c0-.124 0-.208-.167-.208H.64V74.98c1.837-.208 2.567-1.125 2.797-3.395zm3.089 26.083v1.687l-1.336.167 2.13 5.937h.146l2.213-5.937-1.357-.167.271-1.687h4.822v1.687l-.751.125c-.313.062-.418.104-.522.354l-3.319 8.687H5.17l-3.32-8.624c-.104-.25-.188-.292-.438-.355l-.877-.187.334-1.687h5.657zm-4.509 25l-1.127-.396.23-1.688h3.674l.25 1.667h.126c.688-1.063 1.607-1.875 2.943-1.875.48 0 1.44.083 1.816.188v3.791l-2.505-.084-.209-1.104c-.042-.187-.104-.229-.271-.229-.543 0-1.19.459-1.503.729v5.521c0 .333.021.395.334.416l2.067.167v1.666H1.015v-1.687l.94-.125c.292-.042.334-.104.334-.416v-6.104c0-.229-.063-.375-.272-.437zm3.925 25.52c1.628.417 3.403.917 3.403 3.166 0 2.417-2.025 3.25-4.238 3.25-1.691 0-3.403-.479-3.778-.708v-2.771l1.398.084.251 1.437c.021.146.062.229.25.292.272.104 1.002.333 2.046.333 1.398 0 2.296-.521 2.296-1.646 0-1.25-1.19-1.541-2.526-1.854-1.628-.375-3.465-.791-3.465-3.083 0-2.375 2.004-3.25 4.154-3.25 1.503 0 2.86.396 3.298.584v2.687l-1.398-.083-.251-1.292c-.021-.146-.041-.208-.209-.271-.292-.104-.918-.229-1.628-.229-1.524 0-2.212.667-2.212 1.563 0 1.187 1.252 1.437 2.609 1.791zm-1.378 18.375v6.729c0 1.812.313 2.687 1.628 2.687 1.42 0 2.631-.979 3.361-1.812v-5.749c0-.334-.021-.376-.334-.459l-1.043-.271.167-1.125h3.11v9c0 .312.062.416.292.437l1.107.146v1.125H9.908l-.167-1.417-.042-.021c-.96.813-2.191 1.688-4.028 1.688-2.297 0-3.007-1.396-3.007-3.791v-5.292c0-.333-.02-.396-.334-.479l-1.085-.271.167-1.125h3.152zm10.926 9c.021.146.063.229.251.291.271.104 1.002.334 2.046.334 1.398 0 2.296-.521 2.296-1.646 0-1.25-1.19-1.542-2.526-1.854-1.628-.375-3.465-.792-3.465-3.083 0-2.375 2.004-3.25 4.154-3.25 1.503 0 2.86.396 3.298.583v2.688l-1.399-.084-.25-1.291c-.021-.146-.042-.209-.209-.271-.292-.104-.918-.229-1.628-.229-1.524 0-2.213.667-2.213 1.562 0 1.188 1.253 1.438 2.61 1.792 1.628.416 3.402.916 3.402 3.166 0 2.417-2.025 3.25-4.237 3.25-1.691 0-3.403-.479-3.779-.708v-2.771l1.399.083.25 1.438zm3.874-22.896c0 .333.021.375.334.416l1.169.146v1.125h-4.78v-1.146l1.043-.125c.293-.041.334-.104.334-.416v-7.083c0-.229-.062-.375-.271-.437l-1.19-.396.188-1.104h2.735l.167 1.229.062.021c1.086-.771 2.359-1.459 3.862-1.459 2.401 0 3.298 1.542 3.298 3.813v5.416c0 .333.021.375.334.416l1.19.146v1.125h-4.801v-1.146l1.002-.125c.271-.041.376-.125.376-.416v-4.937c0-1.354-.272-2.667-1.816-2.667-1.19 0-2.318.584-3.236 1.334v6.27zm5.678 11.147h1.232v2.541c0 .125 0 .208.167.208h3.068v1.438h-3.235v6.145c0 1.312.313 1.812 1.503 1.812.647 0 1.378-.187 1.941-.416l.459 1.333c-.835.333-1.837.646-2.901.646-2.004 0-2.902-.938-2.902-2.812v-6.5c0-.125 0-.208-.167-.208h-1.524v-1.208c1.629-.209 2.088-.855 2.359-2.979zm10.827-43.438c3.862 0 5.365 2.292 5.365 5.479 0 3.541-1.795 5.832-5.636 5.832-3.82 0-5.365-2.333-5.365-5.603 0-3.458 1.816-5.708 5.636-5.708zm-.125 9.124c1.357 0 2.192-.937 2.192-3.541 0-2.458-.752-3.333-2.109-3.333-1.378 0-2.296.854-2.296 3.354 0 2.52.814 3.52 2.213 3.52zm-.48 36.855c2.546 0 4.3 1.375 4.3 4.979l-.042 1.041h-7.014c.063 2.104.919 3.542 3.194 3.542 1.169 0 1.9-.208 3.006-.75l.605 1.416c-1.043.584-2.296.938-3.799.938-3.778 0-5.01-2.479-5.01-5.583 0-3.812 2.129-5.583 4.76-5.583zm2.4 4.583c-.042-2.375-1.127-3.062-2.4-3.062-1.399 0-2.568.75-2.735 3.062h5.135zm7.38-4.583c1.253 0 2.38.417 3.194 1v-3.895c0-.209-.083-.355-.271-.417l-1.253-.396.188-1.104h3.194v14.041c0 .333.021.374.334.416l1.065.146v1.125h-2.944l-.167-1.375-.083-.021c-.961.917-2.046 1.646-3.674 1.646-2.38 0-3.946-1.542-3.946-5.375 0-4.104 1.858-5.791 4.363-5.791zm0 9.583c1.232 0 2.234-.813 3.152-1.729v-5.167c-.626-.52-1.753-1.125-2.859-1.125-1.963 0-2.735 1.709-2.735 4.188 0 2.895.981 3.833 2.442 3.833zm2.17-21.334c-3.633 0-5.031-2.333-5.031-5.645 0-3.271 1.67-5.521 5.239-5.521s4.948 2.271 4.948 5.396c0 3.5-1.587 5.77-5.156 5.77zm.167-9.582c-2.046 0-3.236 1.208-3.236 3.958 0 2.77 1.065 4.103 3.131 4.103 2.025 0 3.131-1.27 3.131-4.124 0-2.729-1.002-3.937-3.026-3.937zm6.468 29.874c.877 0 1.378.437 1.378 1.312s-.481 1.313-1.378 1.313-1.378-.438-1.378-1.313.48-1.312 1.378-1.312zm-.245-23.771l1.399.084.25 1.437c.021.146.063.229.251.292.271.104 1.002.333 2.046.333 1.398 0 2.296-.521 2.296-1.646 0-1.25-1.19-1.541-2.526-1.854-1.628-.375-3.465-.791-3.465-3.083 0-2.375 2.004-3.25 4.154-3.25 1.503 0 2.86.396 3.298.584v2.687l-1.399-.083-.25-1.292c-.021-.146-.042-.208-.209-.271-.292-.104-.918-.229-1.628-.229-1.524 0-2.213.667-2.213 1.563 0 1.187 1.253 1.437 2.609 1.791 1.629.417 3.403.917 3.403 3.166 0 2.417-2.025 3.25-4.237 3.25-1.691 0-3.403-.479-3.779-.708v-2.771zm11.201-10.228h1.232v2.541c0 .125 0 .209.167.209h3.068v1.437h-3.235v6.145c0 1.313.313 1.813 1.503 1.813.647 0 1.377-.188 1.941-.417l.459 1.333c-.835.334-1.837.646-2.901.646-2.004 0-2.902-.937-2.902-2.812v-6.5c0-.124 0-.208-.167-.208h-1.524v-1.208c1.628-.208 2.088-.854 2.359-2.979zm10.702 2.541c3.569 0 4.947 2.271 4.947 5.396 0 3.5-1.587 5.77-5.156 5.77-3.632 0-5.031-2.333-5.031-5.645 0-3.271 1.67-5.521 5.24-5.521zm-.147 9.645c2.025 0 3.132-1.27 3.132-4.124 0-2.729-1.002-3.937-3.027-3.937-2.046 0-3.236 1.208-3.236 3.958 0 2.77 1.065 4.103 3.131 4.103zm2.874-28.374c0-1-.063-1.833-1.107-1.833-.772 0-1.732.437-2.171.771v5.582c0 .334.021.375.334.417l1.002.146v1.645h-5.761v-1.666l.939-.125c.292-.042.334-.104.334-.417v-6.124c0-.229-.062-.375-.271-.437l-1.127-.396.25-1.688h3.653l.167 1.084.084.041c1.043-.771 2.254-1.333 3.674-1.333 2.275 0 3.152 1.25 3.152 3.541v5.312c0 .334.021.375.334.417l1.044.146v1.645h-4.53v-6.728zm.209-26.646v3.021l-2.233-.146-.209-1.083c-.042-.188-.063-.25-.209-.292-.271-.083-.772-.166-1.336-.166-1.044 0-1.628.395-1.628 1.062 0 .854 1.148 1.042 2.421 1.333 1.65.375 3.507.959 3.507 3.396 0 2.541-2.066 3.583-4.717 3.583-1.9 0-3.758-.5-4.134-.75V105l2.234.167.209 1.187c.042.188.062.25.25.313.251.083.814.208 1.608.208 1.106 0 1.732-.312 1.732-1.083 0-.833-.835-1.083-1.899-1.271-1.754-.312-4.05-.687-4.05-3.416 0-2.583 2.213-3.646 4.613-3.646 1.649 0 3.257.375 3.841.604zm-5.901-19.75v5.062c0 .333.021.375.334.417l1.002.166v1.646h-3.841l-.209-1.125-.104-.021c-.793.771-1.837 1.396-3.507 1.396-2.63 0-3.048-1.791-3.048-3.083 0-2.083 1.274-3.021 3.904-3.208l2.4-.167v-1.145c0-.979-.104-1.646-1.398-1.646-1.002 0-1.524.146-1.524 1.396l-2.943-.25c0-2.812 2.567-3.208 4.488-3.208 3.173 0 4.446.854 4.446 3.77zm-3.069 2.812l-1.419.105c-1.232.083-1.67.395-1.67 1.229s.501 1.145 1.19 1.145c.71 0 1.419-.395 1.899-.75v-1.729zm.829-49.124c0 4.624-2.443 7.77-7.849 7.77h-6.409v-1.667l1.315-.146c.313-.041.334-.104.334-.416V26.897c0-.313-.042-.375-.334-.417l-1.315-.145v-1.646h6.764c5.239 0 7.494 2.812 7.494 7.312zm-9.373-5.062v10.582h1.19c3.674 0 4.905-2.166 4.905-5.333 0-3.833-1.461-5.249-4.78-5.249h-1.315zm-3.735 74.062v5.312c0 .333.021.375.334.416l1.044.146v1.646h-4.53v-6.729c0-1-.062-1.833-1.106-1.833-.772 0-1.733.438-2.171.771v5.583c0 .333.021.375.334.416l1.002.146v1.646h-5.762v-1.667l.94-.125c.292-.041.334-.104.334-.416v-6.125c0-.229-.063-.375-.272-.437l-1.127-.396.251-1.687h3.653l.167 1.083.083.041c1.044-.77 2.255-1.333 3.674-1.333 2.276 0 3.152 1.25 3.152 3.542zM52.751 55.48V61c0 .333.02.375.334.417l1.064.146v1.124h-2.922l-.188-1.354-.063-.02c-1.002.937-2.171 1.625-3.778 1.625-2.61 0-2.944-1.792-2.944-2.854 0-2.084 1.295-3.063 3.8-3.271l2.818-.229V55.48c0-1.521-.293-2.271-2.109-2.271-1.273 0-2.191.042-2.212 1.604l-1.796-.187c0-2.563 2.38-2.854 4.029-2.854 2.965 0 3.967.833 3.967 3.708zm-1.879 2.416l-2.359.209c-1.795.166-2.296.687-2.296 1.77 0 1.125.48 1.583 1.461 1.583 1.232 0 2.547-1 3.194-1.604v-1.958zM46.81 28.709c2.756 0 4.593 1.438 4.593 5.042a40.34 40.34 0 0 1-.042 1.395h-6.388c.105 1.479.752 2.458 2.464 2.458.814 0 1.69-.187 3.11-.708l.772 2.062c-1.294.625-2.713 1.063-4.279 1.063-4.029 0-5.407-2.5-5.407-5.75 0-3.77 2.317-5.562 5.177-5.562zm1.503 4.458c-.021-1.75-.709-2.208-1.565-2.208-.898 0-1.629.5-1.754 2.208h3.319zm-13.461 24c0 3.5-1.587 5.771-5.156 5.771-3.633 0-5.031-2.334-5.031-5.646 0-3.27 1.67-5.52 5.239-5.52s4.948 2.27 4.948 5.395zm-4.989-3.812c-2.046 0-3.236 1.208-3.236 3.958 0 2.771 1.065 4.104 3.131 4.104 2.025 0 3.132-1.271 3.132-4.125 0-2.729-1.002-3.937-3.027-3.937zm-4.488-22.354l-1.128-.396.23-1.687h3.674l.25 1.666h.126c.689-1.062 1.607-1.875 2.943-1.875.48 0 1.44.084 1.816.188v3.791l-2.505-.083-.209-1.104c-.041-.188-.104-.229-.271-.229-.543 0-1.19.458-1.503.729v5.52c0 .333.021.396.334.417l2.067.166v1.667h-6.826v-1.688l.939-.125c.292-.041.334-.104.334-.416v-6.104c0-.229-.063-.375-.271-.437zm2.661 44.542v-3.167c0-.208-.083-.354-.271-.416l-1.148-.396.23-1.688h4.195v13.541c0 .312.021.354.335.396l1.001.145v1.646h-3.882l-.209-1.166-.146-.021c-.877.854-1.9 1.437-3.424 1.437-2.463 0-4.049-1.562-4.049-5.541 0-4.187 2.108-5.77 4.425-5.77 1.211 0 2.15.416 2.943 1zm-4.07 4.707c0 2.021.584 3.146 1.899 3.146.71 0 1.483-.417 2.046-.896v-4.916c-.522-.354-1.19-.625-1.795-.625-1.545 0-2.15 1.437-2.15 3.291zM15.45 53.147c.961-.688 2.171-1.375 3.758-1.375 2.233 0 3.215 1.437 3.215 3.791V61c0 .333.02.375.333.417l1.19.146v1.124h-4.801v-1.145l1.002-.125c.272-.042.376-.125.376-.417v-4.854c0-1.541-.271-2.77-1.754-2.77-1.252 0-2.484.708-3.298 1.354V61c0 .333.021.375.334.417l1.169.146v1.124h-4.78v-1.145l1.044-.125c.292-.042.334-.104.334-.417V48.897c0-.229-.063-.375-.272-.437l-1.252-.396.188-1.104h3.214v6.187zm-7.233 8.186l-.062-.02c-1.002.937-2.171 1.625-3.779 1.625-2.609 0-2.943-1.792-2.943-2.854 0-2.084 1.294-3.063 3.799-3.271l2.818-.229V55.48c0-1.521-.292-2.271-2.108-2.271-1.273 0-2.192.042-2.213 1.604l-1.795-.187c0-2.563 2.38-2.854 4.029-2.854 2.964 0 3.966.833 3.966 3.708V61c0 .333.021.375.334.417l1.065.146v1.124H8.405l-.188-1.354zm-.167-3.437l-2.359.209c-1.795.166-2.296.687-2.296 1.77 0 1.125.48 1.583 1.461 1.583 1.232 0 2.547-1 3.194-1.604v-1.958zm.772 22.354c0-3.458 1.816-5.707 5.636-5.707 3.862 0 5.365 2.291 5.365 5.478 0 3.542-1.795 5.833-5.636 5.833-3.82 0-5.365-2.333-5.365-5.604zm5.511 3.417c1.357 0 2.192-.938 2.192-3.541 0-2.459-.752-3.334-2.109-3.334-1.377 0-2.296.854-2.296 3.354 0 2.521.814 3.521 2.213 3.521zm12.18 45.666c1.043 0 1.983-.333 2.609-.604l.814 1.938c-.96.583-2.442 1.02-3.966 1.02-3.779 0-5.469-2.354-5.469-5.52 0-3.895 2.379-5.791 5.719-5.791 1.629 0 3.069.458 3.716.875v3.27l-2.234-.104-.25-1.375c-.021-.145-.063-.27-.25-.333-.251-.083-.648-.146-1.065-.146-1.253 0-2.317.854-2.317 3.292 0 2.708 1.21 3.478 2.693 3.478zm3.336-22.916c1.044 0 1.983-.334 2.61-.604l.814 1.937c-.96.583-2.443 1.021-3.966 1.021-3.779 0-5.47-2.354-5.47-5.521 0-3.895 2.38-5.791 5.72-5.791 1.628 0 3.069.459 3.716.875v3.271l-2.234-.104-.25-1.375c-.021-.146-.063-.271-.251-.334-.25-.083-.647-.145-1.064-.145-1.253 0-2.318.854-2.318 3.291 0 2.708 1.211 3.479 2.693 3.479zm3.012-23.646c0-2.083 1.273-3.021 3.903-3.208l2.401-.167v-1.145c0-.979-.105-1.646-1.399-1.646-1.002 0-1.524.146-1.524 1.396l-2.943-.25c0-2.812 2.568-3.208 4.488-3.208 3.173 0 4.446.854 4.446 3.77v5.062c0 .333.021.375.334.417l1.002.166v1.646h-3.841l-.208-1.125-.105-.021c-.793.771-1.837 1.396-3.507 1.396-2.63 0-3.047-1.791-3.047-3.083zm4.404.833c.71 0 1.42-.395 1.9-.75v-1.729l-1.42.105c-1.231.083-1.67.395-1.67 1.229s.501 1.145 1.19 1.145zm-.052-30.124l-1.189-.396.188-1.104h2.734l.209 1.437.063.021c.688-.77 1.711-1.666 3.131-1.666a6.6 6.6 0 0 1 1.503.187v3.146l-1.482-.063-.251-1.437c-.021-.167-.063-.208-.25-.208-.94 0-2.004.854-2.484 1.312v6.27c0 .334.02.396.334.417l1.92.167v1.124h-5.532v-1.145l1.044-.125c.292-.042.334-.104.334-.417v-7.083c0-.229-.063-.374-.272-.437zm11.899 25.396c1.649.375 3.507.958 3.507 3.395 0 2.542-2.067 3.583-4.718 3.583-1.9 0-3.758-.5-4.133-.75v-3.02l2.233.166.209 1.188c.042.187.063.25.25.312.251.083.815.208 1.608.208 1.106 0 1.732-.312 1.732-1.083 0-.833-.835-1.083-1.899-1.271-1.754-.312-4.05-.687-4.05-3.416 0-2.583 2.213-3.645 4.613-3.645 1.65 0 3.257.375 3.842.604v3.02l-2.234-.145-.209-1.084c-.042-.187-.063-.25-.209-.291-.271-.084-.772-.167-1.336-.167-1.043 0-1.628.396-1.628 1.062 0 .854 1.148 1.042 2.422 1.334zm7.689 5.082l1.044-.145c.292-.042.334-.105.334-.417V72.397c0-.229-.063-.375-.271-.437l-1.148-.396.229-1.688h4.342v13.52c0 .333.021.375.334.417l1.023.145v1.646h-5.887v-1.646zm7.729-22.583c1.044 0 2.088-.333 2.672-.687l.606 1.375c-.794.52-2.192.875-3.57.875-3.57 0-5.094-2.188-5.094-5.479 0-3.958 2.297-5.687 5.47-5.687 1.524 0 2.713.416 3.173.646v2.77l-1.399-.062-.25-1.375c-.021-.146-.063-.229-.251-.292-.292-.104-.835-.187-1.419-.187-1.858 0-3.34 1.083-3.34 4.062 0 2.916 1.377 4.041 3.402 4.041zm-5.532 44.313c0-2.083 1.274-3.021 3.904-3.208l2.401-.167v-1.146c0-.979-.105-1.645-1.399-1.645-1.002 0-1.524.145-1.524 1.395l-2.943-.25c0-2.812 2.567-3.208 4.488-3.208 3.173 0 4.446.854 4.446 3.771v5.062c0 .333.021.375.334.417l1.002.166v1.646h-3.841l-.209-1.125-.104-.021c-.793.771-1.837 1.396-3.507 1.396-2.63 0-3.048-1.792-3.048-3.083zm4.405.833c.71 0 1.42-.396 1.9-.75v-1.729l-1.42.104c-1.232.084-1.67.396-1.67 1.229s.501 1.146 1.19 1.146zm2.386 22.75c.814 0 1.691-.187 3.11-.708l.772 2.062c-1.294.625-2.713 1.062-4.279 1.062-4.029 0-5.407-2.499-5.407-5.749 0-3.771 2.317-5.562 5.177-5.562 2.756 0 4.593 1.437 4.593 5.041a40.39 40.39 0 0 1-.042 1.396h-6.388c.105 1.479.752 2.458 2.464 2.458zm.876-4.437c-.021-1.75-.709-2.208-1.565-2.208-.898 0-1.628.5-1.754 2.208h3.319zm-23.773-2.166l-1.127-.396.23-1.688h3.674l.167 1.084.104.02c.94-.77 2.004-1.312 3.34-1.312 1.023 0 1.962.271 2.547 1.25.689-.542 1.9-1.25 3.361-1.25 2.233 0 3.068 1.104 3.068 3.521v5.332c0 .334.021.396.334.438l1.044.125v1.645h-4.53v-6.728c0-.812-.083-1.792-1.169-1.792-.584 0-1.148.209-1.691.563.042.333.063.666.063 1.021v4.728c0 .354.021.396.334.438l.835.125v1.645h-4.321v-6.832c0-.771-.063-1.688-1.106-1.688-.627 0-1.315.313-1.733.667v5.645c0 .334.021.375.334.417l1.023.146v1.645H41.89v-1.645l.94-.146c.292-.042.334-.104.334-.417v-6.124c0-.229-.063-.375-.272-.437zm-7.855-17.564v-5.082c0-.334-.02-.375-.334-.438l-1.002-.208.209-1.708h4.28v6.895c0 1.271.208 1.75 1.106 1.75.918 0 1.67-.521 2.15-.959v-5.353c0-.334-.021-.354-.334-.417l-.898-.208.23-1.708h4.154v8.645c0 .271.042.354.292.396l1.044.145v1.667h-3.883l-.167-1.125-.104-.021c-.856.646-1.941 1.396-3.716 1.396-2.192 0-3.027-1.25-3.027-3.667zm3.077 47.938c1.044 0 2.088-.334 2.672-.688l.606 1.375c-.793.521-2.192.875-3.57.875-3.57 0-5.093-2.187-5.093-5.478 0-3.958 2.296-5.688 5.469-5.688 1.524 0 2.714.417 3.173.646v2.771l-1.399-.063-.25-1.375c-.021-.145-.063-.229-.251-.291-.292-.104-.835-.188-1.419-.188-1.858 0-3.34 1.084-3.34 4.062 0 2.917 1.377 4.042 3.402 4.042zm-22.725-32.666c2.756 0 4.593 1.437 4.593 5.041a40.39 40.39 0 0 1-.042 1.396h-6.388c.105 1.479.752 2.458 2.464 2.458.814 0 1.69-.187 3.11-.708l.772 2.062c-1.294.625-2.713 1.062-4.279 1.062-4.029 0-5.407-2.499-5.407-5.749 0-3.771 2.317-5.562 5.177-5.562zm1.503 4.458c-.021-1.75-.709-2.208-1.565-2.208-.898 0-1.629.5-1.754 2.208h3.319zm-4.321 16.5c-.856 0-1.357-.479-1.357-1.333 0-.833.501-1.312 1.357-1.312s1.336.479 1.336 1.312c0 .854-.48 1.333-1.336 1.333zm2.902 11.895v1.125h-5.282v-1.146l1.378-.125c.292-.02.334-.104.334-.416v-7.083c0-.229-.062-.375-.271-.437l-1.19-.396.188-1.104h3.173v9.02c0 .333.021.375.334.416l1.336.146zm2.551-53.707c-1.002 0-1.524.145-1.524 1.395l-2.943-.25c0-2.812 2.567-3.208 4.488-3.208 3.173 0 4.446.854 4.446 3.771v5.062c0 .333.021.375.334.417l1.002.166v1.646h-3.841l-.209-1.125-.104-.021c-.793.771-1.837 1.396-3.507 1.396-2.63 0-3.048-1.792-3.048-3.083 0-2.083 1.274-3.021 3.904-3.208l2.4-.167v-1.146c0-.979-.104-1.645-1.398-1.645zm-.021 4.624c-1.232.084-1.67.396-1.67 1.229s.501 1.146 1.19 1.146c.71 0 1.419-.396 1.899-.75v-1.729l-1.419.104zM2.581 26.501l-1.315-.146v-1.666h7.077c3.861 0 5.03 2.041 5.03 4.437 0 3.625-2.192 5.083-5.719 5.083H6.13v3.333c0 .333.041.396.334.416l2.985.167v1.646H1.266v-1.646l1.315-.146c.292-.041.334-.104.334-.416V26.918c0-.313-.021-.375-.334-.417zM6.13 31.98h1.043c1.378 0 2.902-.313 2.902-2.667 0-1.999-1.231-2.354-2.714-2.354H6.13v5.021zm12.172-1.208c-1.002 0-1.524.145-1.524 1.395l-2.943-.25c0-2.812 2.567-3.208 4.488-3.208 3.173 0 4.446.854 4.446 3.771v5.062c0 .333.021.375.334.416l1.002.167v1.646h-3.841l-.209-1.125-.104-.021c-.793.771-1.837 1.396-3.507 1.396-2.63 0-3.048-1.792-3.048-3.083 0-2.083 1.274-3.021 3.904-3.208l2.4-.167v-1.146c0-.979-.104-1.645-1.398-1.645zm-.021 4.624c-1.232.084-1.67.396-1.67 1.229s.501 1.146 1.19 1.146c.71 0 1.419-.396 1.899-.75v-1.729l-1.419.104zm21.37 2.292c.584 0 1.19-.146 1.691-.334l.563 1.833c-.897.438-2.212.834-3.402.834-2.484 0-3.424-1-3.424-3.354v-5.458c0-.125 0-.208-.167-.208h-1.461v-1.854c1.837-.209 2.568-1.125 2.797-3.396h1.983v2.958c0 .146 0 .209.167.209h2.944v2.083h-3.111v4.978c0 1.23.293 1.709 1.42 1.709zM79.42 78.876c1.649.375 3.507.958 3.507 3.395 0 2.542-2.066 3.583-4.717 3.583-1.9 0-3.758-.5-4.134-.75v-3.02l2.234.166.209 1.188c.041.187.062.25.25.312.251.083.814.208 1.608.208 1.106 0 1.732-.312 1.732-1.083 0-.833-.835-1.083-1.899-1.271-1.754-.312-4.05-.687-4.05-3.416 0-2.583 2.212-3.645 4.613-3.645 1.649 0 3.257.375 3.841.604v3.02l-2.234-.145-.208-1.084c-.042-.187-.063-.25-.209-.291-.271-.084-.772-.167-1.336-.167-1.044 0-1.628.396-1.628 1.062 0 .854 1.148 1.042 2.421 1.334zm8.237 41.5c1.211 0 2.15.417 2.943 1v-3.167c0-.208-.083-.354-.271-.416l-1.148-.396.229-1.687h4.196v13.54c0 .313.021.354.334.396l1.002.146v1.645h-3.883l-.208-1.166-.146-.021c-.877.854-1.9 1.437-3.424 1.437-2.463 0-4.05-1.562-4.05-5.541 0-4.187 2.109-5.77 4.426-5.77zm.772 8.853c.71 0 1.482-.416 2.046-.895v-4.917c-.522-.354-1.19-.625-1.795-.625-1.545 0-2.15 1.438-2.15 3.292 0 2.02.584 3.145 1.899 3.145zm-1.463 15.918l-1.19-.396.188-1.104h2.755l.188 1.208.063.021c1.148-.854 2.317-1.438 3.736-1.438 2.338 0 3.925 1.5 3.925 5.167 0 3.124-1.065 5.999-4.342 5.999-1.19 0-2.192-.291-3.173-1.146v3.604c0 .334.021.396.334.417l1.962.167v1.124h-5.386v-1.145l.856-.125c.292-.042.355-.104.355-.417v-11.499c0-.229-.063-.375-.271-.437zm2.15 6.541c.709.687 1.753 1.354 2.86 1.354 1.983 0 2.734-1.646 2.734-4.271 0-2.833-1.106-3.728-2.4-3.728-1.336 0-2.589.812-3.194 1.291v5.354zm11.214-29.25c-1.002 0-1.524.146-1.524 1.396l-2.943-.25c0-2.812 2.567-3.208 4.488-3.208 3.173 0 4.446.854 4.446 3.77v5.063c0 .333.021.374.334.416l1.002.167v1.645h-3.841l-.208-1.124-.105-.021c-.793.771-1.837 1.395-3.507 1.395-2.63 0-3.048-1.791-3.048-3.083 0-2.083 1.274-3.02 3.904-3.208l2.401-.166v-1.146c0-.979-.105-1.646-1.399-1.646zm-.021 4.625c-1.231.083-1.67.396-1.67 1.229s.501 1.146 1.19 1.146c.71 0 1.42-.396 1.9-.75v-1.729l-1.42.104zm1.132 21.417l2.819-.229v-1.104c0-1.521-.293-2.271-2.109-2.271-1.273 0-2.192.042-2.213 1.604l-1.795-.188c0-2.562 2.38-2.854 4.029-2.854 2.964 0 3.966.834 3.966 3.709v5.52c0 .333.021.375.334.416l1.065.146v1.125h-2.923l-.187-1.354-.063-.021c-1.002.938-2.171 1.625-3.778 1.625-2.61 0-2.944-1.791-2.944-2.854 0-2.083 1.295-3.062 3.799-3.27zm-.375 4.645c1.231 0 2.546-1 3.194-1.604v-1.958l-2.359.208c-1.796.167-2.297.688-2.297 1.771 0 1.125.481 1.583 1.462 1.583zm8.443-7.978l-1.189-.396.187-1.104h2.735l.209 1.437.062.021c.689-.771 1.712-1.667 3.132-1.667.48 0 1.127.084 1.503.188v3.145l-1.482-.062-.251-1.437c-.021-.167-.062-.209-.25-.209-.94 0-2.004.854-2.485 1.313v6.27c0 .333.021.396.334.417l1.921.166v1.125h-5.532v-1.146l1.044-.125c.292-.041.334-.104.334-.416v-7.083c0-.229-.063-.375-.272-.437zm10.841 3.333l2.818-.229v-1.104c0-1.521-.292-2.271-2.109-2.271-1.273 0-2.191.042-2.212 1.604l-1.796-.188c0-2.562 2.38-2.854 4.029-2.854 2.965 0 3.966.834 3.966 3.709v5.52c0 .333.021.375.334.416l1.065.146v1.125h-2.922l-.188-1.354-.063-.021c-1.002.938-2.171 1.625-3.778 1.625-2.61 0-2.944-1.791-2.944-2.854 0-2.083 1.295-3.062 3.8-3.27zm-.376 4.645c1.231 0 2.547-1 3.194-1.604v-1.958l-2.359.208c-1.795.167-2.296.688-2.296 1.771 0 1.125.48 1.583 1.461 1.583z"/></svg>