<svg width="213" height="50" viewBox="0 0 213 50" fill="none" xmlns="http://www.w3.org/2000/svg"><mask id="a" maskUnits="userSpaceOnUse" x="-47" y="-144" width="260" height="329"><path d="M182.71 184.66l29.91-242.99-228.73-84.68L-46 100l228.72 84.67z" fill="#fff"/></mask><g mask="url(#a)"><path d="M89.6 156.6c21.7 6.7 40.77-3.79 53.28-19.56 7.67-9.64 13.32-21.24 18.54-32.98 5.48-12.33 7.65-40.16 13.08-52.56 8.51-9.49 21.5-38 19.99-50.56 3.17-10.82.98.06-3.36-10.85-9.86-24.76-22.6-39.8-43.03-50.57C135.4-67.2 119-70.16 106-75.27 86.19-83.06 65.41-92 45.24-94.67c-10.29-1.36-20.55-.87-29.79 2.26C5.57-89.08-2.58-81.7-9-73.28c-6.93 9.11-12.82 18.7-15.44 31.08-4.85 22.93-.33 49.41 9.34 73.39 10.43 25.83 26.35 49.16 43.07 71.08 17.08 22.36 36.55 46.63 61.63 54.34z" fill="#6789A3"/></g></svg>