<svg xmlns="http://www.w3.org/2000/svg" width="150" height="34" xmlns:v="https://vecta.io/nano"><path fill-rule="evenodd" d="M142.71 15.754h-5.948v-1.56l1.221-.136c.29-.039.31-.098.31-.39V3.705c0-.292-.039-.351-.31-.39l-1.221-.136V1.638h6.278c4.863 0 6.956 2.632 6.956 6.844 0 4.328-2.267 7.272-7.286 7.272zm-.193-12.01h-1.221v9.904h1.104c3.411 0 4.554-2.027 4.554-4.991 0-3.587-1.357-4.913-4.437-4.913zm-15.985 7.682c.097 1.384.697 2.3 2.286 2.3.756 0 1.57-.175 2.887-.663l.717 1.931c-1.201.585-2.519.994-3.972.994-3.74 0-5.018-2.34-5.018-5.381 0-3.529 2.15-5.206 4.805-5.206 2.557 0 4.263 1.346 4.263 4.719a39.38 39.38 0 0 1-.039 1.306h-5.929zm1.647-3.919c-.833 0-1.512.468-1.628 2.067h3.081c-.019-1.638-.659-2.067-1.453-2.067zm-6.704 6.297a4.58 4.58 0 0 0 1.569-.312l.524 1.716c-.834.41-2.054.78-3.159.78-2.305 0-3.177-.936-3.177-3.139V7.741c0-.117 0-.195-.155-.195h-1.357V5.811c1.705-.195 2.384-1.053 2.597-3.178h1.84v2.768c0 .137 0 .195.155.195h2.732v1.95h-2.887v4.66c0 1.15.272 1.598 1.318 1.598zm-8.486-5.79c-.039-.176-.097-.215-.252-.215-.504 0-1.105.429-1.395.683v5.166c0 .312.019.371.31.39l1.918.156v1.56h-6.336v-1.579l.872-.117c.271-.039.31-.098.31-.39V7.955c0-.214-.058-.351-.252-.409l-1.046-.37.213-1.58h3.41l.233 1.56h.116c.639-.994 1.492-1.755 2.732-1.755.445 0 1.337.078 1.686.176v3.548l-2.326-.078-.193-1.033zm-9.746 6.687l-.097-.019c-.736.721-1.705 1.306-3.255 1.306-2.442 0-2.829-1.677-2.829-2.885 0-1.95 1.182-2.828 3.623-3.003l2.229-.156V8.872c0-.917-.097-1.54-1.299-1.54-.93 0-1.414.136-1.414 1.306l-2.732-.234c0-2.632 2.383-3.003 4.166-3.003 2.945 0 4.127.8 4.127 3.529v4.738c0 .312.019.351.31.39l.93.156v1.54h-3.565l-.194-1.053zm-.329-3.139l-1.318.098c-1.143.078-1.55.37-1.55 1.15s.465 1.072 1.104 1.072c.659 0 1.318-.37 1.764-.702v-1.618zm-11.219-1.014H90.28v3.12c0 .312.039.37.31.39l2.771.156v1.54h-7.595v-1.54l1.221-.137c.271-.039.31-.097.31-.39V3.725c0-.293-.02-.351-.31-.39l-1.221-.137v-1.56h6.568c3.585 0 4.67 1.911 4.67 4.153 0 3.393-2.034 4.757-5.309 4.757zm-.271-6.784H90.28v4.698h.969c1.279 0 2.693-.292 2.693-2.495 0-1.872-1.143-2.203-2.518-2.203zm-3.353 20.659l.058.019c.639-.721 1.588-1.559 2.906-1.559.446 0 1.046.078 1.395.175v2.944l-1.375-.058-.233-1.346c-.019-.156-.058-.194-.233-.194-.872 0-1.86.799-2.305 1.228V31.5c0 .312.019.371.31.39l1.782.156v1.053h-5.134v-1.072l.968-.117c.272-.039.31-.098.31-.39v-6.629c0-.214-.058-.351-.251-.41l-1.105-.37.174-1.033h2.539l.194 1.345zm-8.177 8.91a4.2 4.2 0 0 1-3.003-1.209l-.058.039-.097.936h-1.724a19.52 19.52 0 0 0 .232-2.788V20.192c0-.214-.058-.351-.252-.409l-1.143-.371.174-1.033h2.984v5.635c.911-.585 1.957-1.131 3.314-1.131 2.17 0 3.662 1.404 3.662 4.835 0 4.016-1.647 5.615-4.089 5.615zm-.038-8.968c-1.124 0-2.171.604-2.849 1.091v5.147c.62.585 1.609 1.268 2.655 1.268 1.821 0 2.538-1.521 2.538-3.997 0-2.515-.969-3.509-2.344-3.509zm-4.32-12.939c.097 1.384.697 2.3 2.286 2.3.756 0 1.57-.175 2.887-.663l.717 1.931c-1.201.585-2.519.994-3.972.994-3.74 0-5.019-2.34-5.019-5.381 0-3.529 2.151-5.206 4.806-5.206 2.557 0 4.263 1.346 4.263 4.719a39.38 39.38 0 0 1-.039 1.306h-5.929zm1.647-3.919c-.833 0-1.512.468-1.628 2.067h3.081c-.019-1.638-.659-2.067-1.453-2.067zM73.21 33.099h-2.732l-.155-1.326-.039-.019c-.891.76-2.034 1.579-3.739 1.579-2.132 0-2.791-1.306-2.791-3.548v-4.953c0-.311-.019-.37-.31-.448l-1.007-.253.155-1.053h2.926v6.297c0 1.696.29 2.515 1.511 2.515 1.318 0 2.441-.916 3.119-1.696v-5.381c0-.312-.019-.351-.31-.429l-.968-.253.155-1.053h2.887V31.5c0 .293.058.39.271.41l1.027.136v1.053zM69.587 8.014c-.038-.176-.097-.215-.252-.215-.503 0-1.104.429-1.395.683v5.166c0 .312.02.371.31.39l1.919.156v1.56h-6.336v-1.579l.872-.117c.271-.039.31-.098.31-.39V7.955c0-.214-.058-.351-.252-.409l-1.047-.37.214-1.58h3.41l.232 1.56h.117c.639-.994 1.491-1.755 2.732-1.755.445 0 1.336.078 1.685.176v3.548l-2.325-.078-.194-1.033zm-9.745 6.687l-.097-.019c-.737.721-1.705 1.306-3.255 1.306-2.442 0-2.829-1.677-2.829-2.885 0-1.95 1.182-2.828 3.623-3.003l2.228-.156V8.872c0-.917-.097-1.54-1.298-1.54-.93 0-1.414.136-1.414 1.306l-2.732-.234c0-2.632 2.383-3.003 4.165-3.003 2.946 0 4.127.8 4.127 3.529v4.738c0 .312.02.351.311.39l.93.156v1.54h-3.566l-.193-1.053zm-.33-3.139l-1.317.098c-1.144.078-1.55.37-1.55 1.15s.465 1.072 1.104 1.072c.659 0 1.318-.37 1.763-.702v-1.618zm-.873 11.321c1.415 0 2.519.39 2.946.604v2.593l-1.299-.058-.232-1.287c-.019-.137-.058-.214-.233-.273-.271-.097-.775-.175-1.317-.175-1.725 0-3.1 1.013-3.1 3.801 0 2.73 1.278 3.783 3.158 3.783.969 0 1.938-.312 2.48-.644l.562 1.287c-.736.488-2.034.819-3.313.819-3.314 0-4.728-2.047-4.728-5.128 0-3.704 2.131-5.322 5.076-5.322zm-8.64-9.098c.969 0 1.841-.312 2.422-.566l.755 1.814c-.891.546-2.267.955-3.681.955-3.507 0-5.077-2.203-5.077-5.167 0-3.645 2.209-5.42 5.31-5.42 1.511 0 2.848.429 3.448.819v3.061l-2.073-.097-.232-1.287c-.02-.137-.058-.254-.233-.312a3.34 3.34 0 0 0-.988-.137c-1.163 0-2.151.8-2.151 3.081 0 2.534 1.124 3.256 2.5 3.256zm-11.354.429l.988-.137c.271-.039.31-.097.31-.39V7.955c0-.214-.058-.351-.252-.409l-1.046-.37.213-1.58h4.011v8.091c0 .312.019.351.31.39l.988.137v1.54h-5.522v-1.54zm2.499-10.177c-1.104 0-1.744-.644-1.744-1.755S40.04.566 41.144.566c1.124 0 1.763.605 1.763 1.716s-.639 1.755-1.763 1.755zm-6.491 10.625l-.135-.019c-.814.799-1.763 1.345-3.178 1.345-2.286 0-3.759-1.462-3.759-5.186 0-3.919 1.957-5.401 4.108-5.401 1.124 0 1.996.39 2.732.936V3.374c0-.195-.078-.332-.252-.39l-1.066-.371.214-1.579h3.894v12.673c0 .292.02.331.31.37l.93.137v1.54h-3.604l-.194-1.092zm-.348-6.414c-.485-.332-1.105-.585-1.667-.585-1.433 0-1.995 1.345-1.995 3.08 0 1.892.542 2.944 1.763 2.944.659 0 1.376-.39 1.899-.838V8.248zm-13.408 3.178c.096 1.384.697 2.3 2.286 2.3.756 0 1.57-.175 2.887-.663l.717 1.931c-1.201.585-2.519.994-3.972.994-3.74 0-5.019-2.34-5.019-5.381 0-3.529 2.151-5.206 4.806-5.206 2.557 0 4.263 1.346 4.263 4.719a39.38 39.38 0 0 1-.039 1.306h-5.929zm1.647-3.919c-.834 0-1.512.468-1.628 2.067h3.081c-.019-1.638-.659-2.067-1.453-2.067zM19.618 31.52c0 .312.019.351.31.39l1.104.136v1.053h-4.456v-1.072l.93-.117c.252-.039.349-.117.349-.39v-4.543c0-1.443-.252-2.593-1.628-2.593-1.163 0-2.306.663-3.061 1.267v5.869c0 .312.019.351.31.39l1.085.136v1.053h-4.438v-1.072l.969-.117c.272-.039.31-.098.31-.39V20.192c0-.214-.058-.351-.252-.409l-1.162-.371.174-1.033h2.984v5.791c.892-.644 2.015-1.287 3.488-1.287 2.073 0 2.984 1.345 2.984 3.548v5.089zm-8.719-17.287l1.589-.136c.291-.02.31-.117.31-.39V6.298h-.078l-2.77 6.649H6.791L4.059 6.279h-.097v7.408c0 .312.039.371.31.39l1.667.156v1.521H.048v-1.521l1.221-.136c.271-.039.31-.098.31-.39V3.705c0-.292-.039-.351-.31-.39L.048 3.179V1.638h5.193l3.372 8.832h.077l3.546-8.832h5.038v1.521l-1.298.156c-.291.039-.31.078-.31.371v10.021c0 .253.058.331.31.37l1.298.156v1.521h-6.375v-1.521zM3.73 27.601l2.616-.214v-1.034c0-1.423-.272-2.125-1.957-2.125-1.182 0-2.035.039-2.054 1.501l-1.667-.175c0-2.398 2.209-2.671 3.74-2.671 2.752 0 3.682.78 3.682 3.47v5.167c0 .312.019.351.31.39l.988.136v1.053H6.675l-.174-1.267-.058-.02c-.93.878-2.016 1.521-3.507 1.521-2.423 0-2.733-1.677-2.733-2.671 0-1.95 1.202-2.866 3.527-3.061zm-.349 4.348c1.143 0 2.364-.936 2.965-1.501v-1.833l-2.19.195c-1.666.156-2.131.643-2.131 1.657 0 1.053.446 1.482 1.356 1.482zm23.289-9.066c3.314 0 4.592 2.125 4.592 5.049 0 3.276-1.472 5.401-4.786 5.401-3.371 0-4.669-2.184-4.669-5.284 0-3.061 1.55-5.166 4.863-5.166zm-.135 9.027c1.879 0 2.906-1.19 2.906-3.861 0-2.554-.93-3.684-2.81-3.684-1.898 0-3.003 1.13-3.003 3.704 0 2.593.988 3.841 2.907 3.841zm6.858-7.429l-1.104-.37.174-1.033h2.539l.193 1.345.058.019c.64-.721 1.589-1.559 2.907-1.559a6.1 6.1 0 0 1 1.395.175v2.944l-1.376-.058-.232-1.346c-.02-.156-.058-.194-.233-.194-.872 0-1.86.799-2.306 1.228V31.5c0 .312.02.371.31.39l1.783.156v1.053h-5.135v-1.072l.969-.117c.271-.039.31-.098.31-.39v-6.629c0-.214-.058-.351-.252-.41zm9.998 3.12l2.616-.214v-1.034c0-1.423-.271-2.125-1.957-2.125-1.182 0-2.034.039-2.054 1.501l-1.666-.175c0-2.398 2.209-2.671 3.74-2.671 2.751 0 3.681.78 3.681 3.47v5.167c0 .312.019.351.31.39l.988.136v1.053h-2.712l-.175-1.267-.058-.02c-.93.878-2.015 1.521-3.507 1.521-2.422 0-2.732-1.677-2.732-2.671 0-1.95 1.201-2.866 3.526-3.061zm-.348 4.348c1.143 0 2.363-.936 2.964-1.501v-1.833l-2.189.195c-1.667.156-2.132.643-2.132 1.657 0 1.053.446 1.482 1.357 1.482zm54.367-9.066c2.364 0 3.991 1.287 3.991 4.66 0 .253-.019.643-.039.974h-6.51c.058 1.969.853 3.315 2.965 3.315 1.085 0 1.763-.195 2.79-.702l.562 1.326c-.969.546-2.132.877-3.527.877-3.507 0-4.65-2.32-4.65-5.225 0-3.568 1.976-5.225 4.418-5.225zm2.228 4.289c-.039-2.223-1.046-2.866-2.228-2.866-1.299 0-2.384.702-2.539 2.866h4.767z"/></svg>