<svg width="320" height="50" viewBox="0 0 320 50" fill="none" xmlns="http://www.w3.org/2000/svg"><mask id="a" maskUnits="userSpaceOnUse" x="-25" y="-73" width="371" height="133"><path d="M-8.93 57.18l354.5 2.17L330.12-70.1l-354.5-2.16L-8.93 57.18z" fill="#fff"/></mask><g mask="url(#a)"><path d="M-613.38 132.07c33.23 28.35-71.1 26.87 44.15 35.36 70.54 5.2 151.9 11.1 225.22 12.57 77.03 1.54 154.4 2.87 231.6 4.32 72.94 1.4 146.73 3.56 220.1 2.88 62.65-.58 125.83-3.88 176.14-12.89 102.42-18.34 127.11-50.56 117.74-79.05-5.75-17.71 57.32-29.8 42.73-47.25-22.04-26.56-93.45-74.46-141.71-99.4-24.64-12.73-85.11-10.42-128.54-20.1C127.74-81.85 66.79-88.53 6.03-92.76c-65.63-4.54-130.5-7.67-199.06-5.8-127 3.45-242.92 19.4-330.88 40.46-94.75 22.7-164.7 53.8-221.2 82.36-57.52 29.17 30.52 83.44 131.73 107.8z" fill="#C4A79F"/></g><path d="M211.83 38.97c-.74 1.09-1.77 1.6-3.25 1.6-2.26 0-3.7-1.69-3.7-3.79 0-1.97 1.4-3.78 3.66-3.78 2.22 0 3.75 1.64 3.75 3.9 0 .18-.05.26-.05.43h-5.67a1.9 1.9 0 001.97 1.68c.74 0 1.28-.21 1.77-.72l1.52.68zm-1.31-3.11c-.25-.84-1-1.35-1.94-1.35-.86 0-1.56.42-1.89 1.35h3.83zM215.12 37.24c-1.1-.58-1.72-1.3-1.72-2.22 0-1.14.94-2.06 2.3-2.06.94 0 1.77.42 2.34 1.22l-1.07 1.13c-.4-.42-.82-.67-1.23-.67-.37 0-.62.17-.62.42 0 .25.25.38.62.59l.66.33c1.19.63 1.8 1.22 1.8 2.31 0 1.3-.98 2.27-2.54 2.27a2.98 2.98 0 01-2.47-1.22l1.07-1.21c.41.5.99.84 1.48.84.41 0 .78-.26.78-.6 0-.29-.29-.54-.78-.79l-.62-.34zM221.58 39.51c0 .55-.41 1.05-.99 1.05-.53 0-1.03-.5-1.03-1.05 0-.59.5-1 1.03-1 .54-.05.99.41.99 1zM224.42 30.6h1.77l2.22 6.81 2.22-6.8h1.76l1.6 9.78h-1.72l-1.03-6.17-2.01 6.17h-1.6l-2.02-6.17-1.07 6.17h-1.77l1.65-9.78zM241.9 38.97c-.75 1.09-1.78 1.6-3.25 1.6-2.27 0-3.7-1.69-3.7-3.79 0-1.97 1.4-3.78 3.65-3.78 2.22 0 3.75 1.64 3.75 3.9 0 .18-.04.26-.04.43h-5.72a1.9 1.9 0 001.97 1.68c.74 0 1.28-.21 1.77-.72l1.56.68zm-1.28-3.11c-.25-.84-.99-1.35-1.93-1.35-.87 0-1.57.42-1.9 1.35h3.83zM249.05 39.6c-.62.62-1.28.96-2.18.96-1.81 0-3.37-1.55-3.37-3.78 0-2.27 1.48-3.78 3.33-3.78.86 0 1.56.34 2.22.97V30.4h1.77v10h-1.77v-.8zm-3.78-2.86c0 1.22.82 2.14 1.89 2.14 1.07 0 1.93-.84 1.93-2.14 0-1.26-.82-2.14-1.93-2.14-1.15 0-1.9.96-1.9 2.14zM254.44 31.37c0 .63-.5 1.13-1.11 1.13-.66 0-1.11-.59-1.11-1.26 0-.63.53-1.1 1.1-1.1.62 0 1.12.55 1.12 1.23zm-2.02 1.76h1.77v7.22h-1.77v-7.22zM262.62 39.05a3.79 3.79 0 01-3.2 1.51c-2.43 0-3.96-1.68-3.96-3.78 0-2.14 1.65-3.82 4-3.82 1.4 0 2.54.59 3.24 1.64l-1.48.84c-.5-.55-.99-.84-1.77-.84-1.35 0-2.22.96-2.22 2.18 0 1.22.82 2.1 2.14 2.1.78 0 1.4-.3 1.85-.84l1.4 1zM269.53 39.6c-.62.62-1.28.96-2.18.96-1.81 0-3.37-1.55-3.37-3.78 0-2.27 1.48-3.78 3.33-3.78.86 0 1.56.34 2.22.97v-.8h1.77v7.22h-1.77v-.8zm-3.78-2.86c0 1.22.82 2.14 1.89 2.14 1.07 0 1.93-.84 1.93-2.14 0-1.26-.82-2.14-1.93-2.14-1.15 0-1.9.96-1.9 2.14zM274.18 34.05c.32-.75.9-1.09 1.48-1.09.37 0 .61.08.78.17l-.54 1.55a1.01 1.01 0 00-.53-.17c-.5 0-.9.6-.95 1.68-.04.38-.04.84-.04 1.22v2.94h-1.77v-7.22h1.52l.05.92zM283.88 38.97c-.74 1.09-1.77 1.6-3.25 1.6-2.26 0-3.7-1.69-3.7-3.79 0-1.97 1.4-3.78 3.66-3.78 2.22 0 3.74 1.64 3.74 3.9 0 .18-.04.26-.04.43h-5.71a1.9 1.9 0 001.97 1.68c.74 0 1.27-.21 1.77-.72l1.56.68zm-1.31-3.11c-.25-.84-1-1.35-1.94-1.35-.86 0-1.56.42-1.89 1.35h3.82zM287.66 39.72c0 .46-.37.84-.82.84a.83.83 0 01-.82-.84c0-.42.37-.84.82-.84.45 0 .82.38.82.84zM296.59 38.88c0 1.18-.08 2.14-.62 2.98-.62.84-1.64 1.3-3 1.3-2.02 0-3-.84-3.66-2.22h.99c.53.96 1.35 1.43 2.59 1.43 1.19 0 2.01-.42 2.46-1.22.3-.5.3-1 .3-1.55v-.55a3.48 3.48 0 01-2.84 1.38 3.57 3.57 0 01-3.62-3.65 3.7 3.7 0 013.62-3.74c1.27 0 2.1.55 2.83 1.43v-1.26h.95v5.67zm-6.46-2.14c0 1.43.99 2.69 2.88 2.69 1.52 0 2.71-1.1 2.71-2.77a2.72 2.72 0 00-2.75-2.86 2.91 2.91 0 00-2.84 2.94zM305.55 36.78a3.7 3.7 0 11-7.4 0 3.73 3.73 0 013.7-3.82c2.14 0 3.7 1.72 3.7 3.82zm-6.41 0a2.77 2.77 0 002.75 2.86 2.8 2.8 0 002.76-2.86c0-1.6-1.28-2.94-2.76-2.94-1.52 0-2.75 1.35-2.75 2.94zM306.58 33.13h.99l2.34 5.25 2.35-5.25h.98L310 40.35h-.16l-3.25-7.22zM255.2 24.45c0 .29.13.38.35.38.1 0 .1 0 .1-.03v-.71c0-.06 0-.06-.1-.06-.26.03-.35.12-.35.42zm-1.79 0c-.03.16.07.19.2.22.06 0 .06 0 .06-.03l.06-.36h-.06c-.1 0-.22 0-.26.17zm-.6-.46c0 .04 0 .04 0 0l.03.36.22-.3v-.02l-.25-.04zm-1.12-.1c-.03.1 0 .2.13.26.1.04.1.04.1 0l.12-.25c0-.04 0-.04-.06-.07-.2-.06-.29 0-.29.07zm-4.65-4.03c.06.12.22.16.48.03.25-.13.32-.3.25-.42-.06-.13-.22-.16-.47-.04-.26.13-.32.3-.26.43zm-.64-4.3l-.31.13.34.12h.04v-.25h-.07zm.64-3.88c0-.07-.06-.13-.1-.13-.03-.04-.12-.03-.12.03-.03.03 0 .1.06.13.03-.03.1 0 .16-.03zm.51.06c-.13.03-.35.07-.45.07 0 .1.04.16.13.19.1.03.26.03.32-.1v-.16zm3-3.72l-.3-.22.07.35v.04h.03l.2-.17zm3.98-1.64c0-.1-.1-.17-.26-.17-.1 0-.1 0-.1.07l.04.29c0 .03 0 .03.1.03.19-.03.22-.16.22-.22zm6.79 2.58l.12-.32-.32.16h-.03v.03l.23.13c-.04.03-.04.03 0 0zm3.53 10.35c-.38.51-.86.97-1.56.93-.73-.03-1.21-.7-1.97-.58-.55.1-1.06.42-1.63.2a.64.64 0 01-.16-.55c-.03-.13-.35-.17-.13-.33-.06-.03-.16 0-.19-.1s.1-.25-.06-.32c-.13-.03-.26.07-.35-.06-.06-.07-.03-.13-.03-.23.1-.2.31-.35.25-.58-.16-.13-.1-.39-.1-.58.1-.45.13-.94.55-1.26l2.32-1.98c.48-.45 1.09-.77 1.44-1.39.19.26.28.65.13.97-.32.52-.87.91-1.34 1.3l-1.88 1.58c-.35.33-.45.84-.29 1.3.03.22-.13.35-.2.54 0 .07.04.13.07.13.1.04.2 0 .26.1 0 .13-.04.23.1.26.06.03.12-.07.12.03-.03.07-.06.1-.03.16.06.13.19.07.25.13.03.13.03.3.16.36.48.1.86-.26 1.3-.36.71-.22 1.38.07 2.02.23.31.13.63.13.95.1zm-.8-8.9c.07.65-.44.94-.82 1.33l-1.66 1.42-2.93 2.5c-.41.45-.45 1.12-.54 1.74.03.2.22.29.16.48l-.42.75c.03.29.39.13.51.32 0 .1-.06.23.03.32.07.1.3-.03.16.13-.03.04-.03.1 0 .13.07.07.13.07.16.16-.03.13-.03.3.04.4.5.54 1.37-.14 1.9.38.13.13.13.36.1.52-.29.84-1.94.87-1.37 2.07.1.19.32.32.54.35.2.03.35-.06.48-.1.06 0 .06.07.06.07v.03c-.47.36-1.11.84-1.75.49-.32-.2-.47-.62-.41-1.04.19-.64.95-.8 1.3-1.36.1-.16.07-.35-.03-.51-.12-.23-.38-.26-.63-.33-.42 0-1.02.26-1.22-.22-.06-.2.13-.49-.15-.55-.04-.07-.13-.1-.1-.16 0-.07.1-.07.06-.13-.06-.04-.12 0-.19-.07-.16-.16.29-.35-.03-.48-.16-.04-.35.1-.48-.1-.06-.16.07-.3.13-.42.1-.23.41-.39.32-.68l-.16-.26c.03-.58.13-1.16.29-1.74.19-.62.8-.97 1.27-1.4l2.45-2.06 1.76-1.52c.31-.3.57-.58.57-1.04.1-.03.16.1.22.13.23.13.35.23.39.46zm-1.17-1.16c.03.65-.48 1.07-.9 1.46l-4.04 3.4c-.35.35-.9.6-1.08 1.12-.26.68-.36 1.43-.48 2.17-.07.55-.58 1-1.02 1.2-.35.12-.8.06-1.18.1h-1.4a.47.47 0 00-.3.19l-.05.12c-.16.04-.1-.12-.13-.19 0-.32.06-.65.32-.8.12-.14.28-.17.47-.2l2.04-.03c.13 0 .2-.07.3-.13l.09-.16c.16-1.04.25-2.07.76-2.95.48-.55 1.05-.93 1.6-1.42 1.2-1.03 2.48-2.07 3.66-3.13.35-.33.7-.75.8-1.27l.03-.12c.25.06.5.35.5.64zm-1.25-.7a.25.25 0 00-.06.12l-.22.65c-.03.1-.03.1.06.16l-.03.03-.32-.29.03-.03c.1.1.13.1.13.06.03-.03.06-.16.1-.16v-.03l-.16-.16c-.07-.07-.07-.07-.1-.04-.1.04-.13.07-.13.1-.03.03-.03.03.07.13l-.04.03-.25-.22.03-.04c.1.07.13.07.22 0l.55-.25.16-.1-.04.03zm-.57-.46l-.03.03c-.03.07-.06.1-.1.16l-.06-.03c.1-.13.06-.23-.06-.3-.1-.06-.2-.06-.26 0-.03.07-.03.1.03.17l.13.2c.1.12.1.19 0 .32s-.29.13-.45.03c-.1-.06-.12-.13-.19-.2l.13-.22.06.03c-.06.13-.06.3.07.36s.22.06.29 0c.06-.07 0-.13-.04-.2l-.06-.1c-.13-.19-.13-.28-.06-.35.1-.13.28-.13.44-.03.06.03.1.1.16.13zm-.6-.45l-.04.03c-.12-.07-.12-.07-.16-.03-.03.03-.1.13-.22.35-.1.16-.22.32-.5.16-.17-.1-.26-.26-.14-.48.16-.3.23-.36.23-.42.03-.03 0-.03-.1-.13l.03-.07.38.23-.03.06c-.12-.06-.12-.06-.16-.03-.03.03-.1.13-.25.4-.06.09-.1.25.06.35.2.13.29.03.42-.2.1-.2.16-.26.16-.32 0-.03 0-.03-.13-.13l.03-.07.41.3zm-1.28-.17c-.03.04-.06.07-.13.04-.06-.04-.06-.07-.03-.13.03-.07.06-.07.13-.04.06.04.06.07.03.13zm-.35-.67c0 .03 0 .03-.03.06-.03.06-.03.13-.06.16l-.07-.03c.03-.16-.03-.23-.13-.3-.1-.02-.22 0-.25.07s0 .1.06.16l.16.13c.13.1.13.17.1.3-.07.16-.23.22-.42.12-.1-.03-.16-.1-.25-.13a.61.61 0 00.06-.25h.06c-.03.16 0 .29.13.32.13.06.23 0 .26-.1s-.03-.13-.1-.2l-.1-.06c-.19-.16-.19-.22-.15-.32.06-.16.22-.23.41-.13l.32.2zm-.83-.33l-.03.26h-.06c0-.16 0-.2-.2-.26l-.12-.03c-.03 0-.03 0-.03.03l-.07.3c0 .03 0 .03.03.03h.04c.12.03.15.03.19-.07l.06.03-.03.13c0 .07-.03.1-.03.13h-.07c.03-.1 0-.13-.1-.13l-.09-.03s-.03 0-.03.03l-.1.33c0 .03 0 .03.04.03l.22.06c.1.03.13 0 .2-.06l.05-.1.07.03c-.03.07-.1.16-.1.23l-.7-.2.03-.06c.13.03.13.03.13 0s.03-.13.1-.32c.06-.2.1-.3.1-.36 0-.03 0-.03-.14-.1v-.06l.48.13c.07.03.13.03.16.03zm-.86-.16v.26h-.06c-.03-.16-.1-.26-.22-.3-.17-.02-.3.14-.36.36-.03.26.07.42.23.42.13.04.25-.03.35-.13l.06.04c-.13.13-.25.2-.41.16a.45.45 0 01-.35-.55c.03-.23.22-.45.54-.39l.22.13zm-.86-.16v.06c-.13 0-.13 0-.16.04 0 .03-.03.13-.03.35-.03.2-.03.3-.03.36s0 .03.13.06v.07l-.48-.04V7c.13 0 .16 0 .16-.03 0-.04.03-.13.03-.36.03-.2.03-.29.03-.35 0-.04 0-.04-.13-.07v-.06l.48.03zm-.57 0h-.03c-.07 0-.1.03-.13.2l-.26.67h-.1c0-.1-.25-.61-.31-.74s-.06-.13-.16-.13v-.03h.45v.06h-.07c-.06 0-.06.03-.06.03 0 .04.06.2.13.36l.1.26.09-.26c.06-.13.13-.32.13-.36 0-.03-.04-.03-.13-.03v-.06h.35v.03zm-1.02.2c.03.19-.2.25-.2.25l.04.03.25.26c.07.07.07.07.13.07v.06l-.22.03-.32-.38h-.1c-.06 0-.06 0-.06.03l.03.29c0 .03.03.03.16.03v.07l-.44.03v-.07c.12-.03.12-.03.12-.06s0-.13-.03-.36c-.03-.19-.03-.29-.03-.35 0-.03-.03-.03-.16-.03v-.07l.5-.06c.1 0 .17 0 .23.03.07.06.1.1.1.2zm-.83.77l-.7.13v-.07c.13-.03.13-.03.13-.06 0-.07-.04-.13-.07-.36-.03-.2-.06-.29-.06-.35 0-.03-.03-.03-.13-.03V6.3l.48-.1c.06 0 .13-.03.19-.06 0 .06.06.2.06.23l-.06.03c-.06-.16-.1-.16-.29-.13l-.12.03s-.04 0-.04.03l.07.3c0 .03 0 .03.03.03h.03c.13-.04.13-.07.13-.13h.06c0 .03 0 .1.03.13 0 .06.04.1.04.13h-.07c-.03-.1-.06-.13-.16-.1l-.1.03s-.02 0-.02.03l.06.33c0 .03 0 .03.03.03l.22-.03c.1-.04.13-.07.13-.13v-.1h.07c.06.06.06.2.06.26zm-1.47-.36c.04.07.07.1.16.1h.23c.12 0 .22.06.25.16.06.16-.06.32-.25.36-.1.03-.2.03-.3.03a2.46 2.46 0 01-.09-.26l.07-.03c.1.13.19.22.32.16.12-.06.19-.13.16-.23-.04-.1-.1-.1-.2-.1h-.1c-.25 0-.28-.06-.31-.15-.06-.17.06-.33.25-.36.1-.03.2-.03.26-.03 0 0 0 .03.03.06.03.07.03.13.06.16l-.06.04c-.06-.13-.16-.17-.28-.13-.16.06-.23.16-.2.22zm.6 12.48c1.12.32 2.27.68 3.36 1.13.66.3 1.33.55 1.94.94.13.13.28.3.25.52-.19.84-1.37.93-1.18 1.9.07.36.3.68.64.78.16.06.38.06.54 0 .03.06.13.13 0 .16-.48.33-1.08.65-1.65.36-.29-.13-.45-.46-.54-.75-.13-.9.7-1.16 1.11-1.77.06-.13.1-.26.06-.4a.93.93 0 00-.35-.35 20.82 20.82 0 00-5-1.9c-.29-.04-.73-.2-.92.12v.04c-.16.03-.1-.16-.1-.23.06-.29.22-.52.48-.61.44-.17.92 0 1.37.06zm-1.17-11.47l-.1.03c-.1-.07-.16-.13-.28-.16l-.48-.26.13.22c.1.17.13.26.16.33.03.03.03.03.16-.04l.03.07-.35.16-.03-.06c.12-.07.12-.07.1-.1 0-.03-.07-.13-.17-.32l-.16-.33c-.03-.03-.03-.03-.13.03l-.03-.06.26-.13s.03.03.06.03l.64.36-.1-.16c-.1-.16-.12-.26-.16-.33-.03-.03-.03-.03-.16.04l-.03-.07.32-.16.03.06c-.12.07-.12.07-.1.13l.1.2c.16.22.23.42.29.52zm-1.5-.1l.58.39c.06.06.1.06.19 0l.03.03-.35.22-.03-.06c.12-.06.12-.1.1-.13 0-.03-.13-.13-.17-.13h-.03l-.19.13c-.06.03-.06.07-.06.1.03.1.03.16.03.16.03.03.03.03.13-.03l.03.06-.29.2-.03-.04c.1-.06.1-.1.06-.22l-.13-.58c-.03-.1-.03-.13-.03-.17l.07-.03c0 .03.06.1.1.1zm-.16.97l.03.03-.34.3-.04-.04c.1-.1.1-.1.1-.13l-.48-.55.29.71c0 .03.03.03.03.07l-.06.06s-.04-.03-.07-.03l-.67-.39.39.45.1.1c.02.03.02.03.12-.06l.03.03-.29.22-.03-.03c.1-.1.1-.1.1-.13-.03-.03-.1-.13-.23-.26l-.22-.26c-.03-.03-.03-.03-.13.07l-.03-.03.26-.23.03.03.6.36-.28-.71.25-.23.03.03c-.1.1-.1.1-.1.13 0 .04.1.13.23.26s.2.23.22.26c.07.03.07.03.16-.03zm-1.46.22c-.1.1-.1.13-.07.13.04.04.13.1.32.3.16.12.29.29.07.51-.13.16-.32.2-.51.03a7.3 7.3 0 01-.35-.32c-.04-.03-.04-.03-.13.07l-.03-.04.31-.32.04.03c-.1.1-.1.13-.07.13l.35.32c.07.07.23.17.35 0 .16-.16.1-.25-.12-.45-.16-.13-.23-.2-.29-.22-.03-.04-.03-.04-.13.1l-.03-.04.26-.29.03.06zm-.77.88c-.06.13-.06.13-.03.13.03.03.13.1.29.19.16.13.25.16.28.2.04.03.04 0 .13-.1l.07.03-.26.36-.06-.04c.06-.13.06-.13.03-.13-.03-.03-.13-.1-.26-.16-.03-.03-.03-.03-.06 0l-.2.3c-.02.03-.02.03 0 .06.14.1.23.13.26.16.04.03.04 0 .13-.1l.03.03-.25.36L248 11c.06-.13.06-.13.03-.13l-.29-.2-.28-.19c-.04-.03-.04 0-.13.1l-.07-.03.26-.36.03.03c-.06.13-.06.13-.03.13l.13.1.06.06c.03.04.03.04.06 0l.2-.29c.03-.03.03-.03-.04-.06l-.06-.07c-.06-.03-.13-.06-.13-.1-.03 0-.03 0-.13.1l-.03-.03.26-.36.1.04zm-.41 1.87c-.03-.06-.1-.16-.13-.16-.03-.03-.06 0-.1.03l-.06-.03.13-.26.06.03c-.03.07-.03.13.04.2.03.03.06.1.12.2.13-.04.13-.04.16-.1.03-.04.03-.1 0-.17l.06.04c0 .1 0 .16-.03.22-.03.07-.06.1-.16.13.04.1.04.16-.03.3-.06.15-.22.19-.35.12-.13-.06-.16-.16-.16-.35h-.22c-.1-.04-.13-.13-.06-.26.06-.13.12-.16.22-.13.1.06.13.13.13.22.1 0 .22 0 .38-.03zm-1.05 1c.03.04.13.04.35.1.19.07.28.1.35.1.03 0 .03 0 .1-.13h.06l-.13.42-.06-.03c.03-.13.03-.13 0-.16-.04-.04-.13-.04-.29-.1-.03 0-.03 0-.06.03l-.1.32c0 .04 0 .04.03.07l.29.06c.03 0 .03 0 .1-.13h.06l-.13.42h-.06c.03-.13.03-.13 0-.16s-.13-.03-.35-.1c-.2-.06-.29-.1-.35-.1-.04 0-.04 0-.1.14l-.06-.03.12-.42h.07c-.03.12-.03.12 0 .16.03 0 .1.03.16.06l.1.03c.03 0 .03 0 .06-.03l.1-.32c0-.03 0-.03-.04-.07l-.1-.03c-.06-.03-.12-.03-.16-.03-.03 0-.03 0-.09.13h-.06l.12-.42h.07c-.03.2-.03.2 0 .22zm-.35.9c.12.04.19.04.25.04v.07c-.16.03-.19.03-.19.1l-.03.12.57.1c.07 0 .13.03.13.03.03 0 .03 0 .06-.13h.07l-.1.46h-.06c0-.13 0-.13-.03-.17-.04 0-.07-.03-.13-.03l-.57-.1-.04.13c0 .04.03.07.16.13l-.03.07c-.06-.03-.13-.03-.22-.07 0-.03 0-.06.03-.06 0-.03 0-.07.03-.07l.06-.45c0-.06.04-.1.04-.16zm-.16 1.1h.06c0 .14 0 .14.03.14s.1 0 .16.03l.51.03c.03 0 .07 0 .07-.06v-.13c0-.13-.04-.13-.2-.23l.04-.06c.03.03.19.06.25.06l-.06.71h-.07c0-.13 0-.13-.03-.13s-.13-.03-.35-.03c-.19-.03-.32-.03-.35-.03-.03 0-.03 0-.06.13h-.07l.07-.42zm-.07 1.01c.04 0 .13-.03.16-.06l.6-.26c.1-.04.1-.04.1-.16h.07v.45h-.07c0-.13-.03-.13-.06-.13s-.16.06-.2.06v.26c0 .1 0 .1.04.1l.16.06c.03 0 .06-.03.06-.13h.07v.36h-.07c0-.1-.03-.13-.16-.16l-.57-.23c-.1-.03-.13-.06-.16-.06l.03-.1zm.04.71c.06 0 .19-.03.25-.06l.03.06c-.16.07-.16.1-.16.26v.13c0 .03 0 .03.03.03l.3-.03c.02 0 .02 0 .02-.03v-.04c-.03-.12-.03-.12-.12-.12v-.07c.03 0 .1 0 .12-.03.07 0 .13 0 .13-.03v.06c-.1.03-.13.03-.1.13v.1c0 .03 0 .03.04.03l.32-.03c.03 0 .03 0 .03-.04l-.03-.22c0-.1-.04-.13-.13-.13l-.1-.03v-.07h.26l.1.71h-.07c-.03-.13-.03-.13-.06-.13-.04 0-.13 0-.35.04-.2.03-.32.03-.35.06-.04 0-.04 0-.04.13H246l-.06-.48c.03-.07 0-.17 0-.2zm.12.81h.07c.03.13.03.13.1.13.06 0 .12-.03.34-.07.2-.06.29-.06.35-.1.03 0 .03-.02 0-.15h.07l.1.42H247c-.03-.13-.03-.13-.1-.13-.06 0-.12.03-.28.06-.03 0-.03 0-.03.03l.09.33c0 .03 0 .03.06.03l.3-.07c.02 0 .02-.03 0-.16h.05l.1.46h-.06c-.04-.13-.07-.13-.1-.13l-.35.06c-.2.03-.29.07-.35.1-.03 0-.03.03 0 .16h-.06l-.1-.42h.06c.04.13.04.13.1.13.03 0 .1-.03.16-.03l.1-.04c.03 0 .03 0 .03-.06l-.1-.32c0-.04 0-.04-.06-.04l-.1.04c-.06.03-.13.03-.16.03s-.03.03-.03.16h-.06l-.07-.42zm.42 1.55c.06-.03.19-.1.22-.13l.03.03c-.13.1-.13.13-.1.3l.04.1s.03.02.03 0l.29-.14s.03 0 0-.06v-.03c-.07-.13-.07-.13-.16-.1l-.03-.07c.03 0 .1-.03.12-.06.07-.03.1-.03.13-.06l.03.06c-.1.03-.1.06-.06.16l.03.1s0 .03.03 0l.29-.13c.03 0 .03-.03 0-.16l.06-.03.16.38-.06.04c-.06-.1-.06-.13-.1-.1-.03 0-.12.06-.32.13-.19.06-.28.13-.31.13-.04.03-.04.03 0 .13l-.07.03-.19-.45c0 .06-.06 0-.06-.07zm.73.62c.26-.13.51-.07.6.16.13.22.04.45-.22.58-.25.13-.5.06-.6-.16-.13-.23-.03-.49.22-.58zm.35 1.52c.1-.07.16-.13.2-.17l.02.04c-.1.13-.1.16-.1.19l.1.13.48-.36c.06-.03.1-.06.13-.1.03-.03.03-.03-.06-.16l.03-.03.28.36-.03.03c-.1-.1-.1-.13-.13-.1-.03 0-.06.04-.12.1l-.48.36.1.13c.03.03.06.03.22-.04l.03.07c-.06.03-.13.06-.22.13 0-.04-.03-.04-.03-.07 0-.03-.04-.03-.04-.06l-.25-.36a.42.42 0 01-.13-.1zm.54.7l.03-.03c.1.1.1.1.16.07.07-.03.13-.1.16-.13.2-.16.35-.32.42-.39l.06.07-.1.32-.12.55.19-.16.25-.23c.04-.03.04-.03-.1-.16l.04-.03.25.29-.03.03c-.1-.1-.1-.1-.12-.06l-.26.22-.25.23c-.04.03-.04.03.06.13l-.03.03-.2-.2c0-.03 0-.03.04-.06l.16-.71-.13.13-.25.23c-.04.03-.04.03.06.12l-.03.04-.26-.3zm.8.85c.03-.07.13-.16.13-.2l.06.04c-.1.16-.06.19.06.29l.1.06h.03l.2-.23s0-.03-.04-.03l-.03-.03c-.1-.1-.13-.1-.2-.03l-.02-.03.1-.1.09-.13.03.03c-.06.07-.06.1.03.16l.06.07h.04l.22-.26v-.03l-.16-.13c-.1-.07-.13-.07-.2-.04l-.09.07-.03-.07a.97.97 0 00.2-.16l.53.49-.03.03c-.1-.06-.1-.06-.13-.06l-.22.25c-.13.17-.19.23-.22.26-.03.04-.03.04.06.13l-.03.03-.35-.32c-.1 0-.16-.03-.2-.06zm.6.55l.04-.07c.12.07.12.07.16.07.03-.04.1-.13.19-.3.12-.16.16-.25.19-.29.03-.03 0-.03-.1-.12l.03-.04.39.26-.03.03c-.13-.06-.13-.06-.13-.03l-.42.58.64-.45c.03 0 .03-.03.06-.03l.1.06s0 .04-.03.07l-.2.77.36-.48c.03-.03.06-.1.06-.1.03-.03 0-.03-.1-.13l.04-.03.32.2-.04.06c-.12-.07-.12-.07-.16-.07-.03.04-.1.13-.19.3-.12.16-.16.25-.19.29 0 .03 0 .03.1.13l-.03.03-.3-.2v-.03l.2-.68-.6.45-.36-.25zm1.12.74c.06-.1.06-.16.1-.23h.06c-.03.17-.03.2.03.23l.13.06.28-.51.07-.13c0-.03 0-.03-.13-.13l.03-.07.42.23-.03.06c-.13-.06-.13-.06-.16-.03 0 .03-.04.07-.07.13l-.28.52.12.06c.03.04.07 0 .2-.13l.06.04-.13.2c-.03-.04-.03-.04-.06-.04s-.03-.03-.07-.03l-.38-.2c-.06 0-.13-.03-.2-.03zm.92.2c.07-.17.29-.14.29-.14v-.03l-.1-.35c-.03-.1-.03-.1-.1-.13l.04-.07.2.1.09.48c0 .04 0 .04.06.04.06.03.06.03.06 0 .1-.23.1-.26.13-.3 0-.03 0-.03-.13-.1l.04-.06.38.17-.03.1c-.13-.04-.13-.04-.13 0-.03.03-.06.12-.13.32-.06.19-.13.29-.13.32 0 .03 0 .03.13.1l-.03.06-.44-.2c-.1-.03-.13-.06-.16-.12-.07-.07-.07-.13-.04-.2zm.96-.3l.03-.06.41.13-.03.06c-.12-.03-.12-.03-.12 0v.2l.22.06c.1.03.1.03.1 0 .06-.06.09-.13.09-.13 0-.03 0-.06-.13-.1l.03-.06.35.1v.06c-.09-.03-.12 0-.19.1l-.35.48c-.06.1-.1.1-.1.13l-.06-.03v-.16l-.1-.68c-.02-.03-.02-.06-.15-.1zm.76.84c.04-.16.2-.22.42-.2.03 0 .06.04.1.04l.06-.29c0-.03 0-.03-.16-.1v-.06l.44.1v.06c-.12 0-.12 0-.16.03l-.06.36c-.03.2-.06.29-.06.35 0 .04 0 .04.13.07v.06l-.48-.1a.52.52 0 01-.23-.12c0-.07-.03-.13 0-.2zm1.44-.35c-.03-.03 0-.03 0 0l-.22-.03c-.1 0-.13.03-.16.1l-.04.09-.06-.03c.03-.07.06-.2.06-.26l.74.06v.07c-.13 0-.13 0-.13.03s-.03.13-.03.36c-.03.19-.03.29-.03.35 0 .03 0 .03.12.07v.06l-.47-.03h-.2v-.26h.07c.03.16.06.2.22.2h.13s.03 0 .03-.04l.03-.29c0-.03 0-.03-.03-.03h-.03c-.13 0-.16 0-.16.1h-.06c0-.04 0-.1.03-.13v-.13h.06c0 .1 0 .13.13.13h.1s.03 0 .03-.04l-.13-.35zm.35.39c0-.23.13-.46.48-.46h.41v.07c-.13 0-.13.03-.16.06v.71c0 .04 0 .04.16.04v.06h-.44c-.2 0-.26-.03-.36-.13-.03-.1-.1-.23-.1-.35z" fill="#323A45"/></svg>