<svg width="223" height="50" viewBox="0 0 223 50" fill="none" xmlns="http://www.w3.org/2000/svg"><mask id="a" maskUnits="userSpaceOnUse" x="-72" y="-157" width="295" height="374"><path d="M72.5 216.41L222.8 35.77 78.54-156.05-71.75 24.6 72.5 216.4z" fill="#fff"/></mask><g mask="url(#a)"><path d="M27.97 158.25c16.8 15.2 38.51 13.62 56.54 4.45 11.04-5.6 21.09-13.84 30.8-22.37 10.2-8.97 20.35-18.14 30.53-27.2 9.63-8.54 21.07-16.5 29.82-26.54 7.48-8.56 10.69-11.37 11.4-23.16C200.71 46.2 198.5 16.48 181.5 0c-8.64-11.46-30.54-36.67-40.15-46.8-14.61-15.42-29.6-32.31-46.73-43.2-8.74-5.56-18.23-9.41-27.93-10.42-10.35-1.1-20.87 2.23-30.27 7.24C26.3-87.77 16.9-81.47 9.25-71.25-4.88-52.33-12.05-26.23-13.49-.26c-1.54 27.98 2.95 55.97 8.76 83.01 5.96 27.6 13.27 57.94 32.7 75.5z" fill="#EABE10"/></g></svg>