<svg width="263" height="55" viewBox="0 0 263 55" fill="none" xmlns="http://www.w3.org/2000/svg"><path fill-rule="evenodd" clip-rule="evenodd" d="M262.72 32.58l-1.01 1.97-.83-.3.53-1.84c.02-.1 0-.14-.09-.18l-.61-.25.38-1.45c1.12.03 1.91.17 1.91 1.12 0 .32-.12.63-.28.93zm-2.57-2.91c0 2.14-1.73 3.02-3.95 3.02-1.6 0-3.15-.42-3.47-.64v-2.54l1.87.14.18 1c.03.16.05.21.2.26.22.07.7.18 1.35.18.93 0 1.46-.26 1.46-.91 0-.7-.7-.92-1.6-1.07-1.46-.27-3.39-.58-3.39-2.88 0-2.18 1.86-3.07 3.87-3.07 1.38 0 2.73.31 3.22.5v2.55l-1.88-.12-.17-.92c-.03-.15-.05-.2-.17-.24a4.15 4.15 0 00-1.13-.14c-.87 0-1.36.33-1.36.9 0 .71.96.87 2.03 1.12 1.38.31 2.94.8 2.94 2.86zm-11.1 1.86l-.08-.02a3.94 3.94 0 01-2.94 1.18c-2.2 0-2.55-1.51-2.55-2.6 0-1.76 1.07-2.55 3.27-2.7l2.01-.14v-.97c0-.82-.09-1.39-1.17-1.39-.84 0-1.28.13-1.28 1.18l-2.46-.21c0-2.37 2.15-2.7 3.76-2.7 2.65 0 3.72.72 3.72 3.17v4.27c0 .28.02.31.28.35l.84.14v1.39h-3.22l-.17-.95zm-.29-2.83l-1.19.09c-1.03.07-1.4.33-1.4 1.04 0 .7.42.96 1 .96.6 0 1.19-.33 1.6-.63V28.7zm-9.11 2.8l-.12-.03a3.85 3.85 0 01-2.87 1.22c-2.07 0-3.4-1.32-3.4-4.67 0-3.53 1.77-4.86 3.71-4.86 1.02 0 1.8.35 2.47.84v-2.67c0-.17-.07-.3-.23-.35l-.96-.33.2-1.43h3.5v11.41c0 .27.03.3.29.34l.84.12v1.39h-3.26l-.17-.99zm-.32-5.78c-.43-.3-1-.53-1.5-.53-1.3 0-1.8 1.21-1.8 2.77 0 1.7.49 2.66 1.59 2.66.6 0 1.24-.36 1.71-.76v-4.14zm-9.72 5.8l-.09-.01a3.94 3.94 0 01-2.94 1.18c-2.2 0-2.55-1.51-2.55-2.6 0-1.76 1.07-2.55 3.27-2.7l2.01-.14v-.97c0-.82-.09-1.39-1.17-1.39-.84 0-1.28.13-1.28 1.18l-2.46-.21c0-2.37 2.15-2.7 3.76-2.7 2.66 0 3.72.72 3.72 3.17v4.27c0 .28.02.31.28.35l.84.14v1.39h-3.22l-.17-.95zm-.3-2.82l-1.19.09c-1.03.07-1.4.33-1.4 1.04 0 .7.42.96 1 .96.6 0 1.19-.33 1.6-.63V28.7zM225.7 9.55c.05 1.77.77 2.98 2.68 2.98.98 0 1.59-.17 2.52-.63l.5 1.2c-.87.48-1.92.78-3.18.78-3.17 0-4.2-2.09-4.2-4.7 0-3.21 1.78-4.7 3.09-4.7 3.03 0 4.5 1.15 4.5 4.19l-.03.88h-5.88zm1.41-3.8c-.27 0-1.25.64-1.4 2.59h4.31c-.03-2-.94-2.58-2.91-2.58zm-6.9 25.74l-.12-.02a3.85 3.85 0 01-2.87 1.22c-2.07 0-3.4-1.32-3.4-4.67 0-3.53 1.77-4.86 3.71-4.86 1.02 0 1.8.35 2.47.84v-2.67c0-.17-.07-.3-.23-.35l-.96-.33.2-1.43h3.5v11.41c0 .27.02.3.29.34l.84.12v1.39h-3.26l-.17-.99zm-.32-5.77c-.43-.3-1-.53-1.5-.53-1.3 0-1.8 1.21-1.8 2.77 0 1.7.49 2.66 1.59 2.66.6 0 1.24-.36 1.71-.76v-4.14zm2.17-19.7c-.02-.14-.05-.18-.2-.18-.8 0-1.69.72-2.09 1.11v5.28c0 .28.02.34.28.35l1.61.14v.95h-4.64v-.96l.88-.1c.24-.04.28-.1.28-.36V6.28c0-.19-.05-.31-.23-.37l-1-.33.16-.93h2.3l.17 1.21.05.02c.58-.65 1.44-1.4 2.63-1.4.4 0 .94.07 1.25.15v2.65l-1.24-.05-.2-1.21zm-9.86 7.86a3.8 3.8 0 01-2.71-1.09l-.06.04-.08.84h-1.56c.1-.65.2-1.67.2-2.5V2.04c0-.19-.04-.31-.22-.37l-1.03-.33.16-.93h2.7V5.5a5.4 5.4 0 012.98-1.01c1.96 0 3.3 1.26 3.3 4.35 0 3.61-1.48 5.05-3.68 5.05zm-.04-8.07c-1.01 0-1.96.54-2.57.98v4.64c.56.52 1.45 1.14 2.4 1.14 1.64 0 2.29-1.37 2.29-3.6 0-2.27-.88-3.16-2.12-3.16zm-2.52 17.35c1.91 0 2.65 1.05 2.65 2.98v4.48c0 .28.01.31.28.35l.87.12v1.39h-3.8V26.8c0-.85-.05-1.55-.92-1.55-.65 0-1.46.37-1.82.65v4.7c0 .29.02.32.28.36l.84.12v1.39h-4.83v-1.4l.79-.11c.24-.04.28-.1.28-.35v-5.16c0-.2-.06-.32-.23-.37l-.95-.34.21-1.42h3.06l.15.91.06.04a5.12 5.12 0 013.08-1.12zm-6.08-10.68l-.04-.02a5.02 5.02 0 01-3.37 1.42c-1.93 0-2.52-1.17-2.52-3.2V6.24c0-.28-.02-.33-.28-.4l-.91-.23.14-.95h2.64v5.67c0 1.53.26 2.26 1.36 2.26 1.2 0 2.2-.82 2.82-1.52V6.2c0-.28-.02-.31-.28-.38l-.88-.23.14-.95h2.61v7.58c0 .27.05.35.25.37l.92.12v.95h-2.46l-.14-1.2zm-10.62.09c.87 0 1.75-.28 2.24-.58l.5 1.16c-.66.43-1.83.73-2.98.73-3 0-4.27-1.84-4.27-4.61 0-3.34 1.92-4.8 4.58-4.8a6.4 6.4 0 012.66.55v2.33l-1.17-.05-.21-1.16c-.02-.12-.06-.19-.21-.24-.25-.09-.7-.16-1.2-.16-1.55 0-2.8.91-2.8 3.42 0 2.46 1.16 3.4 2.86 3.4zm-2.47 10.59c1.87 0 2.57.93 2.57 2.96v4.5c0 .28.02.33.28.36l.88.1v1.4h-3.8V26.8c0-.69-.07-1.51-.98-1.51-.49 0-.96.17-1.41.47.03.28.05.56.05.86v3.99c0 .3.02.33.28.36l.7.1v1.4h-3.62v-5.76c0-.65-.06-1.42-.93-1.42-.52 0-1.1.26-1.45.56v4.76c0 .28.02.31.28.35l.86.12v1.39h-4.85v-1.4l.79-.11c.24-.04.28-.1.28-.35v-5.16c0-.2-.05-.32-.23-.37l-.94-.34.19-1.42h3.08l.14.91.09.02a4.28 4.28 0 012.8-1.1c.85 0 1.64.22 2.13 1.05a4.68 4.68 0 012.81-1.05zm-8.72-10.63l-.06-.02a4.45 4.45 0 01-3.16 1.37c-2.19 0-2.47-1.5-2.47-2.4 0-1.76 1.08-2.58 3.18-2.76l2.36-.2V7.6c0-1.28-.24-1.91-1.76-1.91-1.07 0-1.84.03-1.86 1.35l-1.5-.16c0-2.16 2-2.4 3.38-2.4 2.48 0 3.32.7 3.32 3.12v4.65c0 .28.02.32.28.35l.9.12v.95h-2.46l-.15-1.14zm-.15-2.9l-1.97.18c-1.5.14-1.93.58-1.93 1.5 0 .94.4 1.33 1.23 1.33 1.03 0 2.13-.85 2.67-1.35V9.64zm-7.27-3.61c-.02-.14-.05-.18-.21-.18-.79 0-1.68.72-2.08 1.11v5.28c0 .28.01.34.28.35l1.6.14v.95h-4.63v-.96l.88-.1c.24-.04.28-.1.28-.36V6.28c0-.19-.06-.31-.23-.37l-1-.33.16-.93h2.29l.18 1.21.05.02c.57-.65 1.43-1.4 2.62-1.4.4 0 .95.07 1.26.15v2.65l-1.24-.05-.21-1.21zm-10.36 7.86c-3.04 0-4.21-1.96-4.21-4.75 0-2.76 1.4-4.65 4.39-4.65 2.99 0 4.14 1.9 4.14 4.54 0 2.95-1.33 4.86-4.32 4.86zm.14-8.07c-1.71 0-2.7 1.02-2.7 3.33 0 2.34.88 3.46 2.62 3.46 1.7 0 2.62-1.07 2.62-3.47 0-2.3-.84-3.32-2.54-3.32zm-9.07 6.9l.84-.1c.22-.04.31-.11.31-.36V8.16c0-1.3-.23-2.33-1.47-2.33-1.05 0-2.08.6-2.76 1.14v5.28c0 .28.02.32.28.35l.98.12v.95h-4v-.96l.87-.1c.24-.04.28-.1.28-.36V2.05c0-.19-.06-.31-.23-.37l-1.05-.33.16-.93h2.69v5.21a5.29 5.29 0 013.15-1.15c1.87 0 2.7 1.2 2.7 3.19v4.58c0 .28 0 .32.27.35l1 .12v.95h-4.03v-.96zm-9.1-.18l-.05-.02a4.45 4.45 0 01-3.17 1.37c-2.18 0-2.46-1.5-2.46-2.4 0-1.76 1.08-2.58 3.18-2.76l2.36-.2V7.6c0-1.28-.25-1.91-1.77-1.91-1.06 0-1.83.03-1.85 1.35l-1.5-.16c0-2.16 1.99-2.4 3.37-2.4 2.49 0 3.32.7 3.32 3.12v4.65c0 .28.02.32.28.35l.9.12v.95h-2.45l-.16-1.14zm-.14-2.9l-1.98.18c-1.5.14-1.92.58-1.92 1.5 0 .94.4 1.33 1.22 1.33 1.04 0 2.14-.85 2.68-1.35V9.64zm-4.69 16.58l-1.87-.12-.17-.92c-.04-.15-.06-.2-.18-.24a4.16 4.16 0 00-1.12-.14c-.87 0-1.36.33-1.36.9 0 .71.96.87 2.03 1.12 1.38.31 2.93.8 2.93 2.86 0 2.14-1.73 3.02-3.95 3.02-1.59 0-3.15-.42-3.46-.64v-2.54l1.87.14.18 1c.03.16.05.21.2.26.22.07.69.18 1.35.18.93 0 1.45-.26 1.45-.91 0-.7-.7-.92-1.59-1.07-1.47-.27-3.4-.58-3.4-2.88 0-2.18 1.86-3.07 3.87-3.07 1.39 0 2.73.31 3.22.5v2.55zm-11.79-12.54h-5.37v-1.4l1.1-.13c.27-.03.28-.08.28-.35V2.83c0-.27-.03-.32-.27-.35l-1.1-.13V.97h5.66c4.4 0 6.28 2.36 6.28 6.16 0 3.9-2.05 6.54-6.58 6.54zm-.17-10.8h-1.1v8.9h1c3.07 0 4.1-1.82 4.1-4.49 0-3.23-1.22-4.42-4-4.42zm-4.8 29.6h-3.79v-5.66c0-.85-.05-1.55-.93-1.55-.64 0-1.45.37-1.82.65v4.7c0 .29.02.32.28.36l.84.12v1.39h-4.82v-1.4l.78-.11c.25-.04.28-.1.28-.35v-5.16c0-.2-.05-.32-.22-.37l-.95-.34.21-1.42h3.06l.14.91.07.04a5.12 5.12 0 013.08-1.12c1.9 0 2.64 1.05 2.64 2.98v4.48c0 .28.02.31.28.35l.88.12v1.39zm-9.63-22.7c.09 1.25.63 2.08 2.06 2.08.68 0 1.42-.16 2.6-.6l.66 1.74c-1.09.52-2.28.9-3.6.9-3.37 0-4.52-2.11-4.52-4.85 0-3.18 1.94-4.69 4.34-4.69 2.3 0 3.85 1.21 3.85 4.25l-.04 1.18h-5.35zm1.48-3.52c-.75 0-1.36.42-1.47 1.86h2.79c-.02-1.48-.6-1.86-1.32-1.86zm-6.05 5.67c.5 0 1-.13 1.42-.28l.47 1.54c-.75.37-1.85.7-2.85.7-2.08 0-2.87-.84-2.87-2.82v-4.6c0-.1 0-.18-.14-.18h-1.22V4.72c1.54-.17 2.15-.95 2.34-2.86h1.66v2.5c0 .12 0 .17.14.17h2.47v1.75h-2.6v4.2c0 1.03.24 1.44 1.18 1.44zm-7.66-5.22c-.03-.15-.09-.19-.23-.19-.45 0-1 .39-1.25.62v4.65c0 .28.01.33.28.35l1.73.14v1.4h-5.72v-1.42l.78-.1c.25-.04.28-.1.28-.36V6.65c0-.2-.05-.31-.22-.37l-.95-.33.2-1.42h3.07l.21 1.4h.1c.58-.9 1.35-1.58 2.47-1.58.4 0 1.21.07 1.52.16v3.2l-2.1-.08-.17-.93zm-8.8 6.02l-.08-.01a3.94 3.94 0 01-2.94 1.17c-2.2 0-2.56-1.5-2.56-2.6 0-1.75 1.07-2.54 3.27-2.7l2.02-.14v-.96c0-.83-.1-1.39-1.18-1.39-.84 0-1.27.12-1.27 1.18l-2.47-.21c0-2.37 2.15-2.7 3.76-2.7 2.66 0 3.73.71 3.73 3.17v4.26c0 .28.01.32.28.35l.84.15v1.38h-3.22l-.18-.95zm-.3-2.82l-1.18.09c-1.04.07-1.4.33-1.4 1.03s.42.97 1 .97c.59 0 1.18-.34 1.59-.63V9.9zm-10.12-.91h-1.28v2.8c0 .28.04.34.28.35l2.5.15v1.38h-6.85V12.3l1.1-.13c.24-.03.28-.09.28-.35V2.84c0-.26-.02-.31-.28-.35l-1.1-.12V.97h5.93c3.23 0 4.21 1.72 4.21 3.73 0 3.06-1.84 4.29-4.8 4.29zM83 2.88h-1.03V7.1h.88c1.15 0 2.43-.27 2.43-2.25 0-1.68-1.03-1.98-2.28-1.98zm-2.53 21.87l-1.12.14 1.78 5h.12l1.86-5-1.14-.14.23-1.42h4.04v1.42l-.63.1c-.26.06-.35.1-.44.3l-2.78 7.33h-3.06l-2.78-7.27c-.09-.21-.16-.25-.37-.3l-.73-.16.28-1.42h4.74v1.42zM68.68 9.78c.08 1.24.62 2.07 2.05 2.07.69 0 1.42-.16 2.61-.6l.65 1.74c-1.09.52-2.28.9-3.59.9-3.37 0-4.53-2.11-4.53-4.85 0-3.18 1.94-4.69 4.34-4.69 2.3 0 3.85 1.21 3.85 4.25l-.04 1.18h-5.35zm1.48-3.53c-.75 0-1.37.42-1.47 1.86h2.78c-.02-1.48-.6-1.86-1.31-1.86zm-6.86.45c-.03-.15-.09-.19-.23-.19-.45 0-1 .39-1.26.62v4.65c0 .28.02.33.28.35l1.74.14v1.4H58.1v-1.42l.78-.1c.25-.04.28-.1.28-.36V6.65c0-.2-.05-.31-.22-.37L58 5.95l.2-1.42h3.07l.21 1.4h.1c.58-.9 1.35-1.58 2.47-1.58.4 0 1.21.07 1.52.16v3.2l-2.1-.08-.17-.93zm-8.8 6.02l-.08-.01a3.94 3.94 0 01-2.94 1.17c-2.2 0-2.56-1.5-2.56-2.6 0-1.75 1.07-2.54 3.27-2.7l2.02-.14v-.96c0-.83-.1-1.39-1.18-1.39-.84 0-1.27.12-1.27 1.18l-2.47-.21c0-2.37 2.15-2.7 3.76-2.7 2.66 0 3.73.71 3.73 3.17v4.26c0 .28.01.32.28.35l.84.15v1.38h-3.22l-.18-.95zm-.3-2.82l-1.18.09c-1.04.07-1.4.33-1.4 1.03s.42.97 1 .97c.59 0 1.18-.34 1.59-.63V9.9zm-8.58 2c.87 0 1.66-.28 2.18-.51l.69 1.63c-.8.5-2.05.86-3.33.86-3.16 0-4.58-1.98-4.58-4.65 0-3.28 2-4.88 4.8-4.88 1.36 0 2.56.39 3.1.74v2.76l-1.87-.1-.2-1.15c-.02-.12-.06-.23-.22-.28a3.03 3.03 0 00-.89-.12c-1.05 0-1.94.71-1.94 2.77 0 2.28 1.02 2.93 2.26 2.93zm-10.25.39l.89-.13c.24-.03.28-.09.28-.35V6.65c0-.2-.05-.31-.23-.37l-.94-.33.19-1.42h3.62v7.28c0 .28.02.32.28.35l.9.13v1.38h-5V12.3zm2.25-9.17c-1 0-1.57-.57-1.57-1.58 0-1 .58-1.54 1.57-1.54 1.02 0 1.6.54 1.6 1.54s-.58 1.58-1.6 1.58zm-5.86 9.57l-.12-.02a3.85 3.85 0 01-2.87 1.21c-2.06 0-3.39-1.31-3.39-4.67 0-3.52 1.77-4.86 3.7-4.86 1.02 0 1.81.35 2.47.84V2.53c0-.18-.07-.3-.22-.35l-.96-.34.19-1.42h3.51v11.4c0 .27.02.3.28.34l.84.13v1.38h-3.25l-.18-.98zm-.31-5.78c-.44-.3-1-.52-1.5-.52-1.3 0-1.8 1.21-1.8 2.77 0 1.7.48 2.65 1.59 2.65.59 0 1.24-.35 1.71-.75V6.9zm-12.1 2.87c.08 1.24.63 2.07 2.06 2.07.68 0 1.42-.16 2.6-.6l.65 1.74c-1.08.52-2.27.9-3.58.9-3.38 0-4.53-2.11-4.53-4.85 0-3.18 1.94-4.69 4.33-4.69 2.31 0 3.85 1.21 3.85 4.25l-.03 1.18h-5.35zm1.48-3.53c-.75 0-1.36.42-1.47 1.86h2.78c-.01-1.48-.6-1.86-1.3-1.86zm-9.37 26.44c-3.2 0-4.5-1.97-4.5-4.73 0-2.9 1.52-4.8 4.72-4.8 3.24 0 4.5 1.93 4.5 4.61 0 2.99-1.5 4.92-4.72 4.92zm.19-7.64c-1.16 0-1.92.72-1.92 2.83 0 2.12.68 2.96 1.85 2.96 1.14 0 1.84-.79 1.84-2.98 0-2.07-.63-2.8-1.77-2.8zM10.32 12.3l1.43-.12c.27-.02.28-.1.28-.35V5.16h-.07l-2.5 5.98H6.61l-2.47-6h-.08v6.67c0 .28.03.33.28.35l1.5.14v1.37H.52V12.3l1.1-.12c.25-.04.29-.09.29-.35v-9c0-.27-.04-.32-.28-.35l-1.1-.13V.97H5.2l3.05 7.95h.06l3.2-7.95h4.55v1.36l-1.17.15c-.26.03-.28.07-.28.33v9.02c0 .23.05.3.28.33l1.17.14v1.37h-5.75V12.3zm-7.98 8.36h1.67v2.5c0 .12 0 .17.13.17h2.47v1.76h-2.6v4.2c0 1.03.24 1.43 1.18 1.43.5 0 1-.12 1.42-.28l.47 1.54c-.75.37-1.85.7-2.85.7-2.08 0-2.87-.84-2.87-2.82v-4.6c0-.1 0-.17-.14-.17H0v-1.56c1.54-.18 2.15-.95 2.34-2.87zm-.38 29.18c.02.12.05.2.2.25.24.08.85.28 1.72.28 1.17 0 1.93-.44 1.93-1.39 0-1.05-1-1.3-2.12-1.56-1.36-.32-2.9-.67-2.9-2.6 0-2 1.68-2.74 3.48-2.74 1.26 0 2.4.34 2.76.5v2.26l-1.17-.07-.21-1.09c-.02-.12-.04-.18-.18-.23-.24-.09-.77-.2-1.36-.2-1.28 0-1.85.57-1.85 1.33 0 1 1.05 1.2 2.18 1.5 1.37.36 2.85.78 2.85 2.67 0 2.04-1.7 2.74-3.55 2.74-1.41 0-2.85-.4-3.16-.6v-2.33l1.17.07.2 1.21zm7.96-9.53c-.72 0-1.14-.4-1.14-1.12 0-.7.42-1.1 1.14-1.1.71 0 1.12.4 1.12 1.1 0 .72-.4 1.12-1.12 1.12zm-.56 9.55v-5.97c0-.2-.05-.32-.23-.37l-1-.33.16-.93h2.66v7.6c0 .28.02.31.28.35l1.12.12v.95H7.92v-.97l1.16-.1c.24-.02.28-.09.28-.35zm4.53-6.34l-1-.33.16-.93h2.29l.14 1.03.05.02a5.6 5.6 0 013.24-1.23c2.01 0 2.76 1.3 2.76 3.21v4.57c0 .28.02.31.28.35l1 .12v.95h-4.02v-.97l.83-.1c.23-.04.32-.1.32-.35V45.7c0-1.14-.23-2.25-1.52-2.25-1 0-1.94.5-2.71 1.13v5.28c0 .28.01.31.28.35l.98.12v.95h-4v-.97l.87-.1c.24-.04.28-.09.28-.35v-5.97c0-.2-.06-.32-.23-.37zm6.33-10.83c-2.06 0-3.4-1.32-3.4-4.67 0-3.53 1.77-4.86 3.71-4.86 1.02 0 1.8.35 2.47.84v-2.67c0-.17-.07-.3-.23-.35l-.96-.33.2-1.43h3.5v11.41c0 .27.03.3.29.34l.84.12v1.39h-3.25l-.18-.99-.12-.02a3.85 3.85 0 01-2.87 1.22zm2.68-2.83v-4.14c-.44-.3-1-.53-1.5-.53-1.3 0-1.81 1.21-1.81 2.77 0 1.7.49 2.66 1.6 2.66.59 0 1.23-.36 1.7-.76zm8.64 12.22a6.4 6.4 0 012.66.55v2.33l-1.18-.05-.2-1.16c-.02-.12-.06-.2-.22-.25-.24-.08-.7-.15-1.19-.15-1.55 0-2.8.9-2.8 3.42 0 2.46 1.16 3.4 2.86 3.4.87 0 1.75-.28 2.24-.58l.5 1.16c-.66.44-1.83.74-2.99.74-2.99 0-4.27-1.84-4.27-4.62 0-3.33 1.93-4.79 4.59-4.79zm-.39-17.19c-.84 0-1.27.13-1.27 1.18l-2.47-.21c0-2.37 2.15-2.7 3.76-2.7 2.66 0 3.72.72 3.72 3.17v4.27c0 .28.02.31.28.35l.84.14v1.39H32.8l-.18-.95-.09-.02a3.94 3.94 0 01-2.93 1.18c-2.2 0-2.56-1.51-2.56-2.6 0-1.76 1.07-2.55 3.27-2.7l2.01-.14v-.97c0-.82-.08-1.39-1.17-1.39zm-.02 3.9c-1.03.07-1.4.33-1.4 1.04 0 .7.43.96 1 .96.6 0 1.2-.33 1.6-.63V28.7l-1.2.09zm8.09 13.3c2.99 0 4.14 1.9 4.14 4.54 0 2.95-1.33 4.86-4.32 4.86-3.04 0-4.22-1.97-4.22-4.76 0-2.75 1.4-4.65 4.4-4.65zm-.13 8.12c1.7 0 2.63-1.07 2.63-3.48 0-2.3-.84-3.31-2.54-3.31-1.71 0-2.71 1.01-2.71 3.33 0 2.34.9 3.46 2.62 3.46zm4.62-20.54c0 2.14-1.73 3.02-3.95 3.02-1.6 0-3.15-.42-3.47-.64v-2.54l1.88.14.17 1c.04.16.05.21.21.26.21.07.68.18 1.35.18.92 0 1.45-.26 1.45-.91 0-.7-.7-.92-1.6-1.07-1.46-.27-3.39-.58-3.39-2.88 0-2.18 1.86-3.07 3.87-3.07 1.38 0 2.73.31 3.22.5v2.55l-1.87-.12-.18-.92c-.03-.15-.05-.2-.17-.24a4.15 4.15 0 00-1.12-.14c-.88 0-1.37.33-1.37.9 0 .71.97.87 2.03 1.12 1.38.31 2.94.8 2.94 2.86zm2.01 20.17c.02.12.05.2.21.25.23.08.84.28 1.72.28 1.17 0 1.92-.44 1.92-1.39 0-1.05-1-1.3-2.12-1.56-1.36-.32-2.9-.67-2.9-2.6 0-2 1.68-2.74 3.48-2.74 1.26 0 2.4.34 2.76.5v2.26l-1.17-.07-.2-1.09c-.02-.12-.04-.18-.18-.23-.25-.09-.77-.2-1.37-.2-1.27 0-1.85.57-1.85 1.33 0 1 1.05 1.2 2.19 1.5 1.36.36 2.85.78 2.85 2.67 0 2.04-1.7 2.74-3.55 2.74-1.42 0-2.86-.4-3.17-.6v-2.33l1.17.07.21 1.21zm5.51-28.86l-.96-.33.2-1.43h3.63v11.4c0 .28.02.31.28.35l.86.12v1.39H50.3v-1.4l.87-.11c.24-.04.28-.1.28-.35v-9.27c0-.2-.05-.32-.23-.37zm2.42 18.96h1.03v2.14c0 .1 0 .18.14.18h2.57v1.2h-2.71v5.19c0 1.1.26 1.52 1.26 1.52.54 0 1.15-.15 1.62-.35l.39 1.13a6.6 6.6 0 01-2.43.54c-1.68 0-2.43-.79-2.43-2.37v-5.48c0-.1 0-.17-.14-.17h-1.28v-1.02c1.36-.17 1.75-.72 1.98-2.5zm6.07-15.05c-.84 0-1.28.13-1.28 1.18l-2.47-.21c0-2.37 2.15-2.7 3.76-2.7 2.66 0 3.73.72 3.73 3.17v4.27c0 .28.02.31.28.35l.84.14v1.39h-3.22l-.18-.95-.08-.02a3.94 3.94 0 01-2.94 1.18c-2.2 0-2.56-1.51-2.56-2.6 0-1.76 1.07-2.55 3.28-2.7l2-.14v-.97c0-.82-.08-1.39-1.16-1.39zm-.02 3.9c-1.04.07-1.4.33-1.4 1.04 0 .7.42.96 1 .96.59 0 1.19-.33 1.59-.63V28.7l-1.2.09zm2.8 13.3c2.99 0 4.14 1.9 4.14 4.54 0 2.95-1.33 4.86-4.32 4.86-3.04 0-4.21-1.97-4.21-4.76 0-2.75 1.4-4.65 4.39-4.65zm-.13 8.12c1.7 0 2.63-1.07 2.63-3.48 0-2.3-.84-3.31-2.54-3.31-1.71 0-2.7 1.01-2.7 3.33 0 2.34.88 3.46 2.61 3.46zm2.49-18.16v-2.54l1.87.14.17 1c.04.16.06.21.21.26.21.07.69.18 1.35.18.93 0 1.45-.26 1.45-.91 0-.7-.7-.92-1.59-1.07-1.47-.27-3.4-.58-3.4-2.88 0-2.18 1.86-3.07 3.87-3.07 1.39 0 2.73.31 3.22.5v2.55l-1.87-.12-.18-.92c-.03-.15-.05-.2-.17-.24a4.15 4.15 0 00-1.12-.14c-.87 0-1.36.33-1.36.9 0 .71.96.87 2.02 1.12 1.39.31 2.94.8 2.94 2.86 0 2.14-1.73 3.02-3.95 3.02-1.6 0-3.15-.42-3.46-.64zm7.13 11.47l-1-.33.16-.93h2.31l.16 1.02.05.01a5.13 5.13 0 013.13-1.2c1.96 0 3.3 1.26 3.3 4.35 0 2.63-.9 5.05-3.65 5.05-1 0-1.83-.25-2.65-.97v3.04c0 .28.01.33-.62.35l2.54.14V55h-4.51v-.97l.71-.1c.25-.04.3-.09.3-.35v-9.69c0-.2-.05-.32-.23-.37zm1.8 5.51c.6.58 1.47 1.14 2.4 1.14 1.66 0 2.3-1.38 2.3-3.6 0-2.38-.93-3.14-2.02-3.14-1.12 0-2.17.69-2.67 1.1v4.5zm10.43-2.7l2.36-.2v-.92c0-1.28-.24-1.92-1.76-1.92-1.07 0-1.84.04-1.86 1.36l-1.5-.16c0-2.16 2-2.4 3.37-2.4 2.49 0 3.33.7 3.33 3.12v4.65c0 .28.01.31.28.35l.89.12v.95h-2.45l-.16-1.14-.05-.02a4.45 4.45 0 01-3.17 1.37c-2.18 0-2.46-1.5-2.46-2.4 0-1.76 1.08-2.58 3.18-2.76zm-.31 3.91c1.03 0 2.13-.84 2.67-1.35v-1.65l-1.97.18c-1.5.14-1.93.58-1.93 1.49 0 .95.4 1.33 1.23 1.33zm2.16-20.15c0-1.76 1.07-2.55 3.28-2.7l2-.14v-.97c0-.82-.08-1.39-1.16-1.39-.84 0-1.28.13-1.28 1.18l-2.47-.21c0-2.37 2.15-2.7 3.76-2.7 2.66 0 3.73.72 3.73 3.17v4.27c0 .28.02.31.28.35l.84.14v1.39h-3.22l-.18-.95-.08-.02a3.94 3.94 0 01-2.94 1.18c-2.2 0-2.56-1.51-2.56-2.6zm3.7.7c.59 0 1.19-.33 1.59-.63V28.7l-1.2.09c-1.02.07-1.4.33-1.4 1.04 0 .7.43.96 1 .96zm1.15 12.73l-1-.33.16-.93h2.3l.17 1.2.05.03c.58-.65 1.43-1.4 2.62-1.4.4 0 .95.06 1.26.15v2.65l-1.24-.05-.21-1.21c-.02-.14-.05-.18-.21-.18-.79 0-1.68.72-2.08 1.1v5.29c0 .28.02.33.28.35l1.6.14v.95H90v-.97l.88-.1c.24-.04.28-.09.28-.35v-5.97c0-.2-.06-.32-.23-.37zm9.29-12.82c.87 0 1.66-.28 2.18-.5l.69 1.63c-.8.49-2.05.86-3.33.86-3.16 0-4.58-1.99-4.58-4.65 0-3.29 2-4.88 4.8-4.88 1.36 0 2.56.38 3.1.73v2.76l-1.86-.09-.21-1.16c-.02-.12-.06-.23-.22-.28-.2-.07-.54-.12-.89-.12-1.05 0-1.94.72-1.94 2.77 0 2.28 1.02 2.93 2.26 2.93zm-.26 15.63l2.36-.2v-.92c0-1.28-.25-1.92-1.77-1.92-1.07 0-1.84.04-1.85 1.36l-1.5-.16c0-2.16 1.99-2.4 3.37-2.4 2.48 0 3.32.7 3.32 3.12v4.65c0 .28.02.31.28.35l.9.12v.95h-2.46l-.15-1.14-.06-.02a4.45 4.45 0 01-3.16 1.37c-2.19 0-2.47-1.5-2.47-2.4 0-1.76 1.09-2.58 3.19-2.76zm-.32 3.91c1.03 0 2.14-.84 2.68-1.35v-1.65l-1.98.18c-1.5.14-1.92.58-1.92 1.49 0 .95.4 1.33 1.22 1.33zm5.02-24.92c0-.29-.02-.32-.28-.37l-.84-.18.18-1.44h3.58v5.81c0 1.07.18 1.48.93 1.48.77 0 1.4-.44 1.8-.81V25.3c0-.28-.02-.3-.28-.35l-.75-.18.2-1.44h3.47v7.29c0 .22.04.3.25.33l.87.12v1.4h-3.25l-.14-.94-.09-.02a4.8 4.8 0 01-3.11 1.18c-1.84 0-2.54-1.06-2.54-3.1v-4.27zm7.2 16.94v5.67c0 1.52.27 2.26 1.37 2.26 1.19 0 2.2-.82 2.82-1.53v-4.84c0-.28-.02-.32-.28-.39l-.88-.22.14-.95h2.6v7.58c0 .26.06.35.25.37l.93.12v.95h-2.47l-.14-1.2-.03-.01a5.02 5.02 0 01-3.38 1.42c-1.92 0-2.52-1.18-2.52-3.2v-4.45c0-.28-.01-.34-.27-.4l-.91-.23.14-.95h2.64zm9.2 7.58c.03.12.06.2.22.25.23.08.84.28 1.71.28 1.17 0 1.92-.44 1.92-1.39 0-1.05-1-1.3-2.11-1.56-1.37-.32-2.9-.67-2.9-2.6 0-2 1.67-2.74 3.48-2.74 1.25 0 2.4.34 2.76.5v2.26l-1.17-.07-.21-1.09c-.02-.12-.04-.18-.18-.23a4.5 4.5 0 00-1.36-.2c-1.28 0-1.85.57-1.85 1.33 0 1 1.04 1.2 2.18 1.5 1.36.36 2.85.78 2.85 2.67 0 2.04-1.7 2.74-3.55 2.74-1.42 0-2.85-.4-3.16-.6v-2.33l1.17.07.2 1.21zm6.92-22.45l2-.14v-.97c0-.82-.08-1.39-1.16-1.39-.84 0-1.28.13-1.28 1.18l-2.47-.21c0-2.37 2.15-2.7 3.76-2.7 2.66 0 3.73.72 3.73 3.17v4.27c0 .28.02.31.28.35l.84.14v1.39h-3.22l-.17-.95-.1-.02a3.94 3.94 0 01-2.93 1.18c-2.2 0-2.56-1.51-2.56-2.6 0-1.76 1.07-2.55 3.28-2.7zm.42 3.4c.59 0 1.19-.33 1.59-.63V28.7l-1.2.09c-1.02.07-1.4.33-1.4 1.04 0 .7.43.96 1 .96zm.6 9.15H130v2.14c0 .1 0 .18.14.18h2.57v1.2h-2.7v5.19c0 1.1.26 1.52 1.25 1.52.54 0 1.16-.15 1.63-.35l.38 1.13a6.6 6.6 0 01-2.43.54c-1.68 0-2.43-.79-2.43-2.37v-5.48c0-.1 0-.17-.14-.17H127v-1.02c1.37-.17 1.75-.72 1.98-2.5zm8.44 2.14c2.13 0 3.6 1.16 3.6 4.2l-.03.87h-5.88c.05 1.78.77 2.99 2.68 2.99.98 0 1.59-.18 2.52-.63l.5 1.19c-.87.5-1.92.79-3.18.79-3.17 0-4.2-2.09-4.2-4.7 0-3.22 1.78-4.7 3.99-4.7zm2.01 3.86c-.03-2-.94-2.58-2.01-2.58-1.17 0-2.15.64-2.3 2.58h4.31zm6.3-3.86c1.05 0 2 .35 2.67.85v-3.29c0-.17-.07-.3-.22-.35l-1.05-.33.15-.93h2.68v11.83c0 .28.02.31.28.35l.9.12v.95h-2.47l-.14-1.16-.07-.02a4.24 4.24 0 01-3.08 1.39c-2 0-3.3-1.3-3.3-4.53 0-3.46 1.55-4.88 3.65-4.88zm0 8.08c1.03 0 1.87-.69 2.64-1.46v-4.35a4.08 4.08 0 00-2.4-.95c-1.64 0-2.29 1.44-2.29 3.53 0 2.44.82 3.23 2.05 3.23zm.05-25.07l-.94-.34.19-1.42h3.08l.2 1.4h.11c.58-.89 1.35-1.57 2.47-1.57.4 0 1.2.07 1.52.15v3.2l-2.1-.07-.17-.93c-.04-.16-.1-.2-.23-.2-.46 0-1 .4-1.26.62v4.65c0 .28.02.33.28.35l1.73.14v1.4h-5.72v-1.42l.79-.1c.24-.04.28-.09.28-.35v-5.14c0-.2-.06-.32-.23-.37zm7.26 24.19c.73 0 1.15.37 1.15 1.1 0 .74-.4 1.11-1.15 1.11-.75 0-1.16-.37-1.16-1.1 0-.74.4-1.11 1.16-1.11zm4-26.12c2.31 0 3.85 1.2 3.85 4.24l-.03 1.18h-5.36c.1 1.25.64 2.07 2.07 2.07.68 0 1.41-.16 2.6-.6l.65 1.74c-1.08.53-2.27.9-3.58.9-3.38 0-4.53-2.11-4.53-4.85 0-3.17 1.94-4.68 4.33-4.68zm1.26 3.75c-.01-1.47-.6-1.86-1.3-1.86-.76 0-1.37.42-1.48 1.86h2.78zm7.9-3.75c1.36 0 2.56.38 3.1.73v2.76l-1.87-.09-.2-1.16c-.02-.12-.06-.23-.22-.28-.2-.07-.54-.12-.89-.12-1.05 0-1.94.72-1.94 2.77 0 2.28 1.02 2.93 2.26 2.93.87 0 1.66-.28 2.18-.5l.69 1.63c-.8.49-2.05.86-3.33.86-3.16 0-4.58-1.99-4.58-4.65 0-3.29 2-4.88 4.8-4.88zm8.18 0c3.23 0 4.5 1.93 4.5 4.61 0 2.99-1.51 4.92-4.73 4.92-3.2 0-4.5-1.97-4.5-4.73 0-2.9 1.53-4.8 4.73-4.8zm-.1 7.68c1.13 0 1.83-.79 1.83-2.98 0-2.07-.63-2.8-1.77-2.8-1.15 0-1.92.71-1.92 2.82 0 2.12.68 2.96 1.85 2.96zm24.5-7.68c2.3 0 3.85 1.2 3.85 4.24l-.04 1.18h-5.35c.09 1.25.63 2.07 2.06 2.07.69 0 1.42-.16 2.6-.6l.66 1.74c-1.09.53-2.28.9-3.59.9-3.38 0-4.53-2.11-4.53-4.85 0-3.17 1.94-4.68 4.34-4.68zm1.26 3.75c-.02-1.47-.6-1.86-1.31-1.86-.76 0-1.37.42-1.47 1.86h2.78z" fill="#fff"/></svg>