<svg width="220" height="38" viewBox="0 0 220 38" fill="none" xmlns="http://www.w3.org/2000/svg"><path fill-rule="evenodd" clip-rule="evenodd" d="M215 15.73c-3.52 0-4.87-2.26-4.87-5.47 0-3.16 1.62-5.34 5.08-5.34 3.45 0 4.79 2.2 4.79 5.22 0 3.4-1.54 5.59-5 5.59zm.16-9.28c-1.98 0-3.13 1.17-3.13 3.83 0 2.69 1.03 3.98 3.03 3.98 1.97 0 3.04-1.23 3.04-4 0-2.64-.97-3.8-2.94-3.8zm-5.66 27.52c-.87 0-1.33-.43-1.33-1.27 0-.85.47-1.28 1.34-1.28.84 0 1.33.43 1.33 1.28 0 .84-.47 1.27-1.34 1.27zm-3.7-19.75c1.01 0 2.02-.33 2.6-.67l.58 1.33c-.77.5-2.13.85-3.46.85-3.46 0-4.94-2.12-4.94-5.3 0-3.84 2.23-5.51 5.3-5.51 1.48 0 2.63.4 3.08.63v2.68l-1.36-.06-.24-1.33c-.02-.15-.06-.23-.24-.29a4.6 4.6 0 00-1.38-.18c-1.8 0-3.24 1.05-3.24 3.93 0 2.83 1.34 3.92 3.3 3.92zm-.27 12.53v5.34c0 .32.02.36.33.4l1.03.14v1.1h-2.83l-.19-1.32-.06-.02c-.97.91-2.1 1.58-3.66 1.58-2.53 0-2.85-1.74-2.85-2.77 0-2.01 1.25-2.96 3.68-3.16l2.73-.22v-1.07c0-1.48-.28-2.2-2.04-2.2-1.23 0-2.13.04-2.14 1.55l-1.75-.18c0-2.48 2.31-2.76 3.91-2.76 2.87 0 3.84.8 3.84 3.59zm-4.1 2.54c-1.74.16-2.23.66-2.23 1.71 0 1.1.47 1.53 1.42 1.53 1.2 0 2.47-.96 3.1-1.55v-1.9l-2.3.2zm-6.92-14.91l1.34-.12c.28-.02.32-.1.32-.4V7c0-.22-.06-.37-.26-.43l-1.15-.38.18-1.07H198v8.73c0 .33.02.37.33.4l1.3.15v1.09h-5.13v-1.11zm2.31-11.5c-.83 0-1.31-.46-1.31-1.29 0-.8.48-1.27 1.31-1.27.83 0 1.3.47 1.3 1.27 0 .83-.47 1.3-1.3 1.3zm-6.54 11.28l-.09-.02a4.91 4.91 0 01-3.56 1.59c-2.3 0-3.82-1.5-3.82-5.2 0-3.98 1.8-5.61 4.23-5.61 1.21 0 2.3.4 3.1.97V2.12c0-.2-.09-.35-.27-.4l-1.21-.39.18-1.07h3.1v13.6c0 .32.01.36.32.4l1.03.14v1.09h-2.85l-.16-1.33zm-.19-6.64c-.6-.5-1.7-1.09-2.77-1.09-1.9 0-2.65 1.66-2.65 4.06 0 2.8.95 3.7 2.37 3.7 1.2 0 2.16-.78 3.05-1.67v-5zm-8.26 23.3c0 2.34-1.97 3.15-4.11 3.15a9.7 9.7 0 01-3.66-.69V30.6l1.35.08.25 1.39c.02.14.06.22.24.28.26.1.97.33 1.98.33 1.36 0 2.23-.5 2.23-1.6 0-1.2-1.16-1.49-2.45-1.8-1.58-.35-3.36-.76-3.36-2.98 0-2.3 1.94-3.14 4.03-3.14a9.4 9.4 0 013.2.56v2.6l-1.36-.08-.24-1.25c-.03-.14-.05-.2-.2-.26-.29-.1-.9-.22-1.58-.22-1.48 0-2.15.64-2.15 1.51 0 1.15 1.21 1.4 2.53 1.73 1.58.4 3.3.9 3.3 3.07zm-7.65-20.07c.06 2.03.89 3.43 3.1 3.43 1.13 0 1.83-.2 2.9-.73l.6 1.37c-1.02.57-2.23.9-3.69.9-3.66 0-4.86-2.39-4.86-5.4 0-3.69 2.07-5.4 4.62-5.4 2.47 0 4.16 1.33 4.16 4.82 0 .26-.01.67-.03 1h-6.8zm2.67-4.36c-1.36 0-2.5.73-2.65 2.97h4.97c-.04-2.3-1.09-2.97-2.32-2.97zm-2.05-3.08L177.94 0l1.21 1.21-3.56 2.84-.79-.74zm-8.6 11.07l.98-.12c.26-.04.36-.12.36-.4V8.98c0-1.27-.28-2.48-1.72-2.48-1.1 0-2.04.55-2.67 1 .04.35.06.78.06 1.22v5.12c0 .33.02.37.32.4l1 .15v1.09h-4.5v-1.11l.97-.12c.27-.04.37-.12.37-.4V8.96c0-1.15-.08-2.46-1.54-2.46-1.05 0-2.12.63-2.9 1.25v6.1c0 .32.03.36.33.4l1.1.14v1.09h-4.6v-1.11l1.02-.12c.28-.04.32-.1.32-.4V7c0-.22-.06-.37-.26-.43l-1.16-.38.18-1.07h2.65l.17 1.2.06.01c1.07-.83 2.06-1.41 3.58-1.41.97 0 1.98.34 2.49 1.3a6.07 6.07 0 013.58-1.3c2.3 0 3 1.41 3 3.75v5.18c0 .33.01.37.32.4l1.15.15v1.09h-4.65v-1.11zm-20.6 14.6c.07 2.04.9 3.43 3.1 3.43 1.14 0 1.84-.2 2.92-.72l.58 1.37c-1 .56-2.22.9-3.68.9-3.66 0-4.85-2.4-4.85-5.4 0-3.69 2.06-5.4 4.6-5.4 2.48 0 4.18 1.33 4.18 4.82 0 .26-.02.66-.04 1h-6.8zm2.68-4.35c-1.36 0-2.49.73-2.65 2.96h4.97c-.03-2.3-1.09-2.96-2.32-2.96zm-3.74-10.51l-.04-.02a5.83 5.83 0 01-3.9 1.63c-2.23 0-2.92-1.35-2.92-3.67V6.94c0-.33-.02-.39-.32-.47l-1.05-.26.16-1.09h3.05v6.52c0 1.75.3 2.6 1.58 2.6 1.38 0 2.55-.95 3.26-1.76V6.92c0-.33-.02-.37-.33-.45l-1-.26.16-1.09h3.01v8.71c0 .3.06.4.28.43l1.08.14v1.09h-2.86l-.16-1.37zm-9.64-1.54c0 2.34-1.96 3.15-4.1 3.15-1.65 0-3.3-.47-3.67-.69v-2.68l1.36.08.24 1.4c.02.14.06.22.24.28.27.1.97.32 1.99.32 1.35 0 2.22-.5 2.22-1.6 0-1.2-1.15-1.49-2.45-1.79-1.57-.36-3.36-.77-3.36-2.98 0-2.3 1.95-3.15 4.03-3.15a9.4 9.4 0 013.2.56v2.6l-1.36-.07-.24-1.25c-.02-.15-.04-.2-.2-.27-.29-.1-.9-.22-1.58-.22-1.48 0-2.15.65-2.15 1.51 0 1.15 1.22 1.4 2.53 1.74 1.58.4 3.3.89 3.3 3.06zm-10.06 18.24c0 2.34-1.96 3.15-4.1 3.15a9.7 9.7 0 01-3.67-.69V30.6l1.36.08.24 1.39c.02.14.06.22.25.28.26.1.97.33 1.98.33 1.35 0 2.22-.5 2.22-1.6 0-1.2-1.15-1.49-2.44-1.8-1.58-.35-3.36-.76-3.36-2.98 0-2.3 1.94-3.14 4.02-3.14 1.46 0 2.78.38 3.2.56v2.6l-1.36-.08-.24-1.25c-.02-.14-.04-.2-.2-.26-.28-.1-.89-.22-1.58-.22-1.47 0-2.14.64-2.14 1.51 0 1.15 1.21 1.4 2.53 1.73 1.57.4 3.3.9 3.3 3.07zm-8.3-16.44l.96-.12c.27-.04.37-.12.37-.4V9.06c0-1.3-.27-2.58-1.76-2.58-1.16 0-2.25.57-3.14 1.3v6.06c0 .33.02.37.33.4l1.13.15v1.09h-4.63v-1.11l1-.12c.29-.04.33-.1.33-.4V7c0-.22-.06-.37-.26-.43l-1.16-.38.19-1.07h2.65l.16 1.2.06.01a6.5 6.5 0 013.74-1.41c2.33 0 3.2 1.5 3.2 3.69v5.24c0 .33.02.37.32.4l1.16.15v1.09h-4.66v-1.11zm-2.12 12.37v5.34c0 .32.02.36.32.4l1.03.14v1.1h-2.83l-.18-1.32-.06-.02c-.97.91-2.1 1.58-3.66 1.58-2.53 0-2.86-1.74-2.86-2.77 0-2.01 1.26-2.96 3.69-3.16l2.73-.22v-1.07c0-1.48-.28-2.2-2.05-2.2-1.23 0-2.12.04-2.14 1.55l-1.74-.18c0-2.48 2.3-2.76 3.9-2.76 2.88 0 3.85.8 3.85 3.59zm-4.1 2.54c-1.75.16-2.23.66-2.23 1.71 0 1.1.46 1.53 1.41 1.53 1.2 0 2.47-.96 3.1-1.55v-1.9l-2.29.2zm-7.26-13.56c-3.52 0-4.87-2.26-4.87-5.47 0-3.16 1.61-5.34 5.07-5.34s4.8 2.2 4.8 5.22c0 3.4-1.54 5.59-5 5.59zm.16-9.28c-1.98 0-3.13 1.17-3.13 3.83 0 2.69 1.03 3.98 3.03 3.98 1.96 0 3.04-1.23 3.04-4 0-2.64-.97-3.8-2.94-3.8zm-9.36 7.77c1.01 0 2.02-.33 2.59-.67l.59 1.33c-.77.5-2.13.85-3.46.85-3.46 0-4.94-2.12-4.94-5.3 0-3.84 2.22-5.51 5.3-5.51 1.48 0 2.63.4 3.08.63v2.68l-1.36-.06-.24-1.33c-.02-.15-.06-.23-.25-.29a4.6 4.6 0 00-1.37-.18c-1.8 0-3.24 1.05-3.24 3.93 0 2.83 1.34 3.92 3.3 3.92zm-3.42 17.85c0 .3.06.4.28.42l1.08.14v1.1h-2.86l-.16-1.38-.04-.02a5.83 5.83 0 01-3.9 1.64c-2.23 0-2.92-1.35-2.92-3.67v-5.13c0-.32-.02-.38-.32-.46l-1.05-.26.16-1.1h3.05v6.52c0 1.76.3 2.6 1.58 2.6 1.38 0 2.55-.94 3.26-1.75v-5.57c0-.32-.02-.36-.32-.44l-1.02-.26.17-1.1h3.01v8.72zm-14.9-21.32c.06 2.03.9 3.43 3.1 3.43 1.13 0 1.84-.2 2.91-.73l.59 1.37c-1.02.57-2.23.9-3.69.9-3.66 0-4.85-2.39-4.85-5.4 0-3.69 2.06-5.4 4.61-5.4 2.47 0 4.17 1.33 4.17 4.82 0 .26-.02.67-.04 1h-6.8zm2.67-4.36c-1.35 0-2.49.73-2.65 2.97h4.98c-.04-2.3-1.1-2.97-2.33-2.97zm-7.98 9.34c-1.95 0-2.82-.9-2.82-2.72V6.7c0-.12 0-.2-.16-.2h-1.48V5.34c1.58-.2 2.03-.82 2.29-2.88h1.2v2.46c0 .12 0 .2.16.2h2.97v1.4h-3.14v5.94c0 1.27.3 1.76 1.46 1.76.63 0 1.34-.18 1.88-.4l.45 1.28c-.81.33-1.78.63-2.81.63zm-2.1 16.36c0 .32.03.36.33.4l1.03.14v1.1h-2.83l-.18-1.32-.06-.02c-.97.91-2.1 1.58-3.66 1.58-2.53 0-2.86-1.74-2.86-2.77 0-2.01 1.26-2.96 3.69-3.16l2.73-.22v-1.07c0-1.48-.29-2.2-2.05-2.2-1.23 0-2.12.04-2.14 1.55l-1.74-.18c0-2.48 2.3-2.76 3.9-2.76 2.88 0 3.85.8 3.85 3.59v5.34zm-1.81-3l-2.29.2c-1.74.16-2.23.66-2.23 1.71 0 1.1.47 1.53 1.42 1.53 1.2 0 2.47-.96 3.1-1.55v-1.9zM59.8 14.38l1.26-.12c.28-.02.32-.1.32-.4V2.13c0-.22-.06-.37-.26-.43l-1.22-.38.18-1.07h3.14v13.6c0 .32.02.36.32.4l1.22.14v1.09H59.8v-1.11zm-1.73 10.55l-3.4 8.8h-2.1l-3.42-8.74c-.1-.24-.18-.28-.43-.34l-.87-.18.25-1.11h4.24v1.1l-1.4.17 2.74 7.52 2.77-7.52-1.35-.16.22-1.11h3.92v1.1l-.66.13c-.29.06-.4.1-.5.34zm-2.62-10.81l-.04-.02a5.83 5.83 0 01-3.9 1.63c-2.23 0-2.92-1.35-2.92-3.67V6.94c0-.33-.02-.39-.32-.47l-1.05-.26.16-1.09h3.05v6.52c0 1.75.3 2.6 1.58 2.6 1.38 0 2.55-.95 3.26-1.76V6.92c0-.33-.02-.37-.33-.45l-1-.26.15-1.09h3.02v8.71c0 .3.06.4.28.43l1.07.14v1.09h-2.85l-.16-1.37zm-9.64-1.54c0 2.34-1.96 3.15-4.1 3.15a9.7 9.7 0 01-3.67-.69v-2.68l1.36.08.24 1.4c.02.14.06.22.24.28.26.1.97.32 1.98.32 1.36 0 2.23-.5 2.23-1.6 0-1.2-1.15-1.49-2.45-1.79-1.58-.36-3.36-.77-3.36-2.98 0-2.3 1.95-3.15 4.03-3.15 1.46 0 2.77.38 3.2.56v2.6l-1.36-.07-.24-1.25c-.02-.15-.04-.2-.2-.27-.29-.1-.9-.22-1.58-.22-1.48 0-2.15.65-2.15 1.51 0 1.15 1.22 1.4 2.53 1.74 1.58.4 3.3.89 3.3 3.06zm-13.74 1.8l.97-.12c.26-.04.37-.12.37-.4V9.06c0-1.3-.27-2.58-1.76-2.58-1.16 0-2.25.57-3.14 1.3v6.06c0 .33.02.37.32.4l1.14.15v1.09h-4.64v-1.11l1.02-.12c.28-.04.32-.1.32-.4V7c0-.22-.06-.37-.26-.43l-1.16-.38.18-1.07h2.65l.17 1.2.06.01a6.5 6.5 0 013.74-1.41c2.33 0 3.2 1.5 3.2 3.69v5.24c0 .33.02.37.32.4l1.15.15v1.09h-4.65v-1.11zm-3.35 16.34v-5.57c0-.32-.02-.36-.32-.44l-1.01-.26.16-1.1h3.02v8.72c0 .3.06.4.28.42l1.07.14v1.1h-2.85l-.16-1.38-.04-.02a5.83 5.83 0 01-3.9 1.64c-2.23 0-2.92-1.35-2.92-3.67v-5.13c0-.32-.02-.38-.33-.46l-1.05-.26.16-1.1h3.06v6.52c0 1.76.3 2.6 1.58 2.6 1.37 0 2.55-.94 3.25-1.75zM18.6 15.73c-3.52 0-4.88-2.26-4.88-5.47 0-3.16 1.62-5.34 5.08-5.34s4.8 2.2 4.8 5.22c0 3.4-1.54 5.59-5 5.59zm.16-9.28c-1.98 0-3.14 1.17-3.14 3.83 0 2.69 1.04 3.98 3.04 3.98 1.96 0 3.03-1.23 3.03-4 0-2.64-.97-3.8-2.93-3.8zm-2.38 17.76l.22-.85h1.74c-.12 1.03-.2 1.9-.2 2.8v10.2c0 .3.04.37.32.41l1.04.12V38h-4.96v-1.09l1.52-.14c.3-.02.34-.1.34-.4v-3.94l-.06-.02c-.85.81-1.9 1.56-3.42 1.56-2.35 0-3.89-1.48-3.89-5.19 0-3.95 1.83-5.62 4.2-5.62 1.29 0 2.36.44 3.15 1.05zm-5.48 4.5c0 2.82.93 3.72 2.34 3.72 1.2 0 2.25-.86 3.06-1.77v-4.9a4.48 4.48 0 00-2.77-1.09c-1.9 0-2.63 1.63-2.63 4.03zM6.92 15.72C1.98 15.73 0 12.63 0 8.19 0 3.8 2.4.62 7.26.62a8.6 8.6 0 014.47 1.1v3.22l-1.37-.08-.34-1.92c-.05-.18-.09-.3-.29-.36a8 8 0 00-2.55-.44c-3.17 0-5.24 2.1-5.24 6.05 0 3.93 1.95 6.03 5.1 6.03.91 0 2.06-.1 2.83-.43.17-.06.25-.12.29-.36l.32-1.81h1.3v3.04c-1.1.73-3 1.07-4.86 1.07zm29.1 5.81l3.15-3.3 1.21 1.2-3.56 2.85-.8-.75zm2.05 1.62c2.47 0 4.17 1.33 4.17 4.82 0 .26-.02.66-.04 1h-6.8c.06 2.04.9 3.43 3.1 3.43 1.13 0 1.84-.2 2.91-.72l.59 1.37c-1.01.56-2.23.9-3.68.9-3.67 0-4.86-2.4-4.86-5.4 0-3.69 2.06-5.4 4.61-5.4zm2.33 4.43c-.04-2.3-1.1-2.96-2.33-2.96-1.35 0-2.49.73-2.65 2.96h4.98zm35.67-4.43c1.48 0 2.63.4 3.08.62v2.68l-1.36-.06-.24-1.33c-.02-.14-.06-.22-.24-.28a4.6 4.6 0 00-1.38-.18c-1.8 0-3.23 1.05-3.23 3.93 0 2.82 1.33 3.91 3.3 3.91 1 0 2.02-.32 2.58-.66l.59 1.33c-.77.5-2.12.85-3.46.85-3.46 0-4.94-2.12-4.94-5.3 0-3.84 2.23-5.51 5.3-5.51zm18.38 1.65l-1.16-.38.19-1.07h2.65l.16 1.19.06.02a6.5 6.5 0 013.74-1.41c2.33 0 3.2 1.49 3.2 3.69v5.24c0 .32.02.36.32.4l1.16.14v1.1h-4.66v-1.11l.97-.13c.27-.04.37-.12.37-.4v-4.78c0-1.3-.26-2.58-1.76-2.58-1.15 0-2.25.57-3.14 1.3v6.06c0 .32.02.36.33.4l1.13.14v1.1h-4.63v-1.11l1-.13c.3-.04.33-.1.33-.4v-6.86c0-.22-.06-.36-.26-.42zm37.6 0l-1.15-.38.18-1.07h2.65l.16 1.19-.81.02c1.92-.75 3.16-1.41 4.62-1.41 2.32 0 3.2 1.49 3.2 3.69v5.24c0 .32.01.36.32.4l1.15.14v1.1h-4.65v-1.11l.97-.13c.26-.04.36-.12.36-.4v-4.78c0-1.3-.26-2.58-1.76-2.58-1.15 0-2.24.57-3.13 1.3v6.06c0 .32.02.36.32.4l1.13.14v1.1h-4.63v-1.11l1.01-.13c.28-.04.32-.1.32-.4v-6.86c0-.22-.06-.36-.26-.42zm27.33-1.65c1.48 0 2.63.4 3.08.62v2.68l-1.36-.06-.24-1.33c-.02-.14-.06-.22-.25-.28a4.6 4.6 0 00-1.37-.18c-1.8 0-3.24 1.05-3.24 3.93 0 2.82 1.34 3.91 3.3 3.91 1.01 0 2.02-.32 2.59-.66l.59 1.33c-.77.5-2.13.85-3.46.85-3.46 0-4.94-2.12-4.94-5.3 0-3.84 2.22-5.51 5.3-5.51zm8.86 0c2.47 0 4.16 1.33 4.16 4.82l-.03 1h-6.8c.06 2.04.89 3.43 3.1 3.43 1.13 0 1.83-.2 2.9-.72l.6 1.37c-1.02.56-2.23.9-3.69.9-3.66 0-4.85-2.4-4.85-5.4 0-3.69 2.06-5.4 4.6-5.4zm2.32 4.43c-.04-2.3-1.09-2.96-2.32-2.96-1.36 0-2.5.73-2.65 2.96h4.97zm14.76-6.47c-.83 0-1.32-.46-1.32-1.29 0-.8.49-1.27 1.32-1.27.83 0 1.3.46 1.3 1.27 0 .83-.47 1.3-1.3 1.3zm-.65 10.97v-6.86c0-.22-.06-.36-.26-.42l-1.16-.38.19-1.07h3.07v8.73c0 .32.02.36.32.4l1.3.14v1.1h-5.12v-1.11l1.34-.13c.28-.02.32-.1.32-.4zm6.68-11.4h1.2v2.47c0 .12 0 .2.16.2h2.97v1.4h-3.14v5.94c0 1.27.3 1.75 1.46 1.75.63 0 1.34-.18 1.88-.4l.45 1.3c-.81.31-1.78.62-2.81.62-1.95 0-2.82-.91-2.82-2.73v-6.29c0-.12 0-.2-.16-.2h-1.47v-1.17c1.57-.2 2.02-.83 2.28-2.88z" fill="#000"/></svg>