<svg width="107" height="29" viewBox="0 0 107 29" fill="none" xmlns="http://www.w3.org/2000/svg"><path fill-rule="evenodd" clip-rule="evenodd" d="M91.08 12.95c-.05-.1-.05-.15-.15-.2-.15-.05-.45-.1-.8-.1-.63 0-.98.25-.98.65 0 .55.7.65 1.43.85.99.25 2.12.6 2.12 2.15 0 1.6-1.23 2.25-2.8 2.25-1.14 0-2.28-.3-2.48-.45v-1.9l1.34.1.14.75c.05.1.05.15.15.2.15.05.5.15.99.15.64 0 1.04-.2 1.04-.7 0-.5-.5-.7-1.14-.8-1.04-.2-2.42-.45-2.42-2.15 0-1.6 1.34-2.3 2.77-2.3.98 0 1.97.25 2.32.4v1.9l-1.34-.1-.2-.7zM84.5 17.7h-.05c-.49.5-1.08.85-2.12.85-1.58 0-1.82-1.1-1.82-1.95 0-1.3.74-1.9 2.32-2l1.43-.1v-.7c0-.6-.05-1.05-.84-1.05-.6 0-.9.1-.9.85l-1.77-.15c0-1.75 1.53-2 2.67-2 1.92 0 2.66.55 2.66 2.35v3.15c0 .2 0 .25.2.25l.6.1v1.05h-2.33l-.05-.65zm-.2-2.1l-.83.05c-.74.05-.99.25-.99.75s.3.7.7.7c.44 0 .83-.25 1.13-.45V15.6zm-2.21-5.2l1.92-2.25 1.04 1-2.22 1.9-.74-.65zm-6.47 6.95l1.04-.1c.2 0 .2-.1.2-.25v-4.95h-.05l-1.78 4.45h-2.07l-1.78-4.45h-.05V17c0 .2.05.25.2.25l1.08.1v1h-3.8v-1l.8-.1c.2-.05.2-.05.2-.25v-6.7c0-.2-.06-.25-.2-.25l-.8-.1V8.9h3.36l2.17 5.9h.05l2.27-5.9h3.26v1l-.84.1c-.2.05-.2.05-.2.25v6.7c0 .15.05.2.2.25l.84.1v1h-4.1v-.95zm-12.58.35H63c-.5.5-1.09.85-2.12.85-1.58 0-1.83-1.1-1.83-1.95 0-1.3.74-1.9 2.32-2l1.43-.1v-.7c0-.6-.05-1.05-.84-1.05-.59 0-.89.1-.89.85l-1.77-.15c0-1.75 1.53-2 2.66-2 1.93 0 2.67.55 2.67 2.35v3.15c0 .2 0 .25.2.25l.59.1v1.05H63.1l-.05-.65zm-.25-2.1l-.84.05c-.74.05-.98.25-.98.75s.3.7.69.7c.44 0 .84-.25 1.13-.45V15.6zm-6.76 2.05h-.1c-.54.55-1.13.9-2.07.9-1.48 0-2.42-1-2.42-3.45 0-2.6 1.29-3.6 2.67-3.6.74 0 1.28.25 1.77.65v-2c0-.15-.05-.2-.14-.25l-.7-.25.15-1.05h2.52v8.5c0 .2 0 .2.2.25l.59.1v1.05h-2.32l-.15-.85zm-.2-4.3c-.3-.2-.69-.4-1.08-.4-.94 0-1.28.9-1.28 2.05 0 1.25.34 1.95 1.13 1.95a2 2 0 001.23-.55v-3.05zm-7.6.85c0-.65-.04-1.15-.64-1.15-.44 0-1.03.25-1.28.5v3.5c0 .2 0 .25.2.25l.59.1v1.05h-3.45V17.4l.54-.1c.2-.05.2-.05.2-.25V13.2c0-.15-.05-.25-.15-.25l-.7-.25.16-1.05h2.17l.1.7.04.05a3.5 3.5 0 012.23-.85c1.38 0 1.87.8 1.87 2.2v3.35c0 .2 0 .25.2.25l.64.1v1.05h-2.71v-4.3zm-9.12 1.3c.05.95.44 1.55 1.48 1.55.49 0 1.03-.1 1.87-.45l.45 1.3c-.8.4-1.63.65-2.57.65-2.42 0-3.26-1.55-3.26-3.6 0-2.35 1.39-3.5 3.11-3.5 1.63 0 2.77.9 2.77 3.15 0 .15 0 .6-.05.85h-3.8v.05zm1.03-2.65c-.54 0-.98.3-1.03 1.4h1.97c0-1.1-.4-1.4-.94-1.4zm-5.13.35c-.05-.1-.05-.15-.15-.15-.34 0-.69.3-.89.45v3.45c0 .2 0 .25.2.25l1.24.1v1.05h-4.1V17.3l.54-.1c.2-.05.2-.05.2-.25v-3.8c0-.15-.05-.25-.15-.25l-.69-.25.15-1.05h2.22l.15 1.05h.1c.4-.65.98-1.15 1.77-1.15.3 0 .84.05 1.09.1v2.35l-1.48-.05-.2-.7zm-7.15 5.35a2.7 2.7 0 01-1.78-.65v1.85c0 .2 0 .25.2.25l1.28.1v1.05h-4.1V20.1l.5-.1c.2-.05.24-.1.24-.25v-6.6c0-.15-.04-.2-.14-.25l-.64-.25.14-1.05h2.22l.1.65.05.05c.6-.5 1.43-.8 2.12-.8 1.39 0 2.42.9 2.42 3.35 0 1.5-.54 3.7-2.61 3.7zM27.42 13c-.54 0-1.03.25-1.28.45v3.05c.3.25.69.5 1.18.5.84 0 1.19-.85 1.19-2.1-.05-1.35-.45-1.9-1.09-1.9zm-8.24 4.35l1.04-.1-.45-1.35h-3.1l-.45 1.35.99.1v1h-3.5v-1l.54-.15c.15-.05.24-.1.3-.25l2.7-8.05h2.23l2.71 8.05c.05.15.15.2.3.2l.59.15v1h-3.95v-.95h.05zm-.89-6.4h-.1l-1.13 3.55h2.32l-1.09-3.55z" fill="#2F3C46"/><path d="M102.74 27.41H3.67a2.46 2.46 0 01-2.46-2.5v-21c0-1.4 1.08-2.5 2.46-2.5h99.07c1.38 0 2.47 1.1 2.47 2.5v21c0 1.4-1.09 2.5-2.47 2.5z" stroke="#2F3C46" stroke-width="2" stroke-miterlimit="10"/></svg>