<svg width="359" height="90" viewBox="0 0 359 90" fill="none" xmlns="http://www.w3.org/2000/svg"><mask id="a" maskUnits="userSpaceOnUse" x="-95" y="-190" width="454" height="455"><path d="M144.86 264.14L358.64 24.7 119.18-189.1-94.6 50.37l239.46 213.77z" fill="#fff"/></mask><g mask="url(#a)"><path d="M42.63 183.38c23.59 18.93 55.67 18.71 82.89 9.42 16.66-5.68 32.06-14.5 46.99-23.68 15.68-9.66 31.3-19.55 46.95-29.31 14.8-9.2 32.23-17.6 45.86-28.6 11.64-9.39 22.96-29.35 24.87-43 4.34-30.98-1.8-53.54-20.9-75.97-11.87-13.96-31.16-26.1-44.56-38.59-20.36-19.02-41.17-39.77-65.57-53.71-12.44-7.11-26.13-12.3-40.33-14.2-15.15-2.06-30.88 1.03-45.08 6.14-15.32 5.53-29.64 12.14-41.63 23.44C9.92-63.75-2.58-33.97-6.62-3.9c-4.34 32.4.2 65.25 6.74 97.11 6.72 32.5 15.23 68.31 42.51 90.17z" fill="#6789A3"/></g></svg>