<svg width="259" height="35" viewBox="0 0 259 35" fill="none" xmlns="http://www.w3.org/2000/svg"><path fill-rule="evenodd" clip-rule="evenodd" d="M255.78 15.8l-.2-1.21-.06-.03c-.9.87-2 1.5-3.6 1.5-2.59 0-2.93-1.79-2.93-2.95 0-2.07 1.26-3.06 3.76-3.27l2.6-.2V8.57c0-1.3-.22-2.01-1.8-2.01-1.12 0-1.88.08-1.88 1.51l-2.21-.2c0-2.66 2.4-3 4.13-3 2.97 0 4.08.86 4.08 3.72v5.32c0 .33.02.38.33.42l1 .14v1.33h-3.22zm-.43-4.65l-1.94.16c-1.54.13-2 .58-2 1.58s.46 1.32 1.3 1.32c1 0 2.03-.62 2.64-1.24v-1.82zm-10.95 3.44l-.13-.03c-.9.92-1.92 1.5-3.48 1.5-2.35 0-3.9-1.54-3.9-5.41 0-4.12 1.92-5.76 4.3-5.76a5 5 0 013.02.93V2.3c0-.2-.06-.35-.26-.41l-1.17-.4.2-1.32h3.53v13.75c0 .33.02.38.33.42l1 .14v1.33h-3.26l-.18-1.22zm-.25-6.8c-.6-.5-1.47-1-2.37-1-1.77 0-2.46 1.58-2.46 3.8 0 2.54.76 3.52 2.13 3.52 1 0 1.99-.62 2.7-1.39V7.79zm-13.74 6.71l1.23-.16c.29-.04.33-.1.33-.42V7.25c0-.23-.06-.37-.27-.43l-1.13-.4.21-1.32h3.54v8.82c0 .33.02.38.33.42l1.2.14v1.33h-5.44v-1.3zm2.48-11.43c-.98 0-1.54-.56-1.54-1.56 0-.97.56-1.51 1.54-1.51.96 0 1.54.54 1.54 1.51 0 1-.58 1.56-1.54 1.56zm-4.08 3.87l-3.35 8.87h-2.73L219.35 7c-.1-.26-.18-.3-.43-.36l-.86-.19.27-1.36h4.83v1.36l-1.37.17 2.52 6.9h.08l2.54-6.9-1.35-.17.22-1.36h4.22v1.36l-.7.13c-.26.04-.4.08-.5.35zm-18.61 7.65l-.06-.03c-.9.87-2.01 1.5-3.6 1.5-2.59 0-2.94-1.79-2.94-2.95 0-2.07 1.27-3.06 3.77-3.27l2.6-.2V8.57c0-1.3-.22-2.01-1.8-2.01-1.13 0-1.88.08-1.88 1.51l-2.22-.2c0-2.66 2.4-3 4.14-3 2.97 0 4.08.86 4.08 3.72v5.32c0 .33.02.38.33.42l1 .14v1.33h-3.22l-.2-1.22zm-.23-3.44l-1.94.16c-1.54.13-2.01.58-2.01 1.58s.47 1.32 1.31 1.32c1 0 2.03-.62 2.64-1.24v-1.82zm-12.72 3.35l1.17-.16c.29-.04.33-.1.33-.42V2.32c0-.23-.06-.37-.27-.43l-1.16-.4.2-1.32h3.58v13.75c0 .33.03.38.33.42l1.15.14v1.33h-5.33v-1.3zm-11.9-3.42c.1 1.93.85 3.07 2.83 3.07 1 0 1.78-.2 3.01-.73l.66 1.66a8.5 8.5 0 01-3.93.98c-3.81 0-5.06-2.47-5.06-5.66 0-3.75 2.15-5.51 4.83-5.51 2.58 0 4.34 1.39 4.34 5 0 .26-.02.8-.06 1.2h-6.61zm2.3-4.39c-1.17 0-2.17.79-2.27 2.67h4.3c0-2.03-.92-2.67-2.03-2.67zm-9.25 7.9l-.13-.03c-.9.92-1.92 1.5-3.48 1.5-2.35 0-3.91-1.54-3.91-5.41 0-4.12 1.92-5.76 4.3-5.76a5 5 0 013.03.93V2.3c0-.2-.06-.35-.27-.41l-1.16-.4.2-1.32h3.52v13.75c0 .33.02.38.33.42l1 .14v1.33h-3.25l-.19-1.22zm-.25-6.8c-.6-.5-1.48-1-2.38-1-1.76 0-2.46 1.58-2.46 3.8 0 2.54.76 3.52 2.13 3.52 1 0 2-.62 2.7-1.39V7.79zM167.52 35c-1 0-1.52-.48-1.52-1.43 0-.93.51-1.43 1.52-1.43.98 0 1.5.5 1.5 1.43 0 .93-.52 1.43-1.5 1.43zm-2.2-22.3c0 2.44-2 3.36-4.33 3.36a9.64 9.64 0 01-3.85-.73v-2.82l1.7.1.2 1.27c.02.17.06.23.25.3.26.1.92.28 1.84.28 1.27 0 2.05-.37 2.05-1.43 0-1.16-1.31-1.35-2.68-1.66-1.56-.35-3.2-.85-3.2-3.04 0-2.5 2.07-3.44 4.28-3.44 1.52 0 2.95.4 3.44.6v2.8l-1.7-.1-.22-1.2c-.02-.15-.06-.24-.23-.3a5.4 5.4 0 00-1.47-.2c-1.31 0-1.95.47-1.95 1.3 0 1.1 1.15 1.35 2.44 1.66 1.62.4 3.44.89 3.44 3.25zm-12.52 1.89l-.07-.03c-.9.87-2 1.5-3.6 1.5-2.58 0-2.93-1.79-2.93-2.95 0-2.07 1.27-3.06 3.77-3.27l2.6-.2V8.57c0-1.3-.22-2.01-1.8-2.01-1.13 0-1.89.08-1.89 1.51l-2.2-.2c0-2.66 2.39-3 4.13-3 2.97 0 4.07.86 4.07 3.72v5.32c0 .33.03.38.33.42l1 .14v1.33h-3.2l-.21-1.22zm-.23-3.44l-1.94.16c-1.54.13-2.01.58-2.01 1.58s.47 1.32 1.3 1.32c1.01 0 2.04-.62 2.65-1.24v-1.82zm-2.52 13.62v-3.53c0-.2-.06-.35-.27-.41l-1.16-.4.2-1.32h3.52v13.76c0 .33.03.37.33.41l1 .14v1.33h-3.25l-.19-1.22-.12-.02c-.9.9-1.92 1.49-3.48 1.49-2.36 0-3.91-1.53-3.91-5.4 0-4.13 1.92-5.77 4.3-5.77a5 5 0 013.03.94zm-4.9 4.76c0 2.55.76 3.52 2.14 3.52 1 0 1.98-.62 2.7-1.39v-4.93c-.6-.5-1.48-1-2.38-1-1.76 0-2.46 1.58-2.46 3.8zM145 12.7c0 2.44-2 3.36-4.34 3.36a9.64 9.64 0 01-3.85-.73v-2.82l1.7.1.2 1.27c.03.17.07.23.25.3.27.1.92.28 1.84.28 1.27 0 2.05-.37 2.05-1.43 0-1.16-1.3-1.35-2.68-1.66-1.56-.35-3.2-.85-3.2-3.04 0-2.5 2.07-3.44 4.28-3.44 1.52 0 2.95.4 3.45.6v2.8l-1.7-.1-.23-1.2c-.02-.15-.06-.24-.22-.3a5.4 5.4 0 00-1.48-.2c-1.31 0-1.94.47-1.94 1.3 0 1.1 1.14 1.35 2.43 1.66 1.62.4 3.44.89 3.44 3.25zm-4.65 14.84v5.33c0 .33.02.37.33.41l1 .14v1.33h-3.21l-.2-1.22-.07-.02c-.9.87-2 1.49-3.6 1.49-2.58 0-2.93-1.78-2.93-2.94 0-2.07 1.27-3.07 3.77-3.28l2.6-.2v-1.06c0-1.3-.23-2-1.8-2-1.13 0-1.89.07-1.89 1.5l-2.21-.2c0-2.66 2.4-2.99 4.14-2.99 2.97 0 4.07.85 4.07 3.71zm-4.26 2.72c-1.53.12-2 .58-2 1.57 0 1 .47 1.33 1.3 1.33 1.01 0 2.03-.63 2.65-1.25V30.1l-1.95.17zm-5.77-14.2c-3.75 0-5.1-2.32-5.1-5.5 0-3.43 1.7-5.67 5.3-5.67 3.6 0 5 2.26 5 5.4 0 3.49-1.6 5.77-5.2 5.77zm.14-9.37c-1.74 0-2.78 1.1-2.78 3.75s.94 3.86 2.7 3.86c1.74 0 2.7-1.17 2.7-3.88 0-2.63-.88-3.73-2.62-3.73zm-9.48 7.46c1.03 0 1.95-.29 2.6-.64l.68 1.61c-.86.54-2.25.94-3.67.94-3.58 0-5.14-2.3-5.14-5.47 0-3.9 2.27-5.7 5.45-5.7 1.55 0 2.8.43 3.34.74v2.95l-1.7-.09-.25-1.36c-.02-.15-.06-.23-.22-.3-.27-.1-.76-.18-1.27-.18-1.58 0-2.9 1-2.9 3.75 0 2.82 1.3 3.75 3.08 3.75zm-12.35 19.3l1.02-.13c.3-.04.33-.16.33-.41V28.1c0-1.24-.14-2.28-1.45-2.28-1.05 0-2.13.58-2.8 1.08v5.97c0 .33.01.37.32.41l1.09.14v1.33h-5.08V33.4l.98-.12c.29-.04.33-.1.33-.41v-6.68c0-.22-.06-.37-.27-.43l-1.13-.4.21-1.32h3.03l.16 1.14.09.02a6.64 6.64 0 013.83-1.37c2.2 0 3.05 1.41 3.05 3.8v5.24c0 .33.02.37.33.41l1.12.14v1.33h-5.16v-1.3zm1.46-20.75c0 2.44-2.01 3.36-4.34 3.36a9.66 9.66 0 01-3.86-.73v-2.82l1.7.1.2 1.27c.03.17.07.23.25.3.27.1.93.28 1.85.28 1.27 0 2.05-.37 2.05-1.43 0-1.16-1.32-1.35-2.69-1.66-1.55-.35-3.2-.85-3.2-3.04 0-2.5 2.08-3.44 4.29-3.44 1.51 0 2.95.4 3.44.6v2.8l-1.7-.1-.23-1.2c-.02-.15-.06-.24-.22-.3a5.4 5.4 0 00-1.48-.2c-1.3 0-1.94.47-1.94 1.3 0 1.1 1.14 1.35 2.44 1.66 1.61.4 3.44.89 3.44 3.25zM97.77 33.53l-.06-.02c-.9.87-2.01 1.49-3.6 1.49-2.59 0-2.94-1.78-2.94-2.94 0-2.07 1.27-3.07 3.77-3.28l2.6-.2v-1.06c0-1.3-.22-2-1.8-2-1.13 0-1.88.07-1.88 1.5l-2.22-.2c0-2.66 2.4-2.99 4.14-2.99 2.97 0 4.08.85 4.08 3.71v5.33c0 .33.02.37.32.41l1 .14v1.33h-3.2l-.21-1.22zm-.23-3.44l-1.94.17c-1.54.12-2.01.58-2.01 1.57 0 1 .47 1.33 1.31 1.33 1 0 2.03-.63 2.64-1.25V30.1zm-3.56-19c.1 1.92.84 3.06 2.83 3.06 1 0 1.78-.2 3-.73l.66 1.66a8.5 8.5 0 01-3.93.98c-3.81 0-5.06-2.47-5.06-5.66 0-3.75 2.15-5.51 4.83-5.51 2.58 0 4.34 1.39 4.34 5 0 .26-.02.8-.06 1.2h-6.61zm2.3-4.4c-1.17 0-2.18.79-2.28 2.67h4.3c0-2.03-.92-2.67-2.03-2.67zm-7.7.42c-.05-.19-.07-.23-.25-.23-.78 0-1.66.68-2.07 1.08v5.94c0 .33.04.4.35.42l1.92.16v1.33H82.6v-1.35l.99-.12c.28-.04.32-.1.32-.42V7.25c0-.23-.06-.35-.26-.43l-1.13-.4.2-1.32h3.06l.22 1.5.06.03c.68-.9 1.64-1.74 3.01-1.74.47 0 1.23.08 1.6.19v3.4l-1.84-.09-.25-1.28zm-6.89 24.53c0 2.45-2 3.36-4.34 3.36a9.64 9.64 0 01-3.85-.73v-2.81l1.7.1.2 1.26c.02.17.06.23.25.3.27.1.92.28 1.84.28 1.27 0 2.05-.37 2.05-1.42 0-1.16-1.31-1.35-2.68-1.66-1.56-.35-3.2-.85-3.2-3.05 0-2.5 2.07-3.44 4.28-3.44 1.52 0 2.95.4 3.44.6v2.8l-1.7-.1-.22-1.2c-.02-.15-.06-.23-.23-.3a5.4 5.4 0 00-1.47-.2c-1.31 0-1.95.48-1.95 1.3 0 1.1 1.15 1.35 2.44 1.66 1.62.4 3.44.9 3.44 3.25zm-5.53-15.58c-3.75 0-5.1-2.32-5.1-5.5 0-3.43 1.7-5.67 5.3-5.67 3.61 0 5 2.26 5 5.4 0 3.49-1.6 5.77-5.2 5.77zm.15-9.37c-1.75 0-2.79 1.1-2.79 3.75s.94 3.86 2.7 3.86c1.74 0 2.7-1.17 2.7-3.88 0-2.63-.87-3.73-2.61-3.73zm-8.63-3.62c-.96 0-1.53-.56-1.53-1.56 0-.97.57-1.51 1.53-1.51.97 0 1.54.54 1.54 1.51 0 1-.57 1.56-1.54 1.56zm1.42 13.98c0 2.34-1.07 3.38-3.2 3.38-1.41 0-2.6-.54-3.07-.96l.78-1.4c.35.24 1.08.58 1.82.58 1 0 1.31-.56 1.31-2.04V7.25c0-.25-.04-.37-.24-.43l-1.27-.4.2-1.32h3.67v11.95zm-11.53-5.97c.1 1.93.84 3.07 2.82 3.07 1 0 1.78-.2 3.01-.73l.66 1.66a8.5 8.5 0 01-3.93.98c-3.81 0-5.06-2.47-5.06-5.66 0-3.75 2.15-5.51 4.83-5.51 2.58 0 4.34 1.39 4.34 5 0 .26-.02.8-.06 1.2h-6.61zm2.3-4.39c-1.18 0-2.18.79-2.28 2.67h4.3c0-2.03-.92-2.67-2.03-2.67zM48.94 14.5l1.06-.14c.29-.04.33-.17.33-.42V9.07c0-1.18-.15-2.17-1.3-2.17-.91 0-1.88.41-2.51.83.06.35.08.74.08 1.16v5.03c0 .33.02.38.33.42l.94.14v1.33h-5.04v-1.3l1.09-.15c.3-.04.32-.17.32-.42V9.18c0-1.2-.06-2.3-1.26-2.3-.99 0-1.87.52-2.54 1.06v5.98c0 .33.02.38.32.42l1 .14v1.33h-4.99v-1.3l.98-.17c.29-.04.33-.1.33-.42V7.25c0-.23-.06-.37-.27-.43l-1.12-.4.2-1.32h3.03l.17 1.16.08.02a5.54 5.54 0 013.5-1.4c.98 0 1.9.3 2.44 1.25a6.25 6.25 0 013.56-1.24c2.28 0 3.01 1.39 3.01 3.54v5.5c0 .32.02.37.33.4l1.13.15v1.33h-5.2v-1.3zM29.94 35c-3.75 0-5.1-2.32-5.1-5.49 0-3.44 1.7-5.68 5.3-5.68 3.6 0 5 2.26 5 5.41 0 3.48-1.6 5.76-5.2 5.76zm.14-9.36c-1.74 0-2.78 1.1-2.78 3.75s.94 3.85 2.7 3.85c1.74 0 2.7-1.16 2.7-3.88 0-2.63-.88-3.72-2.62-3.72zm1.33-12.94c0 2.44-2 3.36-4.34 3.36a9.65 9.65 0 01-3.85-.73v-2.82l1.7.1.2 1.27c.03.17.07.23.25.3.27.1.92.28 1.85.28 1.27 0 2.04-.37 2.04-1.43 0-1.16-1.3-1.35-2.68-1.66-1.55-.35-3.2-.85-3.2-3.04 0-2.5 2.07-3.44 4.29-3.44 1.51 0 2.95.4 3.44.6v2.8l-1.7-.1-.23-1.2c-.02-.15-.06-.24-.22-.3a5.4 5.4 0 00-1.48-.2c-1.3 0-1.94.47-1.94 1.3 0 1.1 1.14 1.35 2.43 1.66 1.62.4 3.44.89 3.44 3.25zm-7.5 22.05h-5.15v-1.3l1.02-.13c.29-.04.33-.16.33-.41V28.1c0-1.24-.14-2.28-1.45-2.28-1.05 0-2.13.58-2.81 1.08v5.97c0 .33.02.37.33.41l1.08.14v1.33h-5.08V33.4l.99-.12c.28-.04.32-.1.32-.41v-6.68c0-.22-.06-.37-.26-.43l-1.13-.4.2-1.32h3.04l.16 1.14.08.02a6.63 6.63 0 013.83-1.37c2.22 0 3.06 1.41 3.06 3.8v5.24c0 .33.02.37.32.41l1.13.14v1.33zM18.89 14.6l-.06-.03c-.9.87-2 1.5-3.6 1.5-2.58 0-2.93-1.79-2.93-2.95 0-2.07 1.27-3.06 3.77-3.27l2.6-.2V8.57c0-1.3-.23-2.01-1.8-2.01-1.13 0-1.89.08-1.89 1.51l-2.21-.2c0-2.66 2.4-3 4.14-3 2.96 0 4.07.86 4.07 3.72v5.32c0 .33.02.38.33.42l1 .14v1.33H19.1l-.2-1.22zm-.22-3.44l-1.95.16c-1.54.13-2 .58-2 1.58s.46 1.32 1.3 1.32c1 0 2.03-.62 2.65-1.24v-1.82zM0 14.48l1.29-.14c.29-.04.33-.1.33-.42V2.72c0-.32-.04-.38-.33-.42L0 2.16V.8h6.04v1.35l-1.7.16c-.3.02-.33.1-.33.4v11.33h4.6c.22 0 .28-.02.32-.23l.33-1.97h1.72v3.96H0v-1.33zm46 9.35c1.55 0 2.8.44 3.33.75v2.94l-1.7-.08-.24-1.37c-.02-.14-.06-.23-.23-.29a3.9 3.9 0 00-1.27-.19c-1.57 0-2.88 1-2.88 3.75 0 2.82 1.29 3.75 3.07 3.75a5.6 5.6 0 002.6-.64l.67 1.62c-.86.54-2.25.93-3.66.93-3.59 0-5.14-2.3-5.14-5.47 0-3.9 2.27-5.7 5.45-5.7zm8.13.21v6.92c0 1.39.22 2.13 1.37 2.13 1.19 0 2.2-.78 2.84-1.45V26.1c0-.33-.02-.37-.32-.45l-.99-.25.19-1.35h3.48v8.83c0 .26.04.39.27.41l1.06.14v1.33H58.8l-.19-1.26-.06-.02A5.8 5.8 0 0154.72 35c-2.21 0-2.95-1.14-2.95-3.52v-5.39c0-.33-.02-.37-.33-.45l-1.04-.25.18-1.35h3.55zm13.8-.2c2.58 0 4.34 1.38 4.34 4.99 0 .27-.02.8-.06 1.2h-6.62c.1 1.92.84 3.06 2.83 3.06 1 0 1.78-.2 3.01-.72l.66 1.66a8.5 8.5 0 01-3.94.97c-3.8 0-5.06-2.47-5.06-5.66 0-3.75 2.16-5.5 4.84-5.5zm1.99 4.47c0-2.03-.93-2.67-2.03-2.67-1.17 0-2.17.78-2.28 2.67h4.3zm16.66-7.17v2.7c0 .14 0 .2.17.2h2.97v1.7h-3.14v5.63c0 1.29.33 1.76 1.48 1.76.61 0 1.25-.16 1.78-.35l.47 1.5c-.84.39-1.94.72-3.03.72-2.15 0-3.05-.95-3.05-3v-6.05c0-.13 0-.21-.16-.21h-1.48v-1.47c1.6-.2 2.23-1.3 2.5-3.13h1.5zm33.34 4.62l-1.12-.4.2-1.32h3.03l.17 1.14.08.02a6.63 6.63 0 013.83-1.37c2.21 0 3.05 1.41 3.05 3.8v5.24c0 .33.02.37.33.41l1.13.14v1.33h-5.17v-1.3l1.03-.13c.28-.04.33-.16.33-.41V28.1c0-1.24-.15-2.28-1.46-2.28-1.04 0-2.13.58-2.8 1.08v5.97c0 .33.02.37.33.41l1.08.14v1.33h-5.08V33.4l.98-.12c.29-.04.33-.1.33-.41v-6.68c0-.22-.06-.37-.27-.43zm38.67 3.02l2.6-.2v-1.06c0-1.3-.22-2-1.8-2-1.13 0-1.89.07-1.89 1.5l-2.2-.2c0-2.66 2.39-2.99 4.13-2.99 2.97 0 4.07.85 4.07 3.71v5.33c0 .33.03.37.33.41l1 .14v1.33h-3.21l-.2-1.22-.06-.02c-.9.87-2.01 1.49-3.61 1.49-2.58 0-2.93-1.78-2.93-2.94 0-2.07 1.27-3.07 3.77-3.28zm-.04 4.38c1 0 2.03-.63 2.64-1.25V30.1l-1.94.17c-1.54.12-2.01.58-2.01 1.57 0 1 .47 1.33 1.3 1.33z" fill="#363535"/></svg>