<svg width="357" height="90" viewBox="0 0 357 90" fill="none" xmlns="http://www.w3.org/2000/svg"><mask id="a" maskUnits="userSpaceOnUse" x="-97" y="-190" width="454" height="455"><path d="M132.8 264.5L356.99 34.73 127.23-189.44-96.95 40.32l229.76 224.17z" fill="#fff"/></mask><g mask="url(#a)"><path d="M54.66 188.99c25.27 16.6 57.2 13.35 83.4 1.52 16.06-7.24 30.54-17.47 44.54-28.03 14.7-11.1 29.3-22.43 43.96-33.63 13.87-10.56 30.42-20.58 42.94-32.82 10.7-10.44 20.08-31.4 20.69-45.16 1.38-31.25-6.87-53.13-28.02-73.65-13.13-12.77-33.49-23.03-48-34.19-22.07-17-44.76-35.69-70.37-47.25-13.06-5.9-27.18-9.77-41.5-10.32-15.27-.6-30.64 3.95-44.3 10.39-14.72 6.96-28.34 14.9-39.2 27.28C-1.35-53.93-10.96-23.1-12.13 7.21c-1.25 32.66 6.38 64.95 15.91 96.04 9.77 31.73 21.64 66.56 50.87 85.74z" fill="#EABE10"/></g></svg>