<svg width="218" height="50" viewBox="0 0 218 50" fill="none" xmlns="http://www.w3.org/2000/svg"><mask id="a" maskUnits="userSpaceOnUse" x="-62" y="-143" width="280" height="352"><path d="M94.88 208.48l122.8-182.34L61.65-142.7-61.16 39.65 94.88 208.48z" fill="#fff"/></mask><g mask="url(#a)"><path d="M44.92 152.38c16.87 11.44 36.07 7.2 51.05-3.34 9.17-6.45 17.13-15.12 24.75-24.01 8.01-9.36 15.95-18.88 23.93-28.3 7.55-8.9 22.23-23.13 28.82-33.24 5.62-8.63 28-36.5 15.47-63.05.78-23.83-21.65-13.14-33.86-25.36-9.12-9.13-24.25-13.11-34.08-20.92-14.94-11.92-30.41-25.1-47.04-32.62-8.49-3.84-17.44-6.06-26.22-5.7-9.39.35-18.37 4.7-26.15 10.4C13.2-67.6 5.58-60.75.01-50.62c-10.3 18.77-13.5 43.06-11.59 66.49C-9.5 41.12-2.06 65.6 6.45 89.05c8.7 23.92 18.97 50.14 38.47 63.33z" fill="#ECBDC2"/></g></svg>