<svg width="103" height="27" viewBox="0 0 103 27" fill="none" xmlns="http://www.w3.org/2000/svg"><path fill-rule="evenodd" clip-rule="evenodd" d="M88.21 12.2c-.04-.1-.04-.14-.14-.19a2.7 2.7 0 00-.77-.1c-.62 0-.95.24-.95.63 0 .53.67.62 1.39.82.95.24 2.05.57 2.05 2.06 0 1.54-1.2 2.17-2.72 2.17a6.1 6.1 0 01-2.4-.44v-1.82l1.3.1.14.71c.05.1.05.15.14.2.15.04.48.14.96.14.62 0 1-.2 1-.67 0-.48-.47-.68-1.1-.77-1-.2-2.34-.43-2.34-2.07 0-1.54 1.29-2.21 2.68-2.21.96 0 1.91.24 2.25.38v1.83l-1.3-.1-.19-.67zm-6.36 4.57h-.05c-.48.48-1.05.82-2.06.82-1.53 0-1.77-1.06-1.77-1.88 0-1.25.72-1.83 2.25-1.92l1.39-.1v-.67c0-.58-.05-1.01-.82-1.01-.57 0-.86.1-.86.82l-1.72-.15c0-1.68 1.48-1.92 2.58-1.92 1.87 0 2.59.53 2.59 2.26v3.03c0 .19 0 .24.2.24l.57.1v1H81.9l-.05-.62zm-.2-2.02l-.8.05c-.73.05-.96.24-.96.72s.28.67.67.67c.43 0 .8-.24 1.1-.43v-1.01zm-2.15-5l1.87-2.16 1 .96-2.15 1.82-.72-.62zm-6.27 6.68l1-.1c.2 0 .2-.09.2-.23v-4.76h-.05l-1.72 4.28h-2.01l-1.73-4.28h-.04v4.76c0 .19.04.24.19.24l1.05.1v.95h-3.69v-.96l.77-.1c.2-.04.2-.04.2-.23V9.65c0-.19-.06-.24-.2-.24l-.77-.1v-1h3.26l2.1 5.67h.05l2.2-5.67h3.16v.96l-.8.1c-.2.04-.2.04-.2.24v6.44c0 .14.05.19.2.24l.8.1v.96h-3.97v-.92zm-12.2.34h-.05c-.48.48-1.06.82-2.06.82-1.53 0-1.77-1.06-1.77-1.88 0-1.25.72-1.83 2.25-1.92l1.39-.1v-.67c0-.58-.05-1.01-.82-1.01-.57 0-.86.1-.86.82l-1.72-.15c0-1.68 1.48-1.92 2.58-1.92 1.87 0 2.59.53 2.59 2.26v3.03c0 .19 0 .24.19.24l.57.1v1h-2.25l-.04-.62zm-.24-2.02l-.82.05c-.72.05-.95.24-.95.72s.28.67.67.67c.43 0 .8-.24 1.1-.43v-1.01zm-6.56 1.97h-.1c-.52.53-1.1.87-2 .87-1.44 0-2.35-.96-2.35-3.32 0-2.5 1.24-3.46 2.58-3.46.72 0 1.25.24 1.73.62V9.51c0-.14-.05-.2-.15-.24l-.67-.24.14-1.01h2.45v8.17c0 .2 0 .2.19.24l.57.1v1h-2.25l-.14-.8zm-.2-4.13a2 2 0 00-1.05-.39c-.9 0-1.24.87-1.24 1.97 0 1.2.33 1.88 1.1 1.88.43 0 .86-.24 1.2-.53v-2.93zm-7.36.81c0-.62-.05-1.1-.63-1.1-.43 0-1 .24-1.24.48v3.36c0 .2 0 .24.19.24l.57.1v1.01h-3.35v-1l.53-.1c.2-.05.2-.05.2-.25v-3.7c0-.14-.06-.24-.15-.24l-.67-.24.14-1h2.1l.1.66.05.05c.62-.48 1.3-.81 2.16-.81 1.34 0 1.81.77 1.81 2.11v3.22c0 .2 0 .24.2.24l.62.1v1h-2.63V13.4zm-8.86 1.25c.05.92.43 1.5 1.44 1.5.47 0 1-.1 1.82-.44l.43 1.25c-.77.39-1.58.63-2.5.63-2.34 0-3.15-1.5-3.15-3.46 0-2.26 1.34-3.37 3.01-3.37 1.58 0 2.68.87 2.68 3.03 0 .14 0 .58-.04.82H37.8v.04zm1-2.54c-.52 0-.95.28-1 1.34h1.91c0-1.06-.38-1.34-.9-1.34zm-4.97.33c-.05-.1-.05-.14-.15-.14-.33 0-.67.29-.86.43v3.32c0 .19 0 .24.2.24l1.19.1v1h-3.97v-1l.52-.1c.2-.05.2-.05.2-.24v-3.66c0-.14-.05-.24-.15-.24l-.67-.24.14-1h2.16l.14 1h.1c.38-.62.96-1.1 1.72-1.1.29 0 .82.05 1.05.1v2.25l-1.43-.04-.2-.68zM26.9 17.6c-.63 0-1.2-.2-1.73-.63v1.78c0 .2 0 .24.2.24l1.24.1v1h-3.97v-1l.47-.1c.2-.05.24-.1.24-.24v-6.35c0-.14-.04-.19-.14-.24l-.62-.24.14-1h2.16l.1.62.04.05a3.42 3.42 0 012.06-.77c1.34 0 2.34.86 2.34 3.22 0 1.44-.52 3.56-2.53 3.56zm-.43-5.34c-.53 0-1.01.24-1.25.43v2.94c.29.24.67.48 1.15.48.81 0 1.15-.82 1.15-2.02-.05-1.3-.43-1.83-1.05-1.83zm-8 4.18l1-.1-.42-1.3h-3.02l-.43 1.3.96.1v.96h-3.4v-.96l.53-.14c.14-.05.23-.1.28-.24L16.6 8.3h2.16l2.63 7.74c.05.14.15.19.29.19l.57.14v.97h-3.83v-.92h.05zm-.86-6.15h-.1l-1.1 3.41h2.25l-1.05-3.41z" fill="#000"/><path d="M99.6 26H3.4A2.38 2.38 0 011 23.6V3.4C1 2.06 2.05 1 3.4 1h96.2c1.35 0 2.4 1.06 2.4 2.4v20.2c0 1.34-1.05 2.4-2.4 2.4z" stroke="#2F3C46" stroke-miterlimit="10"/></svg>