<svg xmlns="http://www.w3.org/2000/svg" width="151" height="33" xmlns:v="https://vecta.io/nano"><path fill-rule="evenodd" d="M149.192 6.312c-.019-.136-.038-.195-.193-.253-.272-.098-.853-.215-1.512-.215-1.414 0-2.054.624-2.054 1.462 0 1.112 1.163 1.346 2.422 1.677 1.512.39 3.159.858 3.159 2.964 0 2.261-1.88 3.041-3.934 3.041-1.569 0-3.158-.448-3.507-.663v-2.593l1.298.078.233 1.345a.28.28 0 0 0 .232.273c.252.098.931.312 1.899.312 1.298 0 2.132-.487 2.132-1.54 0-1.17-1.105-1.443-2.345-1.735-1.511-.351-3.216-.741-3.216-2.886 0-2.222 1.86-3.041 3.856-3.041 1.395 0 2.654.37 3.061.546v2.515l-1.298-.078-.233-1.209zm-9.222 7.175l-.058-.02c-.93.878-2.015 1.521-3.507 1.521-2.423 0-2.733-1.677-2.733-2.671 0-1.95 1.202-2.866 3.527-3.061l2.616-.214V8.008c0-1.423-.272-2.125-1.957-2.125-1.182 0-2.035.039-2.054 1.501l-1.667-.175c0-2.398 2.209-2.671 3.74-2.671 2.752 0 3.682.78 3.682 3.47v5.167c0 .312.019.351.31.39l.988.136v1.053h-2.713l-.174-1.267zm-.155-3.217l-2.19.195c-1.666.156-2.131.643-2.131 1.657 0 1.053.446 1.482 1.356 1.482 1.143 0 2.364-.936 2.965-1.501V10.27zm-11.49 3.412l.93-.117c.252-.039.349-.117.349-.39V8.554c0-1.267-.252-2.495-1.686-2.495-1.104 0-2.15.545-3.003 1.247v5.869c0 .312.019.351.31.39l1.085.136v1.053h-4.437v-1.072l.969-.117c.271-.039.31-.098.31-.39V6.546c0-.214-.058-.351-.252-.409l-1.105-.371.175-1.033h2.538l.155 1.15.058.02c1.008-.722 2.19-1.365 3.585-1.365 2.228 0 3.061 1.443 3.061 3.568v5.069c0 .312.02.351.31.39l1.105.136v1.053h-4.457v-1.072zm-10.327-.254l-.039-.019c-.891.76-2.034 1.579-3.739 1.579-2.132 0-2.79-1.306-2.79-3.548V6.487c0-.311-.02-.37-.31-.448l-1.008-.253.155-1.053h2.926v6.297c0 1.696.29 2.515 1.511 2.515 1.318 0 2.441-.916 3.12-1.696V6.468c0-.312-.02-.351-.31-.429l-.969-.253.155-1.053h2.887v8.422c0 .293.058.39.271.41l1.027.136v1.053h-2.732l-.155-1.326zm-11.761.098c.969 0 1.938-.312 2.48-.644l.562 1.287c-.736.488-2.034.819-3.313.819-3.314 0-4.728-2.047-4.728-5.128 0-3.704 2.131-5.322 5.077-5.322 1.414 0 2.518.39 2.945.604v2.593l-1.298-.058-.233-1.287c-.019-.137-.058-.214-.232-.273-.272-.097-.775-.175-1.318-.175-1.724 0-3.1 1.013-3.1 3.801 0 2.73 1.279 3.783 3.158 3.783zm-2.189 9.293v-3.646c0-.195-.077-.332-.252-.39l-1.162-.371.174-1.033h2.965V30.52c0 .312.019.351.31.39l.988.136v1.053h-2.732l-.155-1.287-.078-.019c-.891.858-1.899 1.54-3.41 1.54-2.209 0-3.662-1.443-3.662-5.03 0-3.841 1.725-5.42 4.05-5.42 1.162 0 2.209.39 2.964.936zm-2.693.526c-1.821 0-2.538 1.599-2.538 3.919 0 2.71.91 3.587 2.267 3.587 1.143 0 2.073-.76 2.926-1.618v-4.835c-.582-.487-1.628-1.053-2.655-1.053zm-3.701-9.858l-.058-.02c-.93.878-2.015 1.521-3.507 1.521-2.422 0-2.732-1.677-2.732-2.671 0-1.95 1.201-2.866 3.526-3.061l2.616-.214V8.008c0-1.423-.271-2.125-1.957-2.125-1.182 0-2.035.039-2.054 1.501l-1.666-.175c0-2.398 2.209-2.671 3.739-2.671 2.752 0 3.682.78 3.682 3.47v5.167c0 .312.019.351.31.39l.988.136v1.053h-2.713l-.174-1.267zm-.155-3.217l-2.189.195c-1.667.156-2.132.643-2.132 1.657 0 1.053.446 1.482 1.356 1.482 1.144 0 2.364-.936 2.965-1.501V10.27zm-7.305-4.017l-3.255 8.501h-2.015L81.65 6.312c-.097-.234-.175-.273-.407-.331l-.834-.176.233-1.072h4.069v1.072l-1.337.156 2.616 7.272 2.654-7.272-1.298-.156.213-1.072h3.759v1.072l-.639.117c-.272.059-.388.098-.485.331zm-7.168 16.566v-3.646c0-.195-.077-.332-.252-.39l-1.162-.371.174-1.033h2.965V30.52c0 .312.019.351.31.39l.988.136v1.053h-2.732l-.155-1.287-.078-.019c-.891.858-1.899 1.54-3.41 1.54-2.209 0-3.662-1.443-3.662-5.03 0-3.841 1.724-5.42 4.05-5.42 1.162 0 2.208.39 2.964.936zm-2.693.526c-1.822 0-2.538 1.599-2.538 3.919 0 2.71.91 3.587 2.267 3.587 1.143 0 2.073-.76 2.925-1.618v-4.835c-.581-.487-1.627-1.053-2.654-1.053zm-4.089-11.398c0 2.261-1.879 3.041-3.933 3.041-1.569 0-3.158-.448-3.507-.663v-2.593l1.298.078.233 1.345a.28.28 0 0 0 .232.273c.252.098.93.312 1.899.312 1.298 0 2.131-.487 2.131-1.54 0-1.17-1.104-1.443-2.344-1.735-1.511-.351-3.217-.741-3.217-2.886 0-2.222 1.861-3.041 3.856-3.041 1.395 0 2.655.37 3.062.546v2.515l-1.299-.078-.232-1.209c-.019-.136-.039-.195-.194-.253-.271-.098-.852-.215-1.511-.215-1.415 0-2.054.624-2.054 1.462 0 1.112 1.163 1.346 2.422 1.677 1.511.39 3.158.858 3.158 2.964zM65.2 13.487l-.058-.02c-.93.878-2.015 1.521-3.507 1.521-2.422 0-2.732-1.677-2.732-2.671 0-1.95 1.202-2.866 3.527-3.061l2.615-.214V8.008c0-1.423-.271-2.125-1.957-2.125-1.181 0-2.034.039-2.053 1.501l-1.667-.175c0-2.398 2.209-2.671 3.74-2.671 2.751 0 3.681.78 3.681 3.47v5.167c0 .312.02.351.31.39l.988.136v1.053h-2.712l-.175-1.267zm-.155-3.217l-2.189.195c-1.666.156-2.131.643-2.131 1.657 0 1.053.445 1.482 1.356 1.482 1.143 0 2.364-.936 2.964-1.501V10.27zm-1.917 16.273l-.039.974h-6.51c.058 1.969.852 3.315 2.964 3.315 1.085 0 1.763-.195 2.79-.702l.562 1.326c-.969.546-2.131.877-3.526.877-3.507 0-4.651-2.32-4.651-5.225 0-3.568 1.977-5.225 4.418-5.225 2.364 0 3.992 1.287 3.992 4.66zm-6.53-.371h4.767c-.039-2.223-1.047-2.866-2.229-2.866-1.298 0-2.383.702-2.538 2.866zm-3.275-12.49l1.201-.117c.272-.02.31-.098.31-.39V1.847c0-.214-.058-.351-.251-.409l-1.163-.371.174-1.033h3.004v13.141c0 .312.019.351.31.39l1.162.136v1.053h-4.747v-1.072zm.621 18.417h-4.456v-1.072l.93-.117c.252-.039.348-.117.348-.39v-4.699c0-1.228-.271-2.398-1.646-2.398-1.047 0-1.957.526-2.558.955a11.05 11.05 0 0 1 .058 1.19v4.952c0 .312.019.351.31.39l.949.136v1.053h-4.301v-1.072l.93-.117c.252-.039.349-.117.349-.39v-4.718c0-1.112-.078-2.379-1.473-2.379-1.007 0-2.034.604-2.771 1.209v5.888c0 .312.02.351.31.39l1.047.136v1.053h-4.399v-1.072l.969-.117c.271-.039.31-.098.31-.39v-6.629c0-.215-.058-.351-.252-.409l-1.104-.371.174-1.033h2.538l.155 1.15.059.02c1.027-.8 1.976-1.365 3.429-1.365.93 0 1.899.331 2.384 1.248.852-.624 1.995-1.248 3.429-1.248 2.209 0 2.868 1.365 2.868 3.626v5.011c0 .312.019.351.31.39l1.104.136v1.053zm-5.057-20.464c0 2.378-1.919 3.353-4.379 3.353-1.764 0-3.488-.468-3.837-.702v-2.827l2.073.156.194 1.111c.039.176.058.234.233.293.232.078.755.195 1.492.195 1.027 0 1.608-.293 1.608-1.014 0-.78-.775-1.014-1.763-1.189-1.628-.293-3.759-.644-3.759-3.198 0-2.417 2.054-3.412 4.282-3.412 1.53 0 3.022.351 3.565.566v2.827l-2.073-.137-.194-1.014c-.039-.175-.058-.234-.194-.273-.252-.077-.717-.156-1.24-.156-.969 0-1.511.371-1.511.995 0 .799 1.065.975 2.247 1.248 1.531.351 3.256.896 3.256 3.178zm-12.284 2.066l-.097-.019c-.737.721-1.706 1.306-3.256 1.306-2.441 0-2.829-1.677-2.829-2.885 0-1.95 1.182-2.828 3.624-3.003l2.228-.156V7.872c0-.917-.097-1.54-1.298-1.54-.93 0-1.415.136-1.415 1.306l-2.732-.234c0-2.632 2.384-3.003 4.166-3.003 2.945 0 4.127.8 4.127 3.529v4.738c0 .312.02.351.31.39l.93.156v1.54h-3.565l-.193-1.053zm-.33-3.139l-1.318.098c-1.143.078-1.55.37-1.55 1.15s.465 1.072 1.105 1.072c.659 0 1.318-.37 1.763-.702v-1.618zm-10.094 3.1l-.136-.019c-.814.799-1.763 1.345-3.178 1.345-2.286 0-3.759-1.462-3.759-5.186 0-3.919 1.957-5.401 4.108-5.401 1.124 0 1.996.39 2.732.936V2.374c0-.195-.077-.332-.252-.39l-1.066-.371.214-1.579h3.894v12.673c0 .292.02.331.31.37l.93.137v1.54h-3.604l-.193-1.092zm-.349-6.414c-.485-.332-1.105-.585-1.667-.585-1.433 0-1.995 1.345-1.995 3.08 0 1.892.542 2.944 1.763 2.944.659 0 1.376-.39 1.899-.838V7.248zm-12.672 7.74c-3.546 0-4.98-2.184-4.98-5.245 0-3.236 1.686-5.342 5.232-5.342 3.585 0 4.98 2.145 4.98 5.128 0 3.314-1.667 5.459-5.232 5.459zm.213-8.481c-1.278 0-2.131.799-2.131 3.139 0 2.359.756 3.295 2.054 3.295 1.259 0 2.034-.877 2.034-3.315 0-2.3-.697-3.119-1.957-3.119zm-7.149 6.297a4.58 4.58 0 0 0 1.569-.312l.524 1.716c-.834.409-2.054.78-3.159.78-2.306 0-3.178-.936-3.178-3.139V6.741c0-.117 0-.195-.155-.195H.467V4.811c1.705-.195 2.383-1.053 2.597-3.178h1.84v2.768c0 .137 0 .195.155.195h2.732v1.95H4.904v4.66c0 1.15.272 1.598 1.318 1.598zM2.153 23.482l-1.105-.371.175-1.033h2.538l.194 1.345.058.019c.639-.721 1.589-1.559 2.906-1.559a6.1 6.1 0 0 1 1.396.175v2.944l-1.376-.058-.233-1.346c-.019-.156-.058-.194-.232-.194-.872 0-1.86.799-2.306 1.228V30.5c0 .312.019.371.31.39l1.783.156v1.053H1.126v-1.072l.969-.117c.271-.039.31-.098.31-.39v-6.629c0-.215-.058-.351-.252-.409zm11.141-1.599c2.364 0 3.991 1.287 3.991 4.66l-.038.974h-6.511c.059 1.969.853 3.315 2.965 3.315 1.085 0 1.763-.195 2.79-.702l.562 1.326c-.969.546-2.131.877-3.526.877-3.508 0-4.651-2.32-4.651-5.225 0-3.568 1.977-5.225 4.418-5.225zm2.228 4.289c-.039-2.223-1.046-2.866-2.228-2.866-1.298 0-2.383.702-2.538 2.866h4.766zm7.847-4.289c1.415 0 2.519.39 2.945.604v2.593l-1.298-.058-.232-1.287c-.02-.137-.059-.214-.233-.273-.271-.097-.775-.176-1.318-.176-1.724 0-3.1 1.014-3.1 3.802 0 2.73 1.279 3.783 3.159 3.783.968 0 1.937-.312 2.48-.644l.562 1.287c-.737.488-2.035.819-3.314.819-3.313 0-4.727-2.047-4.727-5.128 0-3.704 2.131-5.322 5.076-5.322zm8.506 0c3.313 0 4.592 2.125 4.592 5.049 0 3.276-1.472 5.401-4.786 5.401-3.371 0-4.669-2.184-4.669-5.284 0-3.061 1.55-5.166 4.863-5.166zm-.135 9.027c1.879 0 2.906-1.19 2.906-3.861 0-2.554-.93-3.684-2.81-3.684-1.898 0-3.003 1.13-3.003 3.704 0 2.593.988 3.841 2.907 3.841zm33.46-7.428l-1.104-.371.174-1.033h2.539l.155 1.15.058.02c1.007-.722 2.189-1.365 3.584-1.365 2.229 0 3.062 1.443 3.062 3.568v5.069c0 .312.019.351.31.39l1.104.136v1.053h-4.456v-1.072l.93-.117c.252-.039.349-.117.349-.39v-4.621c0-1.267-.252-2.495-1.686-2.495-1.104 0-2.151.545-3.003 1.247v5.869c0 .312.019.351.31.39l1.085.136v1.053h-4.437v-1.072l.968-.117c.272-.039.31-.098.31-.39v-6.629c0-.215-.058-.351-.252-.409zm25.324 3.119l2.616-.214v-1.034c0-1.423-.271-2.125-1.957-2.125-1.182 0-2.034.039-2.054 1.501l-1.666-.175c0-2.398 2.209-2.671 3.739-2.671 2.752 0 3.682.78 3.682 3.47v5.167c0 .312.019.351.31.39l.988.136v1.053h-2.713l-.174-1.267-.058-.02c-.93.878-2.015 1.521-3.507 1.521-2.422 0-2.732-1.677-2.732-2.671 0-1.95 1.201-2.866 3.526-3.061zm-.349 4.348c1.144 0 2.364-.936 2.965-1.502v-1.832l-2.19.195c-1.666.156-2.131.643-2.131 1.657 0 1.053.446 1.482 1.356 1.482zm21.371-4.348l2.616-.214v-1.034c0-1.423-.271-2.125-1.957-2.125-1.182 0-2.034.039-2.054 1.501l-1.666-.175c0-2.398 2.209-2.671 3.74-2.671 2.751 0 3.681.78 3.681 3.47v5.167c0 .312.019.351.31.39l.988.136v1.053h-2.712l-.175-1.267-.058-.02c-.93.878-2.015 1.521-3.507 1.521-2.422 0-2.732-1.677-2.732-2.671 0-1.95 1.201-2.866 3.526-3.061zm-.348 4.348c1.143 0 2.364-.936 2.964-1.502v-1.832l-2.189.195c-1.667.156-2.132.643-2.132 1.657 0 1.053.446 1.482 1.357 1.482zm8.253-.449c.02.137.059.215.233.273.252.098.93.312 1.899.312 1.298 0 2.131-.487 2.131-1.54 0-1.17-1.104-1.443-2.344-1.735-1.512-.351-3.217-.741-3.217-2.886 0-2.222 1.86-3.041 3.856-3.041 1.395 0 2.655.37 3.061.546v2.515l-1.298-.078-.232-1.209c-.02-.136-.039-.195-.194-.253-.271-.098-.853-.215-1.511-.215-1.415 0-2.054.624-2.054 1.462 0 1.112 1.162 1.346 2.422 1.677 1.511.39 3.158.858 3.158 2.964 0 2.261-1.879 3.041-3.933 3.041-1.57 0-3.159-.448-3.507-.663v-2.593l1.298.078.232 1.345zm8.157-.624c.814 0 1.279.41 1.279 1.229s-.445 1.228-1.279 1.228-1.278-.409-1.278-1.228.445-1.229 1.278-1.229z"/></svg>