<svg width="139" height="37" viewBox="0 0 139 37" fill="none" xmlns="http://www.w3.org/2000/svg"><path fill-rule="evenodd" clip-rule="evenodd" d="M119.36 16.69c0-.16-.08-.24-.16-.24a3.48 3.48 0 00-1.08-.16c-.86 0-1.32.32-1.32.88 0 .73.93.89 1.94 1.13 1.32.32 2.8.8 2.8 2.9 0 2.17-1.64 3.05-3.73 3.05-1.48 0-2.95-.4-3.26-.64v-2.58l1.78.17.16.96c0 .16.08.24.23.24.23.08.62.16 1.24.16.86 0 1.4-.24 1.4-.88 0-.73-.62-.89-1.47-1.05-1.4-.24-3.19-.56-3.19-2.9 0-2.17 1.71-3.05 3.65-3.05 1.32 0 2.56.32 3.03.48v2.58l-1.79-.17-.23-.88zm-8.7 6.36h-.08a3.7 3.7 0 01-2.8 1.2c-2.09 0-2.4-1.53-2.4-2.57 0-1.77 1.01-2.58 3.1-2.74l1.87-.16v-.96c0-.8-.08-1.37-1.09-1.37-.77 0-1.16.16-1.16 1.2l-2.33-.24c0-2.33 2.02-2.73 3.57-2.73 2.49 0 3.5.72 3.5 3.14v4.26c0 .24 0 .32.23.32l.78.16v1.37h-3.03l-.16-.88zm-.23-2.82l-1.09.08c-.93.08-1.32.32-1.32 1.05 0 .72.39.96.93.96.55 0 1.1-.32 1.48-.64v-1.45zm-2.95-6.92l2.48-3.06 1.32 1.37-2.95 2.58-.85-.89zM99 22.64l1.32-.16c.24 0 .24-.08.24-.32v-6.68h-.08l-2.33 5.96h-2.72l-2.33-6.04v6.68c0 .24 0 .32.23.32l1.4.16v1.37h-4.97v-1.37l1.01-.16c.23 0 .23-.08.23-.32v-9.01c0-.24 0-.32-.23-.32l-1-.16v-1.37h4.42l2.87 7.96h.08l3.03-7.96h4.27v1.37l-1.09.16c-.23 0-.23.08-.23.32v9.01c0 .24.08.32.23.32l1.09.16v1.37H99v-1.29zm-16.62.4h-.08a3.7 3.7 0 01-2.8 1.21c-2.09 0-2.4-1.53-2.4-2.57 0-1.77 1.01-2.58 3.1-2.74l1.87-.16v-.96c0-.8-.08-1.37-1.09-1.37-.77 0-1.16.16-1.16 1.2l-2.33-.24c0-2.33 2.02-2.73 3.57-2.73 2.49 0 3.5.72 3.5 3.14v4.26c0 .24 0 .32.23.32l.78.16v1.37h-3.03l-.16-.88zm-.23-2.81l-1.09.08c-1 .08-1.32.32-1.32 1.05 0 .72.39.96.93.96.55 0 1.1-.32 1.48-.64v-1.45zm-8.93 2.82h-.08a3.5 3.5 0 01-2.72 1.2c-1.94 0-3.18-1.28-3.18-4.66 0-3.54 1.63-4.83 3.5-4.83.92 0 1.7.32 2.32.8v-2.65c0-.16-.07-.32-.23-.32l-.93-.33.15-1.44h3.34v11.42c0 .24 0 .32.24.32l.77.16v1.37h-3.03l-.15-1.04zm-.31-5.8a2.37 2.37 0 00-1.4-.56c-1.24 0-1.7 1.2-1.7 2.74 0 1.68.46 2.65 1.47 2.65.54 0 1.16-.32 1.63-.72v-4.1zm-9.94 1.13c0-.8-.08-1.53-.86-1.53-.62 0-1.4.4-1.7.64v4.67c0 .24 0 .32.23.32l.77.16v1.37h-4.5v-1.37l.78-.08c.23 0 .23-.08.23-.32V17.1a.45.45 0 00-.23-.4l-.86-.32.23-1.45h2.88l.15.88h.08a4.77 4.77 0 012.87-1.12c1.79 0 2.49 1.04 2.49 2.98v4.5c0 .24 0 .32.23.32l.86.16v1.37h-3.58v-5.63h-.07zm-12.04 1.77c.08 1.2.62 2.1 1.94 2.1.62 0 1.32-.17 2.49-.57l.62 1.77a6.92 6.92 0 01-3.34.88c-3.19 0-4.27-2.09-4.27-4.82 0-3.14 1.86-4.67 4.11-4.67 2.18 0 3.65 1.2 3.65 4.26v1.21h-5.2v-.16zm1.4-3.54c-.7 0-1.32.4-1.4 1.85h2.64c0-1.45-.54-1.85-1.24-1.85zm-6.84.48c0-.16-.08-.16-.23-.16-.47 0-.93.4-1.17.64v4.67c0 .24 0 .32.24.32l1.63.16v1.37H40.6v-1.45l.78-.08c.23 0 .23-.08.23-.32V17.1a.45.45 0 00-.23-.4l-.86-.32.16-1.45h2.87l.23 1.37h.08c.54-.89 1.24-1.61 2.33-1.61.39 0 1.17.08 1.4.16v3.22l-1.94-.08-.16-.89zm-9.32 7.16c-.85 0-1.63-.32-2.33-.88v2.5c0 .31 0 .31.24.31l1.7.16v1.37h-5.36v-1.37l.63-.08c.23 0 .3-.08.3-.4v-8.85c0-.16 0-.32-.23-.4l-.85-.32.15-1.45h2.88l.15.88h.08a4.28 4.28 0 012.8-1.12c1.86 0 3.18 1.2 3.18 4.5.08 2.18-.62 5.15-3.34 5.15zm-.62-7.48c-.7 0-1.32.4-1.7.64v4.1c.38.33.92.65 1.55.65 1.08 0 1.55-1.13 1.55-2.82 0-1.85-.54-2.57-1.4-2.57zm-10.8 5.87l1.33-.16-.63-1.85h-4.11l-.55 1.85 1.32.16v1.37h-4.58v-1.37l.7-.16c.23-.08.31-.16.39-.32l3.57-10.78h2.88l3.57 10.86c.08.24.23.24.39.32l.77.16v1.37h-5.04v-1.45zm-1.24-8.6h-.07l-1.48 4.74h3.1l-1.55-4.75z" fill="#000"/><path d="M134.74 36H4.26A3.34 3.34 0 011 32.62V4.38A3.34 3.34 0 014.26 1h130.48A3.34 3.34 0 01138 4.38v28.24a3.3 3.3 0 01-3.26 3.38z" stroke="#000" stroke-width="2" stroke-miterlimit="10"/></svg>