<svg xmlns="http://www.w3.org/2000/svg" width="143" height="77" xmlns:v="https://vecta.io/nano"><path fill-rule="evenodd" fill="#363535" d="M141.094 76.715c-1.09 0-1.647-.512-1.647-1.535 0-1.002.557-1.536 1.647-1.536 1.068 0 1.624.534 1.624 1.536s-.556 1.535-1.624 1.535zm-6.853-1.58l-.067-.022c-.979.934-2.18 1.602-3.916 1.602-2.804 0-3.182-1.914-3.182-3.16 0-2.225 1.38-3.293 4.094-3.515l2.826-.223v-1.135c0-1.402-.244-2.158-1.958-2.158-1.224 0-2.047.089-2.047 1.624l-2.403-.222c0-2.848 2.603-3.204 4.495-3.204 3.226 0 4.428.912 4.428 3.982v5.719c0 .356.022.401.356.445l1.09.156v1.424h-3.494l-.222-1.313zm-.245-3.694l-2.114.178c-1.668.134-2.18.624-2.18 1.692s.512 1.424 1.424 1.424c1.09 0 2.203-.668 2.87-1.336v-1.958zm-12.126 3.694l-.133-.022c-.98.979-2.092 1.602-3.783 1.602-2.559 0-4.25-1.647-4.25-5.808 0-4.428 2.092-6.185 4.673-6.185 1.335 0 2.447.378 3.293 1.001V61.94c0-.222-.067-.378-.289-.445l-1.269-.423.223-1.424h3.827v14.775c0 .356.022.401.356.445l1.09.156v1.424h-3.538l-.2-1.313zm-.267-7.298c-.645-.534-1.602-1.068-2.581-1.068-1.914 0-2.67 1.691-2.67 4.072 0 2.736.823 3.782 2.314 3.782 1.09 0 2.158-.667 2.937-1.491v-5.295zm-2.67-57.501c1.758.423 3.738.957 3.738 3.494 0 2.625-2.18 3.604-4.717 3.604-1.913 0-3.782-.511-4.183-.778v-3.027l1.847.112.222 1.357c.023.178.067.245.268.312.289.111 1.001.311 2.002.311 1.38 0 2.225-.4 2.225-1.535 0-1.246-1.424-1.447-2.915-1.78-1.691-.379-3.471-.913-3.471-3.271 0-2.693 2.247-3.694 4.651-3.694 1.646 0 3.204.423 3.738.645V9.09l-1.847-.111-.245-1.291c-.022-.155-.067-.244-.245-.311-.289-.089-.912-.223-1.602-.223-1.424 0-2.114.512-2.114 1.402 0 1.179 1.247 1.447 2.648 1.78zm-10.302 64.799l-.067-.022c-.979.934-2.18 1.602-3.916 1.602-2.803 0-3.182-1.914-3.182-3.16 0-2.225 1.38-3.293 4.094-3.515l2.826-.223v-1.135c0-1.402-.244-2.158-1.958-2.158-1.224 0-2.047.089-2.047 1.624l-2.403-.222c0-2.848 2.603-3.204 4.495-3.204 3.226 0 4.428.912 4.428 3.982v5.719c0 .356.022.401.356.445l1.09.156v1.424h-3.493l-.223-1.313zm-.245-3.694l-2.113.178c-1.669.134-2.181.624-2.181 1.692s.512 1.424 1.424 1.424c1.09 0 2.203-.668 2.87-1.336v-1.958zm-3.426-59.347c.111 2.069.912 3.293 3.071 3.293 1.09 0 1.936-.222 3.271-.779l.712 1.781c-1.224.623-2.648 1.045-4.273 1.045-4.138 0-5.496-2.647-5.496-6.074 0-4.028 2.337-5.919 5.252-5.919 2.803 0 4.717 1.491 4.717 5.363 0 .289-.022.867-.067 1.29h-7.187zm2.492-4.717c-1.268 0-2.359.845-2.47 2.87h4.673c0-2.18-1.001-2.87-2.203-2.87zm-8.589.445c-.044-.2-.066-.245-.266-.245-.846 0-1.803.734-2.248 1.157v6.386c0 .356.045.423.378.445l2.092.178v1.424h-6.453v-1.446l1.068-.133c.312-.045.356-.112.356-.445V7.978c0-.245-.066-.379-.289-.468l-1.224-.422.223-1.424h3.315l.245 1.624.067.022c.734-.957 1.78-1.869 3.27-1.869.512 0 1.336.089 1.736.2V9.29l-2.002-.088-.268-1.38zm-13.706 9.612c-4.072 0-5.54-2.492-5.54-5.896 0-3.694 1.847-6.097 5.763-6.097s5.429 2.425 5.429 5.808c0 3.738-1.736 6.185-5.652 6.185zm.156-10.057c-1.891 0-3.026 1.179-3.026 4.027s1.023 4.139 2.937 4.139c1.891 0 2.937-1.246 2.937-4.161 0-2.826-.957-4.005-2.848-4.005zm-.066 23.187a14.93 14.93 0 0 1-.067 1.29h-7.187c.111 2.07.912 3.294 3.07 3.294 1.091 0 1.936-.223 3.271-.779l.712 1.78c-1.224.623-2.648 1.046-4.272 1.046-4.139 0-5.496-2.648-5.496-6.075 0-4.027 2.336-5.919 5.251-5.919 2.804 0 4.718 1.491 4.718 5.363zm-7.232-.556h4.673c0-2.181-1.002-2.871-2.203-2.871-1.268 0-2.359.846-2.47 2.871zM75.723 3.483c-1.046 0-1.669-.601-1.669-1.669 0-1.046.623-1.624 1.669-1.624s1.669.578 1.669 1.624c0 1.068-.623 1.669-1.669 1.669zm1.535 15.019c0 2.515-1.157 3.627-3.471 3.627-.461 0-.887-.062-1.29-.147v12.921c0 .356.023.4.356.445l1.091.155v1.425h-3.538l-.2-1.313-.134-.023c-.979.98-2.092 1.603-3.783 1.603-2.559 0-4.25-1.647-4.25-5.808 0-4.428 2.092-6.186 4.673-6.186 1.335 0 2.448.379 3.293 1.002V22.42c0-.223-.067-.378-.289-.445l-1.268-.423.222-1.424h2.326l.299-.535c.378.267 1.179.623 1.98.623 1.091 0 1.424-.601 1.424-2.181V7.978c0-.267-.044-.401-.267-.468l-1.379-.422.222-1.424h3.983v12.838zm-7.32 9.814c-.645-.534-1.602-1.068-2.581-1.068-1.913 0-2.67 1.691-2.67 4.072 0 2.737.823 3.783 2.314 3.783 1.091 0 2.159-.668 2.937-1.491v-5.296zm-5.429-16.222c.111 2.069.912 3.293 3.071 3.293 1.09 0 1.935-.222 3.27-.779l.713 1.781c-1.224.623-2.648 1.045-4.273 1.045-4.138 0-5.496-2.647-5.496-6.074 0-4.028 2.337-5.919 5.252-5.919 2.803 0 4.717 1.491 4.717 5.363a14.95 14.95 0 0 1-.067 1.29h-7.187zm2.492-4.717c-1.268 0-2.359.845-2.47 2.87h4.673c0-2.18-1.001-2.87-2.203-2.87zm-12.082 8.389l1.157-.156c.312-.045.356-.178.356-.445V9.936c0-1.269-.155-2.337-1.401-2.337-1.002 0-2.048.445-2.737.89.066.379.089.801.089 1.246v5.408c0 .355.022.4.356.445l1.023.155v1.424h-5.474v-1.401l1.18-.156c.333-.045.356-.178.356-.445v-5.118c0-1.291-.067-2.47-1.38-2.47-1.068 0-2.025.556-2.759 1.135v6.431c0 .355.022.4.356.445l1.09.155v1.424h-5.429v-1.401l1.068-.178c.312-.045.356-.112.356-.445V7.978c0-.245-.067-.401-.289-.468l-1.224-.422.223-1.424h3.293l.178 1.246.089.022c1.135-.868 2.292-1.491 3.805-1.491 1.068 0 2.069.312 2.648 1.335 1.068-.69 2.247-1.335 3.871-1.335 2.47 0 3.271 1.491 3.271 3.805v5.897c0 .355.022.4.356.445l1.224.155v1.424h-5.652v-1.401zM43.995 29.184v5.719c0 .356.022.4.356.445l1.09.155v1.425h-3.493l-.223-1.313-.066-.023c-.979.935-2.181 1.603-3.917 1.603-2.803 0-3.181-1.914-3.181-3.16 0-2.225 1.379-3.293 4.094-3.516l2.826-.222v-1.135c0-1.402-.245-2.158-1.959-2.158-1.223 0-2.047.089-2.047 1.624l-2.403-.223c0-2.848 2.604-3.204 4.495-3.204 3.226 0 4.428.913 4.428 3.983zm-2.514 2.737l-2.114.178c-1.669.134-2.181.623-2.181 1.691s.512 1.424 1.424 1.424c1.091 0 2.203-.667 2.871-1.335v-1.958zM31.69 10.336c1.758.423 3.738.957 3.738 3.494 0 2.625-2.18 3.604-4.717 3.604-1.914 0-3.783-.511-4.183-.778v-3.027l1.847.112.222 1.357c.022.178.067.245.267.312.289.111 1.001.311 2.003.311 1.379 0 2.225-.4 2.225-1.535 0-1.246-1.424-1.447-2.915-1.78-1.691-.379-3.471-.913-3.471-3.271 0-2.693 2.247-3.694 4.65-3.694 1.647 0 3.204.423 3.738.645V9.09l-1.846-.111-.245-1.291c-.022-.155-.067-.244-.245-.311-.289-.089-.912-.223-1.602-.223-1.424 0-2.114.512-2.114 1.402 0 1.179 1.246 1.447 2.648 1.78zm1.002 15.51v3.004l-1.847-.111-.245-1.29c-.022-.156-.067-.245-.245-.312-.289-.089-.912-.222-1.602-.222-1.424 0-2.114.511-2.114 1.401 0 1.18 1.246 1.447 2.648 1.78 1.758.423 3.738.957 3.738 3.494 0 2.626-2.18 3.605-4.717 3.605-1.913 0-3.782-.512-4.183-.779V33.39l1.847.111.222 1.357c.023.178.067.245.267.312.29.111 1.002.311 2.003.311 1.38 0 2.225-.4 2.225-1.535 0-1.246-1.424-1.446-2.915-1.78-1.691-.379-3.471-.912-3.471-3.271 0-2.692 2.247-3.694 4.651-3.694 1.646 0 3.204.423 3.738.645zm-11.104-9.991l-.066-.023c-.979.935-2.181 1.602-3.917 1.602-2.803 0-3.181-1.913-3.181-3.159 0-2.225 1.379-3.293 4.094-3.516l2.826-.222V9.402c0-2.302-.245-2.159-1.958-2.159-1.224 0-2.047.089-2.047 1.625l-2.404-.223c0-2.848 2.604-3.204 4.495-3.204 3.227 0 4.428.912 4.428 3.983v5.719c0 .355.022.4.356.445l1.09.155v1.424h-3.493l-.223-1.312zm-.244-3.694l-2.114.178c-1.669.133-2.181.623-2.181 1.691s.512 1.424 1.424 1.424c1.091 0 2.203-.667 2.871-1.335v-1.958zm1.157 18.848c0 3.738-1.736 6.186-5.652 6.186-4.072 0-5.54-2.493-5.54-5.897 0-3.694 1.847-6.097 5.763-6.097s5.429 2.426 5.429 5.808zm-8.522.155c0 2.849 1.023 4.139 2.937 4.139 1.891 0 2.937-1.246 2.937-4.161 0-2.826-.957-4.005-2.848-4.005s-3.026 1.179-3.026 4.027zM.851 15.743l1.402-.155c.311-.045.356-.112.356-.445V3.105c0-.334-.045-.401-.356-.445L.851 2.504V1.058h6.564v1.446l-1.847.178c-.333.022-.356.111-.356.423v12.171h4.985c.244 0 .311-.022.356-.245l.356-2.114h1.869v4.25H.851v-1.424zm5.541 9.458c1.691 0 3.048.467 3.627.801v3.16l-1.847-.089-.267-1.469c-.023-.155-.067-.244-.245-.311-.289-.111-.823-.2-1.38-.2-1.713 0-3.137 1.068-3.137 4.027 0 3.026 1.402 4.028 3.338 4.028a6.16 6.16 0 0 0 2.826-.69l.734 1.735c-.935.579-2.448 1.002-3.983 1.002-3.894 0-5.585-2.47-5.585-5.875 0-4.183 2.47-6.119 5.919-6.119zM1.608 41.735l-1.269-.423.223-1.424h3.894v14.775c0 .356.022.4.356.445l1.246.156v1.424H.273v-1.402l1.268-.178c.311-.045.356-.111.356-.445V42.202c0-.245-.067-.4-.289-.467zm4.784 22.987c1.691 0 3.048.467 3.627.801v3.159l-1.847-.089-.267-1.468c-.023-.156-.067-.245-.245-.312-.289-.111-.823-.2-1.38-.2-1.713 0-3.137 1.068-3.137 4.027 0 3.027 1.402 4.028 3.338 4.028a6.16 6.16 0 0 0 2.826-.69l.734 1.736c-.935.578-2.448 1.001-3.983 1.001-3.894 0-5.585-2.47-5.585-5.874 0-4.184 2.47-6.119 5.919-6.119zm1.001-10.927c0-2.225 1.379-3.293 4.094-3.516l2.826-.222v-1.135c0-1.402-.245-2.158-1.958-2.158-1.224 0-2.048.089-2.048 1.624l-2.403-.222c0-2.849 2.604-3.205 4.495-3.205 3.227 0 4.428.913 4.428 3.983v5.719c0 .356.022.4.356.445l1.09.156v1.424H14.78l-.223-1.313-.066-.022c-.979.934-2.181 1.602-3.916 1.602-2.804 0-3.182-1.914-3.182-3.16zm4.049 1.179c1.091 0 2.203-.667 2.871-1.335v-1.958l-2.114.178c-1.669.134-2.181.623-2.181 1.691s.512 1.424 1.424 1.424zm4.005 9.97v7.432c0 1.491.245 2.292 1.491 2.292 1.291 0 2.403-.846 3.093-1.558v-5.963c0-.356-.022-.401-.356-.49l-1.068-.267.2-1.446h3.783v9.479c0 .289.045.423.289.445l1.157.156v1.424h-3.515l-.201-1.357-.066-.023c-.979.779-2.225 1.647-4.161 1.647-2.403 0-3.204-1.224-3.204-3.783v-5.785c0-.356-.023-.401-.357-.49l-1.134-.267.2-1.446h3.849zm8.388-19.76h5.252v1.468l-1.491.178 2.737 7.41h.089l2.759-7.41-1.469-.178.245-1.468h4.584v1.468l-.757.134c-.289.044-.445.089-.556.378l-3.649 9.524h-2.96l-3.671-9.457c-.111-.267-.2-.311-.467-.378l-.935-.201.289-1.468zm6.832 19.538c2.803 0 4.717 1.49 4.717 5.362a14.97 14.97 0 0 1-.067 1.291H28.13c.111 2.069.912 3.293 3.071 3.293 1.09 0 1.935-.223 3.27-.779l.713 1.78c-1.224.623-2.648 1.046-4.273 1.046-4.138 0-5.496-2.648-5.496-6.075 0-4.027 2.337-5.918 5.252-5.918zm2.158 4.806c0-2.181-1.001-2.871-2.203-2.871-1.268 0-2.359.846-2.47 2.871h4.673zm7.053-26.525c-1.068 0-1.669-.6-1.669-1.669 0-1.045.601-1.624 1.669-1.624 1.046 0 1.669.579 1.669 1.624 0 1.069-.623 1.669-1.669 1.669zm1.913 12.105l1.313.156v1.424h-5.919v-1.402l1.335-.178c.312-.045.356-.111.356-.445v-7.165c0-.245-.066-.401-.289-.467l-1.224-.423.223-1.424h3.849v9.479c0 .356.023.4.356.445zM39.01 74.379c.023.178.067.244.267.311.29.111 1.002.312 2.003.312 1.38 0 2.225-.401 2.225-1.536 0-1.246-1.424-1.446-2.915-1.78-1.691-.378-3.471-.912-3.471-3.271 0-2.692 2.247-3.693 4.65-3.693 1.647 0 3.205.422 3.739.645v3.004l-1.847-.112-.245-1.29c-.022-.156-.067-.245-.245-.312-.289-.089-.912-.222-1.602-.222-1.424 0-2.114.512-2.114 1.402 0 1.179 1.246 1.446 2.648 1.78 1.758.423 3.738.957 3.738 3.493 0 2.626-2.18 3.605-4.717 3.605-1.913 0-3.782-.512-4.183-.779V72.91l1.847.111.222 1.358zm12.817-44.283c1.758.423 3.738.957 3.738 3.494 0 2.626-2.181 3.605-4.717 3.605-1.914 0-3.783-.512-4.183-.779V33.39l1.847.111.222 1.357c.022.178.067.245.267.312.289.111 1.001.311 2.003.311 1.379 0 2.225-.4 2.225-1.535 0-1.246-1.424-1.446-2.915-1.78-1.691-.379-3.471-.912-3.471-3.271 0-2.692 2.247-3.694 4.65-3.694 1.647 0 3.204.423 3.738.645v3.004l-1.847-.111-.244-1.29c-.022-.156-.067-.245-.245-.312-.289-.089-.912-.222-1.602-.222-1.424 0-2.114.511-2.114 1.401 0 1.18 1.246 1.447 2.648 1.78zm-2.715 14.865c1.335 0 2.447.379 3.293 1.002V42.18c0-.223-.067-.378-.289-.445l-1.269-.423.223-1.424h3.827v14.775c0 .356.022.4.356.445l1.09.156v1.424h-3.538l-.2-1.313-.133-.022c-.979.979-2.092 1.602-3.783 1.602-2.559 0-4.25-1.647-4.25-5.808 0-4.428 2.092-6.186 4.673-6.186zm.289 9.902c1.09 0 2.158-.667 2.937-1.491v-5.295c-.645-.534-1.602-1.068-2.581-1.068-1.914 0-2.67 1.691-2.67 4.071 0 2.737.823 3.783 2.314 3.783zm.356 6.966h1.624v2.893c0 .155 0 .222.179.222h3.226v1.825h-3.405v6.052c0 1.379.356 1.891 1.603 1.891.667 0 1.357-.178 1.935-.378l.512 1.602c-.912.423-2.114.779-3.293.779-2.336 0-3.315-1.024-3.315-3.226v-6.498c0-.133 0-.222-.178-.222h-1.602v-1.58c1.735-.223 2.425-1.402 2.714-3.36zm10.925 8.211l2.826-.223v-1.135c0-1.402-.245-2.158-1.958-2.158-1.224 0-2.047.089-2.047 1.624l-2.403-.222c0-2.848 2.603-3.204 4.494-3.204 3.227 0 4.428.912 4.428 3.982v5.719c0 .356.023.401.356.445l1.091.156v1.424h-3.494l-.222-1.313-.067-.022c-.979.934-2.181 1.602-3.916 1.602-2.804 0-3.182-1.914-3.182-3.16 0-2.225 1.379-3.293 4.094-3.515zm-.044 4.695c1.09 0 2.202-.668 2.87-1.336v-1.958l-2.114.178c-1.669.134-2.181.624-2.181 1.692s.512 1.424 1.425 1.424zm2.135-27.971c-1.224 0-2.047.089-2.047 1.624l-2.403-.222c0-2.849 2.603-3.205 4.495-3.205 3.226 0 4.428.913 4.428 3.983v5.719c0 .356.022.4.356.445l1.09.156v1.424h-3.494l-.222-1.313-.067-.022c-.979.934-2.18 1.602-3.916 1.602-2.804 0-3.182-1.914-3.182-3.16 0-2.225 1.38-3.293 4.094-3.516l2.826-.222v-1.135c0-1.402-.244-2.158-1.958-2.158zm-.156 5.095c-1.668.134-2.18.623-2.18 1.691s.512 1.424 1.424 1.424c1.09 0 2.203-.667 2.87-1.335v-1.958l-2.114.178zm7.143 14.932l-1.224-.423.223-1.424h3.293l.178 1.224.089.022c1.246-.845 2.559-1.468 4.161-1.468 2.403 0 3.315 1.513 3.315 4.072v5.629c0 .356.023.401.356.445l1.224.156v1.424h-5.607v-1.402l1.112-.133c.312-.045.356-.178.356-.445v-5.163c0-1.335-.155-2.447-1.579-2.447-1.135 0-2.314.623-3.049 1.157v6.408c0 .356.022.401.356.445l1.18.156v1.424h-5.519v-1.446l1.068-.134c.312-.044.356-.111.356-.445v-7.165c0-.245-.066-.4-.289-.467zm11.881-19.694c-1.135 0-2.314.624-3.048 1.158v6.408c0 .356.022.4.356.445l1.179.156v1.424H74.61v-1.447l1.068-.133c.311-.045.356-.111.356-.445v-7.165c0-.245-.067-.401-.289-.467l-1.224-.423.222-1.424h3.294l.178 1.224.089.022c1.246-.846 2.558-1.469 4.161-1.469 2.403 0 3.315 1.513 3.315 4.072v5.63c0 .356.022.4.356.445l1.224.156v1.424h-5.607v-1.402l1.112-.134c.312-.044.356-.178.356-.445v-5.162c0-1.335-.156-2.448-1.58-2.448zm12.482 9.858c-4.071 0-5.54-2.492-5.54-5.897 0-3.693 1.847-6.097 5.763-6.097s5.429 2.426 5.429 5.808c0 3.738-1.735 6.186-5.652 6.186zm.156-10.058c-1.891 0-3.026 1.18-3.026 4.028s1.024 4.138 2.937 4.138c1.892 0 2.937-1.246 2.937-4.161 0-2.825-.956-4.005-2.848-4.005zm-5.785 19.894l-1.223-.423.222-1.424h3.293l.178 1.224.089.022c1.246-.845 2.559-1.468 4.161-1.468 2.403 0 3.316 1.513 3.316 4.072v5.629c0 .356.022.401.356.445l1.224.156v1.424h-5.608v-1.402l1.113-.133c.311-.045.356-.178.356-.445v-5.163c0-1.335-.156-2.447-1.58-2.447-1.135 0-2.314.623-3.048 1.157v6.408c0 .356.022.401.356.445l1.179.156v1.424H87.36v-1.446l1.068-.134c.311-.044.356-.111.356-.445v-7.165c0-.245-.067-.4-.29-.467z"/></svg>